solid OpenSCAD_Model
  facet normal -0.995974 -0.0896385 0
    outer loop
      vertex -5.25 -8 -1.5
      vertex -5.29419 -7.50897 1.5
      vertex -5.29419 -7.50897 -1.5
    endloop
  endfacet
  facet normal -0.995974 -0.0896385 0
    outer loop
      vertex -5.29419 -7.50897 1.5
      vertex -5.25 -8 -1.5
      vertex -5.25 -8 1.5
    endloop
  endfacet
  facet normal 1 -0 0
    outer loop
      vertex -10.7389 -8.24651 1.5
      vertex -10.7389 -7.75349 -1.5
      vertex -10.7389 -7.75349 1.5
    endloop
  endfacet
  facet normal 1 0 0
    outer loop
      vertex -10.7389 -7.75349 -1.5
      vertex -10.7389 -8.24651 1.5
      vertex -10.7389 -8.24651 -1.5
    endloop
  endfacet
  facet normal -0.0448657 -0.998993 0
    outer loop
      vertex -8.12338 -5.25277 -1.5
      vertex -7.63086 -5.27489 1.5
      vertex -8.12338 -5.25277 1.5
    endloop
  endfacet
  facet normal -0.0448657 -0.998993 -0
    outer loop
      vertex -7.63086 -5.27489 1.5
      vertex -8.12338 -5.25277 -1.5
      vertex -7.63086 -5.27489 -1.5
    endloop
  endfacet
  facet normal -0.0448657 0.998993 0
    outer loop
      vertex -7.63086 -10.7251 -1.5
      vertex -8.12338 -10.7472 1.5
      vertex -7.63086 -10.7251 1.5
    endloop
  endfacet
  facet normal -0.0448657 0.998993 0
    outer loop
      vertex -8.12338 -10.7472 1.5
      vertex -7.63086 -10.7251 -1.5
      vertex -8.12338 -10.7472 -1.5
    endloop
  endfacet
  facet normal -0.809016 0.587786 0
    outer loop
      vertex -5.92905 -9.80933 -1.5
      vertex -5.63927 -9.41047 1.5
      vertex -5.63927 -9.41047 -1.5
    endloop
  endfacet
  facet normal -0.809016 0.587786 0
    outer loop
      vertex -5.63927 -9.41047 1.5
      vertex -5.92905 -9.80933 -1.5
      vertex -5.92905 -9.80933 1.5
    endloop
  endfacet
  facet normal -0.691063 -0.722794 0
    outer loop
      vertex -6.2854 -5.84996 -1.5
      vertex -5.92905 -6.19067 1.5
      vertex -6.2854 -5.84996 1.5
    endloop
  endfacet
  facet normal -0.691063 -0.722794 -0
    outer loop
      vertex -5.92905 -6.19067 1.5
      vertex -6.2854 -5.84996 -1.5
      vertex -5.92905 -6.19067 -1.5
    endloop
  endfacet
  facet normal 0.753071 -0.657939 0
    outer loop
      vertex -10.2248 -6.38359 1.5
      vertex -9.90042 -6.01231 -1.5
      vertex -9.90042 -6.01231 1.5
    endloop
  endfacet
  facet normal 0.753071 -0.657939 0
    outer loop
      vertex -9.90042 -6.01231 -1.5
      vertex -10.2248 -6.38359 1.5
      vertex -10.2248 -6.38359 -1.5
    endloop
  endfacet
  facet normal 0.473868 -0.880596 0
    outer loop
      vertex -9.51497 -5.70492 -1.5
      vertex -9.08082 -5.4713 1.5
      vertex -9.51497 -5.70492 1.5
    endloop
  endfacet
  facet normal 0.473868 -0.880596 0
    outer loop
      vertex -9.08082 -5.4713 1.5
      vertex -9.51497 -5.70492 -1.5
      vertex -9.08082 -5.4713 -1.5
    endloop
  endfacet
  facet normal -0.90097 -0.433882 0
    outer loop
      vertex -5.42535 -7.03372 -1.5
      vertex -5.63927 -6.58953 1.5
      vertex -5.63927 -6.58953 -1.5
    endloop
  endfacet
  facet normal -0.90097 -0.433882 0
    outer loop
      vertex -5.63927 -6.58953 1.5
      vertex -5.42535 -7.03372 -1.5
      vertex -5.42535 -7.03372 1.5
    endloop
  endfacet
  facet normal -0.963963 -0.266037 0
    outer loop
      vertex -5.29419 -7.50897 -1.5
      vertex -5.42535 -7.03372 1.5
      vertex -5.42535 -7.03372 -1.5
    endloop
  endfacet
  facet normal -0.963963 -0.266037 0
    outer loop
      vertex -5.42535 -7.03372 1.5
      vertex -5.29419 -7.50897 -1.5
      vertex -5.29419 -7.50897 1.5
    endloop
  endfacet
  facet normal -0.809016 -0.587786 0
    outer loop
      vertex -5.63927 -6.58953 -1.5
      vertex -5.92905 -6.19067 1.5
      vertex -5.92905 -6.19067 -1.5
    endloop
  endfacet
  facet normal -0.809016 -0.587786 0
    outer loop
      vertex -5.92905 -6.19067 1.5
      vertex -5.63927 -6.58953 -1.5
      vertex -5.63927 -6.58953 1.5
    endloop
  endfacet
  facet normal -0.393025 -0.919528 0
    outer loop
      vertex -7.1502 -5.38459 -1.5
      vertex -6.69686 -5.57836 1.5
      vertex -7.1502 -5.38459 1.5
    endloop
  endfacet
  facet normal -0.393025 -0.919528 -0
    outer loop
      vertex -6.69686 -5.57836 1.5
      vertex -7.1502 -5.38459 -1.5
      vertex -6.69686 -5.57836 -1.5
    endloop
  endfacet
  facet normal -0.22252 -0.974928 0
    outer loop
      vertex -7.63086 -5.27489 -1.5
      vertex -7.1502 -5.38459 1.5
      vertex -7.63086 -5.27489 1.5
    endloop
  endfacet
  facet normal -0.22252 -0.974928 -0
    outer loop
      vertex -7.1502 -5.38459 1.5
      vertex -7.63086 -5.27489 -1.5
      vertex -7.1502 -5.38459 -1.5
    endloop
  endfacet
  facet normal -0.550898 -0.834573 0
    outer loop
      vertex -6.69686 -5.57836 -1.5
      vertex -6.2854 -5.84996 1.5
      vertex -6.69686 -5.57836 1.5
    endloop
  endfacet
  facet normal -0.550898 -0.834573 -0
    outer loop
      vertex -6.2854 -5.84996 1.5
      vertex -6.69686 -5.57836 -1.5
      vertex -6.2854 -5.84996 -1.5
    endloop
  endfacet
  facet normal 0.936235 -0.351374 0
    outer loop
      vertex -10.6509 -7.2684 1.5
      vertex -10.4777 -6.80682 -1.5
      vertex -10.4777 -6.80682 1.5
    endloop
  endfacet
  facet normal 0.936235 -0.351374 0
    outer loop
      vertex -10.4777 -6.80682 -1.5
      vertex -10.6509 -7.2684 1.5
      vertex -10.6509 -7.2684 -1.5
    endloop
  endfacet
  facet normal 0.858449 -0.512899 0
    outer loop
      vertex -10.4777 -6.80682 1.5
      vertex -10.2248 -6.38359 -1.5
      vertex -10.2248 -6.38359 1.5
    endloop
  endfacet
  facet normal 0.858449 -0.512899 0
    outer loop
      vertex -10.2248 -6.38359 -1.5
      vertex -10.4777 -6.80682 1.5
      vertex -10.4777 -6.80682 -1.5
    endloop
  endfacet
  facet normal 0.983929 -0.178558 0
    outer loop
      vertex -10.7389 -7.75349 1.5
      vertex -10.6509 -7.2684 -1.5
      vertex -10.6509 -7.2684 1.5
    endloop
  endfacet
  facet normal 0.983929 -0.178558 0
    outer loop
      vertex -10.6509 -7.2684 -1.5
      vertex -10.7389 -7.75349 1.5
      vertex -10.7389 -7.75349 -1.5
    endloop
  endfacet
  facet normal 0.62349 -0.781831 0
    outer loop
      vertex -9.90042 -6.01231 -1.5
      vertex -9.51497 -5.70492 1.5
      vertex -9.90042 -6.01231 1.5
    endloop
  endfacet
  facet normal 0.62349 -0.781831 0
    outer loop
      vertex -9.51497 -5.70492 1.5
      vertex -9.90042 -6.01231 -1.5
      vertex -9.51497 -5.70492 -1.5
    endloop
  endfacet
  facet normal 0.134234 -0.99095 0
    outer loop
      vertex -8.61193 -5.31895 -1.5
      vertex -8.12338 -5.25277 1.5
      vertex -8.61193 -5.31895 1.5
    endloop
  endfacet
  facet normal 0.134234 -0.99095 0
    outer loop
      vertex -8.12338 -5.25277 1.5
      vertex -8.61193 -5.31895 -1.5
      vertex -8.12338 -5.25277 -1.5
    endloop
  endfacet
  facet normal -0.995974 0.0896387 0
    outer loop
      vertex -5.29419 -8.49103 -1.5
      vertex -5.25 -8 1.5
      vertex -5.25 -8 -1.5
    endloop
  endfacet
  facet normal -0.995974 0.0896387 0
    outer loop
      vertex -5.25 -8 1.5
      vertex -5.29419 -8.49103 -1.5
      vertex -5.29419 -8.49103 1.5
    endloop
  endfacet
  facet normal -0.22252 0.974928 0
    outer loop
      vertex -7.1502 -10.6154 -1.5
      vertex -7.63086 -10.7251 1.5
      vertex -7.1502 -10.6154 1.5
    endloop
  endfacet
  facet normal -0.22252 0.974928 0
    outer loop
      vertex -7.63086 -10.7251 1.5
      vertex -7.1502 -10.6154 -1.5
      vertex -7.63086 -10.7251 -1.5
    endloop
  endfacet
  facet normal -0.90097 0.433882 0
    outer loop
      vertex -5.63927 -9.41047 -1.5
      vertex -5.42535 -8.96628 1.5
      vertex -5.42535 -8.96628 -1.5
    endloop
  endfacet
  facet normal -0.90097 0.433882 0
    outer loop
      vertex -5.42535 -8.96628 1.5
      vertex -5.63927 -9.41047 -1.5
      vertex -5.63927 -9.41047 1.5
    endloop
  endfacet
  facet normal 0.309017 0.951057 -0
    outer loop
      vertex -8.61193 -10.6811 -1.5
      vertex -9.08082 -10.5287 1.5
      vertex -8.61193 -10.6811 1.5
    endloop
  endfacet
  facet normal 0.309017 0.951057 0
    outer loop
      vertex -9.08082 -10.5287 1.5
      vertex -8.61193 -10.6811 -1.5
      vertex -9.08082 -10.5287 -1.5
    endloop
  endfacet
  facet normal -0.550898 0.834573 0
    outer loop
      vertex -6.2854 -10.15 -1.5
      vertex -6.69686 -10.4216 1.5
      vertex -6.2854 -10.15 1.5
    endloop
  endfacet
  facet normal -0.550898 0.834573 0
    outer loop
      vertex -6.69686 -10.4216 1.5
      vertex -6.2854 -10.15 -1.5
      vertex -6.69686 -10.4216 -1.5
    endloop
  endfacet
  facet normal -0.393025 0.919528 0
    outer loop
      vertex -6.69686 -10.4216 -1.5
      vertex -7.1502 -10.6154 1.5
      vertex -6.69686 -10.4216 1.5
    endloop
  endfacet
  facet normal -0.393025 0.919528 0
    outer loop
      vertex -7.1502 -10.6154 1.5
      vertex -6.69686 -10.4216 -1.5
      vertex -7.1502 -10.6154 -1.5
    endloop
  endfacet
  facet normal 0.309017 -0.951057 0
    outer loop
      vertex -9.08082 -5.4713 -1.5
      vertex -8.61193 -5.31895 1.5
      vertex -9.08082 -5.4713 1.5
    endloop
  endfacet
  facet normal 0.309017 -0.951057 0
    outer loop
      vertex -8.61193 -5.31895 1.5
      vertex -9.08082 -5.4713 -1.5
      vertex -8.61193 -5.31895 -1.5
    endloop
  endfacet
  facet normal -0.963963 0.266037 0
    outer loop
      vertex -5.42535 -8.96628 -1.5
      vertex -5.29419 -8.49103 1.5
      vertex -5.29419 -8.49103 -1.5
    endloop
  endfacet
  facet normal -0.963963 0.266037 0
    outer loop
      vertex -5.29419 -8.49103 1.5
      vertex -5.42535 -8.96628 -1.5
      vertex -5.42535 -8.96628 1.5
    endloop
  endfacet
  facet normal 0.134234 0.99095 -0
    outer loop
      vertex -8.12338 -10.7472 -1.5
      vertex -8.61193 -10.6811 1.5
      vertex -8.12338 -10.7472 1.5
    endloop
  endfacet
  facet normal 0.134234 0.99095 0
    outer loop
      vertex -8.61193 -10.6811 1.5
      vertex -8.12338 -10.7472 -1.5
      vertex -8.61193 -10.6811 -1.5
    endloop
  endfacet
  facet normal 0.473868 0.880596 -0
    outer loop
      vertex -9.08082 -10.5287 -1.5
      vertex -9.51497 -10.2951 1.5
      vertex -9.08082 -10.5287 1.5
    endloop
  endfacet
  facet normal 0.473868 0.880596 0
    outer loop
      vertex -9.51497 -10.2951 1.5
      vertex -9.08082 -10.5287 -1.5
      vertex -9.51497 -10.2951 -1.5
    endloop
  endfacet
  facet normal 0.753071 0.657939 0
    outer loop
      vertex -9.90042 -9.98769 1.5
      vertex -10.2248 -9.61641 -1.5
      vertex -10.2248 -9.61641 1.5
    endloop
  endfacet
  facet normal 0.753071 0.657939 0
    outer loop
      vertex -10.2248 -9.61641 -1.5
      vertex -9.90042 -9.98769 1.5
      vertex -9.90042 -9.98769 -1.5
    endloop
  endfacet
  facet normal 0.858449 0.512899 0
    outer loop
      vertex -10.2248 -9.61641 1.5
      vertex -10.4777 -9.19318 -1.5
      vertex -10.4777 -9.19318 1.5
    endloop
  endfacet
  facet normal 0.858449 0.512899 0
    outer loop
      vertex -10.4777 -9.19318 -1.5
      vertex -10.2248 -9.61641 1.5
      vertex -10.2248 -9.61641 -1.5
    endloop
  endfacet
  facet normal 0.936235 0.351374 0
    outer loop
      vertex -10.4777 -9.19318 1.5
      vertex -10.6509 -8.7316 -1.5
      vertex -10.6509 -8.7316 1.5
    endloop
  endfacet
  facet normal 0.936235 0.351374 0
    outer loop
      vertex -10.6509 -8.7316 -1.5
      vertex -10.4777 -9.19318 1.5
      vertex -10.4777 -9.19318 -1.5
    endloop
  endfacet
  facet normal 0.983929 0.178558 0
    outer loop
      vertex -10.6509 -8.7316 1.5
      vertex -10.7389 -8.24651 -1.5
      vertex -10.7389 -8.24651 1.5
    endloop
  endfacet
  facet normal 0.983929 0.178558 0
    outer loop
      vertex -10.7389 -8.24651 -1.5
      vertex -10.6509 -8.7316 1.5
      vertex -10.6509 -8.7316 -1.5
    endloop
  endfacet
  facet normal -0.691063 0.722794 0
    outer loop
      vertex -5.92905 -9.80933 -1.5
      vertex -6.2854 -10.15 1.5
      vertex -5.92905 -9.80933 1.5
    endloop
  endfacet
  facet normal -0.691063 0.722794 0
    outer loop
      vertex -6.2854 -10.15 1.5
      vertex -5.92905 -9.80933 -1.5
      vertex -6.2854 -10.15 -1.5
    endloop
  endfacet
  facet normal 0.62349 0.781831 -0
    outer loop
      vertex -9.51497 -10.2951 -1.5
      vertex -9.90042 -9.98769 1.5
      vertex -9.51497 -10.2951 1.5
    endloop
  endfacet
  facet normal 0.62349 0.781831 0
    outer loop
      vertex -9.90042 -9.98769 1.5
      vertex -9.51497 -10.2951 -1.5
      vertex -9.90042 -9.98769 -1.5
    endloop
  endfacet
  facet normal -0.900972 -0.433878 0
    outer loop
      vertex -5.42535 64.9663 -1.5
      vertex -5.63927 65.4105 1.5
      vertex -5.63927 65.4105 -1.5
    endloop
  endfacet
  facet normal -0.900972 -0.433878 0
    outer loop
      vertex -5.63927 65.4105 1.5
      vertex -5.42535 64.9663 -1.5
      vertex -5.42535 64.9663 1.5
    endloop
  endfacet
  facet normal -0.809015 -0.587787 0
    outer loop
      vertex -5.63927 65.4105 -1.5
      vertex -5.92905 65.8093 1.5
      vertex -5.92905 65.8093 -1.5
    endloop
  endfacet
  facet normal -0.809015 -0.587787 0
    outer loop
      vertex -5.92905 65.8093 1.5
      vertex -5.63927 65.4105 -1.5
      vertex -5.63927 65.4105 1.5
    endloop
  endfacet
  facet normal -0.222529 -0.974926 0
    outer loop
      vertex -7.63086 66.7251 -1.5
      vertex -7.1502 66.6154 1.5
      vertex -7.63086 66.7251 1.5
    endloop
  endfacet
  facet normal -0.222529 -0.974926 -0
    outer loop
      vertex -7.1502 66.6154 1.5
      vertex -7.63086 66.7251 -1.5
      vertex -7.1502 66.6154 -1.5
    endloop
  endfacet
  facet normal -0.393018 -0.919531 0
    outer loop
      vertex -7.1502 66.6154 -1.5
      vertex -6.69686 66.4216 1.5
      vertex -7.1502 66.6154 1.5
    endloop
  endfacet
  facet normal -0.393018 -0.919531 -0
    outer loop
      vertex -6.69686 66.4216 1.5
      vertex -7.1502 66.6154 -1.5
      vertex -6.69686 66.4216 -1.5
    endloop
  endfacet
  facet normal 0.473872 -0.880593 0
    outer loop
      vertex -9.51497 66.2951 -1.5
      vertex -9.08082 66.5287 1.5
      vertex -9.51497 66.2951 1.5
    endloop
  endfacet
  facet normal 0.473872 -0.880593 0
    outer loop
      vertex -9.08082 66.5287 1.5
      vertex -9.51497 66.2951 -1.5
      vertex -9.08082 66.5287 -1.5
    endloop
  endfacet
  facet normal 0.936235 -0.351374 0
    outer loop
      vertex -10.6509 64.7316 1.5
      vertex -10.4777 65.1932 -1.5
      vertex -10.4777 65.1932 1.5
    endloop
  endfacet
  facet normal 0.936235 -0.351374 0
    outer loop
      vertex -10.4777 65.1932 -1.5
      vertex -10.6509 64.7316 1.5
      vertex -10.6509 64.7316 -1.5
    endloop
  endfacet
  facet normal -0.995974 0.0896385 0
    outer loop
      vertex -5.29419 63.509 -1.5
      vertex -5.25 64 1.5
      vertex -5.25 64 -1.5
    endloop
  endfacet
  facet normal -0.995974 0.0896385 0
    outer loop
      vertex -5.25 64 1.5
      vertex -5.29419 63.509 -1.5
      vertex -5.29419 63.509 1.5
    endloop
  endfacet
  facet normal -0.691064 -0.722793 0
    outer loop
      vertex -6.2854 66.15 -1.5
      vertex -5.92905 65.8093 1.5
      vertex -6.2854 66.15 1.5
    endloop
  endfacet
  facet normal -0.691064 -0.722793 -0
    outer loop
      vertex -5.92905 65.8093 1.5
      vertex -6.2854 66.15 -1.5
      vertex -5.92905 65.8093 -1.5
    endloop
  endfacet
  facet normal -0.0448619 -0.998993 0
    outer loop
      vertex -8.12338 66.7472 -1.5
      vertex -7.63086 66.7251 1.5
      vertex -8.12338 66.7472 1.5
    endloop
  endfacet
  facet normal -0.0448619 -0.998993 -0
    outer loop
      vertex -7.63086 66.7251 1.5
      vertex -8.12338 66.7472 -1.5
      vertex -7.63086 66.7251 -1.5
    endloop
  endfacet
  facet normal -0.550894 -0.834575 0
    outer loop
      vertex -6.69686 66.4216 -1.5
      vertex -6.2854 66.15 1.5
      vertex -6.69686 66.4216 1.5
    endloop
  endfacet
  facet normal -0.550894 -0.834575 -0
    outer loop
      vertex -6.2854 66.15 1.5
      vertex -6.69686 66.4216 -1.5
      vertex -6.2854 66.15 -1.5
    endloop
  endfacet
  facet normal 1 -0 0
    outer loop
      vertex -10.7389 63.7535 1.5
      vertex -10.7389 64.2465 -1.5
      vertex -10.7389 64.2465 1.5
    endloop
  endfacet
  facet normal 1 0 0
    outer loop
      vertex -10.7389 64.2465 -1.5
      vertex -10.7389 63.7535 1.5
      vertex -10.7389 63.7535 -1.5
    endloop
  endfacet
  facet normal 0.858451 -0.512896 0
    outer loop
      vertex -10.4777 65.1932 1.5
      vertex -10.2248 65.6164 -1.5
      vertex -10.2248 65.6164 1.5
    endloop
  endfacet
  facet normal 0.858451 -0.512896 0
    outer loop
      vertex -10.2248 65.6164 -1.5
      vertex -10.4777 65.1932 1.5
      vertex -10.4777 65.1932 -1.5
    endloop
  endfacet
  facet normal 0.623486 -0.781834 0
    outer loop
      vertex -9.90042 65.9877 -1.5
      vertex -9.51497 66.2951 1.5
      vertex -9.90042 65.9877 1.5
    endloop
  endfacet
  facet normal 0.623486 -0.781834 0
    outer loop
      vertex -9.51497 66.2951 1.5
      vertex -9.90042 65.9877 -1.5
      vertex -9.51497 66.2951 -1.5
    endloop
  endfacet
  facet normal 0.13423 -0.99095 0
    outer loop
      vertex -8.61193 66.6811 -1.5
      vertex -8.12338 66.7472 1.5
      vertex -8.61193 66.6811 1.5
    endloop
  endfacet
  facet normal 0.13423 -0.99095 0
    outer loop
      vertex -8.12338 66.7472 1.5
      vertex -8.61193 66.6811 -1.5
      vertex -8.12338 66.7472 -1.5
    endloop
  endfacet
  facet normal 0.753072 -0.657938 0
    outer loop
      vertex -10.2248 65.6164 1.5
      vertex -9.90042 65.9877 -1.5
      vertex -9.90042 65.9877 1.5
    endloop
  endfacet
  facet normal 0.753072 -0.657938 0
    outer loop
      vertex -9.90042 65.9877 -1.5
      vertex -10.2248 65.6164 1.5
      vertex -10.2248 65.6164 -1.5
    endloop
  endfacet
  facet normal -0.995974 -0.0896392 0
    outer loop
      vertex -5.25 64 -1.5
      vertex -5.29419 64.491 1.5
      vertex -5.29419 64.491 -1.5
    endloop
  endfacet
  facet normal -0.995974 -0.0896392 0
    outer loop
      vertex -5.29419 64.491 1.5
      vertex -5.25 64 -1.5
      vertex -5.25 64 1.5
    endloop
  endfacet
  facet normal -0.550899 0.834572 0
    outer loop
      vertex -6.2854 61.85 -1.5
      vertex -6.69686 61.5784 1.5
      vertex -6.2854 61.85 1.5
    endloop
  endfacet
  facet normal -0.550899 0.834572 0
    outer loop
      vertex -6.69686 61.5784 1.5
      vertex -6.2854 61.85 -1.5
      vertex -6.69686 61.5784 -1.5
    endloop
  endfacet
  facet normal -0.900969 0.433884 0
    outer loop
      vertex -5.63927 62.5895 -1.5
      vertex -5.42535 63.0337 1.5
      vertex -5.42535 63.0337 -1.5
    endloop
  endfacet
  facet normal -0.900969 0.433884 0
    outer loop
      vertex -5.42535 63.0337 1.5
      vertex -5.63927 62.5895 -1.5
      vertex -5.63927 62.5895 1.5
    endloop
  endfacet
  facet normal 0.13423 0.99095 -0
    outer loop
      vertex -8.12338 61.2528 -1.5
      vertex -8.61193 61.3189 1.5
      vertex -8.12338 61.2528 1.5
    endloop
  endfacet
  facet normal 0.13423 0.99095 0
    outer loop
      vertex -8.61193 61.3189 1.5
      vertex -8.12338 61.2528 -1.5
      vertex -8.61193 61.3189 -1.5
    endloop
  endfacet
  facet normal -0.963963 -0.266037 0
    outer loop
      vertex -5.29419 64.491 -1.5
      vertex -5.42535 64.9663 1.5
      vertex -5.42535 64.9663 -1.5
    endloop
  endfacet
  facet normal -0.963963 -0.266037 0
    outer loop
      vertex -5.42535 64.9663 1.5
      vertex -5.29419 64.491 -1.5
      vertex -5.29419 64.491 1.5
    endloop
  endfacet
  facet normal 0.983929 -0.178558 0
    outer loop
      vertex -10.7389 64.2465 1.5
      vertex -10.6509 64.7316 -1.5
      vertex -10.6509 64.7316 1.5
    endloop
  endfacet
  facet normal 0.983929 -0.178558 0
    outer loop
      vertex -10.6509 64.7316 -1.5
      vertex -10.7389 64.2465 1.5
      vertex -10.7389 64.2465 -1.5
    endloop
  endfacet
  facet normal 0.309019 0.951056 -0
    outer loop
      vertex -8.61193 61.3189 -1.5
      vertex -9.08082 61.4713 1.5
      vertex -8.61193 61.3189 1.5
    endloop
  endfacet
  facet normal 0.309019 0.951056 0
    outer loop
      vertex -9.08082 61.4713 1.5
      vertex -8.61193 61.3189 -1.5
      vertex -9.08082 61.4713 -1.5
    endloop
  endfacet
  facet normal 0.983929 0.178558 0
    outer loop
      vertex -10.6509 63.2684 1.5
      vertex -10.7389 63.7535 -1.5
      vertex -10.7389 63.7535 1.5
    endloop
  endfacet
  facet normal 0.983929 0.178558 0
    outer loop
      vertex -10.7389 63.7535 -1.5
      vertex -10.6509 63.2684 1.5
      vertex -10.6509 63.2684 -1.5
    endloop
  endfacet
  facet normal -0.222522 0.974928 0
    outer loop
      vertex -7.1502 61.3846 -1.5
      vertex -7.63086 61.2749 1.5
      vertex -7.1502 61.3846 1.5
    endloop
  endfacet
  facet normal -0.222522 0.974928 0
    outer loop
      vertex -7.63086 61.2749 1.5
      vertex -7.1502 61.3846 -1.5
      vertex -7.63086 61.2749 -1.5
    endloop
  endfacet
  facet normal -0.393025 0.919528 0
    outer loop
      vertex -6.69686 61.5784 -1.5
      vertex -7.1502 61.3846 1.5
      vertex -6.69686 61.5784 1.5
    endloop
  endfacet
  facet normal -0.393025 0.919528 0
    outer loop
      vertex -7.1502 61.3846 1.5
      vertex -6.69686 61.5784 -1.5
      vertex -7.1502 61.3846 -1.5
    endloop
  endfacet
  facet normal 0.309019 -0.951056 0
    outer loop
      vertex -9.08082 66.5287 -1.5
      vertex -8.61193 66.6811 1.5
      vertex -9.08082 66.5287 1.5
    endloop
  endfacet
  facet normal 0.309019 -0.951056 0
    outer loop
      vertex -8.61193 66.6811 1.5
      vertex -9.08082 66.5287 -1.5
      vertex -8.61193 66.6811 -1.5
    endloop
  endfacet
  facet normal -0.963963 0.266037 0
    outer loop
      vertex -5.42535 63.0337 -1.5
      vertex -5.29419 63.509 1.5
      vertex -5.29419 63.509 -1.5
    endloop
  endfacet
  facet normal -0.963963 0.266037 0
    outer loop
      vertex -5.29419 63.509 1.5
      vertex -5.42535 63.0337 -1.5
      vertex -5.42535 63.0337 1.5
    endloop
  endfacet
  facet normal -0.0448619 0.998993 0
    outer loop
      vertex -7.63086 61.2749 -1.5
      vertex -8.12338 61.2528 1.5
      vertex -7.63086 61.2749 1.5
    endloop
  endfacet
  facet normal -0.0448619 0.998993 0
    outer loop
      vertex -8.12338 61.2528 1.5
      vertex -7.63086 61.2749 -1.5
      vertex -8.12338 61.2528 -1.5
    endloop
  endfacet
  facet normal 0.473866 0.880597 -0
    outer loop
      vertex -9.08082 61.4713 -1.5
      vertex -9.51497 61.7049 1.5
      vertex -9.08082 61.4713 1.5
    endloop
  endfacet
  facet normal 0.473866 0.880597 0
    outer loop
      vertex -9.51497 61.7049 1.5
      vertex -9.08082 61.4713 -1.5
      vertex -9.51497 61.7049 -1.5
    endloop
  endfacet
  facet normal 0.936235 0.351374 0
    outer loop
      vertex -10.4777 62.8068 1.5
      vertex -10.6509 63.2684 -1.5
      vertex -10.6509 63.2684 1.5
    endloop
  endfacet
  facet normal 0.936235 0.351374 0
    outer loop
      vertex -10.6509 63.2684 -1.5
      vertex -10.4777 62.8068 1.5
      vertex -10.4777 62.8068 -1.5
    endloop
  endfacet
  facet normal 0.753072 0.657938 0
    outer loop
      vertex -9.90042 62.0123 1.5
      vertex -10.2248 62.3836 -1.5
      vertex -10.2248 62.3836 1.5
    endloop
  endfacet
  facet normal 0.753072 0.657938 0
    outer loop
      vertex -10.2248 62.3836 -1.5
      vertex -9.90042 62.0123 1.5
      vertex -9.90042 62.0123 -1.5
    endloop
  endfacet
  facet normal 0.858449 0.512899 0
    outer loop
      vertex -10.2248 62.3836 1.5
      vertex -10.4777 62.8068 -1.5
      vertex -10.4777 62.8068 1.5
    endloop
  endfacet
  facet normal 0.858449 0.512899 0
    outer loop
      vertex -10.4777 62.8068 -1.5
      vertex -10.2248 62.3836 1.5
      vertex -10.2248 62.3836 -1.5
    endloop
  endfacet
  facet normal -0.69106 0.722797 0
    outer loop
      vertex -5.92905 62.1907 -1.5
      vertex -6.2854 61.85 1.5
      vertex -5.92905 62.1907 1.5
    endloop
  endfacet
  facet normal -0.69106 0.722797 0
    outer loop
      vertex -6.2854 61.85 1.5
      vertex -5.92905 62.1907 -1.5
      vertex -6.2854 61.85 -1.5
    endloop
  endfacet
  facet normal 0.623491 0.78183 -0
    outer loop
      vertex -9.51497 61.7049 -1.5
      vertex -9.90042 62.0123 1.5
      vertex -9.51497 61.7049 1.5
    endloop
  endfacet
  facet normal 0.623491 0.78183 0
    outer loop
      vertex -9.90042 62.0123 1.5
      vertex -9.51497 61.7049 -1.5
      vertex -9.90042 62.0123 -1.5
    endloop
  endfacet
  facet normal -0.809018 0.587784 0
    outer loop
      vertex -5.92905 62.1907 -1.5
      vertex -5.63927 62.5895 1.5
      vertex -5.63927 62.5895 -1.5
    endloop
  endfacet
  facet normal -0.809018 0.587784 0
    outer loop
      vertex -5.63927 62.5895 1.5
      vertex -5.92905 62.1907 -1.5
      vertex -5.92905 62.1907 1.5
    endloop
  endfacet
  facet normal -1 0 0
    outer loop
      vertex -11.9924 -8.24624 -1.5
      vertex -11.9924 64.2462 1.5
      vertex -11.9924 64.2462 -1.5
    endloop
  endfacet
  facet normal -1 -0 0
    outer loop
      vertex -11.9924 64.2462 1.5
      vertex -11.9924 -8.24624 -1.5
      vertex -11.9924 -8.24624 1.5
    endloop
  endfacet
  facet normal -0.552367 0.833601 0
    outer loop
      vertex -10 67.4641 -1.5
      vertex -10.4105 67.1921 1.5
      vertex -10 67.4641 1.5
    endloop
  endfacet
  facet normal -0.552367 0.833601 0
    outer loop
      vertex -10.4105 67.1921 1.5
      vertex -10 67.4641 -1.5
      vertex -10.4105 67.1921 -1.5
    endloop
  endfacet
  facet normal 0 0 1
    outer loop
      vertex -5.63927 62.5895 1.5
      vertex 0 67.9981 1.5
      vertex -5.42535 63.0337 1.5
    endloop
  endfacet
  facet normal 0 0 1
    outer loop
      vertex 0 -11.9981 1.5
      vertex -5.29419 -7.50897 1.5
      vertex -5.25 -8 1.5
    endloop
  endfacet
  facet normal 0 0 1
    outer loop
      vertex -5.92905 62.1907 1.5
      vertex 0 67.9981 1.5
      vertex -5.63927 62.5895 1.5
    endloop
  endfacet
  facet normal 0 0 1
    outer loop
      vertex 0 -11.9981 1.5
      vertex -5.42535 -7.03372 1.5
      vertex -5.29419 -7.50897 1.5
    endloop
  endfacet
  facet normal 0 0 1
    outer loop
      vertex 0 67.9981 1.5
      vertex -5.92905 62.1907 1.5
      vertex 0 -11.9981 1.5
    endloop
  endfacet
  facet normal 0 0 1
    outer loop
      vertex 0 -11.9981 1.5
      vertex -5.63927 -6.58953 1.5
      vertex -5.42535 -7.03372 1.5
    endloop
  endfacet
  facet normal -0 0 1
    outer loop
      vertex -5.92905 -6.19067 1.5
      vertex 0 -11.9981 1.5
      vertex -5.92905 62.1907 1.5
    endloop
  endfacet
  facet normal 0 0 1
    outer loop
      vertex 0 -11.9981 1.5
      vertex -5.92905 -6.19067 1.5
      vertex -5.63927 -6.58953 1.5
    endloop
  endfacet
  facet normal -0 0 1
    outer loop
      vertex -6.2854 61.85 1.5
      vertex -5.92905 -6.19067 1.5
      vertex -5.92905 62.1907 1.5
    endloop
  endfacet
  facet normal 0 0 1
    outer loop
      vertex -6.2854 61.85 1.5
      vertex -6.2854 -5.84996 1.5
      vertex -5.92905 -6.19067 1.5
    endloop
  endfacet
  facet normal -0 0 1
    outer loop
      vertex -6.69686 61.5784 1.5
      vertex -6.2854 -5.84996 1.5
      vertex -6.2854 61.85 1.5
    endloop
  endfacet
  facet normal 0 0 1
    outer loop
      vertex -6.69686 61.5784 1.5
      vertex -6.69686 -5.57836 1.5
      vertex -6.2854 -5.84996 1.5
    endloop
  endfacet
  facet normal -0 0 1
    outer loop
      vertex -7.1502 61.3846 1.5
      vertex -6.69686 -5.57836 1.5
      vertex -6.69686 61.5784 1.5
    endloop
  endfacet
  facet normal 0 0 1
    outer loop
      vertex -7.1502 61.3846 1.5
      vertex -7.1502 -5.38459 1.5
      vertex -6.69686 -5.57836 1.5
    endloop
  endfacet
  facet normal -0 0 1
    outer loop
      vertex -7.63086 61.2749 1.5
      vertex -7.1502 -5.38459 1.5
      vertex -7.1502 61.3846 1.5
    endloop
  endfacet
  facet normal 0 0 1
    outer loop
      vertex -7.63086 61.2749 1.5
      vertex -7.63086 -5.27489 1.5
      vertex -7.1502 -5.38459 1.5
    endloop
  endfacet
  facet normal -0 0 1
    outer loop
      vertex -8.12338 61.2528 1.5
      vertex -7.63086 -5.27489 1.5
      vertex -7.63086 61.2749 1.5
    endloop
  endfacet
  facet normal 0 0 1
    outer loop
      vertex -8.12338 61.2528 1.5
      vertex -8.12338 -5.25277 1.5
      vertex -7.63086 -5.27489 1.5
    endloop
  endfacet
  facet normal 0 0 1
    outer loop
      vertex -8.61193 61.3189 1.5
      vertex -8.12338 -5.25277 1.5
      vertex -8.12338 61.2528 1.5
    endloop
  endfacet
  facet normal 0 0 1
    outer loop
      vertex -8.61193 61.3189 1.5
      vertex -8.61193 -5.31895 1.5
      vertex -8.12338 -5.25277 1.5
    endloop
  endfacet
  facet normal 0 0 1
    outer loop
      vertex -9.08082 61.4713 1.5
      vertex -8.61193 -5.31895 1.5
      vertex -8.61193 61.3189 1.5
    endloop
  endfacet
  facet normal 0 0 1
    outer loop
      vertex -9.08082 61.4713 1.5
      vertex -9.08082 -5.4713 1.5
      vertex -8.61193 -5.31895 1.5
    endloop
  endfacet
  facet normal 0 0 1
    outer loop
      vertex -9.51497 61.7049 1.5
      vertex -9.08082 -5.4713 1.5
      vertex -9.08082 61.4713 1.5
    endloop
  endfacet
  facet normal 0 0 1
    outer loop
      vertex -9.51497 61.7049 1.5
      vertex -9.51497 -5.70492 1.5
      vertex -9.08082 -5.4713 1.5
    endloop
  endfacet
  facet normal 0 0 1
    outer loop
      vertex -9.90042 62.0123 1.5
      vertex -9.51497 -5.70492 1.5
      vertex -9.51497 61.7049 1.5
    endloop
  endfacet
  facet normal 0 0 1
    outer loop
      vertex -9.90042 62.0123 1.5
      vertex -9.90042 -6.01231 1.5
      vertex -9.51497 -5.70492 1.5
    endloop
  endfacet
  facet normal 0 0 1
    outer loop
      vertex -11.9924 64.2462 1.5
      vertex -9.90042 62.0123 1.5
      vertex -10.2248 62.3836 1.5
    endloop
  endfacet
  facet normal 0 0 1
    outer loop
      vertex -9.90042 62.0123 1.5
      vertex -11.9924 64.2462 1.5
      vertex -9.90042 -6.01231 1.5
    endloop
  endfacet
  facet normal 0 0 1
    outer loop
      vertex -11.9924 64.2462 1.5
      vertex -10.2248 62.3836 1.5
      vertex -10.4777 62.8068 1.5
    endloop
  endfacet
  facet normal 0 0 1
    outer loop
      vertex -11.9924 -8.24624 1.5
      vertex -9.90042 -6.01231 1.5
      vertex -11.9924 64.2462 1.5
    endloop
  endfacet
  facet normal 0 0 1
    outer loop
      vertex -11.9924 64.2462 1.5
      vertex -10.4777 62.8068 1.5
      vertex -10.6509 63.2684 1.5
    endloop
  endfacet
  facet normal 0 0 1
    outer loop
      vertex -9.90042 -6.01231 1.5
      vertex -11.9924 -8.24624 1.5
      vertex -10.2248 -6.38359 1.5
    endloop
  endfacet
  facet normal 0 0 1
    outer loop
      vertex -11.9924 64.2462 1.5
      vertex -10.6509 63.2684 1.5
      vertex -10.7389 63.7535 1.5
    endloop
  endfacet
  facet normal 0 0 1
    outer loop
      vertex -10.2248 -6.38359 1.5
      vertex -11.9924 -8.24624 1.5
      vertex -10.4777 -6.80682 1.5
    endloop
  endfacet
  facet normal 0 0 1
    outer loop
      vertex -5.29419 63.509 1.5
      vertex 0 67.9981 1.5
      vertex -5.25 64 1.5
    endloop
  endfacet
  facet normal 0 0 1
    outer loop
      vertex 0 67.9981 1.5
      vertex -5.29419 64.491 1.5
      vertex -5.25 64 1.5
    endloop
  endfacet
  facet normal 0 0 1
    outer loop
      vertex 0 67.9981 1.5
      vertex -5.42535 64.9663 1.5
      vertex -5.29419 64.491 1.5
    endloop
  endfacet
  facet normal 0 0 1
    outer loop
      vertex 0 67.9981 1.5
      vertex -5.63927 65.4105 1.5
      vertex -5.42535 64.9663 1.5
    endloop
  endfacet
  facet normal 0 0 1
    outer loop
      vertex 0 67.9981 1.5
      vertex -5.92905 65.8093 1.5
      vertex -5.63927 65.4105 1.5
    endloop
  endfacet
  facet normal 0 0 1
    outer loop
      vertex 0 67.9981 1.5
      vertex -6.2854 66.15 1.5
      vertex -5.92905 65.8093 1.5
    endloop
  endfacet
  facet normal 0 0 1
    outer loop
      vertex 0 67.9981 1.5
      vertex -6.69686 66.4216 1.5
      vertex -6.2854 66.15 1.5
    endloop
  endfacet
  facet normal -0 0 1
    outer loop
      vertex -8.12318 67.9981 1.5
      vertex -6.69686 66.4216 1.5
      vertex 0 67.9981 1.5
    endloop
  endfacet
  facet normal 0 0 1
    outer loop
      vertex -6.69686 66.4216 1.5
      vertex -8.12318 67.9981 1.5
      vertex -7.1502 66.6154 1.5
    endloop
  endfacet
  facet normal 0 0 1
    outer loop
      vertex -7.1502 66.6154 1.5
      vertex -8.12318 67.9981 1.5
      vertex -7.63086 66.7251 1.5
    endloop
  endfacet
  facet normal 0 0 1
    outer loop
      vertex -8.12318 67.9981 1.5
      vertex -8.12338 66.7472 1.5
      vertex -7.63086 66.7251 1.5
    endloop
  endfacet
  facet normal -0 0 1
    outer loop
      vertex -8.61357 67.9527 1.5
      vertex -8.12338 66.7472 1.5
      vertex -8.12318 67.9981 1.5
    endloop
  endfacet
  facet normal 0 0 1
    outer loop
      vertex -8.12338 66.7472 1.5
      vertex -8.61357 67.9527 1.5
      vertex -8.61193 66.6811 1.5
    endloop
  endfacet
  facet normal -0 0 1
    outer loop
      vertex -9.09465 67.8473 1.5
      vertex -8.61193 66.6811 1.5
      vertex -8.61357 67.9527 1.5
    endloop
  endfacet
  facet normal 0 0 1
    outer loop
      vertex -8.61193 66.6811 1.5
      vertex -9.09465 67.8473 1.5
      vertex -9.08082 66.5287 1.5
    endloop
  endfacet
  facet normal -0 0 1
    outer loop
      vertex -9.55914 67.6836 1.5
      vertex -9.08082 66.5287 1.5
      vertex -9.09465 67.8473 1.5
    endloop
  endfacet
  facet normal -0 0 1
    outer loop
      vertex -10 67.4641 1.5
      vertex -9.08082 66.5287 1.5
      vertex -9.55914 67.6836 1.5
    endloop
  endfacet
  facet normal 0 0 1
    outer loop
      vertex -9.08082 66.5287 1.5
      vertex -10 67.4641 1.5
      vertex -9.51497 66.2951 1.5
    endloop
  endfacet
  facet normal -0 0 1
    outer loop
      vertex -10.4105 67.1921 1.5
      vertex -9.51497 66.2951 1.5
      vertex -10 67.4641 1.5
    endloop
  endfacet
  facet normal 0 0 1
    outer loop
      vertex -9.51497 66.2951 1.5
      vertex -10.4105 67.1921 1.5
      vertex -9.90042 65.9877 1.5
    endloop
  endfacet
  facet normal -0 0 1
    outer loop
      vertex -10.7845 66.8716 1.5
      vertex -9.90042 65.9877 1.5
      vertex -10.4105 67.1921 1.5
    endloop
  endfacet
  facet normal -0 0 1
    outer loop
      vertex -11.1163 66.5077 1.5
      vertex -9.90042 65.9877 1.5
      vertex -10.7845 66.8716 1.5
    endloop
  endfacet
  facet normal 0 0 1
    outer loop
      vertex -9.90042 65.9877 1.5
      vertex -11.1163 66.5077 1.5
      vertex -10.2248 65.6164 1.5
    endloop
  endfacet
  facet normal -0 0 1
    outer loop
      vertex -11.4009 66.1057 1.5
      vertex -10.2248 65.6164 1.5
      vertex -11.1163 66.5077 1.5
    endloop
  endfacet
  facet normal -0 0 1
    outer loop
      vertex -11.9924 64.2462 1.5
      vertex -10.7389 63.7535 1.5
      vertex -10.7389 64.2465 1.5
    endloop
  endfacet
  facet normal 0 0 1
    outer loop
      vertex -10.4777 -6.80682 1.5
      vertex -11.9924 -8.24624 1.5
      vertex -10.6509 -7.2684 1.5
    endloop
  endfacet
  facet normal -0 0 1
    outer loop
      vertex -11.6339 65.6718 1.5
      vertex -10.4777 65.1932 1.5
      vertex -11.4009 66.1057 1.5
    endloop
  endfacet
  facet normal 0 0 1
    outer loop
      vertex -10.2248 65.6164 1.5
      vertex -11.4009 66.1057 1.5
      vertex -10.4777 65.1932 1.5
    endloop
  endfacet
  facet normal 0 0 1
    outer loop
      vertex -5.42535 63.0337 1.5
      vertex 0 67.9981 1.5
      vertex -5.29419 63.509 1.5
    endloop
  endfacet
  facet normal -0 0 1
    outer loop
      vertex -5.29419 -8.49103 1.5
      vertex 0 -11.9981 1.5
      vertex -5.25 -8 1.5
    endloop
  endfacet
  facet normal -0 0 1
    outer loop
      vertex -5.42535 -8.96628 1.5
      vertex 0 -11.9981 1.5
      vertex -5.29419 -8.49103 1.5
    endloop
  endfacet
  facet normal -0 0 1
    outer loop
      vertex -5.63927 -9.41047 1.5
      vertex 0 -11.9981 1.5
      vertex -5.42535 -8.96628 1.5
    endloop
  endfacet
  facet normal -0 0 1
    outer loop
      vertex -5.92905 -9.80933 1.5
      vertex 0 -11.9981 1.5
      vertex -5.63927 -9.41047 1.5
    endloop
  endfacet
  facet normal -0 0 1
    outer loop
      vertex -6.2854 -10.15 1.5
      vertex 0 -11.9981 1.5
      vertex -5.92905 -9.80933 1.5
    endloop
  endfacet
  facet normal -0 0 1
    outer loop
      vertex -6.69686 -10.4216 1.5
      vertex 0 -11.9981 1.5
      vertex -6.2854 -10.15 1.5
    endloop
  endfacet
  facet normal 0 0 1
    outer loop
      vertex -8.12318 -11.9981 1.5
      vertex -6.69686 -10.4216 1.5
      vertex -7.1502 -10.6154 1.5
    endloop
  endfacet
  facet normal 0 0 1
    outer loop
      vertex -8.12318 -11.9981 1.5
      vertex -7.1502 -10.6154 1.5
      vertex -7.63086 -10.7251 1.5
    endloop
  endfacet
  facet normal 0 0 1
    outer loop
      vertex -6.69686 -10.4216 1.5
      vertex -8.12318 -11.9981 1.5
      vertex 0 -11.9981 1.5
    endloop
  endfacet
  facet normal -0 0 1
    outer loop
      vertex -8.12338 -10.7472 1.5
      vertex -8.12318 -11.9981 1.5
      vertex -7.63086 -10.7251 1.5
    endloop
  endfacet
  facet normal 0 0 1
    outer loop
      vertex -8.61357 -11.9527 1.5
      vertex -8.12338 -10.7472 1.5
      vertex -8.61193 -10.6811 1.5
    endloop
  endfacet
  facet normal 0 0 1
    outer loop
      vertex -8.12338 -10.7472 1.5
      vertex -8.61357 -11.9527 1.5
      vertex -8.12318 -11.9981 1.5
    endloop
  endfacet
  facet normal 0 0 1
    outer loop
      vertex -9.09465 -11.8473 1.5
      vertex -8.61193 -10.6811 1.5
      vertex -9.08082 -10.5287 1.5
    endloop
  endfacet
  facet normal 0 0 1
    outer loop
      vertex -8.61193 -10.6811 1.5
      vertex -9.09465 -11.8473 1.5
      vertex -8.61357 -11.9527 1.5
    endloop
  endfacet
  facet normal 0 0 1
    outer loop
      vertex -10 -11.4641 1.5
      vertex -9.08082 -10.5287 1.5
      vertex -9.51497 -10.2951 1.5
    endloop
  endfacet
  facet normal 0 0 1
    outer loop
      vertex -9.08082 -10.5287 1.5
      vertex -9.55914 -11.6836 1.5
      vertex -9.09465 -11.8473 1.5
    endloop
  endfacet
  facet normal 0 0 1
    outer loop
      vertex -10.4105 -11.1921 1.5
      vertex -9.51497 -10.2951 1.5
      vertex -9.90042 -9.98769 1.5
    endloop
  endfacet
  facet normal 0 0 1
    outer loop
      vertex -9.08082 -10.5287 1.5
      vertex -10 -11.4641 1.5
      vertex -9.55914 -11.6836 1.5
    endloop
  endfacet
  facet normal 0 0 1
    outer loop
      vertex -11.1163 -10.5077 1.5
      vertex -9.90042 -9.98769 1.5
      vertex -10.2248 -9.61641 1.5
    endloop
  endfacet
  facet normal 0 0 1
    outer loop
      vertex -9.51497 -10.2951 1.5
      vertex -10.4105 -11.1921 1.5
      vertex -10 -11.4641 1.5
    endloop
  endfacet
  facet normal 0 0 1
    outer loop
      vertex -11.4009 -10.1057 1.5
      vertex -10.2248 -9.61641 1.5
      vertex -10.4777 -9.19318 1.5
    endloop
  endfacet
  facet normal 0 0 1
    outer loop
      vertex -11.8118 -9.21261 1.5
      vertex -10.4777 -9.19318 1.5
      vertex -10.6509 -8.7316 1.5
    endloop
  endfacet
  facet normal 0 0 1
    outer loop
      vertex -11.9319 -8.735 1.5
      vertex -10.6509 -8.7316 1.5
      vertex -10.7389 -8.24651 1.5
    endloop
  endfacet
  facet normal 0 0 1
    outer loop
      vertex -9.90042 -9.98769 1.5
      vertex -10.7845 -10.8716 1.5
      vertex -10.4105 -11.1921 1.5
    endloop
  endfacet
  facet normal 0 0 1
    outer loop
      vertex -10.6509 -7.2684 1.5
      vertex -11.9924 -8.24624 1.5
      vertex -10.7389 -7.75349 1.5
    endloop
  endfacet
  facet normal -0 0 1
    outer loop
      vertex -11.8118 65.2126 1.5
      vertex -10.4777 65.1932 1.5
      vertex -11.6339 65.6718 1.5
    endloop
  endfacet
  facet normal 0 0 1
    outer loop
      vertex -10.7389 -7.75349 1.5
      vertex -11.9924 -8.24624 1.5
      vertex -10.7389 -8.24651 1.5
    endloop
  endfacet
  facet normal 0 0 1
    outer loop
      vertex -10.4777 65.1932 1.5
      vertex -11.8118 65.2126 1.5
      vertex -10.6509 64.7316 1.5
    endloop
  endfacet
  facet normal 0 -0 1
    outer loop
      vertex -11.9319 -8.735 1.5
      vertex -10.7389 -8.24651 1.5
      vertex -11.9924 -8.24624 1.5
    endloop
  endfacet
  facet normal -0 0 1
    outer loop
      vertex -11.9319 64.735 1.5
      vertex -10.6509 64.7316 1.5
      vertex -11.8118 65.2126 1.5
    endloop
  endfacet
  facet normal 0 0 1
    outer loop
      vertex -9.90042 -9.98769 1.5
      vertex -11.1163 -10.5077 1.5
      vertex -10.7845 -10.8716 1.5
    endloop
  endfacet
  facet normal 0 0 1
    outer loop
      vertex -10.6509 64.7316 1.5
      vertex -11.9319 64.735 1.5
      vertex -10.7389 64.2465 1.5
    endloop
  endfacet
  facet normal 0 0 1
    outer loop
      vertex -10.2248 -9.61641 1.5
      vertex -11.4009 -10.1057 1.5
      vertex -11.1163 -10.5077 1.5
    endloop
  endfacet
  facet normal 0 0 1
    outer loop
      vertex -10.7389 64.2465 1.5
      vertex -11.9319 64.735 1.5
      vertex -11.9924 64.2462 1.5
    endloop
  endfacet
  facet normal 0 0 1
    outer loop
      vertex -10.4777 -9.19318 1.5
      vertex -11.6339 -9.67184 1.5
      vertex -11.4009 -10.1057 1.5
    endloop
  endfacet
  facet normal 0 0 1
    outer loop
      vertex -10.4777 -9.19318 1.5
      vertex -11.8118 -9.21261 1.5
      vertex -11.6339 -9.67184 1.5
    endloop
  endfacet
  facet normal 0 0 1
    outer loop
      vertex -10.6509 -8.7316 1.5
      vertex -11.9319 -8.735 1.5
      vertex -11.8118 -9.21261 1.5
    endloop
  endfacet
  facet normal -0.992421 0.122887 0
    outer loop
      vertex -11.9924 64.2462 -1.5
      vertex -11.9319 64.735 1.5
      vertex -11.9319 64.735 -1.5
    endloop
  endfacet
  facet normal -0.992421 0.122887 0
    outer loop
      vertex -11.9319 64.735 1.5
      vertex -11.9924 64.2462 -1.5
      vertex -11.9924 64.2462 1.5
    endloop
  endfacet
  facet normal -0.816199 0.577771 0
    outer loop
      vertex -11.4009 66.1057 -1.5
      vertex -11.1163 66.5077 1.5
      vertex -11.1163 66.5077 -1.5
    endloop
  endfacet
  facet normal -0.816199 0.577771 0
    outer loop
      vertex -11.1163 66.5077 1.5
      vertex -11.4009 66.1057 -1.5
      vertex -11.4009 66.1057 1.5
    endloop
  endfacet
  facet normal 0 -1 0
    outer loop
      vertex -8.12318 -11.9981 -1.5
      vertex 0 -11.9981 1.5
      vertex -8.12318 -11.9981 1.5
    endloop
  endfacet
  facet normal 0 -1 -0
    outer loop
      vertex 0 -11.9981 1.5
      vertex -8.12318 -11.9981 -1.5
      vertex 0 -11.9981 -1.5
    endloop
  endfacet
  facet normal 0 1 -0
    outer loop
      vertex 0 67.9981 -1.5
      vertex -8.12318 67.9981 1.5
      vertex 0 67.9981 1.5
    endloop
  endfacet
  facet normal 0 1 0
    outer loop
      vertex -8.12318 67.9981 1.5
      vertex 0 67.9981 -1.5
      vertex -8.12318 67.9981 -1.5
    endloop
  endfacet
  facet normal -0.739002 0.673703 0
    outer loop
      vertex -11.1163 66.5077 -1.5
      vertex -10.7845 66.8716 1.5
      vertex -10.7845 66.8716 -1.5
    endloop
  endfacet
  facet normal -0.739002 0.673703 0
    outer loop
      vertex -10.7845 66.8716 1.5
      vertex -11.1163 66.5077 -1.5
      vertex -11.1163 66.5077 1.5
    endloop
  endfacet
  facet normal -0.0922676 -0.995734 0
    outer loop
      vertex -8.61357 -11.9527 -1.5
      vertex -8.12318 -11.9981 1.5
      vertex -8.61357 -11.9527 1.5
    endloop
  endfacet
  facet normal -0.0922676 -0.995734 -0
    outer loop
      vertex -8.12318 -11.9981 1.5
      vertex -8.61357 -11.9527 -1.5
      vertex -8.12318 -11.9981 -1.5
    endloop
  endfacet
  facet normal -0.969797 -0.243915 0
    outer loop
      vertex -11.8118 -9.21261 -1.5
      vertex -11.9319 -8.735 1.5
      vertex -11.9319 -8.735 -1.5
    endloop
  endfacet
  facet normal -0.969797 -0.243915 0
    outer loop
      vertex -11.9319 -8.735 1.5
      vertex -11.8118 -9.21261 -1.5
      vertex -11.8118 -9.21261 1.5
    endloop
  endfacet
  facet normal 0 0 -1
    outer loop
      vertex -5.63927 -6.58953 -1.5
      vertex 0 -11.9981 -1.5
      vertex -5.42535 -7.03372 -1.5
    endloop
  endfacet
  facet normal 0 0 -1
    outer loop
      vertex 0 67.9981 -1.5
      vertex -5.29419 63.509 -1.5
      vertex -5.25 64 -1.5
    endloop
  endfacet
  facet normal 0 0 -1
    outer loop
      vertex -5.92905 -6.19067 -1.5
      vertex 0 -11.9981 -1.5
      vertex -5.63927 -6.58953 -1.5
    endloop
  endfacet
  facet normal 0 0 -1
    outer loop
      vertex 0 67.9981 -1.5
      vertex -5.42535 63.0337 -1.5
      vertex -5.29419 63.509 -1.5
    endloop
  endfacet
  facet normal 0 0 -1
    outer loop
      vertex 0 -11.9981 -1.5
      vertex -5.92905 -6.19067 -1.5
      vertex 0 67.9981 -1.5
    endloop
  endfacet
  facet normal 0 0 -1
    outer loop
      vertex 0 67.9981 -1.5
      vertex -5.63927 62.5895 -1.5
      vertex -5.42535 63.0337 -1.5
    endloop
  endfacet
  facet normal 0 0 -1
    outer loop
      vertex -5.92905 62.1907 -1.5
      vertex 0 67.9981 -1.5
      vertex -5.92905 -6.19067 -1.5
    endloop
  endfacet
  facet normal 0 0 -1
    outer loop
      vertex 0 67.9981 -1.5
      vertex -5.92905 62.1907 -1.5
      vertex -5.63927 62.5895 -1.5
    endloop
  endfacet
  facet normal 0 0 -1
    outer loop
      vertex -6.2854 -5.84996 -1.5
      vertex -5.92905 62.1907 -1.5
      vertex -5.92905 -6.19067 -1.5
    endloop
  endfacet
  facet normal 0 0 -1
    outer loop
      vertex -6.2854 -5.84996 -1.5
      vertex -6.2854 61.85 -1.5
      vertex -5.92905 62.1907 -1.5
    endloop
  endfacet
  facet normal 0 0 -1
    outer loop
      vertex -6.69686 -5.57836 -1.5
      vertex -6.2854 61.85 -1.5
      vertex -6.2854 -5.84996 -1.5
    endloop
  endfacet
  facet normal 0 0 -1
    outer loop
      vertex -6.69686 -5.57836 -1.5
      vertex -6.69686 61.5784 -1.5
      vertex -6.2854 61.85 -1.5
    endloop
  endfacet
  facet normal 0 0 -1
    outer loop
      vertex -7.1502 -5.38459 -1.5
      vertex -6.69686 61.5784 -1.5
      vertex -6.69686 -5.57836 -1.5
    endloop
  endfacet
  facet normal 0 0 -1
    outer loop
      vertex -7.1502 -5.38459 -1.5
      vertex -7.1502 61.3846 -1.5
      vertex -6.69686 61.5784 -1.5
    endloop
  endfacet
  facet normal 0 0 -1
    outer loop
      vertex -7.63086 -5.27489 -1.5
      vertex -7.1502 61.3846 -1.5
      vertex -7.1502 -5.38459 -1.5
    endloop
  endfacet
  facet normal 0 0 -1
    outer loop
      vertex -7.63086 -5.27489 -1.5
      vertex -7.63086 61.2749 -1.5
      vertex -7.1502 61.3846 -1.5
    endloop
  endfacet
  facet normal 0 0 -1
    outer loop
      vertex -8.12338 -5.25277 -1.5
      vertex -7.63086 61.2749 -1.5
      vertex -7.63086 -5.27489 -1.5
    endloop
  endfacet
  facet normal 0 0 -1
    outer loop
      vertex -8.12338 -5.25277 -1.5
      vertex -8.12338 61.2528 -1.5
      vertex -7.63086 61.2749 -1.5
    endloop
  endfacet
  facet normal 0 0 -1
    outer loop
      vertex -8.61193 -5.31895 -1.5
      vertex -8.12338 61.2528 -1.5
      vertex -8.12338 -5.25277 -1.5
    endloop
  endfacet
  facet normal 0 0 -1
    outer loop
      vertex -8.61193 -5.31895 -1.5
      vertex -8.61193 61.3189 -1.5
      vertex -8.12338 61.2528 -1.5
    endloop
  endfacet
  facet normal 0 0 -1
    outer loop
      vertex -9.08082 -5.4713 -1.5
      vertex -8.61193 61.3189 -1.5
      vertex -8.61193 -5.31895 -1.5
    endloop
  endfacet
  facet normal 0 0 -1
    outer loop
      vertex -9.08082 -5.4713 -1.5
      vertex -9.08082 61.4713 -1.5
      vertex -8.61193 61.3189 -1.5
    endloop
  endfacet
  facet normal 0 0 -1
    outer loop
      vertex -9.51497 -5.70492 -1.5
      vertex -9.08082 61.4713 -1.5
      vertex -9.08082 -5.4713 -1.5
    endloop
  endfacet
  facet normal 0 0 -1
    outer loop
      vertex -9.51497 -5.70492 -1.5
      vertex -9.51497 61.7049 -1.5
      vertex -9.08082 61.4713 -1.5
    endloop
  endfacet
  facet normal 0 0 -1
    outer loop
      vertex -9.90042 -6.01231 -1.5
      vertex -9.51497 61.7049 -1.5
      vertex -9.51497 -5.70492 -1.5
    endloop
  endfacet
  facet normal 0 0 -1
    outer loop
      vertex -9.90042 -6.01231 -1.5
      vertex -9.90042 62.0123 -1.5
      vertex -9.51497 61.7049 -1.5
    endloop
  endfacet
  facet normal 0 0 -1
    outer loop
      vertex -11.9924 -8.24624 -1.5
      vertex -9.90042 -6.01231 -1.5
      vertex -10.2248 -6.38359 -1.5
    endloop
  endfacet
  facet normal -0 0 -1
    outer loop
      vertex -9.90042 -6.01231 -1.5
      vertex -11.9924 -8.24624 -1.5
      vertex -9.90042 62.0123 -1.5
    endloop
  endfacet
  facet normal 0 0 -1
    outer loop
      vertex -11.9924 -8.24624 -1.5
      vertex -10.2248 -6.38359 -1.5
      vertex -10.4777 -6.80682 -1.5
    endloop
  endfacet
  facet normal 0 0 -1
    outer loop
      vertex -11.9924 64.2462 -1.5
      vertex -9.90042 62.0123 -1.5
      vertex -11.9924 -8.24624 -1.5
    endloop
  endfacet
  facet normal 0 0 -1
    outer loop
      vertex -11.9924 -8.24624 -1.5
      vertex -10.4777 -6.80682 -1.5
      vertex -10.6509 -7.2684 -1.5
    endloop
  endfacet
  facet normal 0 0 -1
    outer loop
      vertex -9.90042 62.0123 -1.5
      vertex -11.9924 64.2462 -1.5
      vertex -10.2248 62.3836 -1.5
    endloop
  endfacet
  facet normal 0 0 -1
    outer loop
      vertex -11.9924 -8.24624 -1.5
      vertex -10.6509 -7.2684 -1.5
      vertex -10.7389 -7.75349 -1.5
    endloop
  endfacet
  facet normal 0 0 -1
    outer loop
      vertex -10.2248 62.3836 -1.5
      vertex -11.9924 64.2462 -1.5
      vertex -10.4777 62.8068 -1.5
    endloop
  endfacet
  facet normal 0 0 -1
    outer loop
      vertex -5.29419 -7.50897 -1.5
      vertex 0 -11.9981 -1.5
      vertex -5.25 -8 -1.5
    endloop
  endfacet
  facet normal 0 0 -1
    outer loop
      vertex 0 -11.9981 -1.5
      vertex -5.29419 -8.49103 -1.5
      vertex -5.25 -8 -1.5
    endloop
  endfacet
  facet normal 0 0 -1
    outer loop
      vertex 0 -11.9981 -1.5
      vertex -5.42535 -8.96628 -1.5
      vertex -5.29419 -8.49103 -1.5
    endloop
  endfacet
  facet normal 0 0 -1
    outer loop
      vertex 0 -11.9981 -1.5
      vertex -5.63927 -9.41047 -1.5
      vertex -5.42535 -8.96628 -1.5
    endloop
  endfacet
  facet normal 0 0 -1
    outer loop
      vertex 0 -11.9981 -1.5
      vertex -5.92905 -9.80933 -1.5
      vertex -5.63927 -9.41047 -1.5
    endloop
  endfacet
  facet normal 0 0 -1
    outer loop
      vertex 0 -11.9981 -1.5
      vertex -6.2854 -10.15 -1.5
      vertex -5.92905 -9.80933 -1.5
    endloop
  endfacet
  facet normal 0 0 -1
    outer loop
      vertex 0 -11.9981 -1.5
      vertex -6.69686 -10.4216 -1.5
      vertex -6.2854 -10.15 -1.5
    endloop
  endfacet
  facet normal 0 0 -1
    outer loop
      vertex -8.12318 -11.9981 -1.5
      vertex -6.69686 -10.4216 -1.5
      vertex 0 -11.9981 -1.5
    endloop
  endfacet
  facet normal 0 0 -1
    outer loop
      vertex -6.69686 -10.4216 -1.5
      vertex -8.12318 -11.9981 -1.5
      vertex -7.1502 -10.6154 -1.5
    endloop
  endfacet
  facet normal 0 0 -1
    outer loop
      vertex -7.1502 -10.6154 -1.5
      vertex -8.12318 -11.9981 -1.5
      vertex -7.63086 -10.7251 -1.5
    endloop
  endfacet
  facet normal 0 0 -1
    outer loop
      vertex -8.12318 -11.9981 -1.5
      vertex -8.12338 -10.7472 -1.5
      vertex -7.63086 -10.7251 -1.5
    endloop
  endfacet
  facet normal 0 0 -1
    outer loop
      vertex -8.61357 -11.9527 -1.5
      vertex -8.12338 -10.7472 -1.5
      vertex -8.12318 -11.9981 -1.5
    endloop
  endfacet
  facet normal -0 0 -1
    outer loop
      vertex -8.12338 -10.7472 -1.5
      vertex -8.61357 -11.9527 -1.5
      vertex -8.61193 -10.6811 -1.5
    endloop
  endfacet
  facet normal 0 0 -1
    outer loop
      vertex -9.09465 -11.8473 -1.5
      vertex -8.61193 -10.6811 -1.5
      vertex -8.61357 -11.9527 -1.5
    endloop
  endfacet
  facet normal -0 0 -1
    outer loop
      vertex -8.61193 -10.6811 -1.5
      vertex -9.09465 -11.8473 -1.5
      vertex -9.08082 -10.5287 -1.5
    endloop
  endfacet
  facet normal 0 0 -1
    outer loop
      vertex -9.55914 -11.6836 -1.5
      vertex -9.08082 -10.5287 -1.5
      vertex -9.09465 -11.8473 -1.5
    endloop
  endfacet
  facet normal 0 0 -1
    outer loop
      vertex -10 -11.4641 -1.5
      vertex -9.08082 -10.5287 -1.5
      vertex -9.55914 -11.6836 -1.5
    endloop
  endfacet
  facet normal -0 0 -1
    outer loop
      vertex -9.08082 -10.5287 -1.5
      vertex -10 -11.4641 -1.5
      vertex -9.51497 -10.2951 -1.5
    endloop
  endfacet
  facet normal 0 0 -1
    outer loop
      vertex -10.4105 -11.1921 -1.5
      vertex -9.51497 -10.2951 -1.5
      vertex -10 -11.4641 -1.5
    endloop
  endfacet
  facet normal -0 0 -1
    outer loop
      vertex -9.51497 -10.2951 -1.5
      vertex -10.4105 -11.1921 -1.5
      vertex -9.90042 -9.98769 -1.5
    endloop
  endfacet
  facet normal 0 0 -1
    outer loop
      vertex -10.7845 -10.8716 -1.5
      vertex -9.90042 -9.98769 -1.5
      vertex -10.4105 -11.1921 -1.5
    endloop
  endfacet
  facet normal 0 0 -1
    outer loop
      vertex -11.1163 -10.5077 -1.5
      vertex -9.90042 -9.98769 -1.5
      vertex -10.7845 -10.8716 -1.5
    endloop
  endfacet
  facet normal -0 0 -1
    outer loop
      vertex -9.90042 -9.98769 -1.5
      vertex -11.1163 -10.5077 -1.5
      vertex -10.2248 -9.61641 -1.5
    endloop
  endfacet
  facet normal 0 0 -1
    outer loop
      vertex -11.4009 -10.1057 -1.5
      vertex -10.2248 -9.61641 -1.5
      vertex -11.1163 -10.5077 -1.5
    endloop
  endfacet
  facet normal 0 0 -1
    outer loop
      vertex -11.9924 -8.24624 -1.5
      vertex -10.7389 -7.75349 -1.5
      vertex -10.7389 -8.24651 -1.5
    endloop
  endfacet
  facet normal 0 0 -1
    outer loop
      vertex -10.4777 62.8068 -1.5
      vertex -11.9924 64.2462 -1.5
      vertex -10.6509 63.2684 -1.5
    endloop
  endfacet
  facet normal 0 0 -1
    outer loop
      vertex -11.6339 -9.67184 -1.5
      vertex -10.4777 -9.19318 -1.5
      vertex -11.4009 -10.1057 -1.5
    endloop
  endfacet
  facet normal -0 0 -1
    outer loop
      vertex -10.2248 -9.61641 -1.5
      vertex -11.4009 -10.1057 -1.5
      vertex -10.4777 -9.19318 -1.5
    endloop
  endfacet
  facet normal 0 0 -1
    outer loop
      vertex -5.42535 -7.03372 -1.5
      vertex 0 -11.9981 -1.5
      vertex -5.29419 -7.50897 -1.5
    endloop
  endfacet
  facet normal 0 0 -1
    outer loop
      vertex -5.29419 64.491 -1.5
      vertex 0 67.9981 -1.5
      vertex -5.25 64 -1.5
    endloop
  endfacet
  facet normal 0 0 -1
    outer loop
      vertex -5.42535 64.9663 -1.5
      vertex 0 67.9981 -1.5
      vertex -5.29419 64.491 -1.5
    endloop
  endfacet
  facet normal 0 0 -1
    outer loop
      vertex -5.63927 65.4105 -1.5
      vertex 0 67.9981 -1.5
      vertex -5.42535 64.9663 -1.5
    endloop
  endfacet
  facet normal 0 0 -1
    outer loop
      vertex -5.92905 65.8093 -1.5
      vertex 0 67.9981 -1.5
      vertex -5.63927 65.4105 -1.5
    endloop
  endfacet
  facet normal 0 0 -1
    outer loop
      vertex -6.2854 66.15 -1.5
      vertex 0 67.9981 -1.5
      vertex -5.92905 65.8093 -1.5
    endloop
  endfacet
  facet normal 0 0 -1
    outer loop
      vertex -6.69686 66.4216 -1.5
      vertex 0 67.9981 -1.5
      vertex -6.2854 66.15 -1.5
    endloop
  endfacet
  facet normal 0 0 -1
    outer loop
      vertex -8.12318 67.9981 -1.5
      vertex -6.69686 66.4216 -1.5
      vertex -7.1502 66.6154 -1.5
    endloop
  endfacet
  facet normal 0 0 -1
    outer loop
      vertex -8.12318 67.9981 -1.5
      vertex -7.1502 66.6154 -1.5
      vertex -7.63086 66.7251 -1.5
    endloop
  endfacet
  facet normal 0 0 -1
    outer loop
      vertex -6.69686 66.4216 -1.5
      vertex -8.12318 67.9981 -1.5
      vertex 0 67.9981 -1.5
    endloop
  endfacet
  facet normal 0 0 -1
    outer loop
      vertex -8.12338 66.7472 -1.5
      vertex -8.12318 67.9981 -1.5
      vertex -7.63086 66.7251 -1.5
    endloop
  endfacet
  facet normal 0 0 -1
    outer loop
      vertex -8.61357 67.9527 -1.5
      vertex -8.12338 66.7472 -1.5
      vertex -8.61193 66.6811 -1.5
    endloop
  endfacet
  facet normal 0 0 -1
    outer loop
      vertex -8.12338 66.7472 -1.5
      vertex -8.61357 67.9527 -1.5
      vertex -8.12318 67.9981 -1.5
    endloop
  endfacet
  facet normal 0 0 -1
    outer loop
      vertex -9.09465 67.8473 -1.5
      vertex -8.61193 66.6811 -1.5
      vertex -9.08082 66.5287 -1.5
    endloop
  endfacet
  facet normal 0 0 -1
    outer loop
      vertex -8.61193 66.6811 -1.5
      vertex -9.09465 67.8473 -1.5
      vertex -8.61357 67.9527 -1.5
    endloop
  endfacet
  facet normal 0 0 -1
    outer loop
      vertex -10 67.4641 -1.5
      vertex -9.08082 66.5287 -1.5
      vertex -9.51497 66.2951 -1.5
    endloop
  endfacet
  facet normal 0 0 -1
    outer loop
      vertex -9.08082 66.5287 -1.5
      vertex -9.55914 67.6836 -1.5
      vertex -9.09465 67.8473 -1.5
    endloop
  endfacet
  facet normal 0 0 -1
    outer loop
      vertex -10.4105 67.1921 -1.5
      vertex -9.51497 66.2951 -1.5
      vertex -9.90042 65.9877 -1.5
    endloop
  endfacet
  facet normal 0 0 -1
    outer loop
      vertex -9.08082 66.5287 -1.5
      vertex -10 67.4641 -1.5
      vertex -9.55914 67.6836 -1.5
    endloop
  endfacet
  facet normal 0 0 -1
    outer loop
      vertex -11.1163 66.5077 -1.5
      vertex -9.90042 65.9877 -1.5
      vertex -10.2248 65.6164 -1.5
    endloop
  endfacet
  facet normal 0 0 -1
    outer loop
      vertex -9.51497 66.2951 -1.5
      vertex -10.4105 67.1921 -1.5
      vertex -10 67.4641 -1.5
    endloop
  endfacet
  facet normal 0 0 -1
    outer loop
      vertex -11.4009 66.1057 -1.5
      vertex -10.2248 65.6164 -1.5
      vertex -10.4777 65.1932 -1.5
    endloop
  endfacet
  facet normal 0 0 -1
    outer loop
      vertex -11.8118 65.2126 -1.5
      vertex -10.4777 65.1932 -1.5
      vertex -10.6509 64.7316 -1.5
    endloop
  endfacet
  facet normal 0 0 -1
    outer loop
      vertex -11.9319 64.735 -1.5
      vertex -10.6509 64.7316 -1.5
      vertex -10.7389 64.2465 -1.5
    endloop
  endfacet
  facet normal 0 0 -1
    outer loop
      vertex -9.90042 65.9877 -1.5
      vertex -10.7845 66.8716 -1.5
      vertex -10.4105 67.1921 -1.5
    endloop
  endfacet
  facet normal 0 0 -1
    outer loop
      vertex -10.6509 63.2684 -1.5
      vertex -11.9924 64.2462 -1.5
      vertex -10.7389 63.7535 -1.5
    endloop
  endfacet
  facet normal 0 0 -1
    outer loop
      vertex -11.8118 -9.21261 -1.5
      vertex -10.4777 -9.19318 -1.5
      vertex -11.6339 -9.67184 -1.5
    endloop
  endfacet
  facet normal 0 0 -1
    outer loop
      vertex -10.7389 63.7535 -1.5
      vertex -11.9924 64.2462 -1.5
      vertex -10.7389 64.2465 -1.5
    endloop
  endfacet
  facet normal -0 0 -1
    outer loop
      vertex -10.4777 -9.19318 -1.5
      vertex -11.8118 -9.21261 -1.5
      vertex -10.6509 -8.7316 -1.5
    endloop
  endfacet
  facet normal 0 -0 -1
    outer loop
      vertex -11.9319 64.735 -1.5
      vertex -10.7389 64.2465 -1.5
      vertex -11.9924 64.2462 -1.5
    endloop
  endfacet
  facet normal 0 0 -1
    outer loop
      vertex -11.9319 -8.735 -1.5
      vertex -10.6509 -8.7316 -1.5
      vertex -11.8118 -9.21261 -1.5
    endloop
  endfacet
  facet normal 0 0 -1
    outer loop
      vertex -9.90042 65.9877 -1.5
      vertex -11.1163 66.5077 -1.5
      vertex -10.7845 66.8716 -1.5
    endloop
  endfacet
  facet normal -0 0 -1
    outer loop
      vertex -10.6509 -8.7316 -1.5
      vertex -11.9319 -8.735 -1.5
      vertex -10.7389 -8.24651 -1.5
    endloop
  endfacet
  facet normal 0 0 -1
    outer loop
      vertex -10.2248 65.6164 -1.5
      vertex -11.4009 66.1057 -1.5
      vertex -11.1163 66.5077 -1.5
    endloop
  endfacet
  facet normal -0 0 -1
    outer loop
      vertex -10.7389 -8.24651 -1.5
      vertex -11.9319 -8.735 -1.5
      vertex -11.9924 -8.24624 -1.5
    endloop
  endfacet
  facet normal 0 0 -1
    outer loop
      vertex -10.4777 65.1932 -1.5
      vertex -11.6339 65.6718 -1.5
      vertex -11.4009 66.1057 -1.5
    endloop
  endfacet
  facet normal 0 0 -1
    outer loop
      vertex -10.4777 65.1932 -1.5
      vertex -11.8118 65.2126 -1.5
      vertex -11.6339 65.6718 -1.5
    endloop
  endfacet
  facet normal 0 0 -1
    outer loop
      vertex -10.6509 64.7316 -1.5
      vertex -11.9319 64.735 -1.5
      vertex -11.8118 65.2126 -1.5
    endloop
  endfacet
  facet normal -0.213924 0.97685 0
    outer loop
      vertex -8.61357 67.9527 -1.5
      vertex -9.09465 67.8473 1.5
      vertex -8.61357 67.9527 1.5
    endloop
  endfacet
  facet normal -0.213924 0.97685 0
    outer loop
      vertex -9.09465 67.8473 1.5
      vertex -8.61357 67.9527 -1.5
      vertex -9.09465 67.8473 -1.5
    endloop
  endfacet
  facet normal -0.0922676 0.995734 0
    outer loop
      vertex -8.12318 67.9981 -1.5
      vertex -8.61357 67.9527 1.5
      vertex -8.12318 67.9981 1.5
    endloop
  endfacet
  facet normal -0.0922676 0.995734 0
    outer loop
      vertex -8.61357 67.9527 1.5
      vertex -8.12318 67.9981 -1.5
      vertex -8.61357 67.9527 -1.5
    endloop
  endfacet
  facet normal -0.881011 0.473096 0
    outer loop
      vertex -11.6339 65.6718 -1.5
      vertex -11.4009 66.1057 1.5
      vertex -11.4009 66.1057 -1.5
    endloop
  endfacet
  facet normal -0.881011 0.473096 0
    outer loop
      vertex -11.4009 66.1057 1.5
      vertex -11.6339 65.6718 -1.5
      vertex -11.6339 65.6718 1.5
    endloop
  endfacet
  facet normal -0.932474 0.361238 0
    outer loop
      vertex -11.8118 65.2126 -1.5
      vertex -11.6339 65.6718 1.5
      vertex -11.6339 65.6718 -1.5
    endloop
  endfacet
  facet normal -0.932474 0.361238 0
    outer loop
      vertex -11.6339 65.6718 1.5
      vertex -11.8118 65.2126 -1.5
      vertex -11.8118 65.2126 1.5
    endloop
  endfacet
  facet normal -0.650625 0.7594 0
    outer loop
      vertex -10.4105 67.1921 -1.5
      vertex -10.7845 66.8716 1.5
      vertex -10.4105 67.1921 1.5
    endloop
  endfacet
  facet normal -0.650625 0.7594 0
    outer loop
      vertex -10.7845 66.8716 1.5
      vertex -10.4105 67.1921 -1.5
      vertex -10.7845 66.8716 -1.5
    endloop
  endfacet
  facet normal -0.650618 -0.759405 0
    outer loop
      vertex -10.7845 -10.8716 -1.5
      vertex -10.4105 -11.1921 1.5
      vertex -10.7845 -10.8716 1.5
    endloop
  endfacet
  facet normal -0.650618 -0.759405 -0
    outer loop
      vertex -10.4105 -11.1921 1.5
      vertex -10.7845 -10.8716 -1.5
      vertex -10.4105 -11.1921 -1.5
    endloop
  endfacet
  facet normal -0.552365 -0.833602 0
    outer loop
      vertex -10.4105 -11.1921 -1.5
      vertex -10 -11.4641 1.5
      vertex -10.4105 -11.1921 1.5
    endloop
  endfacet
  facet normal -0.552365 -0.833602 -0
    outer loop
      vertex -10 -11.4641 1.5
      vertex -10.4105 -11.1921 -1.5
      vertex -10 -11.4641 -1.5
    endloop
  endfacet
  facet normal -0.332356 -0.943154 0
    outer loop
      vertex -9.55914 -11.6836 -1.5
      vertex -9.09465 -11.8473 1.5
      vertex -9.55914 -11.6836 1.5
    endloop
  endfacet
  facet normal -0.332356 -0.943154 -0
    outer loop
      vertex -9.09465 -11.8473 1.5
      vertex -9.55914 -11.6836 -1.5
      vertex -9.09465 -11.8473 -1.5
    endloop
  endfacet
  facet normal -0.881013 -0.473093 0
    outer loop
      vertex -11.4009 -10.1057 -1.5
      vertex -11.6339 -9.67184 1.5
      vertex -11.6339 -9.67184 -1.5
    endloop
  endfacet
  facet normal -0.881013 -0.473093 0
    outer loop
      vertex -11.6339 -9.67184 1.5
      vertex -11.4009 -10.1057 -1.5
      vertex -11.4009 -10.1057 1.5
    endloop
  endfacet
  facet normal -0.739009 -0.673696 0
    outer loop
      vertex -10.7845 -10.8716 -1.5
      vertex -11.1163 -10.5077 1.5
      vertex -11.1163 -10.5077 -1.5
    endloop
  endfacet
  facet normal -0.739009 -0.673696 0
    outer loop
      vertex -11.1163 -10.5077 1.5
      vertex -10.7845 -10.8716 -1.5
      vertex -10.7845 -10.8716 1.5
    endloop
  endfacet
  facet normal -0.992421 -0.122887 0
    outer loop
      vertex -11.9319 -8.735 -1.5
      vertex -11.9924 -8.24624 1.5
      vertex -11.9924 -8.24624 -1.5
    endloop
  endfacet
  facet normal -0.992421 -0.122887 0
    outer loop
      vertex -11.9924 -8.24624 1.5
      vertex -11.9319 -8.735 -1.5
      vertex -11.9319 -8.735 1.5
    endloop
  endfacet
  facet normal -0.332356 0.943154 0
    outer loop
      vertex -9.09465 67.8473 -1.5
      vertex -9.55914 67.6836 1.5
      vertex -9.09465 67.8473 1.5
    endloop
  endfacet
  facet normal -0.332356 0.943154 0
    outer loop
      vertex -9.55914 67.6836 1.5
      vertex -9.09465 67.8473 -1.5
      vertex -9.55914 67.6836 -1.5
    endloop
  endfacet
  facet normal -0.445738 0.895163 0
    outer loop
      vertex -9.55914 67.6836 -1.5
      vertex -10 67.4641 1.5
      vertex -9.55914 67.6836 1.5
    endloop
  endfacet
  facet normal -0.445738 0.895163 0
    outer loop
      vertex -10 67.4641 1.5
      vertex -9.55914 67.6836 -1.5
      vertex -10 67.4641 -1.5
    endloop
  endfacet
  facet normal -0.969796 0.243917 0
    outer loop
      vertex -11.9319 64.735 -1.5
      vertex -11.8118 65.2126 1.5
      vertex -11.8118 65.2126 -1.5
    endloop
  endfacet
  facet normal -0.969796 0.243917 0
    outer loop
      vertex -11.8118 65.2126 1.5
      vertex -11.9319 64.735 -1.5
      vertex -11.9319 64.735 1.5
    endloop
  endfacet
  facet normal -0.213933 -0.976848 0
    outer loop
      vertex -9.09465 -11.8473 -1.5
      vertex -8.61357 -11.9527 1.5
      vertex -9.09465 -11.8473 1.5
    endloop
  endfacet
  facet normal -0.213933 -0.976848 -0
    outer loop
      vertex -8.61357 -11.9527 1.5
      vertex -9.09465 -11.8473 -1.5
      vertex -8.61357 -11.9527 -1.5
    endloop
  endfacet
  facet normal -0.816197 -0.577774 0
    outer loop
      vertex -11.1163 -10.5077 -1.5
      vertex -11.4009 -10.1057 1.5
      vertex -11.4009 -10.1057 -1.5
    endloop
  endfacet
  facet normal -0.816197 -0.577774 0
    outer loop
      vertex -11.4009 -10.1057 1.5
      vertex -11.1163 -10.5077 -1.5
      vertex -11.1163 -10.5077 1.5
    endloop
  endfacet
  facet normal -0.932472 -0.361242 0
    outer loop
      vertex -11.6339 -9.67184 -1.5
      vertex -11.8118 -9.21261 1.5
      vertex -11.8118 -9.21261 -1.5
    endloop
  endfacet
  facet normal -0.932472 -0.361242 0
    outer loop
      vertex -11.8118 -9.21261 1.5
      vertex -11.6339 -9.67184 -1.5
      vertex -11.6339 -9.67184 1.5
    endloop
  endfacet
  facet normal -0.445739 -0.895163 0
    outer loop
      vertex -10 -11.4641 -1.5
      vertex -9.55914 -11.6836 1.5
      vertex -10 -11.4641 1.5
    endloop
  endfacet
  facet normal -0.445739 -0.895163 -0
    outer loop
      vertex -9.55914 -11.6836 1.5
      vertex -10 -11.4641 -1.5
      vertex -9.55914 -11.6836 -1.5
    endloop
  endfacet
  facet normal 1 -0 0
    outer loop
      vertex 0 -11.9981 1.5
      vertex 0 67.9981 -1.5
      vertex 0 67.9981 1.5
    endloop
  endfacet
  facet normal 1 0 0
    outer loop
      vertex 0 67.9981 -1.5
      vertex 0 -11.9981 1.5
      vertex 0 -11.9981 -1.5
    endloop
  endfacet
endsolid OpenSCAD_Model
