solid OpenSCAD_Model
  facet normal 0.998103 0.0615633 0
    outer loop
      vertex 48.5 44.5 29
      vertex 48.4697 44.9916 3
      vertex 48.4697 44.9916 29
    endloop
  endfacet
  facet normal 0.998103 0.0615633 0
    outer loop
      vertex 48.4697 44.9916 3
      vertex 48.5 44.5 29
      vertex 48.5 44.5 3
    endloop
  endfacet
  facet normal -1 0 0
    outer loop
      vertex 40.5076 44.2538 3
      vertex 40.5076 44.7462 29
      vertex 40.5076 44.7462 3
    endloop
  endfacet
  facet normal -1 -0 0
    outer loop
      vertex 40.5076 44.7462 29
      vertex 40.5076 44.2538 3
      vertex 40.5076 44.2538 29
    endloop
  endfacet
  facet normal -0.0922676 0.995734 0
    outer loop
      vertex 44.3768 48.4981 3
      vertex 43.8864 48.4527 29
      vertex 44.3768 48.4981 29
    endloop
  endfacet
  facet normal -0.0922676 0.995734 0
    outer loop
      vertex 43.8864 48.4527 29
      vertex 44.3768 48.4981 3
      vertex 43.8864 48.4527 3
    endloop
  endfacet
  facet normal 0.0307896 -0.999526 0
    outer loop
      vertex 44.3768 40.5019 3
      vertex 44.8691 40.5171 29
      vertex 44.3768 40.5019 29
    endloop
  endfacet
  facet normal 0.0307896 -0.999526 0
    outer loop
      vertex 44.8691 40.5171 29
      vertex 44.3768 40.5019 3
      vertex 44.8691 40.5171 3
    endloop
  endfacet
  facet normal 0.696132 0.717913 -0
    outer loop
      vertex 47.456 47.1948 3
      vertex 47.1025 47.5376 29
      vertex 47.456 47.1948 29
    endloop
  endfacet
  facet normal 0.696132 0.717913 0
    outer loop
      vertex 47.1025 47.5376 29
      vertex 47.456 47.1948 3
      vertex 47.1025 47.5376 3
    endloop
  endfacet
  facet normal -0.739008 0.673696 0
    outer loop
      vertex 41.3837 47.0077 3
      vertex 41.7155 47.3716 29
      vertex 41.7155 47.3716 3
    endloop
  endfacet
  facet normal -0.739008 0.673696 0
    outer loop
      vertex 41.7155 47.3716 29
      vertex 41.3837 47.0077 3
      vertex 41.3837 47.0077 29
    endloop
  endfacet
  facet normal -0.445738 0.895163 0
    outer loop
      vertex 42.9409 48.1836 3
      vertex 42.5 47.9641 29
      vertex 42.9409 48.1836 29
    endloop
  endfacet
  facet normal -0.445738 0.895163 0
    outer loop
      vertex 42.5 47.9641 29
      vertex 42.9409 48.1836 3
      vertex 42.5 47.9641 3
    endloop
  endfacet
  facet normal 0.908464 -0.417963 0
    outer loop
      vertex 48.024 42.6076 29
      vertex 48.2299 43.055 3
      vertex 48.2299 43.055 29
    endloop
  endfacet
  facet normal 0.908464 -0.417963 0
    outer loop
      vertex 48.2299 43.055 3
      vertex 48.024 42.6076 29
      vertex 48.024 42.6076 3
    endloop
  endfacet
  facet normal 0.908464 0.417963 0
    outer loop
      vertex 48.2299 45.945 29
      vertex 48.024 46.3924 3
      vertex 48.024 46.3924 29
    endloop
  endfacet
  facet normal 0.908464 0.417963 0
    outer loop
      vertex 48.024 46.3924 3
      vertex 48.2299 45.945 29
      vertex 48.2299 45.945 3
    endloop
  endfacet
  facet normal 0.389791 0.920903 -0
    outer loop
      vertex 46.283 48.0807 3
      vertex 45.8294 48.2726 29
      vertex 46.283 48.0807 29
    endloop
  endfacet
  facet normal 0.389791 0.920903 0
    outer loop
      vertex 45.8294 48.2726 29
      vertex 46.283 48.0807 3
      vertex 45.8294 48.2726 3
    endloop
  endfacet
  facet normal 0.499999 0.866026 -0
    outer loop
      vertex 46.7095 47.8344 3
      vertex 46.283 48.0807 29
      vertex 46.7095 47.8344 29
    endloop
  endfacet
  facet normal 0.499999 0.866026 0
    outer loop
      vertex 46.283 48.0807 29
      vertex 46.7095 47.8344 3
      vertex 46.283 48.0807 3
    endloop
  endfacet
  facet normal -0.932473 0.361239 0
    outer loop
      vertex 40.6882 45.7126 3
      vertex 40.8661 46.1718 29
      vertex 40.8661 46.1718 3
    endloop
  endfacet
  facet normal -0.932473 0.361239 0
    outer loop
      vertex 40.8661 46.1718 29
      vertex 40.6882 45.7126 3
      vertex 40.6882 45.7126 29
    endloop
  endfacet
  facet normal -0.816197 0.577774 0
    outer loop
      vertex 41.0991 46.6057 3
      vertex 41.3837 47.0077 29
      vertex 41.3837 47.0077 3
    endloop
  endfacet
  facet normal -0.816197 0.577774 0
    outer loop
      vertex 41.3837 47.0077 29
      vertex 41.0991 46.6057 3
      vertex 41.0991 46.6057 29
    endloop
  endfacet
  facet normal -0.969797 0.243915 0
    outer loop
      vertex 40.5681 45.235 3
      vertex 40.6882 45.7126 29
      vertex 40.6882 45.7126 3
    endloop
  endfacet
  facet normal -0.969797 0.243915 0
    outer loop
      vertex 40.6882 45.7126 29
      vertex 40.5681 45.235 3
      vertex 40.5681 45.235 29
    endloop
  endfacet
  facet normal -0.213932 0.976849 0
    outer loop
      vertex 43.8864 48.4527 3
      vertex 43.4053 48.3473 29
      vertex 43.8864 48.4527 29
    endloop
  endfacet
  facet normal -0.213932 0.976849 0
    outer loop
      vertex 43.4053 48.3473 29
      vertex 43.8864 48.4527 3
      vertex 43.4053 48.3473 3
    endloop
  endfacet
  facet normal 0.982974 -0.183746 0
    outer loop
      vertex 48.3792 43.5243 29
      vertex 48.4697 44.0084 3
      vertex 48.4697 44.0084 29
    endloop
  endfacet
  facet normal 0.982974 -0.183746 0
    outer loop
      vertex 48.4697 44.0084 3
      vertex 48.3792 43.5243 29
      vertex 48.3792 43.5243 3
    endloop
  endfacet
  facet normal 0 0 -1
    outer loop
      vertex 47.25 44.5 3
      vertex 48.5 44.5 3
      vertex 48.4697 44.0084 3
    endloop
  endfacet
  facet normal 0 0 -1
    outer loop
      vertex 47.2058 44.009 3
      vertex 48.4697 44.0084 3
      vertex 48.3792 43.5243 3
    endloop
  endfacet
  facet normal 0 0 -1
    outer loop
      vertex 48.5 44.5 3
      vertex 47.25 44.5 3
      vertex 48.4697 44.9916 3
    endloop
  endfacet
  facet normal 0 0 -1
    outer loop
      vertex 47.0746 43.5337 3
      vertex 48.3792 43.5243 3
      vertex 48.2299 43.055 3
    endloop
  endfacet
  facet normal 0 0 -1
    outer loop
      vertex 47.2058 44.991 3
      vertex 48.4697 44.9916 3
      vertex 47.25 44.5 3
    endloop
  endfacet
  facet normal 0 0 -1
    outer loop
      vertex 47.0746 43.5337 3
      vertex 48.2299 43.055 3
      vertex 48.024 42.6076 3
    endloop
  endfacet
  facet normal -0 0 -1
    outer loop
      vertex 48.4697 44.9916 3
      vertex 47.2058 44.991 3
      vertex 48.3792 45.4757 3
    endloop
  endfacet
  facet normal 0 0 -1
    outer loop
      vertex 46.8607 43.0895 3
      vertex 48.024 42.6076 3
      vertex 47.7648 42.1889 3
    endloop
  endfacet
  facet normal 0 0 -1
    outer loop
      vertex 47.0746 45.4663 3
      vertex 48.3792 45.4757 3
      vertex 47.2058 44.991 3
    endloop
  endfacet
  facet normal 0 0 -1
    outer loop
      vertex 46.5709 42.6907 3
      vertex 47.7648 42.1889 3
      vertex 47.456 41.8052 3
    endloop
  endfacet
  facet normal -0 0 -1
    outer loop
      vertex 48.3792 45.4757 3
      vertex 47.0746 45.4663 3
      vertex 48.2299 45.945 3
    endloop
  endfacet
  facet normal -0 0 -1
    outer loop
      vertex 48.2299 45.945 3
      vertex 47.0746 45.4663 3
      vertex 48.024 46.3924 3
    endloop
  endfacet
  facet normal 0 0 -1
    outer loop
      vertex 48.4697 44.0084 3
      vertex 47.2058 44.009 3
      vertex 47.25 44.5 3
    endloop
  endfacet
  facet normal 0 0 -1
    outer loop
      vertex 46.5709 42.6907 3
      vertex 47.456 41.8052 3
      vertex 47.1025 41.4624 3
    endloop
  endfacet
  facet normal 0 0 -1
    outer loop
      vertex 48.3792 43.5243 3
      vertex 47.0746 43.5337 3
      vertex 47.2058 44.009 3
    endloop
  endfacet
  facet normal 0 0 -1
    outer loop
      vertex 48.024 42.6076 3
      vertex 46.8607 43.0895 3
      vertex 47.0746 43.5337 3
    endloop
  endfacet
  facet normal 0 0 -1
    outer loop
      vertex 46.2146 42.35 3
      vertex 47.1025 41.4624 3
      vertex 46.7095 41.1656 3
    endloop
  endfacet
  facet normal 0 0 -1
    outer loop
      vertex 47.7648 42.1889 3
      vertex 46.5709 42.6907 3
      vertex 46.8607 43.0895 3
    endloop
  endfacet
  facet normal 0 0 -1
    outer loop
      vertex 45.8031 42.0784 3
      vertex 46.7095 41.1656 3
      vertex 46.283 40.9193 3
    endloop
  endfacet
  facet normal 0 0 -1
    outer loop
      vertex 47.1025 41.4624 3
      vertex 46.2146 42.35 3
      vertex 46.5709 42.6907 3
    endloop
  endfacet
  facet normal 0 0 -1
    outer loop
      vertex 45.3498 41.8846 3
      vertex 46.283 40.9193 3
      vertex 45.8294 40.7274 3
    endloop
  endfacet
  facet normal 0 0 -1
    outer loop
      vertex 46.7095 41.1656 3
      vertex 45.8031 42.0784 3
      vertex 46.2146 42.35 3
    endloop
  endfacet
  facet normal 0 0 -1
    outer loop
      vertex 45.3498 41.8846 3
      vertex 45.8294 40.7274 3
      vertex 45.3557 40.5926 3
    endloop
  endfacet
  facet normal 0 0 -1
    outer loop
      vertex 46.283 40.9193 3
      vertex 45.3498 41.8846 3
      vertex 45.8031 42.0784 3
    endloop
  endfacet
  facet normal 0 0 -1
    outer loop
      vertex 45.3557 40.5926 3
      vertex 44.8691 41.7749 3
      vertex 45.3498 41.8846 3
    endloop
  endfacet
  facet normal 0 0 -1
    outer loop
      vertex 44.8691 40.5171 3
      vertex 44.8691 41.7749 3
      vertex 45.3557 40.5926 3
    endloop
  endfacet
  facet normal 0 0 -1
    outer loop
      vertex 44.3766 41.7528 3
      vertex 44.8691 40.5171 3
      vertex 44.3768 40.5019 3
    endloop
  endfacet
  facet normal 0 0 -1
    outer loop
      vertex 44.8691 40.5171 3
      vertex 44.3766 41.7528 3
      vertex 44.8691 41.7749 3
    endloop
  endfacet
  facet normal 0 0 -1
    outer loop
      vertex 43.8864 40.5473 3
      vertex 44.3766 41.7528 3
      vertex 44.3768 40.5019 3
    endloop
  endfacet
  facet normal -0 0 -1
    outer loop
      vertex 44.3766 41.7528 3
      vertex 43.8864 40.5473 3
      vertex 43.8881 41.8189 3
    endloop
  endfacet
  facet normal 0 0 -1
    outer loop
      vertex 43.4053 40.6527 3
      vertex 43.8881 41.8189 3
      vertex 43.8864 40.5473 3
    endloop
  endfacet
  facet normal -0 0 -1
    outer loop
      vertex 43.8881 41.8189 3
      vertex 43.4053 40.6527 3
      vertex 43.4192 41.9713 3
    endloop
  endfacet
  facet normal 0 0 -1
    outer loop
      vertex 42.9409 40.8164 3
      vertex 43.4192 41.9713 3
      vertex 43.4053 40.6527 3
    endloop
  endfacet
  facet normal 0 0 -1
    outer loop
      vertex 42.5 41.0359 3
      vertex 43.4192 41.9713 3
      vertex 42.9409 40.8164 3
    endloop
  endfacet
  facet normal -0 0 -1
    outer loop
      vertex 43.4192 41.9713 3
      vertex 42.5 41.0359 3
      vertex 42.985 42.2049 3
    endloop
  endfacet
  facet normal 0 0 -1
    outer loop
      vertex 42.0895 41.3079 3
      vertex 42.985 42.2049 3
      vertex 42.5 41.0359 3
    endloop
  endfacet
  facet normal -0 0 -1
    outer loop
      vertex 42.985 42.2049 3
      vertex 42.0895 41.3079 3
      vertex 42.5996 42.5123 3
    endloop
  endfacet
  facet normal 0 0 -1
    outer loop
      vertex 41.7155 41.6284 3
      vertex 42.5996 42.5123 3
      vertex 42.0895 41.3079 3
    endloop
  endfacet
  facet normal 0 0 -1
    outer loop
      vertex 41.3837 41.9923 3
      vertex 42.5996 42.5123 3
      vertex 41.7155 41.6284 3
    endloop
  endfacet
  facet normal -0 0 -1
    outer loop
      vertex 42.5996 42.5123 3
      vertex 41.3837 41.9923 3
      vertex 42.2752 42.8836 3
    endloop
  endfacet
  facet normal 0 0 -1
    outer loop
      vertex 41.0991 42.3943 3
      vertex 42.2752 42.8836 3
      vertex 41.3837 41.9923 3
    endloop
  endfacet
  facet normal 0 0 -1
    outer loop
      vertex 40.8661 42.8282 3
      vertex 42.0223 43.3068 3
      vertex 41.0991 42.3943 3
    endloop
  endfacet
  facet normal -0 0 -1
    outer loop
      vertex 42.2752 42.8836 3
      vertex 41.0991 42.3943 3
      vertex 42.0223 43.3068 3
    endloop
  endfacet
  facet normal 0 0 -1
    outer loop
      vertex 46.8607 45.9105 3
      vertex 48.024 46.3924 3
      vertex 47.0746 45.4663 3
    endloop
  endfacet
  facet normal -0 0 -1
    outer loop
      vertex 48.024 46.3924 3
      vertex 46.8607 45.9105 3
      vertex 47.7648 46.8111 3
    endloop
  endfacet
  facet normal 0 0 -1
    outer loop
      vertex 46.5709 46.3093 3
      vertex 47.7648 46.8111 3
      vertex 46.8607 45.9105 3
    endloop
  endfacet
  facet normal -0 0 -1
    outer loop
      vertex 47.7648 46.8111 3
      vertex 46.5709 46.3093 3
      vertex 47.456 47.1948 3
    endloop
  endfacet
  facet normal -0 0 -1
    outer loop
      vertex 47.456 47.1948 3
      vertex 46.5709 46.3093 3
      vertex 47.1025 47.5376 3
    endloop
  endfacet
  facet normal 0 0 -1
    outer loop
      vertex 46.2146 46.65 3
      vertex 47.1025 47.5376 3
      vertex 46.5709 46.3093 3
    endloop
  endfacet
  facet normal -0 0 -1
    outer loop
      vertex 47.1025 47.5376 3
      vertex 46.2146 46.65 3
      vertex 46.7095 47.8344 3
    endloop
  endfacet
  facet normal 0 0 -1
    outer loop
      vertex 45.8031 46.9216 3
      vertex 46.7095 47.8344 3
      vertex 46.2146 46.65 3
    endloop
  endfacet
  facet normal -0 0 -1
    outer loop
      vertex 46.7095 47.8344 3
      vertex 45.8031 46.9216 3
      vertex 46.283 48.0807 3
    endloop
  endfacet
  facet normal 0 0 -1
    outer loop
      vertex 45.3498 47.1154 3
      vertex 46.283 48.0807 3
      vertex 45.8031 46.9216 3
    endloop
  endfacet
  facet normal -0 0 -1
    outer loop
      vertex 46.283 48.0807 3
      vertex 45.3498 47.1154 3
      vertex 45.8294 48.2726 3
    endloop
  endfacet
  facet normal -0 0 -1
    outer loop
      vertex 45.8294 48.2726 3
      vertex 45.3498 47.1154 3
      vertex 45.3557 48.4074 3
    endloop
  endfacet
  facet normal 0 0 -1
    outer loop
      vertex 44.8691 47.2251 3
      vertex 45.3557 48.4074 3
      vertex 45.3498 47.1154 3
    endloop
  endfacet
  facet normal 0 0 -1
    outer loop
      vertex 44.8691 47.2251 3
      vertex 44.8691 48.4829 3
      vertex 45.3557 48.4074 3
    endloop
  endfacet
  facet normal 0 0 -1
    outer loop
      vertex 44.3766 47.2472 3
      vertex 44.8691 48.4829 3
      vertex 44.8691 47.2251 3
    endloop
  endfacet
  facet normal -0 0 -1
    outer loop
      vertex 44.8691 48.4829 3
      vertex 44.3766 47.2472 3
      vertex 44.3768 48.4981 3
    endloop
  endfacet
  facet normal 0 0 -1
    outer loop
      vertex 43.8864 48.4527 3
      vertex 44.3766 47.2472 3
      vertex 43.8881 47.1811 3
    endloop
  endfacet
  facet normal 0 0 -1
    outer loop
      vertex 44.3766 47.2472 3
      vertex 43.8864 48.4527 3
      vertex 44.3768 48.4981 3
    endloop
  endfacet
  facet normal 0 0 -1
    outer loop
      vertex 43.4053 48.3473 3
      vertex 43.8881 47.1811 3
      vertex 43.4192 47.0287 3
    endloop
  endfacet
  facet normal 0 0 -1
    outer loop
      vertex 43.8881 47.1811 3
      vertex 43.4053 48.3473 3
      vertex 43.8864 48.4527 3
    endloop
  endfacet
  facet normal 0 0 -1
    outer loop
      vertex 42.5 47.9641 3
      vertex 43.4192 47.0287 3
      vertex 42.985 46.7951 3
    endloop
  endfacet
  facet normal 0 0 -1
    outer loop
      vertex 43.4192 47.0287 3
      vertex 42.9409 48.1836 3
      vertex 43.4053 48.3473 3
    endloop
  endfacet
  facet normal 0 0 -1
    outer loop
      vertex 42.0895 47.6921 3
      vertex 42.985 46.7951 3
      vertex 42.5996 46.4877 3
    endloop
  endfacet
  facet normal 0 0 -1
    outer loop
      vertex 43.4192 47.0287 3
      vertex 42.5 47.9641 3
      vertex 42.9409 48.1836 3
    endloop
  endfacet
  facet normal 0 0 -1
    outer loop
      vertex 41.3837 47.0077 3
      vertex 42.5996 46.4877 3
      vertex 42.2752 46.1164 3
    endloop
  endfacet
  facet normal 0 0 -1
    outer loop
      vertex 42.985 46.7951 3
      vertex 42.0895 47.6921 3
      vertex 42.5 47.9641 3
    endloop
  endfacet
  facet normal 0 0 -1
    outer loop
      vertex 41.0991 46.6057 3
      vertex 42.2752 46.1164 3
      vertex 42.0223 45.6932 3
    endloop
  endfacet
  facet normal 0 0 -1
    outer loop
      vertex 40.6882 45.7126 3
      vertex 42.0223 45.6932 3
      vertex 41.8491 45.2316 3
    endloop
  endfacet
  facet normal 0 0 -1
    outer loop
      vertex 40.5681 45.235 3
      vertex 41.8491 45.2316 3
      vertex 41.7611 44.7465 3
    endloop
  endfacet
  facet normal 0 0 -1
    outer loop
      vertex 42.5996 46.4877 3
      vertex 41.7155 47.3716 3
      vertex 42.0895 47.6921 3
    endloop
  endfacet
  facet normal 0 0 -1
    outer loop
      vertex 40.6882 43.2874 3
      vertex 42.0223 43.3068 3
      vertex 40.8661 42.8282 3
    endloop
  endfacet
  facet normal -0 0 -1
    outer loop
      vertex 42.0223 43.3068 3
      vertex 40.6882 43.2874 3
      vertex 41.8491 43.7684 3
    endloop
  endfacet
  facet normal 0 0 -1
    outer loop
      vertex 42.5996 46.4877 3
      vertex 41.3837 47.0077 3
      vertex 41.7155 47.3716 3
    endloop
  endfacet
  facet normal 0 0 -1
    outer loop
      vertex 40.5681 43.765 3
      vertex 41.8491 43.7684 3
      vertex 40.6882 43.2874 3
    endloop
  endfacet
  facet normal 0 0 -1
    outer loop
      vertex 42.2752 46.1164 3
      vertex 41.0991 46.6057 3
      vertex 41.3837 47.0077 3
    endloop
  endfacet
  facet normal -0 0 -1
    outer loop
      vertex 41.8491 43.7684 3
      vertex 40.5681 43.765 3
      vertex 41.7611 44.2535 3
    endloop
  endfacet
  facet normal 0 0 -1
    outer loop
      vertex 42.0223 45.6932 3
      vertex 40.8661 46.1718 3
      vertex 41.0991 46.6057 3
    endloop
  endfacet
  facet normal 0 0 -1
    outer loop
      vertex 40.5076 44.2538 3
      vertex 41.7611 44.2535 3
      vertex 40.5681 43.765 3
    endloop
  endfacet
  facet normal 0 0 -1
    outer loop
      vertex 42.0223 45.6932 3
      vertex 40.6882 45.7126 3
      vertex 40.8661 46.1718 3
    endloop
  endfacet
  facet normal 0 0 -1
    outer loop
      vertex 41.7611 44.2535 3
      vertex 40.5076 44.2538 3
      vertex 41.7611 44.7465 3
    endloop
  endfacet
  facet normal 0 0 -1
    outer loop
      vertex 41.8491 45.2316 3
      vertex 40.5681 45.235 3
      vertex 40.6882 45.7126 3
    endloop
  endfacet
  facet normal 0 0 -1
    outer loop
      vertex 40.5076 44.7462 3
      vertex 41.7611 44.7465 3
      vertex 40.5076 44.2538 3
    endloop
  endfacet
  facet normal -0 0 -1
    outer loop
      vertex 41.7611 44.7465 3
      vertex 40.5076 44.7462 3
      vertex 40.5681 45.235 3
    endloop
  endfacet
  facet normal 0.153389 -0.988166 0
    outer loop
      vertex 44.8691 40.5171 3
      vertex 45.3557 40.5926 29
      vertex 44.8691 40.5171 29
    endloop
  endfacet
  facet normal 0.153389 -0.988166 0
    outer loop
      vertex 45.3557 40.5926 29
      vertex 44.8691 40.5171 3
      vertex 45.3557 40.5926 3
    endloop
  endfacet
  facet normal 0.952941 0.303155 0
    outer loop
      vertex 48.3792 45.4757 29
      vertex 48.2299 45.945 3
      vertex 48.2299 45.945 29
    endloop
  endfacet
  facet normal 0.952941 0.303155 0
    outer loop
      vertex 48.2299 45.945 3
      vertex 48.3792 45.4757 29
      vertex 48.3792 45.4757 3
    endloop
  endfacet
  facet normal 0.982974 0.183746 0
    outer loop
      vertex 48.4697 44.9916 29
      vertex 48.3792 45.4757 3
      vertex 48.3792 45.4757 29
    endloop
  endfacet
  facet normal 0.982974 0.183746 0
    outer loop
      vertex 48.3792 45.4757 3
      vertex 48.4697 44.9916 29
      vertex 48.4697 44.9916 3
    endloop
  endfacet
  facet normal 0.779081 0.626923 0
    outer loop
      vertex 47.7648 46.8111 29
      vertex 47.456 47.1948 3
      vertex 47.456 47.1948 29
    endloop
  endfacet
  facet normal 0.779081 0.626923 0
    outer loop
      vertex 47.456 47.1948 3
      vertex 47.7648 46.8111 29
      vertex 47.7648 46.8111 3
    endloop
  endfacet
  facet normal 0.850218 0.526431 0
    outer loop
      vertex 48.024 46.3924 29
      vertex 47.7648 46.8111 3
      vertex 47.7648 46.8111 29
    endloop
  endfacet
  facet normal 0.850218 0.526431 0
    outer loop
      vertex 47.7648 46.8111 3
      vertex 48.024 46.3924 29
      vertex 48.024 46.3924 3
    endloop
  endfacet
  facet normal 0.153389 0.988166 -0
    outer loop
      vertex 45.3557 48.4074 3
      vertex 44.8691 48.4829 29
      vertex 45.3557 48.4074 29
    endloop
  endfacet
  facet normal 0.153389 0.988166 0
    outer loop
      vertex 44.8691 48.4829 29
      vertex 45.3557 48.4074 3
      vertex 44.8691 48.4829 3
    endloop
  endfacet
  facet normal 0.273666 0.961825 -0
    outer loop
      vertex 45.8294 48.2726 3
      vertex 45.3557 48.4074 29
      vertex 45.8294 48.2726 29
    endloop
  endfacet
  facet normal 0.273666 0.961825 0
    outer loop
      vertex 45.3557 48.4074 29
      vertex 45.8294 48.2726 3
      vertex 45.3557 48.4074 3
    endloop
  endfacet
  facet normal 0.0307896 0.999526 -0
    outer loop
      vertex 44.8691 48.4829 3
      vertex 44.3768 48.4981 29
      vertex 44.8691 48.4829 29
    endloop
  endfacet
  facet normal 0.0307896 0.999526 0
    outer loop
      vertex 44.3768 48.4981 29
      vertex 44.8691 48.4829 3
      vertex 44.3768 48.4981 3
    endloop
  endfacet
  facet normal 0.602632 0.79802 -0
    outer loop
      vertex 47.1025 47.5376 3
      vertex 46.7095 47.8344 29
      vertex 47.1025 47.5376 29
    endloop
  endfacet
  facet normal 0.602632 0.79802 0
    outer loop
      vertex 46.7095 47.8344 29
      vertex 47.1025 47.5376 3
      vertex 46.7095 47.8344 3
    endloop
  endfacet
  facet normal -0.881011 0.473096 0
    outer loop
      vertex 40.8661 46.1718 3
      vertex 41.0991 46.6057 29
      vertex 41.0991 46.6057 3
    endloop
  endfacet
  facet normal -0.881011 0.473096 0
    outer loop
      vertex 41.0991 46.6057 29
      vertex 40.8661 46.1718 3
      vertex 40.8661 46.1718 29
    endloop
  endfacet
  facet normal -0.992421 0.122887 0
    outer loop
      vertex 40.5076 44.7462 3
      vertex 40.5681 45.235 29
      vertex 40.5681 45.235 3
    endloop
  endfacet
  facet normal -0.992421 0.122887 0
    outer loop
      vertex 40.5681 45.235 29
      vertex 40.5076 44.7462 3
      vertex 40.5076 44.7462 29
    endloop
  endfacet
  facet normal 0 0 1
    outer loop
      vertex 47.25 44.5 29
      vertex 48.5 44.5 29
      vertex 48.4697 44.9916 29
    endloop
  endfacet
  facet normal 0 0 1
    outer loop
      vertex 47.2058 44.991 29
      vertex 48.4697 44.9916 29
      vertex 48.3792 45.4757 29
    endloop
  endfacet
  facet normal 0 0 1
    outer loop
      vertex 48.5 44.5 29
      vertex 47.25 44.5 29
      vertex 48.4697 44.0084 29
    endloop
  endfacet
  facet normal 0 0 1
    outer loop
      vertex 47.0746 45.4663 29
      vertex 48.3792 45.4757 29
      vertex 48.2299 45.945 29
    endloop
  endfacet
  facet normal -0 0 1
    outer loop
      vertex 47.2058 44.009 29
      vertex 48.4697 44.0084 29
      vertex 47.25 44.5 29
    endloop
  endfacet
  facet normal 0 0 1
    outer loop
      vertex 47.0746 45.4663 29
      vertex 48.2299 45.945 29
      vertex 48.024 46.3924 29
    endloop
  endfacet
  facet normal 0 0 1
    outer loop
      vertex 48.4697 44.0084 29
      vertex 47.2058 44.009 29
      vertex 48.3792 43.5243 29
    endloop
  endfacet
  facet normal 0 0 1
    outer loop
      vertex 46.8607 45.9105 29
      vertex 48.024 46.3924 29
      vertex 47.7648 46.8111 29
    endloop
  endfacet
  facet normal -0 0 1
    outer loop
      vertex 47.0746 43.5337 29
      vertex 48.3792 43.5243 29
      vertex 47.2058 44.009 29
    endloop
  endfacet
  facet normal 0 0 1
    outer loop
      vertex 46.5709 46.3093 29
      vertex 47.7648 46.8111 29
      vertex 47.456 47.1948 29
    endloop
  endfacet
  facet normal 0 0 1
    outer loop
      vertex 48.3792 43.5243 29
      vertex 47.0746 43.5337 29
      vertex 48.2299 43.055 29
    endloop
  endfacet
  facet normal 0 0 1
    outer loop
      vertex 48.2299 43.055 29
      vertex 47.0746 43.5337 29
      vertex 48.024 42.6076 29
    endloop
  endfacet
  facet normal 0 0 1
    outer loop
      vertex 48.4697 44.9916 29
      vertex 47.2058 44.991 29
      vertex 47.25 44.5 29
    endloop
  endfacet
  facet normal 0 0 1
    outer loop
      vertex 46.5709 46.3093 29
      vertex 47.456 47.1948 29
      vertex 47.1025 47.5376 29
    endloop
  endfacet
  facet normal 0 0 1
    outer loop
      vertex 48.3792 45.4757 29
      vertex 47.0746 45.4663 29
      vertex 47.2058 44.991 29
    endloop
  endfacet
  facet normal 0 0 1
    outer loop
      vertex 48.024 46.3924 29
      vertex 46.8607 45.9105 29
      vertex 47.0746 45.4663 29
    endloop
  endfacet
  facet normal 0 0 1
    outer loop
      vertex 46.2146 46.65 29
      vertex 47.1025 47.5376 29
      vertex 46.7095 47.8344 29
    endloop
  endfacet
  facet normal 0 0 1
    outer loop
      vertex 47.7648 46.8111 29
      vertex 46.5709 46.3093 29
      vertex 46.8607 45.9105 29
    endloop
  endfacet
  facet normal 0 0 1
    outer loop
      vertex 45.8031 46.9216 29
      vertex 46.7095 47.8344 29
      vertex 46.283 48.0807 29
    endloop
  endfacet
  facet normal 0 0 1
    outer loop
      vertex 47.1025 47.5376 29
      vertex 46.2146 46.65 29
      vertex 46.5709 46.3093 29
    endloop
  endfacet
  facet normal 0 0 1
    outer loop
      vertex 45.3498 47.1154 29
      vertex 46.283 48.0807 29
      vertex 45.8294 48.2726 29
    endloop
  endfacet
  facet normal 0 0 1
    outer loop
      vertex 46.7095 47.8344 29
      vertex 45.8031 46.9216 29
      vertex 46.2146 46.65 29
    endloop
  endfacet
  facet normal 0 0 1
    outer loop
      vertex 45.3498 47.1154 29
      vertex 45.8294 48.2726 29
      vertex 45.3557 48.4074 29
    endloop
  endfacet
  facet normal 0 0 1
    outer loop
      vertex 46.283 48.0807 29
      vertex 45.3498 47.1154 29
      vertex 45.8031 46.9216 29
    endloop
  endfacet
  facet normal 0 0 1
    outer loop
      vertex 45.3557 48.4074 29
      vertex 44.8691 47.2251 29
      vertex 45.3498 47.1154 29
    endloop
  endfacet
  facet normal 0 0 1
    outer loop
      vertex 44.8691 48.4829 29
      vertex 44.8691 47.2251 29
      vertex 45.3557 48.4074 29
    endloop
  endfacet
  facet normal 0 0 1
    outer loop
      vertex 44.3766 47.2472 29
      vertex 44.8691 48.4829 29
      vertex 44.3768 48.4981 29
    endloop
  endfacet
  facet normal 0 0 1
    outer loop
      vertex 44.8691 48.4829 29
      vertex 44.3766 47.2472 29
      vertex 44.8691 47.2251 29
    endloop
  endfacet
  facet normal -0 0 1
    outer loop
      vertex 43.8864 48.4527 29
      vertex 44.3766 47.2472 29
      vertex 44.3768 48.4981 29
    endloop
  endfacet
  facet normal 0 0 1
    outer loop
      vertex 44.3766 47.2472 29
      vertex 43.8864 48.4527 29
      vertex 43.8881 47.1811 29
    endloop
  endfacet
  facet normal -0 0 1
    outer loop
      vertex 43.4053 48.3473 29
      vertex 43.8881 47.1811 29
      vertex 43.8864 48.4527 29
    endloop
  endfacet
  facet normal 0 0 1
    outer loop
      vertex 43.8881 47.1811 29
      vertex 43.4053 48.3473 29
      vertex 43.4192 47.0287 29
    endloop
  endfacet
  facet normal -0 0 1
    outer loop
      vertex 42.9409 48.1836 29
      vertex 43.4192 47.0287 29
      vertex 43.4053 48.3473 29
    endloop
  endfacet
  facet normal -0 0 1
    outer loop
      vertex 42.5 47.9641 29
      vertex 43.4192 47.0287 29
      vertex 42.9409 48.1836 29
    endloop
  endfacet
  facet normal 0 0 1
    outer loop
      vertex 43.4192 47.0287 29
      vertex 42.5 47.9641 29
      vertex 42.985 46.7951 29
    endloop
  endfacet
  facet normal -0 0 1
    outer loop
      vertex 42.0895 47.6921 29
      vertex 42.985 46.7951 29
      vertex 42.5 47.9641 29
    endloop
  endfacet
  facet normal 0 0 1
    outer loop
      vertex 42.985 46.7951 29
      vertex 42.0895 47.6921 29
      vertex 42.5996 46.4877 29
    endloop
  endfacet
  facet normal -0 0 1
    outer loop
      vertex 41.7155 47.3716 29
      vertex 42.5996 46.4877 29
      vertex 42.0895 47.6921 29
    endloop
  endfacet
  facet normal -0 0 1
    outer loop
      vertex 41.3837 47.0077 29
      vertex 42.5996 46.4877 29
      vertex 41.7155 47.3716 29
    endloop
  endfacet
  facet normal 0 0 1
    outer loop
      vertex 42.5996 46.4877 29
      vertex 41.3837 47.0077 29
      vertex 42.2752 46.1164 29
    endloop
  endfacet
  facet normal -0 0 1
    outer loop
      vertex 41.0991 46.6057 29
      vertex 42.2752 46.1164 29
      vertex 41.3837 47.0077 29
    endloop
  endfacet
  facet normal -0 0 1
    outer loop
      vertex 40.8661 46.1718 29
      vertex 42.0223 45.6932 29
      vertex 41.0991 46.6057 29
    endloop
  endfacet
  facet normal 0 0 1
    outer loop
      vertex 42.2752 46.1164 29
      vertex 41.0991 46.6057 29
      vertex 42.0223 45.6932 29
    endloop
  endfacet
  facet normal -0 0 1
    outer loop
      vertex 46.8607 43.0895 29
      vertex 48.024 42.6076 29
      vertex 47.0746 43.5337 29
    endloop
  endfacet
  facet normal 0 0 1
    outer loop
      vertex 48.024 42.6076 29
      vertex 46.8607 43.0895 29
      vertex 47.7648 42.1889 29
    endloop
  endfacet
  facet normal -0 0 1
    outer loop
      vertex 46.5709 42.6907 29
      vertex 47.7648 42.1889 29
      vertex 46.8607 43.0895 29
    endloop
  endfacet
  facet normal 0 0 1
    outer loop
      vertex 47.7648 42.1889 29
      vertex 46.5709 42.6907 29
      vertex 47.456 41.8052 29
    endloop
  endfacet
  facet normal 0 0 1
    outer loop
      vertex 47.456 41.8052 29
      vertex 46.5709 42.6907 29
      vertex 47.1025 41.4624 29
    endloop
  endfacet
  facet normal -0 0 1
    outer loop
      vertex 46.2146 42.35 29
      vertex 47.1025 41.4624 29
      vertex 46.5709 42.6907 29
    endloop
  endfacet
  facet normal 0 0 1
    outer loop
      vertex 47.1025 41.4624 29
      vertex 46.2146 42.35 29
      vertex 46.7095 41.1656 29
    endloop
  endfacet
  facet normal -0 0 1
    outer loop
      vertex 45.8031 42.0784 29
      vertex 46.7095 41.1656 29
      vertex 46.2146 42.35 29
    endloop
  endfacet
  facet normal 0 0 1
    outer loop
      vertex 46.7095 41.1656 29
      vertex 45.8031 42.0784 29
      vertex 46.283 40.9193 29
    endloop
  endfacet
  facet normal -0 0 1
    outer loop
      vertex 45.3498 41.8846 29
      vertex 46.283 40.9193 29
      vertex 45.8031 42.0784 29
    endloop
  endfacet
  facet normal 0 0 1
    outer loop
      vertex 46.283 40.9193 29
      vertex 45.3498 41.8846 29
      vertex 45.8294 40.7274 29
    endloop
  endfacet
  facet normal 0 0 1
    outer loop
      vertex 45.8294 40.7274 29
      vertex 45.3498 41.8846 29
      vertex 45.3557 40.5926 29
    endloop
  endfacet
  facet normal -0 0 1
    outer loop
      vertex 44.8691 41.7749 29
      vertex 45.3557 40.5926 29
      vertex 45.3498 41.8846 29
    endloop
  endfacet
  facet normal 0 0 1
    outer loop
      vertex 44.8691 41.7749 29
      vertex 44.8691 40.5171 29
      vertex 45.3557 40.5926 29
    endloop
  endfacet
  facet normal -0 0 1
    outer loop
      vertex 44.3766 41.7528 29
      vertex 44.8691 40.5171 29
      vertex 44.8691 41.7749 29
    endloop
  endfacet
  facet normal 0 0 1
    outer loop
      vertex 44.8691 40.5171 29
      vertex 44.3766 41.7528 29
      vertex 44.3768 40.5019 29
    endloop
  endfacet
  facet normal 0 0 1
    outer loop
      vertex 43.8864 40.5473 29
      vertex 44.3766 41.7528 29
      vertex 43.8881 41.8189 29
    endloop
  endfacet
  facet normal 0 0 1
    outer loop
      vertex 44.3766 41.7528 29
      vertex 43.8864 40.5473 29
      vertex 44.3768 40.5019 29
    endloop
  endfacet
  facet normal 0 0 1
    outer loop
      vertex 43.4053 40.6527 29
      vertex 43.8881 41.8189 29
      vertex 43.4192 41.9713 29
    endloop
  endfacet
  facet normal 0 0 1
    outer loop
      vertex 43.8881 41.8189 29
      vertex 43.4053 40.6527 29
      vertex 43.8864 40.5473 29
    endloop
  endfacet
  facet normal 0 0 1
    outer loop
      vertex 42.5 41.0359 29
      vertex 43.4192 41.9713 29
      vertex 42.985 42.2049 29
    endloop
  endfacet
  facet normal 0 0 1
    outer loop
      vertex 43.4192 41.9713 29
      vertex 42.9409 40.8164 29
      vertex 43.4053 40.6527 29
    endloop
  endfacet
  facet normal 0 0 1
    outer loop
      vertex 42.0895 41.3079 29
      vertex 42.985 42.2049 29
      vertex 42.5996 42.5123 29
    endloop
  endfacet
  facet normal 0 0 1
    outer loop
      vertex 43.4192 41.9713 29
      vertex 42.5 41.0359 29
      vertex 42.9409 40.8164 29
    endloop
  endfacet
  facet normal 0 0 1
    outer loop
      vertex 41.3837 41.9923 29
      vertex 42.5996 42.5123 29
      vertex 42.2752 42.8836 29
    endloop
  endfacet
  facet normal 0 0 1
    outer loop
      vertex 42.985 42.2049 29
      vertex 42.0895 41.3079 29
      vertex 42.5 41.0359 29
    endloop
  endfacet
  facet normal 0 0 1
    outer loop
      vertex 41.0991 42.3943 29
      vertex 42.2752 42.8836 29
      vertex 42.0223 43.3068 29
    endloop
  endfacet
  facet normal 0 0 1
    outer loop
      vertex 40.6882 43.2874 29
      vertex 42.0223 43.3068 29
      vertex 41.8491 43.7684 29
    endloop
  endfacet
  facet normal 0 0 1
    outer loop
      vertex 40.5681 43.765 29
      vertex 41.8491 43.7684 29
      vertex 41.7611 44.2535 29
    endloop
  endfacet
  facet normal 0 0 1
    outer loop
      vertex 42.5996 42.5123 29
      vertex 41.7155 41.6284 29
      vertex 42.0895 41.3079 29
    endloop
  endfacet
  facet normal -0 0 1
    outer loop
      vertex 40.6882 45.7126 29
      vertex 42.0223 45.6932 29
      vertex 40.8661 46.1718 29
    endloop
  endfacet
  facet normal 0 0 1
    outer loop
      vertex 42.0223 45.6932 29
      vertex 40.6882 45.7126 29
      vertex 41.8491 45.2316 29
    endloop
  endfacet
  facet normal 0 0 1
    outer loop
      vertex 42.5996 42.5123 29
      vertex 41.3837 41.9923 29
      vertex 41.7155 41.6284 29
    endloop
  endfacet
  facet normal -0 0 1
    outer loop
      vertex 40.5681 45.235 29
      vertex 41.8491 45.2316 29
      vertex 40.6882 45.7126 29
    endloop
  endfacet
  facet normal 0 0 1
    outer loop
      vertex 42.2752 42.8836 29
      vertex 41.0991 42.3943 29
      vertex 41.3837 41.9923 29
    endloop
  endfacet
  facet normal 0 0 1
    outer loop
      vertex 41.8491 45.2316 29
      vertex 40.5681 45.235 29
      vertex 41.7611 44.7465 29
    endloop
  endfacet
  facet normal 0 0 1
    outer loop
      vertex 42.0223 43.3068 29
      vertex 40.8661 42.8282 29
      vertex 41.0991 42.3943 29
    endloop
  endfacet
  facet normal 0 0 1
    outer loop
      vertex 40.5076 44.7462 29
      vertex 41.7611 44.7465 29
      vertex 40.5681 45.235 29
    endloop
  endfacet
  facet normal 0 0 1
    outer loop
      vertex 42.0223 43.3068 29
      vertex 40.6882 43.2874 29
      vertex 40.8661 42.8282 29
    endloop
  endfacet
  facet normal 0 0 1
    outer loop
      vertex 41.7611 44.7465 29
      vertex 40.5076 44.7462 29
      vertex 41.7611 44.2535 29
    endloop
  endfacet
  facet normal 0 0 1
    outer loop
      vertex 41.8491 43.7684 29
      vertex 40.5681 43.765 29
      vertex 40.6882 43.2874 29
    endloop
  endfacet
  facet normal -0 0 1
    outer loop
      vertex 40.5076 44.2538 29
      vertex 41.7611 44.2535 29
      vertex 40.5076 44.7462 29
    endloop
  endfacet
  facet normal 0 0 1
    outer loop
      vertex 41.7611 44.2535 29
      vertex 40.5076 44.2538 29
      vertex 40.5681 43.765 29
    endloop
  endfacet
  facet normal -0.552362 0.833605 0
    outer loop
      vertex 42.5 47.9641 3
      vertex 42.0895 47.6921 29
      vertex 42.5 47.9641 29
    endloop
  endfacet
  facet normal -0.552362 0.833605 0
    outer loop
      vertex 42.0895 47.6921 29
      vertex 42.5 47.9641 3
      vertex 42.0895 47.6921 3
    endloop
  endfacet
  facet normal -0.650621 0.759403 0
    outer loop
      vertex 42.0895 47.6921 3
      vertex 41.7155 47.3716 29
      vertex 42.0895 47.6921 29
    endloop
  endfacet
  facet normal -0.650621 0.759403 0
    outer loop
      vertex 41.7155 47.3716 29
      vertex 42.0895 47.6921 3
      vertex 41.7155 47.3716 3
    endloop
  endfacet
  facet normal -0.332355 0.943154 0
    outer loop
      vertex 43.4053 48.3473 3
      vertex 42.9409 48.1836 29
      vertex 43.4053 48.3473 29
    endloop
  endfacet
  facet normal -0.332355 0.943154 0
    outer loop
      vertex 42.9409 48.1836 29
      vertex 43.4053 48.3473 3
      vertex 42.9409 48.1836 3
    endloop
  endfacet
  facet normal 0.998103 -0.0615633 0
    outer loop
      vertex 48.4697 44.0084 29
      vertex 48.5 44.5 3
      vertex 48.5 44.5 29
    endloop
  endfacet
  facet normal 0.998103 -0.0615633 0
    outer loop
      vertex 48.5 44.5 3
      vertex 48.4697 44.0084 29
      vertex 48.4697 44.0084 3
    endloop
  endfacet
  facet normal 0.779081 -0.626923 0
    outer loop
      vertex 47.456 41.8052 29
      vertex 47.7648 42.1889 3
      vertex 47.7648 42.1889 29
    endloop
  endfacet
  facet normal 0.779081 -0.626923 0
    outer loop
      vertex 47.7648 42.1889 3
      vertex 47.456 41.8052 29
      vertex 47.456 41.8052 3
    endloop
  endfacet
  facet normal -0.881011 -0.473096 0
    outer loop
      vertex 41.0991 42.3943 3
      vertex 40.8661 42.8282 29
      vertex 40.8661 42.8282 3
    endloop
  endfacet
  facet normal -0.881011 -0.473096 0
    outer loop
      vertex 40.8661 42.8282 29
      vertex 41.0991 42.3943 3
      vertex 41.0991 42.3943 29
    endloop
  endfacet
  facet normal -0.816197 -0.577774 0
    outer loop
      vertex 41.3837 41.9923 3
      vertex 41.0991 42.3943 29
      vertex 41.0991 42.3943 3
    endloop
  endfacet
  facet normal -0.816197 -0.577774 0
    outer loop
      vertex 41.0991 42.3943 29
      vertex 41.3837 41.9923 3
      vertex 41.3837 41.9923 29
    endloop
  endfacet
  facet normal 0.499999 -0.866026 0
    outer loop
      vertex 46.283 40.9193 3
      vertex 46.7095 41.1656 29
      vertex 46.283 40.9193 29
    endloop
  endfacet
  facet normal 0.499999 -0.866026 0
    outer loop
      vertex 46.7095 41.1656 29
      vertex 46.283 40.9193 3
      vertex 46.7095 41.1656 3
    endloop
  endfacet
  facet normal 0.952941 -0.303155 0
    outer loop
      vertex 48.2299 43.055 29
      vertex 48.3792 43.5243 3
      vertex 48.3792 43.5243 29
    endloop
  endfacet
  facet normal 0.952941 -0.303155 0
    outer loop
      vertex 48.3792 43.5243 3
      vertex 48.2299 43.055 29
      vertex 48.2299 43.055 3
    endloop
  endfacet
  facet normal 0.850218 -0.526431 0
    outer loop
      vertex 47.7648 42.1889 29
      vertex 48.024 42.6076 3
      vertex 48.024 42.6076 29
    endloop
  endfacet
  facet normal 0.850218 -0.526431 0
    outer loop
      vertex 48.024 42.6076 3
      vertex 47.7648 42.1889 29
      vertex 47.7648 42.1889 3
    endloop
  endfacet
  facet normal -0.213932 -0.976849 0
    outer loop
      vertex 43.4053 40.6527 3
      vertex 43.8864 40.5473 29
      vertex 43.4053 40.6527 29
    endloop
  endfacet
  facet normal -0.213932 -0.976849 -0
    outer loop
      vertex 43.8864 40.5473 29
      vertex 43.4053 40.6527 3
      vertex 43.8864 40.5473 3
    endloop
  endfacet
  facet normal -0.739008 -0.673696 0
    outer loop
      vertex 41.7155 41.6284 3
      vertex 41.3837 41.9923 29
      vertex 41.3837 41.9923 3
    endloop
  endfacet
  facet normal -0.739008 -0.673696 0
    outer loop
      vertex 41.3837 41.9923 29
      vertex 41.7155 41.6284 3
      vertex 41.7155 41.6284 29
    endloop
  endfacet
  facet normal -0.969797 -0.243915 0
    outer loop
      vertex 40.6882 43.2874 3
      vertex 40.5681 43.765 29
      vertex 40.5681 43.765 3
    endloop
  endfacet
  facet normal -0.969797 -0.243915 0
    outer loop
      vertex 40.5681 43.765 29
      vertex 40.6882 43.2874 3
      vertex 40.6882 43.2874 29
    endloop
  endfacet
  facet normal -0.992421 -0.122887 0
    outer loop
      vertex 40.5681 43.765 3
      vertex 40.5076 44.2538 29
      vertex 40.5076 44.2538 3
    endloop
  endfacet
  facet normal -0.992421 -0.122887 0
    outer loop
      vertex 40.5076 44.2538 29
      vertex 40.5681 43.765 3
      vertex 40.5681 43.765 29
    endloop
  endfacet
  facet normal -0.932473 -0.361239 0
    outer loop
      vertex 40.8661 42.8282 3
      vertex 40.6882 43.2874 29
      vertex 40.6882 43.2874 3
    endloop
  endfacet
  facet normal -0.932473 -0.361239 0
    outer loop
      vertex 40.6882 43.2874 29
      vertex 40.8661 42.8282 3
      vertex 40.8661 42.8282 29
    endloop
  endfacet
  facet normal 0.696132 -0.717913 0
    outer loop
      vertex 47.1025 41.4624 3
      vertex 47.456 41.8052 29
      vertex 47.1025 41.4624 29
    endloop
  endfacet
  facet normal 0.696132 -0.717913 0
    outer loop
      vertex 47.456 41.8052 29
      vertex 47.1025 41.4624 3
      vertex 47.456 41.8052 3
    endloop
  endfacet
  facet normal 0.389791 -0.920903 0
    outer loop
      vertex 45.8294 40.7274 3
      vertex 46.283 40.9193 29
      vertex 45.8294 40.7274 29
    endloop
  endfacet
  facet normal 0.389791 -0.920903 0
    outer loop
      vertex 46.283 40.9193 29
      vertex 45.8294 40.7274 3
      vertex 46.283 40.9193 3
    endloop
  endfacet
  facet normal 0.273666 -0.961825 0
    outer loop
      vertex 45.3557 40.5926 3
      vertex 45.8294 40.7274 29
      vertex 45.3557 40.5926 29
    endloop
  endfacet
  facet normal 0.273666 -0.961825 0
    outer loop
      vertex 45.8294 40.7274 29
      vertex 45.3557 40.5926 3
      vertex 45.8294 40.7274 3
    endloop
  endfacet
  facet normal -0.0922676 -0.995734 0
    outer loop
      vertex 43.8864 40.5473 3
      vertex 44.3768 40.5019 29
      vertex 43.8864 40.5473 29
    endloop
  endfacet
  facet normal -0.0922676 -0.995734 -0
    outer loop
      vertex 44.3768 40.5019 29
      vertex 43.8864 40.5473 3
      vertex 44.3768 40.5019 3
    endloop
  endfacet
  facet normal -0.332355 -0.943154 0
    outer loop
      vertex 42.9409 40.8164 3
      vertex 43.4053 40.6527 29
      vertex 42.9409 40.8164 29
    endloop
  endfacet
  facet normal -0.332355 -0.943154 -0
    outer loop
      vertex 43.4053 40.6527 29
      vertex 42.9409 40.8164 3
      vertex 43.4053 40.6527 3
    endloop
  endfacet
  facet normal 0.602632 -0.79802 0
    outer loop
      vertex 46.7095 41.1656 3
      vertex 47.1025 41.4624 29
      vertex 46.7095 41.1656 29
    endloop
  endfacet
  facet normal 0.602632 -0.79802 0
    outer loop
      vertex 47.1025 41.4624 29
      vertex 46.7095 41.1656 3
      vertex 47.1025 41.4624 3
    endloop
  endfacet
  facet normal -0.445738 -0.895163 0
    outer loop
      vertex 42.5 41.0359 3
      vertex 42.9409 40.8164 29
      vertex 42.5 41.0359 29
    endloop
  endfacet
  facet normal -0.445738 -0.895163 -0
    outer loop
      vertex 42.9409 40.8164 29
      vertex 42.5 41.0359 3
      vertex 42.9409 40.8164 3
    endloop
  endfacet
  facet normal -0.552362 -0.833605 0
    outer loop
      vertex 42.0895 41.3079 3
      vertex 42.5 41.0359 29
      vertex 42.0895 41.3079 29
    endloop
  endfacet
  facet normal -0.552362 -0.833605 -0
    outer loop
      vertex 42.5 41.0359 29
      vertex 42.0895 41.3079 3
      vertex 42.5 41.0359 3
    endloop
  endfacet
  facet normal -0.650621 -0.759403 0
    outer loop
      vertex 41.7155 41.6284 3
      vertex 42.0895 41.3079 29
      vertex 41.7155 41.6284 29
    endloop
  endfacet
  facet normal -0.650621 -0.759403 -0
    outer loop
      vertex 42.0895 41.3079 29
      vertex 41.7155 41.6284 3
      vertex 42.0895 41.3079 3
    endloop
  endfacet
  facet normal -0.995974 -0.0896385 0
    outer loop
      vertex 47.25 44.5 3
      vertex 47.2058 44.991 29
      vertex 47.2058 44.991 3
    endloop
  endfacet
  facet normal -0.995974 -0.0896385 0
    outer loop
      vertex 47.2058 44.991 29
      vertex 47.25 44.5 3
      vertex 47.25 44.5 29
    endloop
  endfacet
  facet normal 1 -0 0
    outer loop
      vertex 41.7611 44.2535 29
      vertex 41.7611 44.7465 3
      vertex 41.7611 44.7465 29
    endloop
  endfacet
  facet normal 1 0 0
    outer loop
      vertex 41.7611 44.7465 3
      vertex 41.7611 44.2535 29
      vertex 41.7611 44.2535 3
    endloop
  endfacet
  facet normal -0.0448619 -0.998993 0
    outer loop
      vertex 44.3766 47.2472 3
      vertex 44.8691 47.2251 29
      vertex 44.3766 47.2472 29
    endloop
  endfacet
  facet normal -0.0448619 -0.998993 -0
    outer loop
      vertex 44.8691 47.2251 29
      vertex 44.3766 47.2472 3
      vertex 44.8691 47.2251 3
    endloop
  endfacet
  facet normal -0.0448619 0.998993 0
    outer loop
      vertex 44.8691 41.7749 3
      vertex 44.3766 41.7528 29
      vertex 44.8691 41.7749 29
    endloop
  endfacet
  facet normal -0.0448619 0.998993 0
    outer loop
      vertex 44.3766 41.7528 29
      vertex 44.8691 41.7749 3
      vertex 44.3766 41.7528 3
    endloop
  endfacet
  facet normal -0.809016 0.587786 0
    outer loop
      vertex 46.5709 42.6907 3
      vertex 46.8607 43.0895 29
      vertex 46.8607 43.0895 3
    endloop
  endfacet
  facet normal -0.809016 0.587786 0
    outer loop
      vertex 46.8607 43.0895 29
      vertex 46.5709 42.6907 3
      vertex 46.5709 42.6907 29
    endloop
  endfacet
  facet normal -0.691063 -0.722794 0
    outer loop
      vertex 46.2146 46.65 3
      vertex 46.5709 46.3093 29
      vertex 46.2146 46.65 29
    endloop
  endfacet
  facet normal -0.691063 -0.722794 -0
    outer loop
      vertex 46.5709 46.3093 29
      vertex 46.2146 46.65 3
      vertex 46.5709 46.3093 3
    endloop
  endfacet
  facet normal 0.753071 -0.657939 0
    outer loop
      vertex 42.2752 46.1164 29
      vertex 42.5996 46.4877 3
      vertex 42.5996 46.4877 29
    endloop
  endfacet
  facet normal 0.753071 -0.657939 0
    outer loop
      vertex 42.5996 46.4877 3
      vertex 42.2752 46.1164 29
      vertex 42.2752 46.1164 3
    endloop
  endfacet
  facet normal 0.473873 -0.880593 0
    outer loop
      vertex 42.985 46.7951 3
      vertex 43.4192 47.0287 29
      vertex 42.985 46.7951 29
    endloop
  endfacet
  facet normal 0.473873 -0.880593 0
    outer loop
      vertex 43.4192 47.0287 29
      vertex 42.985 46.7951 3
      vertex 43.4192 47.0287 3
    endloop
  endfacet
  facet normal -0.900969 -0.433884 0
    outer loop
      vertex 47.0746 45.4663 3
      vertex 46.8607 45.9105 29
      vertex 46.8607 45.9105 3
    endloop
  endfacet
  facet normal -0.900969 -0.433884 0
    outer loop
      vertex 46.8607 45.9105 29
      vertex 47.0746 45.4663 3
      vertex 47.0746 45.4663 29
    endloop
  endfacet
  facet normal -0.963962 -0.266039 0
    outer loop
      vertex 47.2058 44.991 3
      vertex 47.0746 45.4663 29
      vertex 47.0746 45.4663 3
    endloop
  endfacet
  facet normal -0.963962 -0.266039 0
    outer loop
      vertex 47.0746 45.4663 29
      vertex 47.2058 44.991 3
      vertex 47.2058 44.991 29
    endloop
  endfacet
  facet normal -0.809016 -0.587786 0
    outer loop
      vertex 46.8607 45.9105 3
      vertex 46.5709 46.3093 29
      vertex 46.5709 46.3093 3
    endloop
  endfacet
  facet normal -0.809016 -0.587786 0
    outer loop
      vertex 46.5709 46.3093 29
      vertex 46.8607 45.9105 3
      vertex 46.8607 45.9105 29
    endloop
  endfacet
  facet normal -0.393025 -0.919528 0
    outer loop
      vertex 45.3498 47.1154 3
      vertex 45.8031 46.9216 29
      vertex 45.3498 47.1154 29
    endloop
  endfacet
  facet normal -0.393025 -0.919528 -0
    outer loop
      vertex 45.8031 46.9216 29
      vertex 45.3498 47.1154 3
      vertex 45.8031 46.9216 3
    endloop
  endfacet
  facet normal -0.222522 -0.974928 0
    outer loop
      vertex 44.8691 47.2251 3
      vertex 45.3498 47.1154 29
      vertex 44.8691 47.2251 29
    endloop
  endfacet
  facet normal -0.222522 -0.974928 -0
    outer loop
      vertex 45.3498 47.1154 29
      vertex 44.8691 47.2251 3
      vertex 45.3498 47.1154 3
    endloop
  endfacet
  facet normal -0.5509 -0.834571 0
    outer loop
      vertex 45.8031 46.9216 3
      vertex 46.2146 46.65 29
      vertex 45.8031 46.9216 29
    endloop
  endfacet
  facet normal -0.5509 -0.834571 -0
    outer loop
      vertex 46.2146 46.65 29
      vertex 45.8031 46.9216 3
      vertex 46.2146 46.65 3
    endloop
  endfacet
  facet normal 0.936235 -0.351374 0
    outer loop
      vertex 41.8491 45.2316 29
      vertex 42.0223 45.6932 3
      vertex 42.0223 45.6932 29
    endloop
  endfacet
  facet normal 0.936235 -0.351374 0
    outer loop
      vertex 42.0223 45.6932 3
      vertex 41.8491 45.2316 29
      vertex 41.8491 45.2316 3
    endloop
  endfacet
  facet normal 0.858448 -0.512901 0
    outer loop
      vertex 42.0223 45.6932 29
      vertex 42.2752 46.1164 3
      vertex 42.2752 46.1164 29
    endloop
  endfacet
  facet normal 0.858448 -0.512901 0
    outer loop
      vertex 42.2752 46.1164 3
      vertex 42.0223 45.6932 29
      vertex 42.0223 45.6932 3
    endloop
  endfacet
  facet normal 0.98393 -0.178557 0
    outer loop
      vertex 41.7611 44.7465 29
      vertex 41.8491 45.2316 3
      vertex 41.8491 45.2316 29
    endloop
  endfacet
  facet normal 0.98393 -0.178557 0
    outer loop
      vertex 41.8491 45.2316 3
      vertex 41.7611 44.7465 29
      vertex 41.7611 44.7465 3
    endloop
  endfacet
  facet normal 0.623486 -0.781834 0
    outer loop
      vertex 42.5996 46.4877 3
      vertex 42.985 46.7951 29
      vertex 42.5996 46.4877 29
    endloop
  endfacet
  facet normal 0.623486 -0.781834 0
    outer loop
      vertex 42.985 46.7951 29
      vertex 42.5996 46.4877 3
      vertex 42.985 46.7951 3
    endloop
  endfacet
  facet normal 0.13423 -0.99095 0
    outer loop
      vertex 43.8881 47.1811 3
      vertex 44.3766 47.2472 29
      vertex 43.8881 47.1811 29
    endloop
  endfacet
  facet normal 0.13423 -0.99095 0
    outer loop
      vertex 44.3766 47.2472 29
      vertex 43.8881 47.1811 3
      vertex 44.3766 47.2472 3
    endloop
  endfacet
  facet normal -0.995974 0.0896385 0
    outer loop
      vertex 47.2058 44.009 3
      vertex 47.25 44.5 29
      vertex 47.25 44.5 3
    endloop
  endfacet
  facet normal -0.995974 0.0896385 0
    outer loop
      vertex 47.25 44.5 29
      vertex 47.2058 44.009 3
      vertex 47.2058 44.009 29
    endloop
  endfacet
  facet normal -0.222522 0.974928 0
    outer loop
      vertex 45.3498 41.8846 3
      vertex 44.8691 41.7749 29
      vertex 45.3498 41.8846 29
    endloop
  endfacet
  facet normal -0.222522 0.974928 0
    outer loop
      vertex 44.8691 41.7749 29
      vertex 45.3498 41.8846 3
      vertex 44.8691 41.7749 3
    endloop
  endfacet
  facet normal 0.309018 -0.951056 0
    outer loop
      vertex 43.4192 47.0287 3
      vertex 43.8881 47.1811 29
      vertex 43.4192 47.0287 29
    endloop
  endfacet
  facet normal 0.309018 -0.951056 0
    outer loop
      vertex 43.8881 47.1811 29
      vertex 43.4192 47.0287 3
      vertex 43.8881 47.1811 3
    endloop
  endfacet
  facet normal -0.900969 0.433884 0
    outer loop
      vertex 46.8607 43.0895 3
      vertex 47.0746 43.5337 29
      vertex 47.0746 43.5337 3
    endloop
  endfacet
  facet normal -0.900969 0.433884 0
    outer loop
      vertex 47.0746 43.5337 29
      vertex 46.8607 43.0895 3
      vertex 46.8607 43.0895 29
    endloop
  endfacet
  facet normal 0.858448 0.512901 0
    outer loop
      vertex 42.2752 42.8836 29
      vertex 42.0223 43.3068 3
      vertex 42.0223 43.3068 29
    endloop
  endfacet
  facet normal 0.858448 0.512901 0
    outer loop
      vertex 42.0223 43.3068 3
      vertex 42.2752 42.8836 29
      vertex 42.2752 42.8836 3
    endloop
  endfacet
  facet normal -0.5509 0.834571 0
    outer loop
      vertex 46.2146 42.35 3
      vertex 45.8031 42.0784 29
      vertex 46.2146 42.35 29
    endloop
  endfacet
  facet normal -0.5509 0.834571 0
    outer loop
      vertex 45.8031 42.0784 29
      vertex 46.2146 42.35 3
      vertex 45.8031 42.0784 3
    endloop
  endfacet
  facet normal -0.393025 0.919528 0
    outer loop
      vertex 45.8031 42.0784 3
      vertex 45.3498 41.8846 29
      vertex 45.8031 42.0784 29
    endloop
  endfacet
  facet normal -0.393025 0.919528 0
    outer loop
      vertex 45.3498 41.8846 29
      vertex 45.8031 42.0784 3
      vertex 45.3498 41.8846 3
    endloop
  endfacet
  facet normal -0.963962 0.266039 0
    outer loop
      vertex 47.0746 43.5337 3
      vertex 47.2058 44.009 29
      vertex 47.2058 44.009 3
    endloop
  endfacet
  facet normal -0.963962 0.266039 0
    outer loop
      vertex 47.2058 44.009 29
      vertex 47.0746 43.5337 3
      vertex 47.0746 43.5337 29
    endloop
  endfacet
  facet normal 0.13423 0.99095 -0
    outer loop
      vertex 44.3766 41.7528 3
      vertex 43.8881 41.8189 29
      vertex 44.3766 41.7528 29
    endloop
  endfacet
  facet normal 0.13423 0.99095 0
    outer loop
      vertex 43.8881 41.8189 29
      vertex 44.3766 41.7528 3
      vertex 43.8881 41.8189 3
    endloop
  endfacet
  facet normal 0.473873 0.880593 -0
    outer loop
      vertex 43.4192 41.9713 3
      vertex 42.985 42.2049 29
      vertex 43.4192 41.9713 29
    endloop
  endfacet
  facet normal 0.473873 0.880593 0
    outer loop
      vertex 42.985 42.2049 29
      vertex 43.4192 41.9713 3
      vertex 42.985 42.2049 3
    endloop
  endfacet
  facet normal 0.309018 0.951056 -0
    outer loop
      vertex 43.8881 41.8189 3
      vertex 43.4192 41.9713 29
      vertex 43.8881 41.8189 29
    endloop
  endfacet
  facet normal 0.309018 0.951056 0
    outer loop
      vertex 43.4192 41.9713 29
      vertex 43.8881 41.8189 3
      vertex 43.4192 41.9713 3
    endloop
  endfacet
  facet normal 0.936235 0.351374 0
    outer loop
      vertex 42.0223 43.3068 29
      vertex 41.8491 43.7684 3
      vertex 41.8491 43.7684 29
    endloop
  endfacet
  facet normal 0.936235 0.351374 0
    outer loop
      vertex 41.8491 43.7684 3
      vertex 42.0223 43.3068 29
      vertex 42.0223 43.3068 3
    endloop
  endfacet
  facet normal 0.98393 0.178557 0
    outer loop
      vertex 41.8491 43.7684 29
      vertex 41.7611 44.2535 3
      vertex 41.7611 44.2535 29
    endloop
  endfacet
  facet normal 0.98393 0.178557 0
    outer loop
      vertex 41.7611 44.2535 3
      vertex 41.8491 43.7684 29
      vertex 41.8491 43.7684 3
    endloop
  endfacet
  facet normal -0.691063 0.722794 0
    outer loop
      vertex 46.5709 42.6907 3
      vertex 46.2146 42.35 29
      vertex 46.5709 42.6907 29
    endloop
  endfacet
  facet normal -0.691063 0.722794 0
    outer loop
      vertex 46.2146 42.35 29
      vertex 46.5709 42.6907 3
      vertex 46.2146 42.35 3
    endloop
  endfacet
  facet normal 0.753071 0.657939 0
    outer loop
      vertex 42.5996 42.5123 29
      vertex 42.2752 42.8836 3
      vertex 42.2752 42.8836 29
    endloop
  endfacet
  facet normal 0.753071 0.657939 0
    outer loop
      vertex 42.2752 42.8836 3
      vertex 42.5996 42.5123 29
      vertex 42.5996 42.5123 3
    endloop
  endfacet
  facet normal 0.623486 0.781834 -0
    outer loop
      vertex 42.985 42.2049 3
      vertex 42.5996 42.5123 29
      vertex 42.985 42.2049 29
    endloop
  endfacet
  facet normal 0.623486 0.781834 0
    outer loop
      vertex 42.5996 42.5123 29
      vertex 42.985 42.2049 3
      vertex 42.5996 42.5123 3
    endloop
  endfacet
endsolid OpenSCAD_Model
