solid OpenSCAD_Model
  facet normal 0.998103 0.0615633 0
    outer loop
      vertex 48.5 44.5 24
      vertex 48.4697 44.9916 3
      vertex 48.4697 44.9916 24
    endloop
  endfacet
  facet normal 0.998103 0.0615633 0
    outer loop
      vertex 48.4697 44.9916 3
      vertex 48.5 44.5 24
      vertex 48.5 44.5 3
    endloop
  endfacet
  facet normal -1 0 0
    outer loop
      vertex 40.5076 44.2538 3
      vertex 40.5076 44.7462 24
      vertex 40.5076 44.7462 3
    endloop
  endfacet
  facet normal -1 -0 0
    outer loop
      vertex 40.5076 44.7462 24
      vertex 40.5076 44.2538 3
      vertex 40.5076 44.2538 24
    endloop
  endfacet
  facet normal -0.0922676 0.995734 0
    outer loop
      vertex 44.3768 48.4981 3
      vertex 43.8864 48.4527 24
      vertex 44.3768 48.4981 24
    endloop
  endfacet
  facet normal -0.0922676 0.995734 0
    outer loop
      vertex 43.8864 48.4527 24
      vertex 44.3768 48.4981 3
      vertex 43.8864 48.4527 3
    endloop
  endfacet
  facet normal 0.0307896 -0.999526 0
    outer loop
      vertex 44.3768 40.5019 3
      vertex 44.8691 40.5171 24
      vertex 44.3768 40.5019 24
    endloop
  endfacet
  facet normal 0.0307896 -0.999526 0
    outer loop
      vertex 44.8691 40.5171 24
      vertex 44.3768 40.5019 3
      vertex 44.8691 40.5171 3
    endloop
  endfacet
  facet normal 0.696132 0.717913 -0
    outer loop
      vertex 47.456 47.1948 3
      vertex 47.1025 47.5376 24
      vertex 47.456 47.1948 24
    endloop
  endfacet
  facet normal 0.696132 0.717913 0
    outer loop
      vertex 47.1025 47.5376 24
      vertex 47.456 47.1948 3
      vertex 47.1025 47.5376 3
    endloop
  endfacet
  facet normal -0.739008 0.673696 0
    outer loop
      vertex 41.3837 47.0077 3
      vertex 41.7155 47.3716 24
      vertex 41.7155 47.3716 3
    endloop
  endfacet
  facet normal -0.739008 0.673696 0
    outer loop
      vertex 41.7155 47.3716 24
      vertex 41.3837 47.0077 3
      vertex 41.3837 47.0077 24
    endloop
  endfacet
  facet normal -0.445738 0.895163 0
    outer loop
      vertex 42.9409 48.1836 3
      vertex 42.5 47.9641 24
      vertex 42.9409 48.1836 24
    endloop
  endfacet
  facet normal -0.445738 0.895163 0
    outer loop
      vertex 42.5 47.9641 24
      vertex 42.9409 48.1836 3
      vertex 42.5 47.9641 3
    endloop
  endfacet
  facet normal 0.908464 -0.417963 0
    outer loop
      vertex 48.024 42.6076 24
      vertex 48.2299 43.055 3
      vertex 48.2299 43.055 24
    endloop
  endfacet
  facet normal 0.908464 -0.417963 0
    outer loop
      vertex 48.2299 43.055 3
      vertex 48.024 42.6076 24
      vertex 48.024 42.6076 3
    endloop
  endfacet
  facet normal 0.908464 0.417963 0
    outer loop
      vertex 48.2299 45.945 24
      vertex 48.024 46.3924 3
      vertex 48.024 46.3924 24
    endloop
  endfacet
  facet normal 0.908464 0.417963 0
    outer loop
      vertex 48.024 46.3924 3
      vertex 48.2299 45.945 24
      vertex 48.2299 45.945 3
    endloop
  endfacet
  facet normal 0.389791 0.920903 -0
    outer loop
      vertex 46.283 48.0807 3
      vertex 45.8294 48.2726 24
      vertex 46.283 48.0807 24
    endloop
  endfacet
  facet normal 0.389791 0.920903 0
    outer loop
      vertex 45.8294 48.2726 24
      vertex 46.283 48.0807 3
      vertex 45.8294 48.2726 3
    endloop
  endfacet
  facet normal 0.499999 0.866026 -0
    outer loop
      vertex 46.7095 47.8344 3
      vertex 46.283 48.0807 24
      vertex 46.7095 47.8344 24
    endloop
  endfacet
  facet normal 0.499999 0.866026 0
    outer loop
      vertex 46.283 48.0807 24
      vertex 46.7095 47.8344 3
      vertex 46.283 48.0807 3
    endloop
  endfacet
  facet normal -0.932473 0.361239 0
    outer loop
      vertex 40.6882 45.7126 3
      vertex 40.8661 46.1718 24
      vertex 40.8661 46.1718 3
    endloop
  endfacet
  facet normal -0.932473 0.361239 0
    outer loop
      vertex 40.8661 46.1718 24
      vertex 40.6882 45.7126 3
      vertex 40.6882 45.7126 24
    endloop
  endfacet
  facet normal -0.816197 0.577774 0
    outer loop
      vertex 41.0991 46.6057 3
      vertex 41.3837 47.0077 24
      vertex 41.3837 47.0077 3
    endloop
  endfacet
  facet normal -0.816197 0.577774 0
    outer loop
      vertex 41.3837 47.0077 24
      vertex 41.0991 46.6057 3
      vertex 41.0991 46.6057 24
    endloop
  endfacet
  facet normal -0.969797 0.243915 0
    outer loop
      vertex 40.5681 45.235 3
      vertex 40.6882 45.7126 24
      vertex 40.6882 45.7126 3
    endloop
  endfacet
  facet normal -0.969797 0.243915 0
    outer loop
      vertex 40.6882 45.7126 24
      vertex 40.5681 45.235 3
      vertex 40.5681 45.235 24
    endloop
  endfacet
  facet normal -0.213932 0.976849 0
    outer loop
      vertex 43.8864 48.4527 3
      vertex 43.4053 48.3473 24
      vertex 43.8864 48.4527 24
    endloop
  endfacet
  facet normal -0.213932 0.976849 0
    outer loop
      vertex 43.4053 48.3473 24
      vertex 43.8864 48.4527 3
      vertex 43.4053 48.3473 3
    endloop
  endfacet
  facet normal 0.982974 -0.183746 0
    outer loop
      vertex 48.3792 43.5243 24
      vertex 48.4697 44.0084 3
      vertex 48.4697 44.0084 24
    endloop
  endfacet
  facet normal 0.982974 -0.183746 0
    outer loop
      vertex 48.4697 44.0084 3
      vertex 48.3792 43.5243 24
      vertex 48.3792 43.5243 3
    endloop
  endfacet
  facet normal 0 0 -1
    outer loop
      vertex 47.25 44.5 3
      vertex 48.5 44.5 3
      vertex 48.4697 44.0084 3
    endloop
  endfacet
  facet normal 0 0 -1
    outer loop
      vertex 47.2058 44.009 3
      vertex 48.4697 44.0084 3
      vertex 48.3792 43.5243 3
    endloop
  endfacet
  facet normal 0 0 -1
    outer loop
      vertex 48.5 44.5 3
      vertex 47.25 44.5 3
      vertex 48.4697 44.9916 3
    endloop
  endfacet
  facet normal 0 0 -1
    outer loop
      vertex 47.0746 43.5337 3
      vertex 48.3792 43.5243 3
      vertex 48.2299 43.055 3
    endloop
  endfacet
  facet normal 0 0 -1
    outer loop
      vertex 47.2058 44.991 3
      vertex 48.4697 44.9916 3
      vertex 47.25 44.5 3
    endloop
  endfacet
  facet normal 0 0 -1
    outer loop
      vertex 47.0746 43.5337 3
      vertex 48.2299 43.055 3
      vertex 48.024 42.6076 3
    endloop
  endfacet
  facet normal -0 0 -1
    outer loop
      vertex 48.4697 44.9916 3
      vertex 47.2058 44.991 3
      vertex 48.3792 45.4757 3
    endloop
  endfacet
  facet normal 0 0 -1
    outer loop
      vertex 46.8607 43.0895 3
      vertex 48.024 42.6076 3
      vertex 47.7648 42.1889 3
    endloop
  endfacet
  facet normal 0 0 -1
    outer loop
      vertex 47.0746 45.4663 3
      vertex 48.3792 45.4757 3
      vertex 47.2058 44.991 3
    endloop
  endfacet
  facet normal 0 0 -1
    outer loop
      vertex 46.5709 42.6907 3
      vertex 47.7648 42.1889 3
      vertex 47.456 41.8052 3
    endloop
  endfacet
  facet normal -0 0 -1
    outer loop
      vertex 48.3792 45.4757 3
      vertex 47.0746 45.4663 3
      vertex 48.2299 45.945 3
    endloop
  endfacet
  facet normal -0 0 -1
    outer loop
      vertex 48.2299 45.945 3
      vertex 47.0746 45.4663 3
      vertex 48.024 46.3924 3
    endloop
  endfacet
  facet normal 0 0 -1
    outer loop
      vertex 48.4697 44.0084 3
      vertex 47.2058 44.009 3
      vertex 47.25 44.5 3
    endloop
  endfacet
  facet normal 0 0 -1
    outer loop
      vertex 46.5709 42.6907 3
      vertex 47.456 41.8052 3
      vertex 47.1025 41.4624 3
    endloop
  endfacet
  facet normal 0 0 -1
    outer loop
      vertex 48.3792 43.5243 3
      vertex 47.0746 43.5337 3
      vertex 47.2058 44.009 3
    endloop
  endfacet
  facet normal 0 0 -1
    outer loop
      vertex 48.024 42.6076 3
      vertex 46.8607 43.0895 3
      vertex 47.0746 43.5337 3
    endloop
  endfacet
  facet normal 0 0 -1
    outer loop
      vertex 46.2146 42.35 3
      vertex 47.1025 41.4624 3
      vertex 46.7095 41.1656 3
    endloop
  endfacet
  facet normal 0 0 -1
    outer loop
      vertex 47.7648 42.1889 3
      vertex 46.5709 42.6907 3
      vertex 46.8607 43.0895 3
    endloop
  endfacet
  facet normal 0 0 -1
    outer loop
      vertex 45.8031 42.0784 3
      vertex 46.7095 41.1656 3
      vertex 46.283 40.9193 3
    endloop
  endfacet
  facet normal 0 0 -1
    outer loop
      vertex 47.1025 41.4624 3
      vertex 46.2146 42.35 3
      vertex 46.5709 42.6907 3
    endloop
  endfacet
  facet normal 0 0 -1
    outer loop
      vertex 45.3498 41.8846 3
      vertex 46.283 40.9193 3
      vertex 45.8294 40.7274 3
    endloop
  endfacet
  facet normal 0 0 -1
    outer loop
      vertex 46.7095 41.1656 3
      vertex 45.8031 42.0784 3
      vertex 46.2146 42.35 3
    endloop
  endfacet
  facet normal 0 0 -1
    outer loop
      vertex 45.3498 41.8846 3
      vertex 45.8294 40.7274 3
      vertex 45.3557 40.5926 3
    endloop
  endfacet
  facet normal 0 0 -1
    outer loop
      vertex 46.283 40.9193 3
      vertex 45.3498 41.8846 3
      vertex 45.8031 42.0784 3
    endloop
  endfacet
  facet normal 0 0 -1
    outer loop
      vertex 45.3557 40.5926 3
      vertex 44.8691 41.7749 3
      vertex 45.3498 41.8846 3
    endloop
  endfacet
  facet normal 0 0 -1
    outer loop
      vertex 44.8691 40.5171 3
      vertex 44.8691 41.7749 3
      vertex 45.3557 40.5926 3
    endloop
  endfacet
  facet normal 0 0 -1
    outer loop
      vertex 44.3766 41.7528 3
      vertex 44.8691 40.5171 3
      vertex 44.3768 40.5019 3
    endloop
  endfacet
  facet normal 0 0 -1
    outer loop
      vertex 44.8691 40.5171 3
      vertex 44.3766 41.7528 3
      vertex 44.8691 41.7749 3
    endloop
  endfacet
  facet normal 0 0 -1
    outer loop
      vertex 43.8864 40.5473 3
      vertex 44.3766 41.7528 3
      vertex 44.3768 40.5019 3
    endloop
  endfacet
  facet normal -0 0 -1
    outer loop
      vertex 44.3766 41.7528 3
      vertex 43.8864 40.5473 3
      vertex 43.8881 41.8189 3
    endloop
  endfacet
  facet normal 0 0 -1
    outer loop
      vertex 43.4053 40.6527 3
      vertex 43.8881 41.8189 3
      vertex 43.8864 40.5473 3
    endloop
  endfacet
  facet normal -0 0 -1
    outer loop
      vertex 43.8881 41.8189 3
      vertex 43.4053 40.6527 3
      vertex 43.4192 41.9713 3
    endloop
  endfacet
  facet normal 0 0 -1
    outer loop
      vertex 42.9409 40.8164 3
      vertex 43.4192 41.9713 3
      vertex 43.4053 40.6527 3
    endloop
  endfacet
  facet normal 0 0 -1
    outer loop
      vertex 42.5 41.0359 3
      vertex 43.4192 41.9713 3
      vertex 42.9409 40.8164 3
    endloop
  endfacet
  facet normal -0 0 -1
    outer loop
      vertex 43.4192 41.9713 3
      vertex 42.5 41.0359 3
      vertex 42.985 42.2049 3
    endloop
  endfacet
  facet normal 0 0 -1
    outer loop
      vertex 42.0895 41.3079 3
      vertex 42.985 42.2049 3
      vertex 42.5 41.0359 3
    endloop
  endfacet
  facet normal -0 0 -1
    outer loop
      vertex 42.985 42.2049 3
      vertex 42.0895 41.3079 3
      vertex 42.5996 42.5123 3
    endloop
  endfacet
  facet normal 0 0 -1
    outer loop
      vertex 41.7155 41.6284 3
      vertex 42.5996 42.5123 3
      vertex 42.0895 41.3079 3
    endloop
  endfacet
  facet normal 0 0 -1
    outer loop
      vertex 41.3837 41.9923 3
      vertex 42.5996 42.5123 3
      vertex 41.7155 41.6284 3
    endloop
  endfacet
  facet normal -0 0 -1
    outer loop
      vertex 42.5996 42.5123 3
      vertex 41.3837 41.9923 3
      vertex 42.2752 42.8836 3
    endloop
  endfacet
  facet normal 0 0 -1
    outer loop
      vertex 41.0991 42.3943 3
      vertex 42.2752 42.8836 3
      vertex 41.3837 41.9923 3
    endloop
  endfacet
  facet normal 0 0 -1
    outer loop
      vertex 40.8661 42.8282 3
      vertex 42.0223 43.3068 3
      vertex 41.0991 42.3943 3
    endloop
  endfacet
  facet normal -0 0 -1
    outer loop
      vertex 42.2752 42.8836 3
      vertex 41.0991 42.3943 3
      vertex 42.0223 43.3068 3
    endloop
  endfacet
  facet normal 0 0 -1
    outer loop
      vertex 46.8607 45.9105 3
      vertex 48.024 46.3924 3
      vertex 47.0746 45.4663 3
    endloop
  endfacet
  facet normal -0 0 -1
    outer loop
      vertex 48.024 46.3924 3
      vertex 46.8607 45.9105 3
      vertex 47.7648 46.8111 3
    endloop
  endfacet
  facet normal 0 0 -1
    outer loop
      vertex 46.5709 46.3093 3
      vertex 47.7648 46.8111 3
      vertex 46.8607 45.9105 3
    endloop
  endfacet
  facet normal -0 0 -1
    outer loop
      vertex 47.7648 46.8111 3
      vertex 46.5709 46.3093 3
      vertex 47.456 47.1948 3
    endloop
  endfacet
  facet normal -0 0 -1
    outer loop
      vertex 47.456 47.1948 3
      vertex 46.5709 46.3093 3
      vertex 47.1025 47.5376 3
    endloop
  endfacet
  facet normal 0 0 -1
    outer loop
      vertex 46.2146 46.65 3
      vertex 47.1025 47.5376 3
      vertex 46.5709 46.3093 3
    endloop
  endfacet
  facet normal -0 0 -1
    outer loop
      vertex 47.1025 47.5376 3
      vertex 46.2146 46.65 3
      vertex 46.7095 47.8344 3
    endloop
  endfacet
  facet normal 0 0 -1
    outer loop
      vertex 45.8031 46.9216 3
      vertex 46.7095 47.8344 3
      vertex 46.2146 46.65 3
    endloop
  endfacet
  facet normal -0 0 -1
    outer loop
      vertex 46.7095 47.8344 3
      vertex 45.8031 46.9216 3
      vertex 46.283 48.0807 3
    endloop
  endfacet
  facet normal 0 0 -1
    outer loop
      vertex 45.3498 47.1154 3
      vertex 46.283 48.0807 3
      vertex 45.8031 46.9216 3
    endloop
  endfacet
  facet normal -0 0 -1
    outer loop
      vertex 46.283 48.0807 3
      vertex 45.3498 47.1154 3
      vertex 45.8294 48.2726 3
    endloop
  endfacet
  facet normal -0 0 -1
    outer loop
      vertex 45.8294 48.2726 3
      vertex 45.3498 47.1154 3
      vertex 45.3557 48.4074 3
    endloop
  endfacet
  facet normal 0 0 -1
    outer loop
      vertex 44.8691 47.2251 3
      vertex 45.3557 48.4074 3
      vertex 45.3498 47.1154 3
    endloop
  endfacet
  facet normal 0 0 -1
    outer loop
      vertex 44.8691 47.2251 3
      vertex 44.8691 48.4829 3
      vertex 45.3557 48.4074 3
    endloop
  endfacet
  facet normal 0 0 -1
    outer loop
      vertex 44.3766 47.2472 3
      vertex 44.8691 48.4829 3
      vertex 44.8691 47.2251 3
    endloop
  endfacet
  facet normal -0 0 -1
    outer loop
      vertex 44.8691 48.4829 3
      vertex 44.3766 47.2472 3
      vertex 44.3768 48.4981 3
    endloop
  endfacet
  facet normal 0 0 -1
    outer loop
      vertex 43.8864 48.4527 3
      vertex 44.3766 47.2472 3
      vertex 43.8881 47.1811 3
    endloop
  endfacet
  facet normal 0 0 -1
    outer loop
      vertex 44.3766 47.2472 3
      vertex 43.8864 48.4527 3
      vertex 44.3768 48.4981 3
    endloop
  endfacet
  facet normal 0 0 -1
    outer loop
      vertex 43.4053 48.3473 3
      vertex 43.8881 47.1811 3
      vertex 43.4192 47.0287 3
    endloop
  endfacet
  facet normal 0 0 -1
    outer loop
      vertex 43.8881 47.1811 3
      vertex 43.4053 48.3473 3
      vertex 43.8864 48.4527 3
    endloop
  endfacet
  facet normal 0 0 -1
    outer loop
      vertex 42.5 47.9641 3
      vertex 43.4192 47.0287 3
      vertex 42.985 46.7951 3
    endloop
  endfacet
  facet normal 0 0 -1
    outer loop
      vertex 43.4192 47.0287 3
      vertex 42.9409 48.1836 3
      vertex 43.4053 48.3473 3
    endloop
  endfacet
  facet normal 0 0 -1
    outer loop
      vertex 42.0895 47.6921 3
      vertex 42.985 46.7951 3
      vertex 42.5996 46.4877 3
    endloop
  endfacet
  facet normal 0 0 -1
    outer loop
      vertex 43.4192 47.0287 3
      vertex 42.5 47.9641 3
      vertex 42.9409 48.1836 3
    endloop
  endfacet
  facet normal 0 0 -1
    outer loop
      vertex 41.3837 47.0077 3
      vertex 42.5996 46.4877 3
      vertex 42.2752 46.1164 3
    endloop
  endfacet
  facet normal 0 0 -1
    outer loop
      vertex 42.985 46.7951 3
      vertex 42.0895 47.6921 3
      vertex 42.5 47.9641 3
    endloop
  endfacet
  facet normal 0 0 -1
    outer loop
      vertex 41.0991 46.6057 3
      vertex 42.2752 46.1164 3
      vertex 42.0223 45.6932 3
    endloop
  endfacet
  facet normal 0 0 -1
    outer loop
      vertex 40.6882 45.7126 3
      vertex 42.0223 45.6932 3
      vertex 41.8491 45.2316 3
    endloop
  endfacet
  facet normal 0 0 -1
    outer loop
      vertex 40.5681 45.235 3
      vertex 41.8491 45.2316 3
      vertex 41.7611 44.7465 3
    endloop
  endfacet
  facet normal 0 0 -1
    outer loop
      vertex 42.5996 46.4877 3
      vertex 41.7155 47.3716 3
      vertex 42.0895 47.6921 3
    endloop
  endfacet
  facet normal 0 0 -1
    outer loop
      vertex 40.6882 43.2874 3
      vertex 42.0223 43.3068 3
      vertex 40.8661 42.8282 3
    endloop
  endfacet
  facet normal -0 0 -1
    outer loop
      vertex 42.0223 43.3068 3
      vertex 40.6882 43.2874 3
      vertex 41.8491 43.7684 3
    endloop
  endfacet
  facet normal 0 0 -1
    outer loop
      vertex 42.5996 46.4877 3
      vertex 41.3837 47.0077 3
      vertex 41.7155 47.3716 3
    endloop
  endfacet
  facet normal 0 0 -1
    outer loop
      vertex 40.5681 43.765 3
      vertex 41.8491 43.7684 3
      vertex 40.6882 43.2874 3
    endloop
  endfacet
  facet normal 0 0 -1
    outer loop
      vertex 42.2752 46.1164 3
      vertex 41.0991 46.6057 3
      vertex 41.3837 47.0077 3
    endloop
  endfacet
  facet normal -0 0 -1
    outer loop
      vertex 41.8491 43.7684 3
      vertex 40.5681 43.765 3
      vertex 41.7611 44.2535 3
    endloop
  endfacet
  facet normal 0 0 -1
    outer loop
      vertex 42.0223 45.6932 3
      vertex 40.8661 46.1718 3
      vertex 41.0991 46.6057 3
    endloop
  endfacet
  facet normal 0 0 -1
    outer loop
      vertex 40.5076 44.2538 3
      vertex 41.7611 44.2535 3
      vertex 40.5681 43.765 3
    endloop
  endfacet
  facet normal 0 0 -1
    outer loop
      vertex 42.0223 45.6932 3
      vertex 40.6882 45.7126 3
      vertex 40.8661 46.1718 3
    endloop
  endfacet
  facet normal 0 0 -1
    outer loop
      vertex 41.7611 44.2535 3
      vertex 40.5076 44.2538 3
      vertex 41.7611 44.7465 3
    endloop
  endfacet
  facet normal 0 0 -1
    outer loop
      vertex 41.8491 45.2316 3
      vertex 40.5681 45.235 3
      vertex 40.6882 45.7126 3
    endloop
  endfacet
  facet normal 0 0 -1
    outer loop
      vertex 40.5076 44.7462 3
      vertex 41.7611 44.7465 3
      vertex 40.5076 44.2538 3
    endloop
  endfacet
  facet normal -0 0 -1
    outer loop
      vertex 41.7611 44.7465 3
      vertex 40.5076 44.7462 3
      vertex 40.5681 45.235 3
    endloop
  endfacet
  facet normal 0.153389 -0.988166 0
    outer loop
      vertex 44.8691 40.5171 3
      vertex 45.3557 40.5926 24
      vertex 44.8691 40.5171 24
    endloop
  endfacet
  facet normal 0.153389 -0.988166 0
    outer loop
      vertex 45.3557 40.5926 24
      vertex 44.8691 40.5171 3
      vertex 45.3557 40.5926 3
    endloop
  endfacet
  facet normal 0.952941 0.303155 0
    outer loop
      vertex 48.3792 45.4757 24
      vertex 48.2299 45.945 3
      vertex 48.2299 45.945 24
    endloop
  endfacet
  facet normal 0.952941 0.303155 0
    outer loop
      vertex 48.2299 45.945 3
      vertex 48.3792 45.4757 24
      vertex 48.3792 45.4757 3
    endloop
  endfacet
  facet normal 0.982974 0.183746 0
    outer loop
      vertex 48.4697 44.9916 24
      vertex 48.3792 45.4757 3
      vertex 48.3792 45.4757 24
    endloop
  endfacet
  facet normal 0.982974 0.183746 0
    outer loop
      vertex 48.3792 45.4757 3
      vertex 48.4697 44.9916 24
      vertex 48.4697 44.9916 3
    endloop
  endfacet
  facet normal 0.779081 0.626923 0
    outer loop
      vertex 47.7648 46.8111 24
      vertex 47.456 47.1948 3
      vertex 47.456 47.1948 24
    endloop
  endfacet
  facet normal 0.779081 0.626923 0
    outer loop
      vertex 47.456 47.1948 3
      vertex 47.7648 46.8111 24
      vertex 47.7648 46.8111 3
    endloop
  endfacet
  facet normal 0.850218 0.526431 0
    outer loop
      vertex 48.024 46.3924 24
      vertex 47.7648 46.8111 3
      vertex 47.7648 46.8111 24
    endloop
  endfacet
  facet normal 0.850218 0.526431 0
    outer loop
      vertex 47.7648 46.8111 3
      vertex 48.024 46.3924 24
      vertex 48.024 46.3924 3
    endloop
  endfacet
  facet normal 0.153389 0.988166 -0
    outer loop
      vertex 45.3557 48.4074 3
      vertex 44.8691 48.4829 24
      vertex 45.3557 48.4074 24
    endloop
  endfacet
  facet normal 0.153389 0.988166 0
    outer loop
      vertex 44.8691 48.4829 24
      vertex 45.3557 48.4074 3
      vertex 44.8691 48.4829 3
    endloop
  endfacet
  facet normal 0.273666 0.961825 -0
    outer loop
      vertex 45.8294 48.2726 3
      vertex 45.3557 48.4074 24
      vertex 45.8294 48.2726 24
    endloop
  endfacet
  facet normal 0.273666 0.961825 0
    outer loop
      vertex 45.3557 48.4074 24
      vertex 45.8294 48.2726 3
      vertex 45.3557 48.4074 3
    endloop
  endfacet
  facet normal 0.0307896 0.999526 -0
    outer loop
      vertex 44.8691 48.4829 3
      vertex 44.3768 48.4981 24
      vertex 44.8691 48.4829 24
    endloop
  endfacet
  facet normal 0.0307896 0.999526 0
    outer loop
      vertex 44.3768 48.4981 24
      vertex 44.8691 48.4829 3
      vertex 44.3768 48.4981 3
    endloop
  endfacet
  facet normal 0.602632 0.79802 -0
    outer loop
      vertex 47.1025 47.5376 3
      vertex 46.7095 47.8344 24
      vertex 47.1025 47.5376 24
    endloop
  endfacet
  facet normal 0.602632 0.79802 0
    outer loop
      vertex 46.7095 47.8344 24
      vertex 47.1025 47.5376 3
      vertex 46.7095 47.8344 3
    endloop
  endfacet
  facet normal -0.881011 0.473096 0
    outer loop
      vertex 40.8661 46.1718 3
      vertex 41.0991 46.6057 24
      vertex 41.0991 46.6057 3
    endloop
  endfacet
  facet normal -0.881011 0.473096 0
    outer loop
      vertex 41.0991 46.6057 24
      vertex 40.8661 46.1718 3
      vertex 40.8661 46.1718 24
    endloop
  endfacet
  facet normal -0.992421 0.122887 0
    outer loop
      vertex 40.5076 44.7462 3
      vertex 40.5681 45.235 24
      vertex 40.5681 45.235 3
    endloop
  endfacet
  facet normal -0.992421 0.122887 0
    outer loop
      vertex 40.5681 45.235 24
      vertex 40.5076 44.7462 3
      vertex 40.5076 44.7462 24
    endloop
  endfacet
  facet normal 0 0 1
    outer loop
      vertex 47.25 44.5 24
      vertex 48.5 44.5 24
      vertex 48.4697 44.9916 24
    endloop
  endfacet
  facet normal 0 0 1
    outer loop
      vertex 47.2058 44.991 24
      vertex 48.4697 44.9916 24
      vertex 48.3792 45.4757 24
    endloop
  endfacet
  facet normal 0 0 1
    outer loop
      vertex 48.5 44.5 24
      vertex 47.25 44.5 24
      vertex 48.4697 44.0084 24
    endloop
  endfacet
  facet normal 0 0 1
    outer loop
      vertex 47.0746 45.4663 24
      vertex 48.3792 45.4757 24
      vertex 48.2299 45.945 24
    endloop
  endfacet
  facet normal -0 0 1
    outer loop
      vertex 47.2058 44.009 24
      vertex 48.4697 44.0084 24
      vertex 47.25 44.5 24
    endloop
  endfacet
  facet normal 0 0 1
    outer loop
      vertex 47.0746 45.4663 24
      vertex 48.2299 45.945 24
      vertex 48.024 46.3924 24
    endloop
  endfacet
  facet normal 0 0 1
    outer loop
      vertex 48.4697 44.0084 24
      vertex 47.2058 44.009 24
      vertex 48.3792 43.5243 24
    endloop
  endfacet
  facet normal 0 0 1
    outer loop
      vertex 46.8607 45.9105 24
      vertex 48.024 46.3924 24
      vertex 47.7648 46.8111 24
    endloop
  endfacet
  facet normal -0 0 1
    outer loop
      vertex 47.0746 43.5337 24
      vertex 48.3792 43.5243 24
      vertex 47.2058 44.009 24
    endloop
  endfacet
  facet normal 0 0 1
    outer loop
      vertex 46.5709 46.3093 24
      vertex 47.7648 46.8111 24
      vertex 47.456 47.1948 24
    endloop
  endfacet
  facet normal 0 0 1
    outer loop
      vertex 48.3792 43.5243 24
      vertex 47.0746 43.5337 24
      vertex 48.2299 43.055 24
    endloop
  endfacet
  facet normal 0 0 1
    outer loop
      vertex 48.2299 43.055 24
      vertex 47.0746 43.5337 24
      vertex 48.024 42.6076 24
    endloop
  endfacet
  facet normal 0 0 1
    outer loop
      vertex 48.4697 44.9916 24
      vertex 47.2058 44.991 24
      vertex 47.25 44.5 24
    endloop
  endfacet
  facet normal 0 0 1
    outer loop
      vertex 46.5709 46.3093 24
      vertex 47.456 47.1948 24
      vertex 47.1025 47.5376 24
    endloop
  endfacet
  facet normal 0 0 1
    outer loop
      vertex 48.3792 45.4757 24
      vertex 47.0746 45.4663 24
      vertex 47.2058 44.991 24
    endloop
  endfacet
  facet normal 0 0 1
    outer loop
      vertex 48.024 46.3924 24
      vertex 46.8607 45.9105 24
      vertex 47.0746 45.4663 24
    endloop
  endfacet
  facet normal 0 0 1
    outer loop
      vertex 46.2146 46.65 24
      vertex 47.1025 47.5376 24
      vertex 46.7095 47.8344 24
    endloop
  endfacet
  facet normal 0 0 1
    outer loop
      vertex 47.7648 46.8111 24
      vertex 46.5709 46.3093 24
      vertex 46.8607 45.9105 24
    endloop
  endfacet
  facet normal 0 0 1
    outer loop
      vertex 45.8031 46.9216 24
      vertex 46.7095 47.8344 24
      vertex 46.283 48.0807 24
    endloop
  endfacet
  facet normal 0 0 1
    outer loop
      vertex 47.1025 47.5376 24
      vertex 46.2146 46.65 24
      vertex 46.5709 46.3093 24
    endloop
  endfacet
  facet normal 0 0 1
    outer loop
      vertex 45.3498 47.1154 24
      vertex 46.283 48.0807 24
      vertex 45.8294 48.2726 24
    endloop
  endfacet
  facet normal 0 0 1
    outer loop
      vertex 46.7095 47.8344 24
      vertex 45.8031 46.9216 24
      vertex 46.2146 46.65 24
    endloop
  endfacet
  facet normal 0 0 1
    outer loop
      vertex 45.3498 47.1154 24
      vertex 45.8294 48.2726 24
      vertex 45.3557 48.4074 24
    endloop
  endfacet
  facet normal 0 0 1
    outer loop
      vertex 46.283 48.0807 24
      vertex 45.3498 47.1154 24
      vertex 45.8031 46.9216 24
    endloop
  endfacet
  facet normal 0 0 1
    outer loop
      vertex 45.3557 48.4074 24
      vertex 44.8691 47.2251 24
      vertex 45.3498 47.1154 24
    endloop
  endfacet
  facet normal 0 0 1
    outer loop
      vertex 44.8691 48.4829 24
      vertex 44.8691 47.2251 24
      vertex 45.3557 48.4074 24
    endloop
  endfacet
  facet normal 0 0 1
    outer loop
      vertex 44.3766 47.2472 24
      vertex 44.8691 48.4829 24
      vertex 44.3768 48.4981 24
    endloop
  endfacet
  facet normal 0 0 1
    outer loop
      vertex 44.8691 48.4829 24
      vertex 44.3766 47.2472 24
      vertex 44.8691 47.2251 24
    endloop
  endfacet
  facet normal -0 0 1
    outer loop
      vertex 43.8864 48.4527 24
      vertex 44.3766 47.2472 24
      vertex 44.3768 48.4981 24
    endloop
  endfacet
  facet normal 0 0 1
    outer loop
      vertex 44.3766 47.2472 24
      vertex 43.8864 48.4527 24
      vertex 43.8881 47.1811 24
    endloop
  endfacet
  facet normal -0 0 1
    outer loop
      vertex 43.4053 48.3473 24
      vertex 43.8881 47.1811 24
      vertex 43.8864 48.4527 24
    endloop
  endfacet
  facet normal 0 0 1
    outer loop
      vertex 43.8881 47.1811 24
      vertex 43.4053 48.3473 24
      vertex 43.4192 47.0287 24
    endloop
  endfacet
  facet normal -0 0 1
    outer loop
      vertex 42.9409 48.1836 24
      vertex 43.4192 47.0287 24
      vertex 43.4053 48.3473 24
    endloop
  endfacet
  facet normal -0 0 1
    outer loop
      vertex 42.5 47.9641 24
      vertex 43.4192 47.0287 24
      vertex 42.9409 48.1836 24
    endloop
  endfacet
  facet normal 0 0 1
    outer loop
      vertex 43.4192 47.0287 24
      vertex 42.5 47.9641 24
      vertex 42.985 46.7951 24
    endloop
  endfacet
  facet normal -0 0 1
    outer loop
      vertex 42.0895 47.6921 24
      vertex 42.985 46.7951 24
      vertex 42.5 47.9641 24
    endloop
  endfacet
  facet normal 0 0 1
    outer loop
      vertex 42.985 46.7951 24
      vertex 42.0895 47.6921 24
      vertex 42.5996 46.4877 24
    endloop
  endfacet
  facet normal -0 0 1
    outer loop
      vertex 41.7155 47.3716 24
      vertex 42.5996 46.4877 24
      vertex 42.0895 47.6921 24
    endloop
  endfacet
  facet normal -0 0 1
    outer loop
      vertex 41.3837 47.0077 24
      vertex 42.5996 46.4877 24
      vertex 41.7155 47.3716 24
    endloop
  endfacet
  facet normal 0 0 1
    outer loop
      vertex 42.5996 46.4877 24
      vertex 41.3837 47.0077 24
      vertex 42.2752 46.1164 24
    endloop
  endfacet
  facet normal -0 0 1
    outer loop
      vertex 41.0991 46.6057 24
      vertex 42.2752 46.1164 24
      vertex 41.3837 47.0077 24
    endloop
  endfacet
  facet normal -0 0 1
    outer loop
      vertex 40.8661 46.1718 24
      vertex 42.0223 45.6932 24
      vertex 41.0991 46.6057 24
    endloop
  endfacet
  facet normal 0 0 1
    outer loop
      vertex 42.2752 46.1164 24
      vertex 41.0991 46.6057 24
      vertex 42.0223 45.6932 24
    endloop
  endfacet
  facet normal -0 0 1
    outer loop
      vertex 46.8607 43.0895 24
      vertex 48.024 42.6076 24
      vertex 47.0746 43.5337 24
    endloop
  endfacet
  facet normal 0 0 1
    outer loop
      vertex 48.024 42.6076 24
      vertex 46.8607 43.0895 24
      vertex 47.7648 42.1889 24
    endloop
  endfacet
  facet normal -0 0 1
    outer loop
      vertex 46.5709 42.6907 24
      vertex 47.7648 42.1889 24
      vertex 46.8607 43.0895 24
    endloop
  endfacet
  facet normal 0 0 1
    outer loop
      vertex 47.7648 42.1889 24
      vertex 46.5709 42.6907 24
      vertex 47.456 41.8052 24
    endloop
  endfacet
  facet normal 0 0 1
    outer loop
      vertex 47.456 41.8052 24
      vertex 46.5709 42.6907 24
      vertex 47.1025 41.4624 24
    endloop
  endfacet
  facet normal -0 0 1
    outer loop
      vertex 46.2146 42.35 24
      vertex 47.1025 41.4624 24
      vertex 46.5709 42.6907 24
    endloop
  endfacet
  facet normal 0 0 1
    outer loop
      vertex 47.1025 41.4624 24
      vertex 46.2146 42.35 24
      vertex 46.7095 41.1656 24
    endloop
  endfacet
  facet normal -0 0 1
    outer loop
      vertex 45.8031 42.0784 24
      vertex 46.7095 41.1656 24
      vertex 46.2146 42.35 24
    endloop
  endfacet
  facet normal 0 0 1
    outer loop
      vertex 46.7095 41.1656 24
      vertex 45.8031 42.0784 24
      vertex 46.283 40.9193 24
    endloop
  endfacet
  facet normal -0 0 1
    outer loop
      vertex 45.3498 41.8846 24
      vertex 46.283 40.9193 24
      vertex 45.8031 42.0784 24
    endloop
  endfacet
  facet normal 0 0 1
    outer loop
      vertex 46.283 40.9193 24
      vertex 45.3498 41.8846 24
      vertex 45.8294 40.7274 24
    endloop
  endfacet
  facet normal 0 0 1
    outer loop
      vertex 45.8294 40.7274 24
      vertex 45.3498 41.8846 24
      vertex 45.3557 40.5926 24
    endloop
  endfacet
  facet normal -0 0 1
    outer loop
      vertex 44.8691 41.7749 24
      vertex 45.3557 40.5926 24
      vertex 45.3498 41.8846 24
    endloop
  endfacet
  facet normal 0 0 1
    outer loop
      vertex 44.8691 41.7749 24
      vertex 44.8691 40.5171 24
      vertex 45.3557 40.5926 24
    endloop
  endfacet
  facet normal -0 0 1
    outer loop
      vertex 44.3766 41.7528 24
      vertex 44.8691 40.5171 24
      vertex 44.8691 41.7749 24
    endloop
  endfacet
  facet normal 0 0 1
    outer loop
      vertex 44.8691 40.5171 24
      vertex 44.3766 41.7528 24
      vertex 44.3768 40.5019 24
    endloop
  endfacet
  facet normal 0 0 1
    outer loop
      vertex 43.8864 40.5473 24
      vertex 44.3766 41.7528 24
      vertex 43.8881 41.8189 24
    endloop
  endfacet
  facet normal 0 0 1
    outer loop
      vertex 44.3766 41.7528 24
      vertex 43.8864 40.5473 24
      vertex 44.3768 40.5019 24
    endloop
  endfacet
  facet normal 0 0 1
    outer loop
      vertex 43.4053 40.6527 24
      vertex 43.8881 41.8189 24
      vertex 43.4192 41.9713 24
    endloop
  endfacet
  facet normal 0 0 1
    outer loop
      vertex 43.8881 41.8189 24
      vertex 43.4053 40.6527 24
      vertex 43.8864 40.5473 24
    endloop
  endfacet
  facet normal 0 0 1
    outer loop
      vertex 42.5 41.0359 24
      vertex 43.4192 41.9713 24
      vertex 42.985 42.2049 24
    endloop
  endfacet
  facet normal 0 0 1
    outer loop
      vertex 43.4192 41.9713 24
      vertex 42.9409 40.8164 24
      vertex 43.4053 40.6527 24
    endloop
  endfacet
  facet normal 0 0 1
    outer loop
      vertex 42.0895 41.3079 24
      vertex 42.985 42.2049 24
      vertex 42.5996 42.5123 24
    endloop
  endfacet
  facet normal 0 0 1
    outer loop
      vertex 43.4192 41.9713 24
      vertex 42.5 41.0359 24
      vertex 42.9409 40.8164 24
    endloop
  endfacet
  facet normal 0 0 1
    outer loop
      vertex 41.3837 41.9923 24
      vertex 42.5996 42.5123 24
      vertex 42.2752 42.8836 24
    endloop
  endfacet
  facet normal 0 0 1
    outer loop
      vertex 42.985 42.2049 24
      vertex 42.0895 41.3079 24
      vertex 42.5 41.0359 24
    endloop
  endfacet
  facet normal 0 0 1
    outer loop
      vertex 41.0991 42.3943 24
      vertex 42.2752 42.8836 24
      vertex 42.0223 43.3068 24
    endloop
  endfacet
  facet normal 0 0 1
    outer loop
      vertex 40.6882 43.2874 24
      vertex 42.0223 43.3068 24
      vertex 41.8491 43.7684 24
    endloop
  endfacet
  facet normal 0 0 1
    outer loop
      vertex 40.5681 43.765 24
      vertex 41.8491 43.7684 24
      vertex 41.7611 44.2535 24
    endloop
  endfacet
  facet normal 0 0 1
    outer loop
      vertex 42.5996 42.5123 24
      vertex 41.7155 41.6284 24
      vertex 42.0895 41.3079 24
    endloop
  endfacet
  facet normal -0 0 1
    outer loop
      vertex 40.6882 45.7126 24
      vertex 42.0223 45.6932 24
      vertex 40.8661 46.1718 24
    endloop
  endfacet
  facet normal 0 0 1
    outer loop
      vertex 42.0223 45.6932 24
      vertex 40.6882 45.7126 24
      vertex 41.8491 45.2316 24
    endloop
  endfacet
  facet normal 0 0 1
    outer loop
      vertex 42.5996 42.5123 24
      vertex 41.3837 41.9923 24
      vertex 41.7155 41.6284 24
    endloop
  endfacet
  facet normal -0 0 1
    outer loop
      vertex 40.5681 45.235 24
      vertex 41.8491 45.2316 24
      vertex 40.6882 45.7126 24
    endloop
  endfacet
  facet normal 0 0 1
    outer loop
      vertex 42.2752 42.8836 24
      vertex 41.0991 42.3943 24
      vertex 41.3837 41.9923 24
    endloop
  endfacet
  facet normal 0 0 1
    outer loop
      vertex 41.8491 45.2316 24
      vertex 40.5681 45.235 24
      vertex 41.7611 44.7465 24
    endloop
  endfacet
  facet normal 0 0 1
    outer loop
      vertex 42.0223 43.3068 24
      vertex 40.8661 42.8282 24
      vertex 41.0991 42.3943 24
    endloop
  endfacet
  facet normal 0 0 1
    outer loop
      vertex 40.5076 44.7462 24
      vertex 41.7611 44.7465 24
      vertex 40.5681 45.235 24
    endloop
  endfacet
  facet normal 0 0 1
    outer loop
      vertex 42.0223 43.3068 24
      vertex 40.6882 43.2874 24
      vertex 40.8661 42.8282 24
    endloop
  endfacet
  facet normal 0 0 1
    outer loop
      vertex 41.7611 44.7465 24
      vertex 40.5076 44.7462 24
      vertex 41.7611 44.2535 24
    endloop
  endfacet
  facet normal 0 0 1
    outer loop
      vertex 41.8491 43.7684 24
      vertex 40.5681 43.765 24
      vertex 40.6882 43.2874 24
    endloop
  endfacet
  facet normal -0 0 1
    outer loop
      vertex 40.5076 44.2538 24
      vertex 41.7611 44.2535 24
      vertex 40.5076 44.7462 24
    endloop
  endfacet
  facet normal 0 0 1
    outer loop
      vertex 41.7611 44.2535 24
      vertex 40.5076 44.2538 24
      vertex 40.5681 43.765 24
    endloop
  endfacet
  facet normal -0.552362 0.833605 0
    outer loop
      vertex 42.5 47.9641 3
      vertex 42.0895 47.6921 24
      vertex 42.5 47.9641 24
    endloop
  endfacet
  facet normal -0.552362 0.833605 0
    outer loop
      vertex 42.0895 47.6921 24
      vertex 42.5 47.9641 3
      vertex 42.0895 47.6921 3
    endloop
  endfacet
  facet normal -0.650621 0.759403 0
    outer loop
      vertex 42.0895 47.6921 3
      vertex 41.7155 47.3716 24
      vertex 42.0895 47.6921 24
    endloop
  endfacet
  facet normal -0.650621 0.759403 0
    outer loop
      vertex 41.7155 47.3716 24
      vertex 42.0895 47.6921 3
      vertex 41.7155 47.3716 3
    endloop
  endfacet
  facet normal -0.332355 0.943154 0
    outer loop
      vertex 43.4053 48.3473 3
      vertex 42.9409 48.1836 24
      vertex 43.4053 48.3473 24
    endloop
  endfacet
  facet normal -0.332355 0.943154 0
    outer loop
      vertex 42.9409 48.1836 24
      vertex 43.4053 48.3473 3
      vertex 42.9409 48.1836 3
    endloop
  endfacet
  facet normal 0.998103 -0.0615633 0
    outer loop
      vertex 48.4697 44.0084 24
      vertex 48.5 44.5 3
      vertex 48.5 44.5 24
    endloop
  endfacet
  facet normal 0.998103 -0.0615633 0
    outer loop
      vertex 48.5 44.5 3
      vertex 48.4697 44.0084 24
      vertex 48.4697 44.0084 3
    endloop
  endfacet
  facet normal 0.779081 -0.626923 0
    outer loop
      vertex 47.456 41.8052 24
      vertex 47.7648 42.1889 3
      vertex 47.7648 42.1889 24
    endloop
  endfacet
  facet normal 0.779081 -0.626923 0
    outer loop
      vertex 47.7648 42.1889 3
      vertex 47.456 41.8052 24
      vertex 47.456 41.8052 3
    endloop
  endfacet
  facet normal -0.881011 -0.473096 0
    outer loop
      vertex 41.0991 42.3943 3
      vertex 40.8661 42.8282 24
      vertex 40.8661 42.8282 3
    endloop
  endfacet
  facet normal -0.881011 -0.473096 0
    outer loop
      vertex 40.8661 42.8282 24
      vertex 41.0991 42.3943 3
      vertex 41.0991 42.3943 24
    endloop
  endfacet
  facet normal -0.816197 -0.577774 0
    outer loop
      vertex 41.3837 41.9923 3
      vertex 41.0991 42.3943 24
      vertex 41.0991 42.3943 3
    endloop
  endfacet
  facet normal -0.816197 -0.577774 0
    outer loop
      vertex 41.0991 42.3943 24
      vertex 41.3837 41.9923 3
      vertex 41.3837 41.9923 24
    endloop
  endfacet
  facet normal 0.499999 -0.866026 0
    outer loop
      vertex 46.283 40.9193 3
      vertex 46.7095 41.1656 24
      vertex 46.283 40.9193 24
    endloop
  endfacet
  facet normal 0.499999 -0.866026 0
    outer loop
      vertex 46.7095 41.1656 24
      vertex 46.283 40.9193 3
      vertex 46.7095 41.1656 3
    endloop
  endfacet
  facet normal 0.952941 -0.303155 0
    outer loop
      vertex 48.2299 43.055 24
      vertex 48.3792 43.5243 3
      vertex 48.3792 43.5243 24
    endloop
  endfacet
  facet normal 0.952941 -0.303155 0
    outer loop
      vertex 48.3792 43.5243 3
      vertex 48.2299 43.055 24
      vertex 48.2299 43.055 3
    endloop
  endfacet
  facet normal 0.850218 -0.526431 0
    outer loop
      vertex 47.7648 42.1889 24
      vertex 48.024 42.6076 3
      vertex 48.024 42.6076 24
    endloop
  endfacet
  facet normal 0.850218 -0.526431 0
    outer loop
      vertex 48.024 42.6076 3
      vertex 47.7648 42.1889 24
      vertex 47.7648 42.1889 3
    endloop
  endfacet
  facet normal -0.213932 -0.976849 0
    outer loop
      vertex 43.4053 40.6527 3
      vertex 43.8864 40.5473 24
      vertex 43.4053 40.6527 24
    endloop
  endfacet
  facet normal -0.213932 -0.976849 -0
    outer loop
      vertex 43.8864 40.5473 24
      vertex 43.4053 40.6527 3
      vertex 43.8864 40.5473 3
    endloop
  endfacet
  facet normal -0.739008 -0.673696 0
    outer loop
      vertex 41.7155 41.6284 3
      vertex 41.3837 41.9923 24
      vertex 41.3837 41.9923 3
    endloop
  endfacet
  facet normal -0.739008 -0.673696 0
    outer loop
      vertex 41.3837 41.9923 24
      vertex 41.7155 41.6284 3
      vertex 41.7155 41.6284 24
    endloop
  endfacet
  facet normal -0.969797 -0.243915 0
    outer loop
      vertex 40.6882 43.2874 3
      vertex 40.5681 43.765 24
      vertex 40.5681 43.765 3
    endloop
  endfacet
  facet normal -0.969797 -0.243915 0
    outer loop
      vertex 40.5681 43.765 24
      vertex 40.6882 43.2874 3
      vertex 40.6882 43.2874 24
    endloop
  endfacet
  facet normal -0.992421 -0.122887 0
    outer loop
      vertex 40.5681 43.765 3
      vertex 40.5076 44.2538 24
      vertex 40.5076 44.2538 3
    endloop
  endfacet
  facet normal -0.992421 -0.122887 0
    outer loop
      vertex 40.5076 44.2538 24
      vertex 40.5681 43.765 3
      vertex 40.5681 43.765 24
    endloop
  endfacet
  facet normal -0.932473 -0.361239 0
    outer loop
      vertex 40.8661 42.8282 3
      vertex 40.6882 43.2874 24
      vertex 40.6882 43.2874 3
    endloop
  endfacet
  facet normal -0.932473 -0.361239 0
    outer loop
      vertex 40.6882 43.2874 24
      vertex 40.8661 42.8282 3
      vertex 40.8661 42.8282 24
    endloop
  endfacet
  facet normal 0.696132 -0.717913 0
    outer loop
      vertex 47.1025 41.4624 3
      vertex 47.456 41.8052 24
      vertex 47.1025 41.4624 24
    endloop
  endfacet
  facet normal 0.696132 -0.717913 0
    outer loop
      vertex 47.456 41.8052 24
      vertex 47.1025 41.4624 3
      vertex 47.456 41.8052 3
    endloop
  endfacet
  facet normal 0.389791 -0.920903 0
    outer loop
      vertex 45.8294 40.7274 3
      vertex 46.283 40.9193 24
      vertex 45.8294 40.7274 24
    endloop
  endfacet
  facet normal 0.389791 -0.920903 0
    outer loop
      vertex 46.283 40.9193 24
      vertex 45.8294 40.7274 3
      vertex 46.283 40.9193 3
    endloop
  endfacet
  facet normal 0.273666 -0.961825 0
    outer loop
      vertex 45.3557 40.5926 3
      vertex 45.8294 40.7274 24
      vertex 45.3557 40.5926 24
    endloop
  endfacet
  facet normal 0.273666 -0.961825 0
    outer loop
      vertex 45.8294 40.7274 24
      vertex 45.3557 40.5926 3
      vertex 45.8294 40.7274 3
    endloop
  endfacet
  facet normal -0.0922676 -0.995734 0
    outer loop
      vertex 43.8864 40.5473 3
      vertex 44.3768 40.5019 24
      vertex 43.8864 40.5473 24
    endloop
  endfacet
  facet normal -0.0922676 -0.995734 -0
    outer loop
      vertex 44.3768 40.5019 24
      vertex 43.8864 40.5473 3
      vertex 44.3768 40.5019 3
    endloop
  endfacet
  facet normal -0.332355 -0.943154 0
    outer loop
      vertex 42.9409 40.8164 3
      vertex 43.4053 40.6527 24
      vertex 42.9409 40.8164 24
    endloop
  endfacet
  facet normal -0.332355 -0.943154 -0
    outer loop
      vertex 43.4053 40.6527 24
      vertex 42.9409 40.8164 3
      vertex 43.4053 40.6527 3
    endloop
  endfacet
  facet normal 0.602632 -0.79802 0
    outer loop
      vertex 46.7095 41.1656 3
      vertex 47.1025 41.4624 24
      vertex 46.7095 41.1656 24
    endloop
  endfacet
  facet normal 0.602632 -0.79802 0
    outer loop
      vertex 47.1025 41.4624 24
      vertex 46.7095 41.1656 3
      vertex 47.1025 41.4624 3
    endloop
  endfacet
  facet normal -0.445738 -0.895163 0
    outer loop
      vertex 42.5 41.0359 3
      vertex 42.9409 40.8164 24
      vertex 42.5 41.0359 24
    endloop
  endfacet
  facet normal -0.445738 -0.895163 -0
    outer loop
      vertex 42.9409 40.8164 24
      vertex 42.5 41.0359 3
      vertex 42.9409 40.8164 3
    endloop
  endfacet
  facet normal -0.552362 -0.833605 0
    outer loop
      vertex 42.0895 41.3079 3
      vertex 42.5 41.0359 24
      vertex 42.0895 41.3079 24
    endloop
  endfacet
  facet normal -0.552362 -0.833605 -0
    outer loop
      vertex 42.5 41.0359 24
      vertex 42.0895 41.3079 3
      vertex 42.5 41.0359 3
    endloop
  endfacet
  facet normal -0.650621 -0.759403 0
    outer loop
      vertex 41.7155 41.6284 3
      vertex 42.0895 41.3079 24
      vertex 41.7155 41.6284 24
    endloop
  endfacet
  facet normal -0.650621 -0.759403 -0
    outer loop
      vertex 42.0895 41.3079 24
      vertex 41.7155 41.6284 3
      vertex 42.0895 41.3079 3
    endloop
  endfacet
  facet normal -0.995974 -0.0896385 0
    outer loop
      vertex 47.25 44.5 3
      vertex 47.2058 44.991 24
      vertex 47.2058 44.991 3
    endloop
  endfacet
  facet normal -0.995974 -0.0896385 0
    outer loop
      vertex 47.2058 44.991 24
      vertex 47.25 44.5 3
      vertex 47.25 44.5 24
    endloop
  endfacet
  facet normal 1 -0 0
    outer loop
      vertex 41.7611 44.2535 24
      vertex 41.7611 44.7465 3
      vertex 41.7611 44.7465 24
    endloop
  endfacet
  facet normal 1 0 0
    outer loop
      vertex 41.7611 44.7465 3
      vertex 41.7611 44.2535 24
      vertex 41.7611 44.2535 3
    endloop
  endfacet
  facet normal -0.0448619 -0.998993 0
    outer loop
      vertex 44.3766 47.2472 3
      vertex 44.8691 47.2251 24
      vertex 44.3766 47.2472 24
    endloop
  endfacet
  facet normal -0.0448619 -0.998993 -0
    outer loop
      vertex 44.8691 47.2251 24
      vertex 44.3766 47.2472 3
      vertex 44.8691 47.2251 3
    endloop
  endfacet
  facet normal -0.0448619 0.998993 0
    outer loop
      vertex 44.8691 41.7749 3
      vertex 44.3766 41.7528 24
      vertex 44.8691 41.7749 24
    endloop
  endfacet
  facet normal -0.0448619 0.998993 0
    outer loop
      vertex 44.3766 41.7528 24
      vertex 44.8691 41.7749 3
      vertex 44.3766 41.7528 3
    endloop
  endfacet
  facet normal -0.809016 0.587786 0
    outer loop
      vertex 46.5709 42.6907 3
      vertex 46.8607 43.0895 24
      vertex 46.8607 43.0895 3
    endloop
  endfacet
  facet normal -0.809016 0.587786 0
    outer loop
      vertex 46.8607 43.0895 24
      vertex 46.5709 42.6907 3
      vertex 46.5709 42.6907 24
    endloop
  endfacet
  facet normal -0.691063 -0.722794 0
    outer loop
      vertex 46.2146 46.65 3
      vertex 46.5709 46.3093 24
      vertex 46.2146 46.65 24
    endloop
  endfacet
  facet normal -0.691063 -0.722794 -0
    outer loop
      vertex 46.5709 46.3093 24
      vertex 46.2146 46.65 3
      vertex 46.5709 46.3093 3
    endloop
  endfacet
  facet normal 0.753071 -0.657939 0
    outer loop
      vertex 42.2752 46.1164 24
      vertex 42.5996 46.4877 3
      vertex 42.5996 46.4877 24
    endloop
  endfacet
  facet normal 0.753071 -0.657939 0
    outer loop
      vertex 42.5996 46.4877 3
      vertex 42.2752 46.1164 24
      vertex 42.2752 46.1164 3
    endloop
  endfacet
  facet normal 0.473873 -0.880593 0
    outer loop
      vertex 42.985 46.7951 3
      vertex 43.4192 47.0287 24
      vertex 42.985 46.7951 24
    endloop
  endfacet
  facet normal 0.473873 -0.880593 0
    outer loop
      vertex 43.4192 47.0287 24
      vertex 42.985 46.7951 3
      vertex 43.4192 47.0287 3
    endloop
  endfacet
  facet normal -0.963962 0.266039 0
    outer loop
      vertex 47.0746 43.5337 3
      vertex 47.2058 44.009 24
      vertex 47.2058 44.009 3
    endloop
  endfacet
  facet normal -0.963962 0.266039 0
    outer loop
      vertex 47.2058 44.009 24
      vertex 47.0746 43.5337 3
      vertex 47.0746 43.5337 24
    endloop
  endfacet
  facet normal -0.900969 -0.433884 0
    outer loop
      vertex 47.0746 45.4663 3
      vertex 46.8607 45.9105 24
      vertex 46.8607 45.9105 3
    endloop
  endfacet
  facet normal -0.900969 -0.433884 0
    outer loop
      vertex 46.8607 45.9105 24
      vertex 47.0746 45.4663 3
      vertex 47.0746 45.4663 24
    endloop
  endfacet
  facet normal -0.963962 -0.266039 0
    outer loop
      vertex 47.2058 44.991 3
      vertex 47.0746 45.4663 24
      vertex 47.0746 45.4663 3
    endloop
  endfacet
  facet normal -0.963962 -0.266039 0
    outer loop
      vertex 47.0746 45.4663 24
      vertex 47.2058 44.991 3
      vertex 47.2058 44.991 24
    endloop
  endfacet
  facet normal -0.809016 -0.587786 0
    outer loop
      vertex 46.8607 45.9105 3
      vertex 46.5709 46.3093 24
      vertex 46.5709 46.3093 3
    endloop
  endfacet
  facet normal -0.809016 -0.587786 0
    outer loop
      vertex 46.5709 46.3093 24
      vertex 46.8607 45.9105 3
      vertex 46.8607 45.9105 24
    endloop
  endfacet
  facet normal -0.393025 -0.919528 0
    outer loop
      vertex 45.3498 47.1154 3
      vertex 45.8031 46.9216 24
      vertex 45.3498 47.1154 24
    endloop
  endfacet
  facet normal -0.393025 -0.919528 -0
    outer loop
      vertex 45.8031 46.9216 24
      vertex 45.3498 47.1154 3
      vertex 45.8031 46.9216 3
    endloop
  endfacet
  facet normal -0.222522 -0.974928 0
    outer loop
      vertex 44.8691 47.2251 3
      vertex 45.3498 47.1154 24
      vertex 44.8691 47.2251 24
    endloop
  endfacet
  facet normal -0.222522 -0.974928 -0
    outer loop
      vertex 45.3498 47.1154 24
      vertex 44.8691 47.2251 3
      vertex 45.3498 47.1154 3
    endloop
  endfacet
  facet normal -0.5509 -0.834571 0
    outer loop
      vertex 45.8031 46.9216 3
      vertex 46.2146 46.65 24
      vertex 45.8031 46.9216 24
    endloop
  endfacet
  facet normal -0.5509 -0.834571 -0
    outer loop
      vertex 46.2146 46.65 24
      vertex 45.8031 46.9216 3
      vertex 46.2146 46.65 3
    endloop
  endfacet
  facet normal 0.936235 -0.351374 0
    outer loop
      vertex 41.8491 45.2316 24
      vertex 42.0223 45.6932 3
      vertex 42.0223 45.6932 24
    endloop
  endfacet
  facet normal 0.936235 -0.351374 0
    outer loop
      vertex 42.0223 45.6932 3
      vertex 41.8491 45.2316 24
      vertex 41.8491 45.2316 3
    endloop
  endfacet
  facet normal 0.858448 -0.512901 0
    outer loop
      vertex 42.0223 45.6932 24
      vertex 42.2752 46.1164 3
      vertex 42.2752 46.1164 24
    endloop
  endfacet
  facet normal 0.858448 -0.512901 0
    outer loop
      vertex 42.2752 46.1164 3
      vertex 42.0223 45.6932 24
      vertex 42.0223 45.6932 3
    endloop
  endfacet
  facet normal 0.98393 -0.178557 0
    outer loop
      vertex 41.7611 44.7465 24
      vertex 41.8491 45.2316 3
      vertex 41.8491 45.2316 24
    endloop
  endfacet
  facet normal 0.98393 -0.178557 0
    outer loop
      vertex 41.8491 45.2316 3
      vertex 41.7611 44.7465 24
      vertex 41.7611 44.7465 3
    endloop
  endfacet
  facet normal 0.623486 -0.781834 0
    outer loop
      vertex 42.5996 46.4877 3
      vertex 42.985 46.7951 24
      vertex 42.5996 46.4877 24
    endloop
  endfacet
  facet normal 0.623486 -0.781834 0
    outer loop
      vertex 42.985 46.7951 24
      vertex 42.5996 46.4877 3
      vertex 42.985 46.7951 3
    endloop
  endfacet
  facet normal 0.13423 -0.99095 0
    outer loop
      vertex 43.8881 47.1811 3
      vertex 44.3766 47.2472 24
      vertex 43.8881 47.1811 24
    endloop
  endfacet
  facet normal 0.13423 -0.99095 0
    outer loop
      vertex 44.3766 47.2472 24
      vertex 43.8881 47.1811 3
      vertex 44.3766 47.2472 3
    endloop
  endfacet
  facet normal -0.995974 0.0896385 0
    outer loop
      vertex 47.2058 44.009 3
      vertex 47.25 44.5 24
      vertex 47.25 44.5 3
    endloop
  endfacet
  facet normal -0.995974 0.0896385 0
    outer loop
      vertex 47.25 44.5 24
      vertex 47.2058 44.009 3
      vertex 47.2058 44.009 24
    endloop
  endfacet
  facet normal -0.222522 0.974928 0
    outer loop
      vertex 45.3498 41.8846 3
      vertex 44.8691 41.7749 24
      vertex 45.3498 41.8846 24
    endloop
  endfacet
  facet normal -0.222522 0.974928 0
    outer loop
      vertex 44.8691 41.7749 24
      vertex 45.3498 41.8846 3
      vertex 44.8691 41.7749 3
    endloop
  endfacet
  facet normal 0.309018 -0.951056 0
    outer loop
      vertex 43.4192 47.0287 3
      vertex 43.8881 47.1811 24
      vertex 43.4192 47.0287 24
    endloop
  endfacet
  facet normal 0.309018 -0.951056 0
    outer loop
      vertex 43.8881 47.1811 24
      vertex 43.4192 47.0287 3
      vertex 43.8881 47.1811 3
    endloop
  endfacet
  facet normal -0.900969 0.433884 0
    outer loop
      vertex 46.8607 43.0895 3
      vertex 47.0746 43.5337 24
      vertex 47.0746 43.5337 3
    endloop
  endfacet
  facet normal -0.900969 0.433884 0
    outer loop
      vertex 47.0746 43.5337 24
      vertex 46.8607 43.0895 3
      vertex 46.8607 43.0895 24
    endloop
  endfacet
  facet normal 0.858448 0.512901 0
    outer loop
      vertex 42.2752 42.8836 24
      vertex 42.0223 43.3068 3
      vertex 42.0223 43.3068 24
    endloop
  endfacet
  facet normal 0.858448 0.512901 0
    outer loop
      vertex 42.0223 43.3068 3
      vertex 42.2752 42.8836 24
      vertex 42.2752 42.8836 3
    endloop
  endfacet
  facet normal -0.5509 0.834571 0
    outer loop
      vertex 46.2146 42.35 3
      vertex 45.8031 42.0784 24
      vertex 46.2146 42.35 24
    endloop
  endfacet
  facet normal -0.5509 0.834571 0
    outer loop
      vertex 45.8031 42.0784 24
      vertex 46.2146 42.35 3
      vertex 45.8031 42.0784 3
    endloop
  endfacet
  facet normal -0.393025 0.919528 0
    outer loop
      vertex 45.8031 42.0784 3
      vertex 45.3498 41.8846 24
      vertex 45.8031 42.0784 24
    endloop
  endfacet
  facet normal -0.393025 0.919528 0
    outer loop
      vertex 45.3498 41.8846 24
      vertex 45.8031 42.0784 3
      vertex 45.3498 41.8846 3
    endloop
  endfacet
  facet normal 0.13423 0.99095 -0
    outer loop
      vertex 44.3766 41.7528 3
      vertex 43.8881 41.8189 24
      vertex 44.3766 41.7528 24
    endloop
  endfacet
  facet normal 0.13423 0.99095 0
    outer loop
      vertex 43.8881 41.8189 24
      vertex 44.3766 41.7528 3
      vertex 43.8881 41.8189 3
    endloop
  endfacet
  facet normal 0.473873 0.880593 -0
    outer loop
      vertex 43.4192 41.9713 3
      vertex 42.985 42.2049 24
      vertex 43.4192 41.9713 24
    endloop
  endfacet
  facet normal 0.473873 0.880593 0
    outer loop
      vertex 42.985 42.2049 24
      vertex 43.4192 41.9713 3
      vertex 42.985 42.2049 3
    endloop
  endfacet
  facet normal 0.309018 0.951056 -0
    outer loop
      vertex 43.8881 41.8189 3
      vertex 43.4192 41.9713 24
      vertex 43.8881 41.8189 24
    endloop
  endfacet
  facet normal 0.309018 0.951056 0
    outer loop
      vertex 43.4192 41.9713 24
      vertex 43.8881 41.8189 3
      vertex 43.4192 41.9713 3
    endloop
  endfacet
  facet normal 0.936235 0.351374 0
    outer loop
      vertex 42.0223 43.3068 24
      vertex 41.8491 43.7684 3
      vertex 41.8491 43.7684 24
    endloop
  endfacet
  facet normal 0.936235 0.351374 0
    outer loop
      vertex 41.8491 43.7684 3
      vertex 42.0223 43.3068 24
      vertex 42.0223 43.3068 3
    endloop
  endfacet
  facet normal 0.98393 0.178557 0
    outer loop
      vertex 41.8491 43.7684 24
      vertex 41.7611 44.2535 3
      vertex 41.7611 44.2535 24
    endloop
  endfacet
  facet normal 0.98393 0.178557 0
    outer loop
      vertex 41.7611 44.2535 3
      vertex 41.8491 43.7684 24
      vertex 41.8491 43.7684 3
    endloop
  endfacet
  facet normal -0.691063 0.722794 0
    outer loop
      vertex 46.5709 42.6907 3
      vertex 46.2146 42.35 24
      vertex 46.5709 42.6907 24
    endloop
  endfacet
  facet normal -0.691063 0.722794 0
    outer loop
      vertex 46.2146 42.35 24
      vertex 46.5709 42.6907 3
      vertex 46.2146 42.35 3
    endloop
  endfacet
  facet normal 0.753071 0.657939 0
    outer loop
      vertex 42.5996 42.5123 24
      vertex 42.2752 42.8836 3
      vertex 42.2752 42.8836 24
    endloop
  endfacet
  facet normal 0.753071 0.657939 0
    outer loop
      vertex 42.2752 42.8836 3
      vertex 42.5996 42.5123 24
      vertex 42.5996 42.5123 3
    endloop
  endfacet
  facet normal 0.623486 0.781834 -0
    outer loop
      vertex 42.985 42.2049 3
      vertex 42.5996 42.5123 24
      vertex 42.985 42.2049 24
    endloop
  endfacet
  facet normal 0.623486 0.781834 0
    outer loop
      vertex 42.5996 42.5123 24
      vertex 42.985 42.2049 3
      vertex 42.5996 42.5123 3
    endloop
  endfacet
endsolid OpenSCAD_Model
