<?xml version="1.0" encoding="utf-8"?>
<!-- Generator: Adobe Illustrator 18.1.1, SVG Export Plug-In . SVG Version: 6.00 Build 0)  -->
<svg version="1.0" xmlns="http://www.w3.org/2000/svg" xmlns:xlink="http://www.w3.org/1999/xlink" x="0px" y="0px"
	 viewBox="0 0 360 288" enable-background="new 0 0 360 288" xml:space="preserve">
<g id="Layer_1">
	<path fill="none" stroke="#010101" stroke-width="2.52" d="M307.2,281.4l1.4-0.2l1.3-0.4l1.3-0.5l1.2-0.7l1.1-0.8l1-1l0.9-1.1
		l0.7-1.2l0.6-1.3l0.4-1.3l0.3-1.4l0.1-1.4V17.8l-0.1-1.4l-0.3-1.4l-0.4-1.3l-0.6-1.3l-0.7-1.2l-0.9-1.1l-1-1l-1.1-0.8l-1.2-0.7
		l-1.3-0.5l-1.3-0.4l-1.4-0.2l-1.4,0H53.5l-1.4,0.1l-1.4,0.3l-1.3,0.5L48.2,8L47,8.8l-1.1,0.9l-0.9,1l-0.8,1.1l-0.7,1.2L43,14.4
		l-0.3,1.4l-0.2,1.4v253.7l0.2,1.4l0.3,1.4l0.5,1.3l0.7,1.2l0.8,1.1l0.9,1l1.1,0.9l1.2,0.8l1.2,0.6l1.3,0.5l1.4,0.3l1.4,0.1h252.3
		L307.2,281.4z M304.4,25.4l-1.3-0.4l-1.2-0.7l-1.1-0.9l-0.9-1.1l-0.7-1.2l-0.5-1.3l-0.2-1.4v-1.4l0.2-1.4l0.5-1.3l0.7-1.2l0.9-1.1
		l1.1-0.9l1.2-0.7l1.3-0.4l1.4-0.2l1.4,0.1l1.4,0.3l1.3,0.5l1.2,0.8l1,1l0.8,1.1l0.6,1.3l0.4,1.3l0.1,1.4l-0.1,1.4l-0.4,1.3
		l-0.6,1.3L312,23l-1,1l-1.2,0.8l-1.3,0.5l-1.4,0.3l-1.4,0.1L304.4,25.4z M52.1,25.4L50.8,25l-1.2-0.7l-1.1-0.9l-0.9-1.1l-0.7-1.2
		l-0.5-1.3l-0.2-1.4v-1.4l0.2-1.4l0.5-1.3l0.7-1.2l0.9-1.1l1.1-0.9l1.2-0.7l1.3-0.4l1.4-0.2l1.4,0.1l1.4,0.3l1.3,0.5l1.2,0.8l1,1
		l0.8,1.1l0.6,1.3l0.4,1.3l0.1,1.4l-0.1,1.4l-0.4,1.3l-0.6,1.3L59.7,23l-1,1l-1.2,0.8l-1.3,0.5l-1.4,0.3l-1.4,0.1L52.1,25.4z
		 M227.2,78.7l-1.3-0.6l-1-1l-0.7-1.2l-0.4-1.4v-1.4l0.4-1.4l0.7-1.2l1-1l1.3-0.6l1.4-0.3l1.4,0.1l1.3,0.5l1.2,0.8l0.9,1.1l0.6,1.3
		l0.2,1.4l-0.2,1.4l-0.6,1.3l-0.9,1.1l-1.2,0.8l-1.3,0.5l-1.4,0.1L227.2,78.7z M61.3,78.7l-1.3-0.6l-1-1l-0.7-1.2l-0.4-1.4v-1.4
		l0.4-1.4l0.7-1.2l1-1l1.3-0.6l1.4-0.3l1.4,0.1l1.3,0.5l1.2,0.8l0.9,1.1l0.6,1.3l0.2,1.4L68,75.2l-0.6,1.3l-0.9,1.1l-1.2,0.8
		l-1.3,0.5L62.7,79L61.3,78.7z M61.3,219l-1.3-0.6l-1-1l-0.7-1.2l-0.4-1.4v-1.4l0.4-1.4l0.7-1.2l1-1l1.3-0.6l1.4-0.3l1.4,0.1
		l1.3,0.5l1.2,0.8l0.9,1.1l0.6,1.3l0.2,1.4l-0.2,1.4l-0.6,1.3l-0.9,1.1l-1.2,0.8l-1.3,0.5l-1.4,0.1L61.3,219z M227.2,219l-1.3-0.6
		l-1-1l-0.7-1.2l-0.4-1.4v-1.4l0.4-1.4l0.7-1.2l1-1l1.3-0.6l1.4-0.3l1.4,0.1l1.3,0.5l1.2,0.8l0.9,1.1l0.6,1.3l0.2,1.4l-0.2,1.4
		l-0.6,1.3l-0.9,1.1l-1.2,0.8l-1.3,0.5l-1.4,0.1L227.2,219z M52.1,277.8l-1.3-0.4l-1.2-0.7l-1.1-0.9l-0.9-1.1l-0.7-1.2l-0.5-1.3
		l-0.2-1.4v-1.4l0.2-1.4l0.5-1.3l0.7-1.2l0.9-1.1l1.1-0.9l1.2-0.7l1.3-0.4l1.4-0.2l1.4,0.1l1.4,0.3l1.3,0.5l1.2,0.8l1,1l0.8,1.1
		l0.6,1.3l0.4,1.3l0.1,1.4l-0.1,1.4l-0.4,1.3l-0.6,1.3l-0.8,1.1l-1,1l-1.2,0.8l-1.3,0.5l-1.4,0.3l-1.4,0.1L52.1,277.8z M304.4,277.8
		l-1.3-0.4l-1.2-0.7l-1.1-0.9l-0.9-1.1l-0.7-1.2l-0.5-1.3l-0.2-1.4v-1.4l0.2-1.4l0.5-1.3l0.7-1.2l0.9-1.1l1.1-0.9l1.2-0.7l1.3-0.4
		l1.4-0.2l1.4,0.1l1.4,0.3l1.3,0.5l1.2,0.8l1,1l0.8,1.1l0.6,1.3l0.4,1.3l0.1,1.4l-0.1,1.4l-0.4,1.3l-0.6,1.3l-0.8,1.1l-1,1l-1.2,0.8
		l-1.3,0.5l-1.4,0.3l-1.4,0.1L304.4,277.8z"/>
	<path fill="none" stroke="#010101" stroke-width="2.52" d="M63,78.9L63,78.9c-2.8,0-5-2.3-5-5v0c0-2.8,2.3-5,5-5h0c2.8,0,5,2.3,5,5
		v0C68,76.6,65.8,78.9,63,78.9z"/>
</g>
<g id="Layer_2">
	<path fill="#010101" d="M63,78.9L63,78.9c-2.8,0-5-2.3-5-5v0c0-2.8,2.3-5,5-5h0c2.8,0,5,2.3,5,5v0C68,76.6,65.8,78.9,63,78.9z"/>
	<path fill="#010101" d="M53.8,25.8L53.8,25.8c-4.2,0-7.7-3.4-7.7-7.7v0c0-4.2,3.4-7.7,7.7-7.7h0c4.2,0,7.7,3.4,7.7,7.7v0
		C61.5,22.4,58.1,25.8,53.8,25.8z"/>
	<path fill="#010101" d="M228.5,79.2L228.5,79.2c-3,0-5.5-2.5-5.5-5.5v0c0-3,2.5-5.5,5.5-5.5l0,0c3,0,5.5,2.5,5.5,5.5v0
		C234,76.8,231.5,79.2,228.5,79.2z"/>
	<path fill="#010101" d="M306,25.2L306,25.2c-4.1,0-7.4-3.3-7.4-7.4v0c0-4.1,3.3-7.4,7.4-7.4l0,0c4.1,0,7.4,3.3,7.4,7.4v0
		C313.4,21.8,310.1,25.2,306,25.2z"/>
	<path fill="#010101" d="M228.8,218.6L228.8,218.6c-2.5,0-4.6-2.1-4.6-4.6l0,0c0-2.5,2.1-4.6,4.6-4.6l0,0c2.5,0,4.6,2.1,4.6,4.6l0,0
		C233.3,216.5,231.3,218.6,228.8,218.6z"/>
	<path fill="#010101" d="M306,262.6L306,262.6c-4.4,0-7.9,3.6-7.9,7.9l0,0c0,4.4,3.6,7.9,7.9,7.9l0,0c4.4,0,7.9-3.6,7.9-7.9l0,0
		C313.9,266.1,310.4,262.6,306,262.6z"/>
	<path fill="#010101" d="M53.8,277.9L53.8,277.9c-4.1,0-7.4-3.3-7.4-7.4l0,0c0-4.1,3.3-7.4,7.4-7.4h0c4.1,0,7.4,3.3,7.4,7.4l0,0
		C61.1,274.6,57.8,277.9,53.8,277.9z"/>
	<path fill="#010101" d="M62.8,218.7L62.8,218.7c-2.6,0-4.7-2.1-4.7-4.7l0,0c0-2.6,2.1-4.7,4.7-4.7h0c2.6,0,4.7,2.1,4.7,4.7l0,0
		C67.5,216.6,65.3,218.7,62.8,218.7z"/>
</g>
</svg>
