<?xml version="1.0" encoding="utf-8"?>
<!-- Generator: Adobe Illustrator 19.2.0, SVG Export Plug-In . SVG Version: 6.00 Build 0)  -->
<svg version="1.1" id="Layer_1" xmlns="http://www.w3.org/2000/svg" xmlns:xlink="http://www.w3.org/1999/xlink" x="0px" y="0px"
	 viewBox="0 0 360 288" style="enable-background:new 0 0 360 288;" xml:space="preserve">
<style type="text/css">
	.st0{fill:none;stroke:#000000;stroke-miterlimit:10;}
</style>
<g id="outer_edge_copy">
</g>
<g id="outer_edge_copy_2">
	<path class="st0" d="M307.2,281.4l1.4-0.2l1.3-0.4l1.3-0.5l1.2-0.7l1.1-0.8l1-1l0.9-1.1l0.7-1.2l0.6-1.3l0.4-1.3l0.3-1.4l0.1-1.4
		V17.8l-0.1-1.4l-0.3-1.4l-0.4-1.3l-0.6-1.3l-0.7-1.2l-0.9-1.1l-1-1l-1.1-0.8l-1.2-0.7l-1.3-0.5l-1.3-0.4l-1.4-0.2h-1.4H53.5
		l-1.4,0.1l-1.4,0.3l-1.3,0.5L48.2,8L47,8.8l-1.1,0.9l-0.9,1l-0.8,1.1L43.5,13L43,14.4l-0.3,1.4l-0.2,1.4v253.7l0.2,1.4l0.3,1.4
		l0.5,1.3l0.7,1.2l0.8,1.1l0.9,1l1.1,0.9l1.2,0.8l1.2,0.6l1.3,0.5l1.4,0.3l1.4,0.1h252.3L307.2,281.4z M307.2,281.4l1.4-0.2l1.3-0.4
		l1.3-0.5l1.2-0.7l1.1-0.8l1-1l0.9-1.1l0.7-1.2l0.6-1.3l0.4-1.3l0.3-1.4l0.1-1.4V17.8l-0.1-1.4l-0.3-1.4l-0.4-1.3l-0.6-1.3l-0.7-1.2
		l-0.9-1.1l-1-1l-1.1-0.8l-1.2-0.7l-1.3-0.5l-1.3-0.4l-1.4-0.2h-1.4H53.5l-1.4,0.1l-1.4,0.3l-1.3,0.5L48.2,8L47,8.8l-1.1,0.9l-0.9,1
		l-0.8,1.1L43.5,13L43,14.4l-0.3,1.4l-0.2,1.4v253.7l0.2,1.4l0.3,1.4l0.5,1.3l0.7,1.2l0.8,1.1l0.9,1l1.1,0.9l1.2,0.8l1.2,0.6
		l1.3,0.5l1.4,0.3l1.4,0.1h252.3L307.2,281.4z M307.2,281.4l1.4-0.2l1.3-0.4l1.3-0.5l1.2-0.7l1.1-0.8l1-1l0.9-1.1l0.7-1.2l0.6-1.3
		l0.4-1.3l0.3-1.4l0.1-1.4V17.8l-0.1-1.4l-0.3-1.4l-0.4-1.3l-0.6-1.3l-0.7-1.2l-0.9-1.1l-1-1l-1.1-0.8l-1.2-0.7l-1.3-0.5l-1.3-0.4
		l-1.4-0.2h-1.4H53.5l-1.4,0.1l-1.4,0.3l-1.3,0.5L48.2,8L47,8.8l-1.1,0.9l-0.9,1l-0.8,1.1L43.5,13L43,14.4l-0.3,1.4l-0.2,1.4v253.7
		l0.2,1.4l0.3,1.4l0.5,1.3l0.7,1.2l0.8,1.1l0.9,1l1.1,0.9l1.2,0.8l1.2,0.6l1.3,0.5l1.4,0.3l1.4,0.1h252.3L307.2,281.4z M307.2,281.4
		l1.4-0.2l1.3-0.4l1.3-0.5l1.2-0.7l1.1-0.8l1-1l0.9-1.1l0.7-1.2l0.6-1.3l0.4-1.3l0.3-1.4l0.1-1.4V17.8l-0.1-1.4l-0.3-1.4l-0.4-1.3
		l-0.6-1.3l-0.7-1.2l-0.9-1.1l-1-1l-1.1-0.8l-1.2-0.7l-1.3-0.5l-1.3-0.4l-1.4-0.2h-1.4H53.5l-1.4,0.1l-1.4,0.3l-1.3,0.5L48.2,8
		L47,8.8l-1.1,0.9l-0.9,1l-0.8,1.1L43.5,13L43,14.4l-0.3,1.4l-0.2,1.4v253.7l0.2,1.4l0.3,1.4l0.5,1.3l0.7,1.2l0.8,1.1l0.9,1l1.1,0.9
		l1.2,0.8l1.2,0.6l1.3,0.5l1.4,0.3l1.4,0.1h252.3L307.2,281.4z"/>
</g>
<g id="holes">
	<path d="M304.4,25.4l-1.3-0.4l-1.2-0.7l-1.1-0.9l-0.9-1.1l-0.7-1.2l-0.5-1.3l-0.2-1.4V17l0.2-1.4l0.5-1.3l0.7-1.2l0.9-1.1l1.1-0.9
		l1.2-0.7l1.3-0.4l1.4-0.2l1.4,0.1l1.4,0.3l1.3,0.5l1.2,0.8l1,1l0.8,1.1l0.6,1.3l0.4,1.3l0.1,1.4l-0.1,1.4l-0.4,1.3l-0.6,1.3L312,23
		l-1,1l-1.2,0.8l-1.3,0.5l-1.4,0.3l-1.4,0.1L304.4,25.4z M52.1,25.4L50.8,25l-1.2-0.7l-1.1-0.9l-0.9-1.1l-0.7-1.2l-0.5-1.3l-0.2-1.4
		V17l0.2-1.4l0.5-1.3l0.7-1.2l0.9-1.1l1.1-0.9l1.2-0.7l1.3-0.4l1.4-0.2l1.4,0.1l1.4,0.3l1.3,0.5l1.2,0.8l1,1l0.8,1.1l0.6,1.3
		l0.4,1.3l0.1,1.4L61.6,19l-0.4,1.3l-0.6,1.3L59.7,23l-1,1l-1.2,0.8l-1.3,0.5l-1.4,0.3l-1.4,0.1L52.1,25.4z M227.2,78.7l-1.3-0.6
		l-1-1l-0.7-1.2l-0.4-1.4v-1.4l0.4-1.4l0.7-1.2l1-1l1.3-0.6l1.4-0.3l1.4,0.1l1.3,0.5l1.2,0.8l0.9,1.1l0.6,1.3l0.2,1.4l-0.2,1.4
		l-0.6,1.3l-0.9,1.1l-1.2,0.8l-1.3,0.5l-1.4,0.1L227.2,78.7z M61.3,78.7L60,78.1l-1-1l-0.7-1.2l-0.4-1.4v-1.4l0.4-1.4l0.7-1.2l1-1
		l1.3-0.6l1.4-0.3l1.4,0.1l1.3,0.5l1.2,0.8l0.9,1.1l0.6,1.3l0.2,1.4L68,75.2l-0.6,1.3l-0.9,1.1l-1.2,0.8L64,78.9L62.7,79L61.3,78.7z
		 M61.3,219l-1.3-0.6l-1-1l-0.7-1.2l-0.4-1.4v-1.4l0.4-1.4l0.7-1.2l1-1l1.3-0.6l1.4-0.3l1.4,0.1l1.3,0.5l1.2,0.8l0.9,1.1l0.6,1.3
		l0.2,1.4l-0.2,1.4l-0.6,1.3l-0.9,1.1l-1.2,0.8l-1.3,0.5l-1.4,0.1L61.3,219z M227.2,219l-1.3-0.6l-1-1l-0.7-1.2l-0.4-1.4v-1.4
		l0.4-1.4l0.7-1.2l1-1l1.3-0.6l1.4-0.3l1.4,0.1l1.3,0.5l1.2,0.8l0.9,1.1l0.6,1.3l0.2,1.4l-0.2,1.4l-0.6,1.3l-0.9,1.1l-1.2,0.8
		l-1.3,0.5l-1.4,0.1L227.2,219z M52.1,277.8l-1.3-0.4l-1.2-0.7l-1.1-0.9l-0.9-1.1l-0.7-1.2l-0.5-1.3l-0.2-1.4v-1.4l0.2-1.4l0.5-1.3
		l0.7-1.2l0.9-1.1l1.1-0.9l1.2-0.7l1.3-0.4l1.4-0.2l1.4,0.1l1.4,0.3l1.3,0.5l1.2,0.8l1,1l0.8,1.1l0.6,1.3l0.4,1.3l0.1,1.4l-0.1,1.4
		l-0.4,1.3l-0.6,1.3l-0.8,1.1l-1,1l-1.2,0.8l-1.3,0.5l-1.4,0.3l-1.4,0.1L52.1,277.8z M304.4,277.8l-1.3-0.4l-1.2-0.7l-1.1-0.9
		l-0.9-1.1l-0.7-1.2l-0.5-1.3l-0.2-1.4v-1.4l0.2-1.4l0.5-1.3l0.7-1.2l0.9-1.1l1.1-0.9l1.2-0.7l1.3-0.4l1.4-0.2l1.4,0.1l1.4,0.3
		l1.3,0.5l1.2,0.8l1,1l0.8,1.1l0.6,1.3l0.4,1.3l0.1,1.4l-0.1,1.4l-0.4,1.3l-0.6,1.3l-0.8,1.1l-1,1l-1.2,0.8l-1.3,0.5l-1.4,0.3
		l-1.4,0.1L304.4,277.8z"/>
</g>
</svg>
