<svg id="outer_edge_copy_2" data-name="outer edge copy 2" xmlns="http://www.w3.org/2000/svg" width="3.94in" height="3.95in" viewBox="0 0 284.03 284.04">
  <title>rpiaplus-top-resize-outline</title>
  <path d="M305.86,286L53.08,286l-1.95-.21-1.9-.45-1.83-.68-1.73-.9-1.61-1.11-1.46-1.3-1.29-1.47-1.1-1.62-0.89-1.74-0.67-1.83-0.44-1.9L38,270.85v-254l0.31-2.21,0.51-1.88L39.54,11l1-1.71,1.16-1.57L43,6.26,44.5,5l1.65-1,1.77-.84,1.85-.62,1.92-.38L53.49,2H305.94l1.95,0.09,1.92,0.33L311.68,3l1.79,0.79,1.67,1L316.68,6l1.38,1.38,1.2,1.55,1,1.68L321,12.38l0.56,1.87,0.33,1.93L322,17.85V270.29l-0.16,2.09-0.39,1.91-0.63,1.85L320,277.9l-1.06,1.64-1.25,1.5-1.43,1.33-1.58,1.15-1.71.94-1.82.73-1.89.5-1.93.27ZM53.7,276.95h252l1,0,0.83-.13,0.8-.23,0.77-.33,0.72-.42,0.67-.5,0.6-.58,0.53-.65,0.44-.71,0.35-.76,0.25-.8,0.15-.82,0.06-1V18l-0.06-1-0.15-.82-0.25-.8-0.35-.76-0.44-.71-0.53-.65-0.6-.58-0.67-.5-0.72-.42-0.77-.33-0.8-.23-0.83-.13-1,0H53.7l-0.9.08L52,11.31l-0.79.28L50.44,12l-0.7.46L49.11,13l-0.56.62-0.48.68-0.4.74-0.3.78-0.2.81-0.1.83V270.57l0.1,0.83,0.2,0.81,0.3,0.78,0.4,0.74,0.48,0.68L49.11,275l0.64,0.54,0.7,0.46,0.75,0.37L52,276.69l0.81,0.18Z" transform="translate(-37.99 -1.98)"/>
</svg>
