<svg id="holes" xmlns="http://www.w3.org/2000/svg" width="94.5mm" height="94.5mm" viewBox="0 0 267.86 267.88">
  <title>rpiaplus-top-resize-holes2</title>
  <polygon points="258.33 15.39 257 14.96 255.77 14.29 254.68 13.42 253.76 12.37 253.04 11.17 252.55 9.86 252.3 8.49 252.3 7.09 252.55 5.71 253.04 4.41 253.76 3.21 254.68 2.15 255.77 1.28 257 0.62 258.33 0.19 259.72 0 261.11 0.06 262.48 0.37 263.76 0.92 264.93 1.69 265.94 2.66 266.76 3.79 267.36 5.05 267.74 6.4 267.86 7.79 267.74 9.18 267.36 10.53 266.76 11.79 265.94 12.92 264.93 13.88 263.76 14.65 262.48 15.2 261.11 15.51 259.72 15.58 258.33 15.39"/>
  <polygon points="6.03 15.39 4.7 14.96 3.47 14.29 2.38 13.42 1.46 12.37 0.74 11.17 0.25 9.86 0 8.49 0 7.09 0.25 5.71 0.74 4.41 1.46 3.21 2.38 2.15 3.47 1.28 4.7 0.62 6.03 0.19 7.42 0 8.81 0.06 10.17 0.37 11.46 0.92 12.63 1.69 13.63 2.66 14.46 3.79 15.06 5.05 15.44 6.4 15.56 7.79 15.44 9.18 15.06 10.53 14.46 11.79 13.63 12.92 12.63 13.88 11.46 14.65 10.17 15.2 8.81 15.51 7.42 15.58 6.03 15.39"/>
  <polygon points="6.03 267.69 4.7 267.26 3.47 266.6 2.38 265.72 1.46 264.67 0.74 263.47 0.25 262.16 0 260.79 0 259.39 0.25 258.01 0.74 256.71 1.46 255.51 2.38 254.46 3.47 253.58 4.7 252.92 6.03 252.49 7.42 252.3 8.81 252.36 10.17 252.68 11.46 253.22 12.63 253.99 13.63 254.96 14.46 256.09 15.06 257.35 15.44 258.7 15.56 260.09 15.44 261.48 15.06 262.83 14.46 264.09 13.63 265.22 12.63 266.18 11.46 266.95 10.17 267.5 8.81 267.81 7.42 267.88 6.03 267.69"/>
  <polygon points="258.33 267.69 257 267.26 255.77 266.6 254.68 265.72 253.76 264.67 253.04 263.47 252.55 262.16 252.3 260.79 252.3 259.39 252.55 258.01 253.04 256.71 253.76 255.51 254.68 254.46 255.77 253.58 257 252.92 258.33 252.49 259.72 252.3 261.11 252.36 262.48 252.68 263.76 253.22 264.93 253.99 265.94 254.96 266.76 256.09 267.36 257.35 267.74 258.7 267.86 260.09 267.74 261.48 267.36 262.83 266.76 264.09 265.94 265.22 264.93 266.18 263.76 266.95 262.48 267.5 261.11 267.81 259.72 267.88 258.33 267.69"/>
</svg>
