<svg id="outer_edge_copy_2" data-name="outer edge copy 2" xmlns="http://www.w3.org/2000/svg" width="100.2mm" height="100.2mm" viewBox="0 0 284.03 284.04">
  <defs>
    <style>
      .cls-1 {
        fill: none;
        stroke: #000;
        stroke-miterlimit: 10;
      }

      .cls-2 {
        fill: #fff;
      }
    </style>
  </defs>
  <title>rpiaplus-top-resize2</title>
  <polygon class="cls-1" points="269.2 279.46 270.58 279.25 271.92 278.87 273.21 278.32 274.42 277.62 275.53 276.78 276.54 275.81 277.41 274.72 278.14 273.54 278.73 272.27 279.15 270.94 279.41 269.56 279.5 268.17 279.5 15.87 279.41 14.48 279.15 13.11 278.73 11.77 278.14 10.51 277.41 9.32 276.54 8.23 275.53 7.26 274.42 6.42 273.21 5.72 271.92 5.18 270.58 4.79 269.2 4.58 267.81 4.54 15.51 4.54 14.12 4.67 12.75 4.96 11.43 5.43 10.18 6.05 9.02 6.82 7.96 7.73 7.02 8.76 6.21 9.9 5.55 11.13 5.05 12.43 4.71 13.79 4.54 15.17 4.54 268.87 4.71 270.25 5.05 271.61 5.55 272.91 6.21 274.14 7.02 275.28 7.96 276.31 9.02 277.22 10.18 277.99 11.43 278.61 12.75 279.08 14.12 279.38 15.51 279.51 267.81 279.51 269.2 279.46"/>
  <g>
    <polygon class="cls-2" points="269.2 279.46 270.58 279.25 271.92 278.87 273.21 278.32 274.42 277.62 275.53 276.78 276.54 275.81 277.41 274.72 278.14 273.54 278.73 272.27 279.15 270.94 279.41 269.56 279.5 268.17 279.5 15.87 279.41 14.48 279.15 13.11 278.73 11.77 278.14 10.51 277.41 9.32 276.54 8.23 275.53 7.26 274.42 6.42 273.21 5.72 271.92 5.18 270.58 4.79 269.2 4.58 267.81 4.54 15.51 4.54 14.12 4.67 12.75 4.96 11.43 5.43 10.18 6.05 9.02 6.82 7.96 7.73 7.02 8.76 6.21 9.9 5.55 11.13 5.05 12.43 4.71 13.79 4.54 15.17 4.54 268.87 4.71 270.25 5.05 271.61 5.55 272.91 6.21 274.14 7.02 275.28 7.96 276.31 9.02 277.22 10.18 277.99 11.43 278.61 12.75 279.08 14.12 279.38 15.51 279.51 267.81 279.51 269.2 279.46"/>
    <path d="M305.86,286L53.08,286l-1.95-.21-1.9-.45-1.83-.68-1.73-.9-1.61-1.11-1.46-1.3-1.29-1.47-1.1-1.62-0.89-1.74-0.67-1.83-0.44-1.9L38,270.85v-254l0.31-2.21,0.51-1.88L39.54,11l1-1.71,1.16-1.57L43,6.26,44.5,5l1.65-1,1.77-.84,1.85-.62,1.92-.38L53.49,2H305.94l1.95,0.09,1.92,0.33L311.68,3l1.79,0.79,1.67,1L316.68,6l1.38,1.38,1.2,1.55,1,1.68L321,12.38l0.56,1.87,0.33,1.93L322,17.85V270.29l-0.16,2.09-0.39,1.91-0.63,1.85L320,277.9l-1.06,1.64-1.25,1.5-1.43,1.33-1.58,1.15-1.71.94-1.82.73-1.89.5-1.93.27ZM53.7,276.95h252l1,0,0.83-.13,0.8-.23,0.77-.33,0.72-.42,0.67-.5,0.6-.58,0.53-.65,0.44-.71,0.35-.76,0.25-.8,0.15-.82,0.06-1V18l-0.06-1-0.15-.82-0.25-.8-0.35-.76-0.44-.71-0.53-.65-0.6-.58-0.67-.5-0.72-.42-0.77-.33-0.8-.23-0.83-.13-1,0H53.7l-0.9.08L52,11.31l-0.79.28L50.44,12l-0.7.46L49.11,13l-0.56.62-0.48.68-0.4.74-0.3.78-0.2.81-0.1.83V270.57l0.1,0.83,0.2,0.81,0.3,0.78,0.4,0.74,0.48,0.68L49.11,275l0.64,0.54,0.7,0.46,0.75,0.37L52,276.69l0.81,0.18Z" transform="translate(-37.99 -1.98)"/>
  </g>
</svg>
