<?xml version="1.0" encoding="utf-8"?>
<!-- Generator: Adobe Illustrator 18.1.1, SVG Export Plug-In . SVG Version: 6.00 Build 0)  -->
<svg version="1.1" id="Layer_1" xmlns="http://www.w3.org/2000/svg" xmlns:xlink="http://www.w3.org/1999/xlink" x="0px" y="0px"
	 viewBox="-256 348 98 98" enable-background="new -256 348 98 98" xml:space="preserve">
<title>OpenSCAD Model</title>
<g>
	<path fill="none" stroke="#000000" stroke-width="0.5" d="M-162.1,445.5l0.5-0.1l0.5-0.1l0.5-0.2l0.4-0.2l0.4-0.3l0.4-0.3l0.3-0.4
		l0.3-0.4l0.2-0.4l0.1-0.5l0.1-0.5l0-0.5v-89l0-0.5l-0.1-0.5l-0.1-0.5l-0.2-0.4l-0.3-0.4l-0.3-0.4l-0.4-0.3l-0.4-0.3l-0.4-0.2
		l-0.5-0.2l-0.5-0.1l-0.5-0.1l-0.5,0h-89l-0.5,0l-0.5,0.1l-0.5,0.2l-0.4,0.2l-0.4,0.3l-0.4,0.3l-0.3,0.4l-0.3,0.4l-0.2,0.4l-0.2,0.5
		l-0.1,0.5l-0.1,0.5v89.5l0.1,0.5l0.1,0.5l0.2,0.5l0.2,0.4l0.3,0.4l0.3,0.4l0.4,0.3l0.4,0.3l0.4,0.2l0.5,0.2l0.5,0.1l0.5,0h89
		L-162.1,445.5z M-163.1,355.2l-0.5-0.2l-0.4-0.2l-0.4-0.3l-0.3-0.4l-0.3-0.4l-0.2-0.5l-0.1-0.5v-0.5l0.1-0.5l0.2-0.5l0.3-0.4
		l0.3-0.4l0.4-0.3l0.4-0.2l0.5-0.2l0.5-0.1l0.5,0l0.5,0.1l0.5,0.2l0.4,0.3l0.4,0.3l0.3,0.4l0.2,0.4l0.1,0.5l0,0.5l0,0.5l-0.1,0.5
		l-0.2,0.4l-0.3,0.4l-0.4,0.3l-0.4,0.3l-0.5,0.2l-0.5,0.1l-0.5,0L-163.1,355.2z M-252.1,355.2l-0.5-0.2l-0.4-0.2l-0.4-0.3l-0.3-0.4
		l-0.3-0.4l-0.2-0.5l-0.1-0.5v-0.5l0.1-0.5l0.2-0.5l0.3-0.4l0.3-0.4l0.4-0.3l0.4-0.2l0.5-0.2l0.5-0.1l0.5,0l0.5,0.1l0.5,0.2l0.4,0.3
		l0.4,0.3l0.3,0.4l0.2,0.4l0.1,0.5l0,0.5l0,0.5l-0.1,0.5l-0.2,0.4l-0.3,0.4l-0.4,0.3l-0.4,0.3l-0.5,0.2l-0.5,0.1l-0.5,0
		L-252.1,355.2z M-190.4,374l-0.4-0.2l-0.4-0.3l-0.3-0.4l-0.1-0.5V372l0.1-0.5l0.3-0.4l0.4-0.3l0.4-0.2l0.5-0.1l0.5,0l0.5,0.2
		l0.4,0.3l0.3,0.4l0.2,0.5l0.1,0.5l-0.1,0.5l-0.2,0.5l-0.3,0.4l-0.4,0.3l-0.5,0.2l-0.5,0L-190.4,374z M-248.9,374l-0.4-0.2l-0.4-0.3
		l-0.3-0.4l-0.1-0.5V372l0.1-0.5l0.3-0.4l0.4-0.3l0.4-0.2l0.5-0.1l0.5,0l0.5,0.2l0.4,0.3l0.3,0.4l0.2,0.5l0.1,0.5l-0.1,0.5l-0.2,0.5
		l-0.3,0.4l-0.4,0.3l-0.5,0.2l-0.5,0L-248.9,374z M-248.9,423.5l-0.4-0.2l-0.4-0.3l-0.3-0.4l-0.1-0.5v-0.5l0.1-0.5l0.3-0.4l0.4-0.3
		l0.4-0.2l0.5-0.1l0.5,0l0.5,0.2l0.4,0.3l0.3,0.4l0.2,0.5l0.1,0.5l-0.1,0.5l-0.2,0.5l-0.3,0.4l-0.4,0.3l-0.5,0.2l-0.5,0
		L-248.9,423.5z M-190.4,423.5l-0.4-0.2l-0.4-0.3l-0.3-0.4l-0.1-0.5v-0.5l0.1-0.5l0.3-0.4l0.4-0.3l0.4-0.2l0.5-0.1l0.5,0l0.5,0.2
		l0.4,0.3l0.3,0.4l0.2,0.5l0.1,0.5l-0.1,0.5l-0.2,0.5l-0.3,0.4l-0.4,0.3l-0.5,0.2l-0.5,0L-190.4,423.5z M-252.1,444.2l-0.5-0.2
		l-0.4-0.2l-0.4-0.3l-0.3-0.4l-0.3-0.4l-0.2-0.5l-0.1-0.5v-0.5l0.1-0.5l0.2-0.5l0.3-0.4l0.3-0.4l0.4-0.3l0.4-0.2l0.5-0.2l0.5-0.1
		l0.5,0l0.5,0.1l0.5,0.2l0.4,0.3l0.4,0.3l0.3,0.4l0.2,0.4l0.1,0.5l0,0.5l0,0.5l-0.1,0.5l-0.2,0.4l-0.3,0.4l-0.4,0.3l-0.4,0.3
		l-0.5,0.2l-0.5,0.1l-0.5,0L-252.1,444.2z M-163.1,444.2l-0.5-0.2l-0.4-0.2l-0.4-0.3l-0.3-0.4l-0.3-0.4l-0.2-0.5l-0.1-0.5v-0.5
		l0.1-0.5l0.2-0.5l0.3-0.4l0.3-0.4l0.4-0.3l0.4-0.2l0.5-0.2l0.5-0.1l0.5,0l0.5,0.1l0.5,0.2l0.4,0.3l0.4,0.3l0.3,0.4l0.2,0.4l0.1,0.5
		l0,0.5l0,0.5l-0.1,0.5l-0.2,0.4l-0.3,0.4l-0.4,0.3l-0.4,0.3l-0.5,0.2l-0.5,0.1l-0.5,0L-163.1,444.2z"/>
</g>
</svg>
