solid OpenSCAD_Model
  facet normal -0.990686 -0.136168 0
    outer loop
      vertex 31.075 24.75 7.5
      vertex 31.0073 25.2424 10.5
      vertex 31.0073 25.2424 7.5
    endloop
  endfacet
  facet normal -0.990686 -0.136168 0
    outer loop
      vertex 31.0073 25.2424 10.5
      vertex 31.075 24.75 7.5
      vertex 31.075 24.75 10.5
    endloop
  endfacet
  facet normal 1 -0 0
    outer loop
      vertex 27.442 24.5015 10.5
      vertex 27.442 24.9985 7.5
      vertex 27.442 24.9985 10.5
    endloop
  endfacet
  facet normal 1 0 0
    outer loop
      vertex 27.442 24.9985 7.5
      vertex 27.442 24.5015 10.5
      vertex 27.442 24.5015 7.5
    endloop
  endfacet
  facet normal -0.0682451 -0.997669 0
    outer loop
      vertex 29.1255 26.5707 7.5
      vertex 29.6213 26.5368 10.5
      vertex 29.1255 26.5707 10.5
    endloop
  endfacet
  facet normal -0.0682451 -0.997669 -0
    outer loop
      vertex 29.6213 26.5368 10.5
      vertex 29.1255 26.5707 7.5
      vertex 29.6213 26.5368 7.5
    endloop
  endfacet
  facet normal -0.0682451 0.997669 0
    outer loop
      vertex 29.6213 22.9632 7.5
      vertex 29.1255 22.9293 10.5
      vertex 29.6213 22.9632 10.5
    endloop
  endfacet
  facet normal -0.0682451 0.997669 0
    outer loop
      vertex 29.1255 22.9293 10.5
      vertex 29.6213 22.9632 7.5
      vertex 29.1255 22.9293 7.5
    endloop
  endfacet
  facet normal -0.775711 0.631088 0
    outer loop
      vertex 30.4957 23.4162 7.5
      vertex 30.8093 23.8018 10.5
      vertex 30.8093 23.8018 7.5
    endloop
  endfacet
  facet normal -0.775711 0.631088 0
    outer loop
      vertex 30.8093 23.8018 10.5
      vertex 30.4957 23.4162 7.5
      vertex 30.4957 23.4162 10.5
    endloop
  endfacet
  facet normal -0.775711 -0.631088 0
    outer loop
      vertex 30.8093 25.6982 7.5
      vertex 30.4957 26.0838 10.5
      vertex 30.4957 26.0838 7.5
    endloop
  endfacet
  facet normal -0.775711 -0.631088 0
    outer loop
      vertex 30.4957 26.0838 10.5
      vertex 30.8093 25.6982 7.5
      vertex 30.8093 25.6982 10.5
    endloop
  endfacet
  facet normal -0.917211 -0.398402 0
    outer loop
      vertex 31.0073 25.2424 7.5
      vertex 30.8093 25.6982 10.5
      vertex 30.8093 25.6982 7.5
    endloop
  endfacet
  facet normal -0.917211 -0.398402 0
    outer loop
      vertex 30.8093 25.6982 10.5
      vertex 31.0073 25.2424 7.5
      vertex 31.0073 25.2424 10.5
    endloop
  endfacet
  facet normal -0.576682 -0.816969 0
    outer loop
      vertex 30.0896 26.3704 7.5
      vertex 30.4957 26.0838 10.5
      vertex 30.0896 26.3704 10.5
    endloop
  endfacet
  facet normal -0.576682 -0.816969 -0
    outer loop
      vertex 30.4957 26.0838 10.5
      vertex 30.0896 26.3704 7.5
      vertex 30.4957 26.0838 7.5
    endloop
  endfacet
  facet normal 0.682554 -0.730835 0
    outer loop
      vertex 27.8343 25.9017 7.5
      vertex 28.1976 26.241 10.5
      vertex 27.8343 25.9017 10.5
    endloop
  endfacet
  facet normal 0.682554 -0.730835 0
    outer loop
      vertex 28.1976 26.241 10.5
      vertex 27.8343 25.9017 7.5
      vertex 28.1976 26.241 7.5
    endloop
  endfacet
  facet normal 0.460065 -0.887885 0
    outer loop
      vertex 28.1976 26.241 7.5
      vertex 28.6388 26.4696 10.5
      vertex 28.1976 26.241 10.5
    endloop
  endfacet
  facet normal 0.460065 -0.887885 0
    outer loop
      vertex 28.6388 26.4696 10.5
      vertex 28.1976 26.241 7.5
      vertex 28.6388 26.4696 7.5
    endloop
  endfacet
  facet normal 0.682552 0.730837 -0
    outer loop
      vertex 28.1976 23.259 7.5
      vertex 27.8343 23.5983 10.5
      vertex 28.1976 23.259 10.5
    endloop
  endfacet
  facet normal 0.682552 0.730837 0
    outer loop
      vertex 27.8343 23.5983 10.5
      vertex 28.1976 23.259 7.5
      vertex 27.8343 23.5983 7.5
    endloop
  endfacet
  facet normal -0.334878 -0.942261 0
    outer loop
      vertex 29.6213 26.5368 7.5
      vertex 30.0896 26.3704 10.5
      vertex 29.6213 26.5368 10.5
    endloop
  endfacet
  facet normal -0.334878 -0.942261 -0
    outer loop
      vertex 30.0896 26.3704 10.5
      vertex 29.6213 26.5368 7.5
      vertex 30.0896 26.3704 7.5
    endloop
  endfacet
  facet normal 0.854418 -0.519587 0
    outer loop
      vertex 27.5761 25.4771 10.5
      vertex 27.8343 25.9017 7.5
      vertex 27.8343 25.9017 10.5
    endloop
  endfacet
  facet normal 0.854418 -0.519587 0
    outer loop
      vertex 27.8343 25.9017 7.5
      vertex 27.5761 25.4771 10.5
      vertex 27.5761 25.4771 7.5
    endloop
  endfacet
  facet normal 0.962918 -0.269796 0
    outer loop
      vertex 27.442 24.9985 10.5
      vertex 27.5761 25.4771 7.5
      vertex 27.5761 25.4771 10.5
    endloop
  endfacet
  facet normal 0.962918 -0.269796 0
    outer loop
      vertex 27.5761 25.4771 7.5
      vertex 27.442 24.9985 10.5
      vertex 27.442 24.9985 7.5
    endloop
  endfacet
  facet normal 0.203457 -0.979084 0
    outer loop
      vertex 28.6388 26.4696 7.5
      vertex 29.1255 26.5707 10.5
      vertex 28.6388 26.4696 10.5
    endloop
  endfacet
  facet normal 0.203457 -0.979084 0
    outer loop
      vertex 29.1255 26.5707 10.5
      vertex 28.6388 26.4696 7.5
      vertex 29.1255 26.5707 7.5
    endloop
  endfacet
  facet normal 0.962918 0.269796 0
    outer loop
      vertex 27.5761 24.0229 10.5
      vertex 27.442 24.5015 7.5
      vertex 27.442 24.5015 10.5
    endloop
  endfacet
  facet normal 0.962918 0.269796 0
    outer loop
      vertex 27.442 24.5015 7.5
      vertex 27.5761 24.0229 10.5
      vertex 27.5761 24.0229 7.5
    endloop
  endfacet
  facet normal -0.334878 0.942261 0
    outer loop
      vertex 30.0896 23.1296 7.5
      vertex 29.6213 22.9632 10.5
      vertex 30.0896 23.1296 10.5
    endloop
  endfacet
  facet normal -0.334878 0.942261 0
    outer loop
      vertex 29.6213 22.9632 10.5
      vertex 30.0896 23.1296 7.5
      vertex 29.6213 22.9632 7.5
    endloop
  endfacet
  facet normal -0.917211 0.398401 0
    outer loop
      vertex 30.8093 23.8018 7.5
      vertex 31.0073 24.2576 10.5
      vertex 31.0073 24.2576 7.5
    endloop
  endfacet
  facet normal -0.917211 0.398401 0
    outer loop
      vertex 31.0073 24.2576 10.5
      vertex 30.8093 23.8018 7.5
      vertex 30.8093 23.8018 10.5
    endloop
  endfacet
  facet normal 0.460068 0.887884 -0
    outer loop
      vertex 28.6388 23.0304 7.5
      vertex 28.1976 23.259 10.5
      vertex 28.6388 23.0304 10.5
    endloop
  endfacet
  facet normal 0.460068 0.887884 0
    outer loop
      vertex 28.1976 23.259 10.5
      vertex 28.6388 23.0304 7.5
      vertex 28.1976 23.259 7.5
    endloop
  endfacet
  facet normal -0.576682 0.816969 0
    outer loop
      vertex 30.4957 23.4162 7.5
      vertex 30.0896 23.1296 10.5
      vertex 30.4957 23.4162 10.5
    endloop
  endfacet
  facet normal -0.576682 0.816969 0
    outer loop
      vertex 30.0896 23.1296 10.5
      vertex 30.4957 23.4162 7.5
      vertex 30.0896 23.1296 7.5
    endloop
  endfacet
  facet normal -0.990686 0.136168 0
    outer loop
      vertex 31.0073 24.2576 7.5
      vertex 31.075 24.75 10.5
      vertex 31.075 24.75 7.5
    endloop
  endfacet
  facet normal -0.990686 0.136168 0
    outer loop
      vertex 31.075 24.75 10.5
      vertex 31.0073 24.2576 7.5
      vertex 31.0073 24.2576 10.5
    endloop
  endfacet
  facet normal 0.854419 0.519585 0
    outer loop
      vertex 27.8343 23.5983 10.5
      vertex 27.5761 24.0229 7.5
      vertex 27.5761 24.0229 10.5
    endloop
  endfacet
  facet normal 0.854419 0.519585 0
    outer loop
      vertex 27.5761 24.0229 7.5
      vertex 27.8343 23.5983 10.5
      vertex 27.8343 23.5983 7.5
    endloop
  endfacet
  facet normal 0.203457 0.979084 -0
    outer loop
      vertex 29.1255 22.9293 7.5
      vertex 28.6388 23.0304 10.5
      vertex 29.1255 22.9293 10.5
    endloop
  endfacet
  facet normal 0.203457 0.979084 0
    outer loop
      vertex 28.6388 23.0304 10.5
      vertex 29.1255 22.9293 7.5
      vertex 28.6388 23.0304 7.5
    endloop
  endfacet
  facet normal -0.990686 -0.136168 0
    outer loop
      vertex 31.075 -24.75 7.5
      vertex 31.0073 -24.2576 10.5
      vertex 31.0073 -24.2576 7.5
    endloop
  endfacet
  facet normal -0.990686 -0.136168 0
    outer loop
      vertex 31.0073 -24.2576 10.5
      vertex 31.075 -24.75 7.5
      vertex 31.075 -24.75 10.5
    endloop
  endfacet
  facet normal 1 -0 0
    outer loop
      vertex 27.442 -24.9985 10.5
      vertex 27.442 -24.5015 7.5
      vertex 27.442 -24.5015 10.5
    endloop
  endfacet
  facet normal 1 0 0
    outer loop
      vertex 27.442 -24.5015 7.5
      vertex 27.442 -24.9985 10.5
      vertex 27.442 -24.9985 7.5
    endloop
  endfacet
  facet normal -0.0682451 -0.997669 0
    outer loop
      vertex 29.1255 -22.9293 7.5
      vertex 29.6213 -22.9632 10.5
      vertex 29.1255 -22.9293 10.5
    endloop
  endfacet
  facet normal -0.0682451 -0.997669 -0
    outer loop
      vertex 29.6213 -22.9632 10.5
      vertex 29.1255 -22.9293 7.5
      vertex 29.6213 -22.9632 7.5
    endloop
  endfacet
  facet normal -0.0682451 0.997669 0
    outer loop
      vertex 29.6213 -26.5368 7.5
      vertex 29.1255 -26.5707 10.5
      vertex 29.6213 -26.5368 10.5
    endloop
  endfacet
  facet normal -0.0682451 0.997669 0
    outer loop
      vertex 29.1255 -26.5707 10.5
      vertex 29.6213 -26.5368 7.5
      vertex 29.1255 -26.5707 7.5
    endloop
  endfacet
  facet normal -0.775711 0.631088 0
    outer loop
      vertex 30.4957 -26.0838 7.5
      vertex 30.8093 -25.6982 10.5
      vertex 30.8093 -25.6982 7.5
    endloop
  endfacet
  facet normal -0.775711 0.631088 0
    outer loop
      vertex 30.8093 -25.6982 10.5
      vertex 30.4957 -26.0838 7.5
      vertex 30.4957 -26.0838 10.5
    endloop
  endfacet
  facet normal -0.775711 -0.631088 0
    outer loop
      vertex 30.8093 -23.8018 7.5
      vertex 30.4957 -23.4162 10.5
      vertex 30.4957 -23.4162 7.5
    endloop
  endfacet
  facet normal -0.775711 -0.631088 0
    outer loop
      vertex 30.4957 -23.4162 10.5
      vertex 30.8093 -23.8018 7.5
      vertex 30.8093 -23.8018 10.5
    endloop
  endfacet
  facet normal -0.917211 -0.398401 0
    outer loop
      vertex 31.0073 -24.2576 7.5
      vertex 30.8093 -23.8018 10.5
      vertex 30.8093 -23.8018 7.5
    endloop
  endfacet
  facet normal -0.917211 -0.398401 0
    outer loop
      vertex 30.8093 -23.8018 10.5
      vertex 31.0073 -24.2576 7.5
      vertex 31.0073 -24.2576 10.5
    endloop
  endfacet
  facet normal -0.576682 -0.816969 0
    outer loop
      vertex 30.0896 -23.1296 7.5
      vertex 30.4957 -23.4162 10.5
      vertex 30.0896 -23.1296 10.5
    endloop
  endfacet
  facet normal -0.576682 -0.816969 -0
    outer loop
      vertex 30.4957 -23.4162 10.5
      vertex 30.0896 -23.1296 7.5
      vertex 30.4957 -23.4162 7.5
    endloop
  endfacet
  facet normal 0.682552 -0.730837 0
    outer loop
      vertex 27.8343 -23.5983 7.5
      vertex 28.1976 -23.259 10.5
      vertex 27.8343 -23.5983 10.5
    endloop
  endfacet
  facet normal 0.682552 -0.730837 0
    outer loop
      vertex 28.1976 -23.259 10.5
      vertex 27.8343 -23.5983 7.5
      vertex 28.1976 -23.259 7.5
    endloop
  endfacet
  facet normal 0.460068 -0.887884 0
    outer loop
      vertex 28.1976 -23.259 7.5
      vertex 28.6388 -23.0304 10.5
      vertex 28.1976 -23.259 10.5
    endloop
  endfacet
  facet normal 0.460068 -0.887884 0
    outer loop
      vertex 28.6388 -23.0304 10.5
      vertex 28.1976 -23.259 7.5
      vertex 28.6388 -23.0304 7.5
    endloop
  endfacet
  facet normal 0.682554 0.730835 -0
    outer loop
      vertex 28.1976 -26.241 7.5
      vertex 27.8343 -25.9017 10.5
      vertex 28.1976 -26.241 10.5
    endloop
  endfacet
  facet normal 0.682554 0.730835 0
    outer loop
      vertex 27.8343 -25.9017 10.5
      vertex 28.1976 -26.241 7.5
      vertex 27.8343 -25.9017 7.5
    endloop
  endfacet
  facet normal -0.334878 -0.942261 0
    outer loop
      vertex 29.6213 -22.9632 7.5
      vertex 30.0896 -23.1296 10.5
      vertex 29.6213 -22.9632 10.5
    endloop
  endfacet
  facet normal -0.334878 -0.942261 -0
    outer loop
      vertex 30.0896 -23.1296 10.5
      vertex 29.6213 -22.9632 7.5
      vertex 30.0896 -23.1296 7.5
    endloop
  endfacet
  facet normal 0.854419 -0.519585 0
    outer loop
      vertex 27.5761 -24.0229 10.5
      vertex 27.8343 -23.5983 7.5
      vertex 27.8343 -23.5983 10.5
    endloop
  endfacet
  facet normal 0.854419 -0.519585 0
    outer loop
      vertex 27.8343 -23.5983 7.5
      vertex 27.5761 -24.0229 10.5
      vertex 27.5761 -24.0229 7.5
    endloop
  endfacet
  facet normal 0.962918 -0.269796 0
    outer loop
      vertex 27.442 -24.5015 10.5
      vertex 27.5761 -24.0229 7.5
      vertex 27.5761 -24.0229 10.5
    endloop
  endfacet
  facet normal 0.962918 -0.269796 0
    outer loop
      vertex 27.5761 -24.0229 7.5
      vertex 27.442 -24.5015 10.5
      vertex 27.442 -24.5015 7.5
    endloop
  endfacet
  facet normal 0.203457 -0.979084 0
    outer loop
      vertex 28.6388 -23.0304 7.5
      vertex 29.1255 -22.9293 10.5
      vertex 28.6388 -23.0304 10.5
    endloop
  endfacet
  facet normal 0.203457 -0.979084 0
    outer loop
      vertex 29.1255 -22.9293 10.5
      vertex 28.6388 -23.0304 7.5
      vertex 29.1255 -22.9293 7.5
    endloop
  endfacet
  facet normal 0.962918 0.269796 0
    outer loop
      vertex 27.5761 -25.4771 10.5
      vertex 27.442 -24.9985 7.5
      vertex 27.442 -24.9985 10.5
    endloop
  endfacet
  facet normal 0.962918 0.269796 0
    outer loop
      vertex 27.442 -24.9985 7.5
      vertex 27.5761 -25.4771 10.5
      vertex 27.5761 -25.4771 7.5
    endloop
  endfacet
  facet normal -0.917211 0.398402 0
    outer loop
      vertex 30.8093 -25.6982 7.5
      vertex 31.0073 -25.2424 10.5
      vertex 31.0073 -25.2424 7.5
    endloop
  endfacet
  facet normal -0.917211 0.398402 0
    outer loop
      vertex 31.0073 -25.2424 10.5
      vertex 30.8093 -25.6982 7.5
      vertex 30.8093 -25.6982 10.5
    endloop
  endfacet
  facet normal 0.460065 0.887885 -0
    outer loop
      vertex 28.6388 -26.4696 7.5
      vertex 28.1976 -26.241 10.5
      vertex 28.6388 -26.4696 10.5
    endloop
  endfacet
  facet normal 0.460065 0.887885 0
    outer loop
      vertex 28.1976 -26.241 10.5
      vertex 28.6388 -26.4696 7.5
      vertex 28.1976 -26.241 7.5
    endloop
  endfacet
  facet normal -0.576682 0.816969 0
    outer loop
      vertex 30.4957 -26.0838 7.5
      vertex 30.0896 -26.3704 10.5
      vertex 30.4957 -26.0838 10.5
    endloop
  endfacet
  facet normal -0.576682 0.816969 0
    outer loop
      vertex 30.0896 -26.3704 10.5
      vertex 30.4957 -26.0838 7.5
      vertex 30.0896 -26.3704 7.5
    endloop
  endfacet
  facet normal -0.334878 0.942261 0
    outer loop
      vertex 30.0896 -26.3704 7.5
      vertex 29.6213 -26.5368 10.5
      vertex 30.0896 -26.3704 10.5
    endloop
  endfacet
  facet normal -0.334878 0.942261 0
    outer loop
      vertex 29.6213 -26.5368 10.5
      vertex 30.0896 -26.3704 7.5
      vertex 29.6213 -26.5368 7.5
    endloop
  endfacet
  facet normal -0.990686 0.136168 0
    outer loop
      vertex 31.0073 -25.2424 7.5
      vertex 31.075 -24.75 10.5
      vertex 31.075 -24.75 7.5
    endloop
  endfacet
  facet normal -0.990686 0.136168 0
    outer loop
      vertex 31.075 -24.75 10.5
      vertex 31.0073 -25.2424 7.5
      vertex 31.0073 -25.2424 10.5
    endloop
  endfacet
  facet normal 0.203457 0.979084 -0
    outer loop
      vertex 29.1255 -26.5707 7.5
      vertex 28.6388 -26.4696 10.5
      vertex 29.1255 -26.5707 10.5
    endloop
  endfacet
  facet normal 0.203457 0.979084 0
    outer loop
      vertex 28.6388 -26.4696 10.5
      vertex 29.1255 -26.5707 7.5
      vertex 28.6388 -26.4696 7.5
    endloop
  endfacet
  facet normal 0.854418 0.519587 0
    outer loop
      vertex 27.8343 -25.9017 10.5
      vertex 27.5761 -25.4771 7.5
      vertex 27.5761 -25.4771 10.5
    endloop
  endfacet
  facet normal 0.854418 0.519587 0
    outer loop
      vertex 27.5761 -25.4771 7.5
      vertex 27.8343 -25.9017 10.5
      vertex 27.8343 -25.9017 7.5
    endloop
  endfacet
  facet normal -0.990686 -0.136168 0
    outer loop
      vertex -27.425 24.75 7.5
      vertex -27.4927 25.2424 10.5
      vertex -27.4927 25.2424 7.5
    endloop
  endfacet
  facet normal -0.990686 -0.136168 0
    outer loop
      vertex -27.4927 25.2424 10.5
      vertex -27.425 24.75 7.5
      vertex -27.425 24.75 10.5
    endloop
  endfacet
  facet normal 1 -0 0
    outer loop
      vertex -31.058 24.5015 10.5
      vertex -31.058 24.9985 7.5
      vertex -31.058 24.9985 10.5
    endloop
  endfacet
  facet normal 1 0 0
    outer loop
      vertex -31.058 24.9985 7.5
      vertex -31.058 24.5015 10.5
      vertex -31.058 24.5015 7.5
    endloop
  endfacet
  facet normal -0.0682451 -0.997669 0
    outer loop
      vertex -29.3745 26.5707 7.5
      vertex -28.8787 26.5368 10.5
      vertex -29.3745 26.5707 10.5
    endloop
  endfacet
  facet normal -0.0682451 -0.997669 -0
    outer loop
      vertex -28.8787 26.5368 10.5
      vertex -29.3745 26.5707 7.5
      vertex -28.8787 26.5368 7.5
    endloop
  endfacet
  facet normal -0.0682451 0.997669 0
    outer loop
      vertex -28.8787 22.9632 7.5
      vertex -29.3745 22.9293 10.5
      vertex -28.8787 22.9632 10.5
    endloop
  endfacet
  facet normal -0.0682451 0.997669 0
    outer loop
      vertex -29.3745 22.9293 10.5
      vertex -28.8787 22.9632 7.5
      vertex -29.3745 22.9293 7.5
    endloop
  endfacet
  facet normal -0.775711 0.631088 0
    outer loop
      vertex -28.0043 23.4162 7.5
      vertex -27.6907 23.8018 10.5
      vertex -27.6907 23.8018 7.5
    endloop
  endfacet
  facet normal -0.775711 0.631088 0
    outer loop
      vertex -27.6907 23.8018 10.5
      vertex -28.0043 23.4162 7.5
      vertex -28.0043 23.4162 10.5
    endloop
  endfacet
  facet normal -0.775711 -0.631088 0
    outer loop
      vertex -27.6907 25.6982 7.5
      vertex -28.0043 26.0838 10.5
      vertex -28.0043 26.0838 7.5
    endloop
  endfacet
  facet normal -0.775711 -0.631088 0
    outer loop
      vertex -28.0043 26.0838 10.5
      vertex -27.6907 25.6982 7.5
      vertex -27.6907 25.6982 10.5
    endloop
  endfacet
  facet normal -0.917211 -0.398402 0
    outer loop
      vertex -27.4927 25.2424 7.5
      vertex -27.6907 25.6982 10.5
      vertex -27.6907 25.6982 7.5
    endloop
  endfacet
  facet normal -0.917211 -0.398402 0
    outer loop
      vertex -27.6907 25.6982 10.5
      vertex -27.4927 25.2424 7.5
      vertex -27.4927 25.2424 10.5
    endloop
  endfacet
  facet normal -0.576682 -0.816969 0
    outer loop
      vertex -28.4104 26.3704 7.5
      vertex -28.0043 26.0838 10.5
      vertex -28.4104 26.3704 10.5
    endloop
  endfacet
  facet normal -0.576682 -0.816969 -0
    outer loop
      vertex -28.0043 26.0838 10.5
      vertex -28.4104 26.3704 7.5
      vertex -28.0043 26.0838 7.5
    endloop
  endfacet
  facet normal 0.682554 -0.730835 0
    outer loop
      vertex -30.6657 25.9017 7.5
      vertex -30.3024 26.241 10.5
      vertex -30.6657 25.9017 10.5
    endloop
  endfacet
  facet normal 0.682554 -0.730835 0
    outer loop
      vertex -30.3024 26.241 10.5
      vertex -30.6657 25.9017 7.5
      vertex -30.3024 26.241 7.5
    endloop
  endfacet
  facet normal 0.460063 -0.887886 0
    outer loop
      vertex -30.3024 26.241 7.5
      vertex -29.8612 26.4696 10.5
      vertex -30.3024 26.241 10.5
    endloop
  endfacet
  facet normal 0.460063 -0.887886 0
    outer loop
      vertex -29.8612 26.4696 10.5
      vertex -30.3024 26.241 7.5
      vertex -29.8612 26.4696 7.5
    endloop
  endfacet
  facet normal 0.682552 0.730837 -0
    outer loop
      vertex -30.3024 23.259 7.5
      vertex -30.6657 23.5983 10.5
      vertex -30.3024 23.259 10.5
    endloop
  endfacet
  facet normal 0.682552 0.730837 0
    outer loop
      vertex -30.6657 23.5983 10.5
      vertex -30.3024 23.259 7.5
      vertex -30.6657 23.5983 7.5
    endloop
  endfacet
  facet normal -0.334878 -0.942261 0
    outer loop
      vertex -28.8787 26.5368 7.5
      vertex -28.4104 26.3704 10.5
      vertex -28.8787 26.5368 10.5
    endloop
  endfacet
  facet normal -0.334878 -0.942261 -0
    outer loop
      vertex -28.4104 26.3704 10.5
      vertex -28.8787 26.5368 7.5
      vertex -28.4104 26.3704 7.5
    endloop
  endfacet
  facet normal 0.854419 -0.519584 0
    outer loop
      vertex -30.9239 25.4771 10.5
      vertex -30.6657 25.9017 7.5
      vertex -30.6657 25.9017 10.5
    endloop
  endfacet
  facet normal 0.854419 -0.519584 0
    outer loop
      vertex -30.6657 25.9017 7.5
      vertex -30.9239 25.4771 10.5
      vertex -30.9239 25.4771 7.5
    endloop
  endfacet
  facet normal 0.962917 -0.269799 0
    outer loop
      vertex -31.058 24.9985 10.5
      vertex -30.9239 25.4771 7.5
      vertex -30.9239 25.4771 10.5
    endloop
  endfacet
  facet normal 0.962917 -0.269799 0
    outer loop
      vertex -30.9239 25.4771 7.5
      vertex -31.058 24.9985 10.5
      vertex -31.058 24.9985 7.5
    endloop
  endfacet
  facet normal 0.203458 -0.979084 0
    outer loop
      vertex -29.8612 26.4696 7.5
      vertex -29.3745 26.5707 10.5
      vertex -29.8612 26.4696 10.5
    endloop
  endfacet
  facet normal 0.203458 -0.979084 0
    outer loop
      vertex -29.3745 26.5707 10.5
      vertex -29.8612 26.4696 7.5
      vertex -29.3745 26.5707 7.5
    endloop
  endfacet
  facet normal 0.962917 0.269799 0
    outer loop
      vertex -30.9239 24.0229 10.5
      vertex -31.058 24.5015 7.5
      vertex -31.058 24.5015 10.5
    endloop
  endfacet
  facet normal 0.962917 0.269799 0
    outer loop
      vertex -31.058 24.5015 7.5
      vertex -30.9239 24.0229 10.5
      vertex -30.9239 24.0229 7.5
    endloop
  endfacet
  facet normal -0.334878 0.942261 0
    outer loop
      vertex -28.4104 23.1296 7.5
      vertex -28.8787 22.9632 10.5
      vertex -28.4104 23.1296 10.5
    endloop
  endfacet
  facet normal -0.334878 0.942261 0
    outer loop
      vertex -28.8787 22.9632 10.5
      vertex -28.4104 23.1296 7.5
      vertex -28.8787 22.9632 7.5
    endloop
  endfacet
  facet normal -0.917211 0.398401 0
    outer loop
      vertex -27.6907 23.8018 7.5
      vertex -27.4927 24.2576 10.5
      vertex -27.4927 24.2576 7.5
    endloop
  endfacet
  facet normal -0.917211 0.398401 0
    outer loop
      vertex -27.4927 24.2576 10.5
      vertex -27.6907 23.8018 7.5
      vertex -27.6907 23.8018 10.5
    endloop
  endfacet
  facet normal 0.460066 0.887885 -0
    outer loop
      vertex -29.8612 23.0304 7.5
      vertex -30.3024 23.259 10.5
      vertex -29.8612 23.0304 10.5
    endloop
  endfacet
  facet normal 0.460066 0.887885 0
    outer loop
      vertex -30.3024 23.259 10.5
      vertex -29.8612 23.0304 7.5
      vertex -30.3024 23.259 7.5
    endloop
  endfacet
  facet normal -0.576682 0.816969 0
    outer loop
      vertex -28.0043 23.4162 7.5
      vertex -28.4104 23.1296 10.5
      vertex -28.0043 23.4162 10.5
    endloop
  endfacet
  facet normal -0.576682 0.816969 0
    outer loop
      vertex -28.4104 23.1296 10.5
      vertex -28.0043 23.4162 7.5
      vertex -28.4104 23.1296 7.5
    endloop
  endfacet
  facet normal -0.990686 0.136168 0
    outer loop
      vertex -27.4927 24.2576 7.5
      vertex -27.425 24.75 10.5
      vertex -27.425 24.75 7.5
    endloop
  endfacet
  facet normal -0.990686 0.136168 0
    outer loop
      vertex -27.425 24.75 10.5
      vertex -27.4927 24.2576 7.5
      vertex -27.4927 24.2576 10.5
    endloop
  endfacet
  facet normal 0.85442 0.519582 0
    outer loop
      vertex -30.6657 23.5983 10.5
      vertex -30.9239 24.0229 7.5
      vertex -30.9239 24.0229 10.5
    endloop
  endfacet
  facet normal 0.85442 0.519582 0
    outer loop
      vertex -30.9239 24.0229 7.5
      vertex -30.6657 23.5983 10.5
      vertex -30.6657 23.5983 7.5
    endloop
  endfacet
  facet normal 0.203458 0.979084 -0
    outer loop
      vertex -29.3745 22.9293 7.5
      vertex -29.8612 23.0304 10.5
      vertex -29.3745 22.9293 10.5
    endloop
  endfacet
  facet normal 0.203458 0.979084 0
    outer loop
      vertex -29.8612 23.0304 10.5
      vertex -29.3745 22.9293 7.5
      vertex -29.8612 23.0304 7.5
    endloop
  endfacet
  facet normal -0.990686 -0.136168 0
    outer loop
      vertex -27.425 -24.75 7.5
      vertex -27.4927 -24.2576 10.5
      vertex -27.4927 -24.2576 7.5
    endloop
  endfacet
  facet normal -0.990686 -0.136168 0
    outer loop
      vertex -27.4927 -24.2576 10.5
      vertex -27.425 -24.75 7.5
      vertex -27.425 -24.75 10.5
    endloop
  endfacet
  facet normal 1 -0 0
    outer loop
      vertex -31.058 -24.9985 10.5
      vertex -31.058 -24.5015 7.5
      vertex -31.058 -24.5015 10.5
    endloop
  endfacet
  facet normal 1 0 0
    outer loop
      vertex -31.058 -24.5015 7.5
      vertex -31.058 -24.9985 10.5
      vertex -31.058 -24.9985 7.5
    endloop
  endfacet
  facet normal -0.0682451 -0.997669 0
    outer loop
      vertex -29.3745 -22.9293 7.5
      vertex -28.8787 -22.9632 10.5
      vertex -29.3745 -22.9293 10.5
    endloop
  endfacet
  facet normal -0.0682451 -0.997669 -0
    outer loop
      vertex -28.8787 -22.9632 10.5
      vertex -29.3745 -22.9293 7.5
      vertex -28.8787 -22.9632 7.5
    endloop
  endfacet
  facet normal -0.0682451 0.997669 0
    outer loop
      vertex -28.8787 -26.5368 7.5
      vertex -29.3745 -26.5707 10.5
      vertex -28.8787 -26.5368 10.5
    endloop
  endfacet
  facet normal -0.0682451 0.997669 0
    outer loop
      vertex -29.3745 -26.5707 10.5
      vertex -28.8787 -26.5368 7.5
      vertex -29.3745 -26.5707 7.5
    endloop
  endfacet
  facet normal -0.775711 0.631088 0
    outer loop
      vertex -28.0043 -26.0838 7.5
      vertex -27.6907 -25.6982 10.5
      vertex -27.6907 -25.6982 7.5
    endloop
  endfacet
  facet normal -0.775711 0.631088 0
    outer loop
      vertex -27.6907 -25.6982 10.5
      vertex -28.0043 -26.0838 7.5
      vertex -28.0043 -26.0838 10.5
    endloop
  endfacet
  facet normal -0.775711 -0.631088 0
    outer loop
      vertex -27.6907 -23.8018 7.5
      vertex -28.0043 -23.4162 10.5
      vertex -28.0043 -23.4162 7.5
    endloop
  endfacet
  facet normal -0.775711 -0.631088 0
    outer loop
      vertex -28.0043 -23.4162 10.5
      vertex -27.6907 -23.8018 7.5
      vertex -27.6907 -23.8018 10.5
    endloop
  endfacet
  facet normal -0.917211 -0.398401 0
    outer loop
      vertex -27.4927 -24.2576 7.5
      vertex -27.6907 -23.8018 10.5
      vertex -27.6907 -23.8018 7.5
    endloop
  endfacet
  facet normal -0.917211 -0.398401 0
    outer loop
      vertex -27.6907 -23.8018 10.5
      vertex -27.4927 -24.2576 7.5
      vertex -27.4927 -24.2576 10.5
    endloop
  endfacet
  facet normal -0.576682 -0.816969 0
    outer loop
      vertex -28.4104 -23.1296 7.5
      vertex -28.0043 -23.4162 10.5
      vertex -28.4104 -23.1296 10.5
    endloop
  endfacet
  facet normal -0.576682 -0.816969 -0
    outer loop
      vertex -28.0043 -23.4162 10.5
      vertex -28.4104 -23.1296 7.5
      vertex -28.0043 -23.4162 7.5
    endloop
  endfacet
  facet normal 0.682552 -0.730837 0
    outer loop
      vertex -30.6657 -23.5983 7.5
      vertex -30.3024 -23.259 10.5
      vertex -30.6657 -23.5983 10.5
    endloop
  endfacet
  facet normal 0.682552 -0.730837 0
    outer loop
      vertex -30.3024 -23.259 10.5
      vertex -30.6657 -23.5983 7.5
      vertex -30.3024 -23.259 7.5
    endloop
  endfacet
  facet normal 0.460066 -0.887885 0
    outer loop
      vertex -30.3024 -23.259 7.5
      vertex -29.8612 -23.0304 10.5
      vertex -30.3024 -23.259 10.5
    endloop
  endfacet
  facet normal 0.460066 -0.887885 0
    outer loop
      vertex -29.8612 -23.0304 10.5
      vertex -30.3024 -23.259 7.5
      vertex -29.8612 -23.0304 7.5
    endloop
  endfacet
  facet normal 0.682554 0.730835 -0
    outer loop
      vertex -30.3024 -26.241 7.5
      vertex -30.6657 -25.9017 10.5
      vertex -30.3024 -26.241 10.5
    endloop
  endfacet
  facet normal 0.682554 0.730835 0
    outer loop
      vertex -30.6657 -25.9017 10.5
      vertex -30.3024 -26.241 7.5
      vertex -30.6657 -25.9017 7.5
    endloop
  endfacet
  facet normal -0.334878 -0.942261 0
    outer loop
      vertex -28.8787 -22.9632 7.5
      vertex -28.4104 -23.1296 10.5
      vertex -28.8787 -22.9632 10.5
    endloop
  endfacet
  facet normal -0.334878 -0.942261 -0
    outer loop
      vertex -28.4104 -23.1296 10.5
      vertex -28.8787 -22.9632 7.5
      vertex -28.4104 -23.1296 7.5
    endloop
  endfacet
  facet normal 0.85442 -0.519582 0
    outer loop
      vertex -30.9239 -24.0229 10.5
      vertex -30.6657 -23.5983 7.5
      vertex -30.6657 -23.5983 10.5
    endloop
  endfacet
  facet normal 0.85442 -0.519582 0
    outer loop
      vertex -30.6657 -23.5983 7.5
      vertex -30.9239 -24.0229 10.5
      vertex -30.9239 -24.0229 7.5
    endloop
  endfacet
  facet normal 0.962917 -0.269799 0
    outer loop
      vertex -31.058 -24.5015 10.5
      vertex -30.9239 -24.0229 7.5
      vertex -30.9239 -24.0229 10.5
    endloop
  endfacet
  facet normal 0.962917 -0.269799 0
    outer loop
      vertex -30.9239 -24.0229 7.5
      vertex -31.058 -24.5015 10.5
      vertex -31.058 -24.5015 7.5
    endloop
  endfacet
  facet normal 0.203458 -0.979084 0
    outer loop
      vertex -29.8612 -23.0304 7.5
      vertex -29.3745 -22.9293 10.5
      vertex -29.8612 -23.0304 10.5
    endloop
  endfacet
  facet normal 0.203458 -0.979084 0
    outer loop
      vertex -29.3745 -22.9293 10.5
      vertex -29.8612 -23.0304 7.5
      vertex -29.3745 -22.9293 7.5
    endloop
  endfacet
  facet normal 0.962917 0.269799 0
    outer loop
      vertex -30.9239 -25.4771 10.5
      vertex -31.058 -24.9985 7.5
      vertex -31.058 -24.9985 10.5
    endloop
  endfacet
  facet normal 0.962917 0.269799 0
    outer loop
      vertex -31.058 -24.9985 7.5
      vertex -30.9239 -25.4771 10.5
      vertex -30.9239 -25.4771 7.5
    endloop
  endfacet
  facet normal -0.334878 0.942261 0
    outer loop
      vertex -28.4104 -26.3704 7.5
      vertex -28.8787 -26.5368 10.5
      vertex -28.4104 -26.3704 10.5
    endloop
  endfacet
  facet normal -0.334878 0.942261 0
    outer loop
      vertex -28.8787 -26.5368 10.5
      vertex -28.4104 -26.3704 7.5
      vertex -28.8787 -26.5368 7.5
    endloop
  endfacet
  facet normal -0.917211 0.398402 0
    outer loop
      vertex -27.6907 -25.6982 7.5
      vertex -27.4927 -25.2424 10.5
      vertex -27.4927 -25.2424 7.5
    endloop
  endfacet
  facet normal -0.917211 0.398402 0
    outer loop
      vertex -27.4927 -25.2424 10.5
      vertex -27.6907 -25.6982 7.5
      vertex -27.6907 -25.6982 10.5
    endloop
  endfacet
  facet normal 0.460063 0.887886 -0
    outer loop
      vertex -29.8612 -26.4696 7.5
      vertex -30.3024 -26.241 10.5
      vertex -29.8612 -26.4696 10.5
    endloop
  endfacet
  facet normal 0.460063 0.887886 0
    outer loop
      vertex -30.3024 -26.241 10.5
      vertex -29.8612 -26.4696 7.5
      vertex -30.3024 -26.241 7.5
    endloop
  endfacet
  facet normal -0.576682 0.816969 0
    outer loop
      vertex -28.0043 -26.0838 7.5
      vertex -28.4104 -26.3704 10.5
      vertex -28.0043 -26.0838 10.5
    endloop
  endfacet
  facet normal -0.576682 0.816969 0
    outer loop
      vertex -28.4104 -26.3704 10.5
      vertex -28.0043 -26.0838 7.5
      vertex -28.4104 -26.3704 7.5
    endloop
  endfacet
  facet normal -0.990686 0.136168 0
    outer loop
      vertex -27.4927 -25.2424 7.5
      vertex -27.425 -24.75 10.5
      vertex -27.425 -24.75 7.5
    endloop
  endfacet
  facet normal -0.990686 0.136168 0
    outer loop
      vertex -27.425 -24.75 10.5
      vertex -27.4927 -25.2424 7.5
      vertex -27.4927 -25.2424 10.5
    endloop
  endfacet
  facet normal 0.854419 0.519584 0
    outer loop
      vertex -30.6657 -25.9017 10.5
      vertex -30.9239 -25.4771 7.5
      vertex -30.9239 -25.4771 10.5
    endloop
  endfacet
  facet normal 0.854419 0.519584 0
    outer loop
      vertex -30.9239 -25.4771 7.5
      vertex -30.6657 -25.9017 10.5
      vertex -30.6657 -25.9017 7.5
    endloop
  endfacet
  facet normal 0.203458 0.979084 -0
    outer loop
      vertex -29.3745 -26.5707 7.5
      vertex -29.8612 -26.4696 10.5
      vertex -29.3745 -26.5707 10.5
    endloop
  endfacet
  facet normal 0.203458 0.979084 0
    outer loop
      vertex -29.8612 -26.4696 10.5
      vertex -29.3745 -26.5707 7.5
      vertex -29.8612 -26.4696 7.5
    endloop
  endfacet
  facet normal -1 0 0
    outer loop
      vertex -34 -26.5 7.5
      vertex -34 26.5 10.5
      vertex -34 26.5 7.5
    endloop
  endfacet
  facet normal -1 -0 0
    outer loop
      vertex -34 26.5 10.5
      vertex -34 -26.5 7.5
      vertex -34 -26.5 10.5
    endloop
  endfacet
  facet normal 0 0 1
    outer loop
      vertex -28.0043 23.4162 10.5
      vertex 27.8343 23.5983 10.5
      vertex -27.6907 23.8018 10.5
    endloop
  endfacet
  facet normal 0 0 1
    outer loop
      vertex 27.8343 -23.5983 10.5
      vertex -27.4927 -24.2576 10.5
      vertex -27.425 -24.75 10.5
    endloop
  endfacet
  facet normal 0 0 1
    outer loop
      vertex 27.8343 23.5983 10.5
      vertex -28.0043 23.4162 10.5
      vertex 27.8343 -23.5983 10.5
    endloop
  endfacet
  facet normal 0 0 1
    outer loop
      vertex 27.8343 -23.5983 10.5
      vertex -27.6907 -23.8018 10.5
      vertex -27.4927 -24.2576 10.5
    endloop
  endfacet
  facet normal -0 0 1
    outer loop
      vertex -28.0043 -23.4162 10.5
      vertex 27.8343 -23.5983 10.5
      vertex -28.0043 23.4162 10.5
    endloop
  endfacet
  facet normal 0 0 1
    outer loop
      vertex 27.8343 -23.5983 10.5
      vertex -28.0043 -23.4162 10.5
      vertex -27.6907 -23.8018 10.5
    endloop
  endfacet
  facet normal -0 0 1
    outer loop
      vertex -28.4104 23.1296 10.5
      vertex -28.0043 -23.4162 10.5
      vertex -28.0043 23.4162 10.5
    endloop
  endfacet
  facet normal 0 0 1
    outer loop
      vertex -28.4104 23.1296 10.5
      vertex -28.4104 -23.1296 10.5
      vertex -28.0043 -23.4162 10.5
    endloop
  endfacet
  facet normal -0 0 1
    outer loop
      vertex -28.8787 22.9632 10.5
      vertex -28.4104 -23.1296 10.5
      vertex -28.4104 23.1296 10.5
    endloop
  endfacet
  facet normal 0 0 1
    outer loop
      vertex -28.8787 22.9632 10.5
      vertex -28.8787 -22.9632 10.5
      vertex -28.4104 -23.1296 10.5
    endloop
  endfacet
  facet normal -0 0 1
    outer loop
      vertex -29.3745 22.9293 10.5
      vertex -28.8787 -22.9632 10.5
      vertex -28.8787 22.9632 10.5
    endloop
  endfacet
  facet normal 0 0 1
    outer loop
      vertex -29.3745 22.9293 10.5
      vertex -29.3745 -22.9293 10.5
      vertex -28.8787 -22.9632 10.5
    endloop
  endfacet
  facet normal 0 0 1
    outer loop
      vertex -29.8612 23.0304 10.5
      vertex -29.3745 -22.9293 10.5
      vertex -29.3745 22.9293 10.5
    endloop
  endfacet
  facet normal 0 0 1
    outer loop
      vertex -29.8612 23.0304 10.5
      vertex -29.8612 -23.0304 10.5
      vertex -29.3745 -22.9293 10.5
    endloop
  endfacet
  facet normal 0 0 1
    outer loop
      vertex -30.3024 23.259 10.5
      vertex -29.8612 -23.0304 10.5
      vertex -29.8612 23.0304 10.5
    endloop
  endfacet
  facet normal 0 0 1
    outer loop
      vertex -30.3024 23.259 10.5
      vertex -30.3024 -23.259 10.5
      vertex -29.8612 -23.0304 10.5
    endloop
  endfacet
  facet normal 0 0 1
    outer loop
      vertex -30.6657 23.5983 10.5
      vertex -30.3024 -23.259 10.5
      vertex -30.3024 23.259 10.5
    endloop
  endfacet
  facet normal 0 0 1
    outer loop
      vertex -30.6657 23.5983 10.5
      vertex -30.6657 -23.5983 10.5
      vertex -30.3024 -23.259 10.5
    endloop
  endfacet
  facet normal 0 0 1
    outer loop
      vertex -34 26.5 10.5
      vertex -30.6657 23.5983 10.5
      vertex -30.9239 24.0229 10.5
    endloop
  endfacet
  facet normal 0 0 1
    outer loop
      vertex -30.6657 23.5983 10.5
      vertex -34 26.5 10.5
      vertex -30.6657 -23.5983 10.5
    endloop
  endfacet
  facet normal 0 0 1
    outer loop
      vertex -34 26.5 10.5
      vertex -30.9239 24.0229 10.5
      vertex -31.058 24.5015 10.5
    endloop
  endfacet
  facet normal 0 0 1
    outer loop
      vertex -34 -26.5 10.5
      vertex -30.6657 -23.5983 10.5
      vertex -34 26.5 10.5
    endloop
  endfacet
  facet normal 0 0 1
    outer loop
      vertex 30.4957 23.4162 10.5
      vertex 34 26.5 10.5
      vertex 30.8093 23.8018 10.5
    endloop
  endfacet
  facet normal 0 0 1
    outer loop
      vertex 34 -26.5 10.5
      vertex 31.0073 -24.2576 10.5
      vertex 31.075 -24.75 10.5
    endloop
  endfacet
  facet normal 0 0 1
    outer loop
      vertex 34 26.5 10.5
      vertex 30.4957 23.4162 10.5
      vertex 34 -26.5 10.5
    endloop
  endfacet
  facet normal 0 0 1
    outer loop
      vertex 34 -26.5 10.5
      vertex 30.8093 -23.8018 10.5
      vertex 31.0073 -24.2576 10.5
    endloop
  endfacet
  facet normal -0 0 1
    outer loop
      vertex 30.4957 -23.4162 10.5
      vertex 34 -26.5 10.5
      vertex 30.4957 23.4162 10.5
    endloop
  endfacet
  facet normal 0 0 1
    outer loop
      vertex 34 -26.5 10.5
      vertex 30.4957 -23.4162 10.5
      vertex 30.8093 -23.8018 10.5
    endloop
  endfacet
  facet normal -0 0 1
    outer loop
      vertex 30.0896 23.1296 10.5
      vertex 30.4957 -23.4162 10.5
      vertex 30.4957 23.4162 10.5
    endloop
  endfacet
  facet normal 0 0 1
    outer loop
      vertex 30.0896 23.1296 10.5
      vertex 30.0896 -23.1296 10.5
      vertex 30.4957 -23.4162 10.5
    endloop
  endfacet
  facet normal -0 0 1
    outer loop
      vertex 29.6213 22.9632 10.5
      vertex 30.0896 -23.1296 10.5
      vertex 30.0896 23.1296 10.5
    endloop
  endfacet
  facet normal 0 0 1
    outer loop
      vertex 29.6213 22.9632 10.5
      vertex 29.6213 -22.9632 10.5
      vertex 30.0896 -23.1296 10.5
    endloop
  endfacet
  facet normal -0 0 1
    outer loop
      vertex 29.1255 22.9293 10.5
      vertex 29.6213 -22.9632 10.5
      vertex 29.6213 22.9632 10.5
    endloop
  endfacet
  facet normal 0 0 1
    outer loop
      vertex 29.1255 22.9293 10.5
      vertex 29.1255 -22.9293 10.5
      vertex 29.6213 -22.9632 10.5
    endloop
  endfacet
  facet normal 0 0 1
    outer loop
      vertex 28.6388 23.0304 10.5
      vertex 29.1255 -22.9293 10.5
      vertex 29.1255 22.9293 10.5
    endloop
  endfacet
  facet normal 0 0 1
    outer loop
      vertex 28.6388 23.0304 10.5
      vertex 28.6388 -23.0304 10.5
      vertex 29.1255 -22.9293 10.5
    endloop
  endfacet
  facet normal 0 0 1
    outer loop
      vertex 28.1976 23.259 10.5
      vertex 28.6388 -23.0304 10.5
      vertex 28.6388 23.0304 10.5
    endloop
  endfacet
  facet normal 0 0 1
    outer loop
      vertex 28.1976 23.259 10.5
      vertex 28.1976 -23.259 10.5
      vertex 28.6388 -23.0304 10.5
    endloop
  endfacet
  facet normal 0 0 1
    outer loop
      vertex 27.8343 23.5983 10.5
      vertex 28.1976 -23.259 10.5
      vertex 28.1976 23.259 10.5
    endloop
  endfacet
  facet normal 0 0 1
    outer loop
      vertex 27.8343 23.5983 10.5
      vertex 27.8343 -23.5983 10.5
      vertex 28.1976 -23.259 10.5
    endloop
  endfacet
  facet normal 0 0 1
    outer loop
      vertex 27.442 24.5015 10.5
      vertex -27.4927 24.2576 10.5
      vertex 27.5761 24.0229 10.5
    endloop
  endfacet
  facet normal 0 0 1
    outer loop
      vertex -27.6907 23.8018 10.5
      vertex 27.5761 24.0229 10.5
      vertex -27.4927 24.2576 10.5
    endloop
  endfacet
  facet normal 0 0 1
    outer loop
      vertex -27.4927 24.2576 10.5
      vertex 27.442 24.5015 10.5
      vertex -27.425 24.75 10.5
    endloop
  endfacet
  facet normal 0 0 1
    outer loop
      vertex 27.5761 24.0229 10.5
      vertex -27.6907 23.8018 10.5
      vertex 27.8343 23.5983 10.5
    endloop
  endfacet
  facet normal 0 0 1
    outer loop
      vertex 30.8093 25.6982 10.5
      vertex 34 26.5 10.5
      vertex 33.9591 26.9938 10.5
    endloop
  endfacet
  facet normal 0 0 1
    outer loop
      vertex 31.0073 24.2576 10.5
      vertex 34 26.5 10.5
      vertex 31.075 24.75 10.5
    endloop
  endfacet
  facet normal 0 0 1
    outer loop
      vertex 30.8093 25.6982 10.5
      vertex 33.9591 26.9938 10.5
      vertex 33.8375 27.4741 10.5
    endloop
  endfacet
  facet normal 0 0 1
    outer loop
      vertex 30.8093 23.8018 10.5
      vertex 34 26.5 10.5
      vertex 31.0073 24.2576 10.5
    endloop
  endfacet
  facet normal 0 0 1
    outer loop
      vertex 30.8093 25.6982 10.5
      vertex 33.8375 27.4741 10.5
      vertex 33.6384 27.9278 10.5
    endloop
  endfacet
  facet normal -0 0 1
    outer loop
      vertex 31.0073 -25.2424 10.5
      vertex 34 -26.5 10.5
      vertex 31.075 -24.75 10.5
    endloop
  endfacet
  facet normal 0 0 1
    outer loop
      vertex 30.4957 26.0838 10.5
      vertex 33.6384 27.9278 10.5
      vertex 33.3674 28.3426 10.5
    endloop
  endfacet
  facet normal -0 0 1
    outer loop
      vertex 30.8093 -25.6982 10.5
      vertex 34 -26.5 10.5
      vertex 31.0073 -25.2424 10.5
    endloop
  endfacet
  facet normal 0 0 1
    outer loop
      vertex 30.4957 26.0838 10.5
      vertex 33.3674 28.3426 10.5
      vertex 33.0318 28.7072 10.5
    endloop
  endfacet
  facet normal 0 0 1
    outer loop
      vertex 34 -26.5 10.5
      vertex 30.8093 -25.6982 10.5
      vertex 33.9591 -26.9938 10.5
    endloop
  endfacet
  facet normal 0 0 1
    outer loop
      vertex 30.4957 26.0838 10.5
      vertex 33.0318 28.7072 10.5
      vertex 32.6408 29.0115 10.5
    endloop
  endfacet
  facet normal 0 0 1
    outer loop
      vertex 33.9591 -26.9938 10.5
      vertex 30.8093 -25.6982 10.5
      vertex 33.8375 -27.4741 10.5
    endloop
  endfacet
  facet normal 0 0 1
    outer loop
      vertex 30.4957 26.0838 10.5
      vertex 32.6408 29.0115 10.5
      vertex 32.2051 29.2473 10.5
    endloop
  endfacet
  facet normal 0 0 1
    outer loop
      vertex 33.8375 -27.4741 10.5
      vertex 30.8093 -25.6982 10.5
      vertex 33.6384 -27.9278 10.5
    endloop
  endfacet
  facet normal 0 0 1
    outer loop
      vertex 30.4957 26.0838 10.5
      vertex 32.2051 29.2473 10.5
      vertex 31.7365 29.4082 10.5
    endloop
  endfacet
  facet normal -0 0 1
    outer loop
      vertex 30.4957 -26.0838 10.5
      vertex 33.6384 -27.9278 10.5
      vertex 30.8093 -25.6982 10.5
    endloop
  endfacet
  facet normal 0 0 1
    outer loop
      vertex 30.0896 26.3704 10.5
      vertex 31.7365 29.4082 10.5
      vertex 31.2477 29.4898 10.5
    endloop
  endfacet
  facet normal 0 0 1
    outer loop
      vertex 33.6384 -27.9278 10.5
      vertex 30.4957 -26.0838 10.5
      vertex 33.3674 -28.3426 10.5
    endloop
  endfacet
  facet normal 0 0 1
    outer loop
      vertex 33.3674 -28.3426 10.5
      vertex 30.4957 -26.0838 10.5
      vertex 33.0318 -28.7072 10.5
    endloop
  endfacet
  facet normal 0 0 1
    outer loop
      vertex 34 26.5 10.5
      vertex 31.0073 25.2424 10.5
      vertex 31.075 24.75 10.5
    endloop
  endfacet
  facet normal 0 0 1
    outer loop
      vertex 34 26.5 10.5
      vertex 30.8093 25.6982 10.5
      vertex 31.0073 25.2424 10.5
    endloop
  endfacet
  facet normal 0 0 1
    outer loop
      vertex 33.6384 27.9278 10.5
      vertex 30.4957 26.0838 10.5
      vertex 30.8093 25.6982 10.5
    endloop
  endfacet
  facet normal 0 0 1
    outer loop
      vertex 31.7365 29.4082 10.5
      vertex 30.0896 26.3704 10.5
      vertex 30.4957 26.0838 10.5
    endloop
  endfacet
  facet normal 0 0 1
    outer loop
      vertex 31.2477 29.4898 10.5
      vertex 29.6213 26.5368 10.5
      vertex 30.0896 26.3704 10.5
    endloop
  endfacet
  facet normal 0 0 1
    outer loop
      vertex 31.2477 29.4898 10.5
      vertex 29.1255 26.5707 10.5
      vertex 29.6213 26.5368 10.5
    endloop
  endfacet
  facet normal 0 0 1
    outer loop
      vertex 31.2477 29.4898 10.5
      vertex 28.6388 26.4696 10.5
      vertex 29.1255 26.5707 10.5
    endloop
  endfacet
  facet normal 0 0 1
    outer loop
      vertex 31.2477 29.4898 10.5
      vertex 28.1976 26.241 10.5
      vertex 28.6388 26.4696 10.5
    endloop
  endfacet
  facet normal 0 0 1
    outer loop
      vertex 31.2477 29.4898 10.5
      vertex 27.8343 25.9017 10.5
      vertex 28.1976 26.241 10.5
    endloop
  endfacet
  facet normal -0 0 1
    outer loop
      vertex -27.425 24.75 10.5
      vertex 27.442 24.5015 10.5
      vertex 27.442 24.9985 10.5
    endloop
  endfacet
  facet normal 0 0 1
    outer loop
      vertex 27.8343 -23.5983 10.5
      vertex -27.425 -24.75 10.5
      vertex 27.5761 -24.0229 10.5
    endloop
  endfacet
  facet normal 0 0 1
    outer loop
      vertex 27.5761 -24.0229 10.5
      vertex -27.425 -24.75 10.5
      vertex 27.442 -24.5015 10.5
    endloop
  endfacet
  facet normal -0 0 1
    outer loop
      vertex -27.4927 25.2424 10.5
      vertex 27.442 24.9985 10.5
      vertex 27.5761 25.4771 10.5
    endloop
  endfacet
  facet normal -0 0 1
    outer loop
      vertex -27.6907 25.6982 10.5
      vertex 27.5761 25.4771 10.5
      vertex 27.8343 25.9017 10.5
    endloop
  endfacet
  facet normal -0 0 1
    outer loop
      vertex -28.0043 26.0838 10.5
      vertex 27.8343 25.9017 10.5
      vertex 31.2477 29.4898 10.5
    endloop
  endfacet
  facet normal 0 0 1
    outer loop
      vertex 27.442 24.9985 10.5
      vertex -27.4927 25.2424 10.5
      vertex -27.425 24.75 10.5
    endloop
  endfacet
  facet normal 0 0 1
    outer loop
      vertex 27.5761 25.4771 10.5
      vertex -27.6907 25.6982 10.5
      vertex -27.4927 25.2424 10.5
    endloop
  endfacet
  facet normal 0 0 1
    outer loop
      vertex 27.8343 25.9017 10.5
      vertex -28.0043 26.0838 10.5
      vertex -27.6907 25.6982 10.5
    endloop
  endfacet
  facet normal -0 0 1
    outer loop
      vertex -31.2477 29.4898 10.5
      vertex -28.0043 26.0838 10.5
      vertex 31.2477 29.4898 10.5
    endloop
  endfacet
  facet normal 0 0 1
    outer loop
      vertex -28.0043 26.0838 10.5
      vertex -31.2477 29.4898 10.5
      vertex -28.4104 26.3704 10.5
    endloop
  endfacet
  facet normal 0 0 1
    outer loop
      vertex -28.4104 26.3704 10.5
      vertex -31.2477 29.4898 10.5
      vertex -28.8787 26.5368 10.5
    endloop
  endfacet
  facet normal 0 0 1
    outer loop
      vertex -34 26.5 10.5
      vertex -31.058 24.5015 10.5
      vertex -31.058 24.9985 10.5
    endloop
  endfacet
  facet normal 0 0 1
    outer loop
      vertex -30.6657 -23.5983 10.5
      vertex -34 -26.5 10.5
      vertex -30.9239 -24.0229 10.5
    endloop
  endfacet
  facet normal -0 0 1
    outer loop
      vertex -33.0318 28.7072 10.5
      vertex -30.3024 26.241 10.5
      vertex -32.6408 29.0115 10.5
    endloop
  endfacet
  facet normal -0 0 1
    outer loop
      vertex -32.6408 29.0115 10.5
      vertex -30.3024 26.241 10.5
      vertex -32.2051 29.2473 10.5
    endloop
  endfacet
  facet normal -0 0 1
    outer loop
      vertex -32.2051 29.2473 10.5
      vertex -30.3024 26.241 10.5
      vertex -31.7365 29.4082 10.5
    endloop
  endfacet
  facet normal -0 0 1
    outer loop
      vertex -31.7365 29.4082 10.5
      vertex -30.3024 26.241 10.5
      vertex -31.2477 29.4898 10.5
    endloop
  endfacet
  facet normal 0 0 1
    outer loop
      vertex -29.8612 26.4696 10.5
      vertex -31.2477 29.4898 10.5
      vertex -30.3024 26.241 10.5
    endloop
  endfacet
  facet normal 0 0 1
    outer loop
      vertex -29.3745 26.5707 10.5
      vertex -31.2477 29.4898 10.5
      vertex -29.8612 26.4696 10.5
    endloop
  endfacet
  facet normal 0 0 1
    outer loop
      vertex -28.8787 26.5368 10.5
      vertex -31.2477 29.4898 10.5
      vertex -29.3745 26.5707 10.5
    endloop
  endfacet
  facet normal 0 0 1
    outer loop
      vertex 33.0318 -28.7072 10.5
      vertex 30.4957 -26.0838 10.5
      vertex 32.6408 -29.0115 10.5
    endloop
  endfacet
  facet normal 0 0 1
    outer loop
      vertex 32.6408 -29.0115 10.5
      vertex 30.4957 -26.0838 10.5
      vertex 32.2051 -29.2473 10.5
    endloop
  endfacet
  facet normal 0 0 1
    outer loop
      vertex 32.2051 -29.2473 10.5
      vertex 30.4957 -26.0838 10.5
      vertex 31.7365 -29.4082 10.5
    endloop
  endfacet
  facet normal -0 0 1
    outer loop
      vertex 30.0896 -26.3704 10.5
      vertex 31.7365 -29.4082 10.5
      vertex 30.4957 -26.0838 10.5
    endloop
  endfacet
  facet normal 0 0 1
    outer loop
      vertex 31.7365 -29.4082 10.5
      vertex 30.0896 -26.3704 10.5
      vertex 31.2477 -29.4898 10.5
    endloop
  endfacet
  facet normal -0 0 1
    outer loop
      vertex 29.6213 -26.5368 10.5
      vertex 31.2477 -29.4898 10.5
      vertex 30.0896 -26.3704 10.5
    endloop
  endfacet
  facet normal -0 0 1
    outer loop
      vertex 29.1255 -26.5707 10.5
      vertex 31.2477 -29.4898 10.5
      vertex 29.6213 -26.5368 10.5
    endloop
  endfacet
  facet normal 0 0 1
    outer loop
      vertex 28.6388 -26.4696 10.5
      vertex 31.2477 -29.4898 10.5
      vertex 29.1255 -26.5707 10.5
    endloop
  endfacet
  facet normal 0 0 1
    outer loop
      vertex 28.1976 -26.241 10.5
      vertex 31.2477 -29.4898 10.5
      vertex 28.6388 -26.4696 10.5
    endloop
  endfacet
  facet normal 0 0 1
    outer loop
      vertex 27.8343 -25.9017 10.5
      vertex 31.2477 -29.4898 10.5
      vertex 28.1976 -26.241 10.5
    endloop
  endfacet
  facet normal 0 0 1
    outer loop
      vertex 27.442 -24.5015 10.5
      vertex -27.425 -24.75 10.5
      vertex 27.442 -24.9985 10.5
    endloop
  endfacet
  facet normal 0 0 1
    outer loop
      vertex -27.4927 -25.2424 10.5
      vertex 27.442 -24.9985 10.5
      vertex -27.425 -24.75 10.5
    endloop
  endfacet
  facet normal 0 0 1
    outer loop
      vertex 27.442 -24.9985 10.5
      vertex -27.4927 -25.2424 10.5
      vertex 27.5761 -25.4771 10.5
    endloop
  endfacet
  facet normal 0 0 1
    outer loop
      vertex -27.6907 -25.6982 10.5
      vertex 27.5761 -25.4771 10.5
      vertex -27.4927 -25.2424 10.5
    endloop
  endfacet
  facet normal 0 0 1
    outer loop
      vertex 27.5761 -25.4771 10.5
      vertex -27.6907 -25.6982 10.5
      vertex 27.8343 -25.9017 10.5
    endloop
  endfacet
  facet normal 0 0 1
    outer loop
      vertex -28.0043 -26.0838 10.5
      vertex 27.8343 -25.9017 10.5
      vertex -27.6907 -25.6982 10.5
    endloop
  endfacet
  facet normal 0 0 1
    outer loop
      vertex 27.8343 -25.9017 10.5
      vertex -28.0043 -26.0838 10.5
      vertex 31.2477 -29.4898 10.5
    endloop
  endfacet
  facet normal 0 0 1
    outer loop
      vertex -31.2477 -29.4898 10.5
      vertex -28.0043 -26.0838 10.5
      vertex -28.4104 -26.3704 10.5
    endloop
  endfacet
  facet normal 0 0 1
    outer loop
      vertex -31.2477 -29.4898 10.5
      vertex -28.4104 -26.3704 10.5
      vertex -28.8787 -26.5368 10.5
    endloop
  endfacet
  facet normal 0 0 1
    outer loop
      vertex -31.2477 -29.4898 10.5
      vertex -28.8787 -26.5368 10.5
      vertex -29.3745 -26.5707 10.5
    endloop
  endfacet
  facet normal 0 0 1
    outer loop
      vertex -28.0043 -26.0838 10.5
      vertex -31.2477 -29.4898 10.5
      vertex 31.2477 -29.4898 10.5
    endloop
  endfacet
  facet normal 0 0 1
    outer loop
      vertex -29.8612 -26.4696 10.5
      vertex -31.2477 -29.4898 10.5
      vertex -29.3745 -26.5707 10.5
    endloop
  endfacet
  facet normal 0 0 1
    outer loop
      vertex -30.3024 -26.241 10.5
      vertex -31.2477 -29.4898 10.5
      vertex -29.8612 -26.4696 10.5
    endloop
  endfacet
  facet normal 0 0 1
    outer loop
      vertex -33.0318 -28.7072 10.5
      vertex -30.3024 -26.241 10.5
      vertex -30.6657 -25.9017 10.5
    endloop
  endfacet
  facet normal 0 0 1
    outer loop
      vertex -34 -26.5 10.5
      vertex -30.6657 -25.9017 10.5
      vertex -30.9239 -25.4771 10.5
    endloop
  endfacet
  facet normal 0 0 1
    outer loop
      vertex -34 -26.5 10.5
      vertex -30.9239 -25.4771 10.5
      vertex -31.058 -24.9985 10.5
    endloop
  endfacet
  facet normal 0 0 1
    outer loop
      vertex -30.9239 -24.0229 10.5
      vertex -34 -26.5 10.5
      vertex -31.058 -24.5015 10.5
    endloop
  endfacet
  facet normal 0 0 1
    outer loop
      vertex -30.3024 26.241 10.5
      vertex -33.0318 28.7072 10.5
      vertex -30.6657 25.9017 10.5
    endloop
  endfacet
  facet normal 0 0 1
    outer loop
      vertex -31.058 -24.5015 10.5
      vertex -34 -26.5 10.5
      vertex -31.058 -24.9985 10.5
    endloop
  endfacet
  facet normal -0 0 1
    outer loop
      vertex -33.3674 28.3426 10.5
      vertex -30.6657 25.9017 10.5
      vertex -33.0318 28.7072 10.5
    endloop
  endfacet
  facet normal 0 0 1
    outer loop
      vertex -30.6657 -25.9017 10.5
      vertex -34 -26.5 10.5
      vertex -33.9591 -26.9938 10.5
    endloop
  endfacet
  facet normal -0 0 1
    outer loop
      vertex -33.6384 27.9278 10.5
      vertex -30.6657 25.9017 10.5
      vertex -33.3674 28.3426 10.5
    endloop
  endfacet
  facet normal 0 0 1
    outer loop
      vertex -30.3024 -26.241 10.5
      vertex -31.7365 -29.4082 10.5
      vertex -31.2477 -29.4898 10.5
    endloop
  endfacet
  facet normal -0 0 1
    outer loop
      vertex -33.8375 27.4741 10.5
      vertex -30.6657 25.9017 10.5
      vertex -33.6384 27.9278 10.5
    endloop
  endfacet
  facet normal 0 0 1
    outer loop
      vertex -30.3024 -26.241 10.5
      vertex -32.2051 -29.2473 10.5
      vertex -31.7365 -29.4082 10.5
    endloop
  endfacet
  facet normal -0 0 1
    outer loop
      vertex -33.9591 26.9938 10.5
      vertex -30.6657 25.9017 10.5
      vertex -33.8375 27.4741 10.5
    endloop
  endfacet
  facet normal 0 0 1
    outer loop
      vertex -30.3024 -26.241 10.5
      vertex -32.6408 -29.0115 10.5
      vertex -32.2051 -29.2473 10.5
    endloop
  endfacet
  facet normal -0 0 1
    outer loop
      vertex -34 26.5 10.5
      vertex -30.6657 25.9017 10.5
      vertex -33.9591 26.9938 10.5
    endloop
  endfacet
  facet normal 0 0 1
    outer loop
      vertex -30.3024 -26.241 10.5
      vertex -33.0318 -28.7072 10.5
      vertex -32.6408 -29.0115 10.5
    endloop
  endfacet
  facet normal 0 0 1
    outer loop
      vertex -30.6657 25.9017 10.5
      vertex -34 26.5 10.5
      vertex -30.9239 25.4771 10.5
    endloop
  endfacet
  facet normal 0 0 1
    outer loop
      vertex -30.6657 -25.9017 10.5
      vertex -33.3674 -28.3426 10.5
      vertex -33.0318 -28.7072 10.5
    endloop
  endfacet
  facet normal 0 0 1
    outer loop
      vertex -30.9239 25.4771 10.5
      vertex -34 26.5 10.5
      vertex -31.058 24.9985 10.5
    endloop
  endfacet
  facet normal 0 0 1
    outer loop
      vertex -30.6657 -25.9017 10.5
      vertex -33.6384 -27.9278 10.5
      vertex -33.3674 -28.3426 10.5
    endloop
  endfacet
  facet normal 0 0 1
    outer loop
      vertex -30.6657 -25.9017 10.5
      vertex -33.8375 -27.4741 10.5
      vertex -33.6384 -27.9278 10.5
    endloop
  endfacet
  facet normal 0 0 1
    outer loop
      vertex -30.6657 -25.9017 10.5
      vertex -33.9591 -26.9938 10.5
      vertex -33.8375 -27.4741 10.5
    endloop
  endfacet
  facet normal 0 1 -0
    outer loop
      vertex 31.2477 29.4898 7.5
      vertex -31.2477 29.4898 10.5
      vertex 31.2477 29.4898 10.5
    endloop
  endfacet
  facet normal 0 1 0
    outer loop
      vertex -31.2477 29.4898 10.5
      vertex 31.2477 29.4898 7.5
      vertex -31.2477 29.4898 7.5
    endloop
  endfacet
  facet normal -0.475943 0.879476 0
    outer loop
      vertex -32.2051 29.2473 7.5
      vertex -32.6408 29.0115 10.5
      vertex -32.2051 29.2473 10.5
    endloop
  endfacet
  facet normal -0.475943 0.879476 0
    outer loop
      vertex -32.6408 29.0115 10.5
      vertex -32.2051 29.2473 7.5
      vertex -32.6408 29.0115 7.5
    endloop
  endfacet
  facet normal 0 -1 0
    outer loop
      vertex -31.2477 -29.4898 7.5
      vertex 31.2477 -29.4898 10.5
      vertex -31.2477 -29.4898 10.5
    endloop
  endfacet
  facet normal 0 -1 -0
    outer loop
      vertex 31.2477 -29.4898 10.5
      vertex -31.2477 -29.4898 7.5
      vertex 31.2477 -29.4898 7.5
    endloop
  endfacet
  facet normal -0.996584 0.0825803 0
    outer loop
      vertex -34 26.5 7.5
      vertex -33.9591 26.9938 10.5
      vertex -33.9591 26.9938 7.5
    endloop
  endfacet
  facet normal -0.996584 0.0825803 0
    outer loop
      vertex -33.9591 26.9938 10.5
      vertex -34 26.5 7.5
      vertex -34 26.5 10.5
    endloop
  endfacet
  facet normal 0.614213 0.78914 -0
    outer loop
      vertex 33.0318 28.7072 7.5
      vertex 32.6408 29.0115 10.5
      vertex 33.0318 28.7072 10.5
    endloop
  endfacet
  facet normal 0.614213 0.78914 0
    outer loop
      vertex 32.6408 29.0115 10.5
      vertex 33.0318 28.7072 7.5
      vertex 32.6408 29.0115 7.5
    endloop
  endfacet
  facet normal -0.735726 -0.677279 0
    outer loop
      vertex -33.0318 -28.7072 7.5
      vertex -33.3674 -28.3426 10.5
      vertex -33.3674 -28.3426 7.5
    endloop
  endfacet
  facet normal -0.735726 -0.677279 0
    outer loop
      vertex -33.3674 -28.3426 10.5
      vertex -33.0318 -28.7072 7.5
      vertex -33.0318 -28.7072 10.5
    endloop
  endfacet
  facet normal 0 0 -1
    outer loop
      vertex -28.0043 -23.4162 7.5
      vertex 27.8343 -23.5983 7.5
      vertex -27.6907 -23.8018 7.5
    endloop
  endfacet
  facet normal 0 0 -1
    outer loop
      vertex 27.8343 23.5983 7.5
      vertex -27.4927 24.2576 7.5
      vertex -27.425 24.75 7.5
    endloop
  endfacet
  facet normal 0 0 -1
    outer loop
      vertex 27.8343 -23.5983 7.5
      vertex -28.0043 -23.4162 7.5
      vertex 27.8343 23.5983 7.5
    endloop
  endfacet
  facet normal 0 0 -1
    outer loop
      vertex 27.8343 23.5983 7.5
      vertex -27.6907 23.8018 7.5
      vertex -27.4927 24.2576 7.5
    endloop
  endfacet
  facet normal 0 0 -1
    outer loop
      vertex -28.0043 23.4162 7.5
      vertex 27.8343 23.5983 7.5
      vertex -28.0043 -23.4162 7.5
    endloop
  endfacet
  facet normal -0 0 -1
    outer loop
      vertex 27.8343 23.5983 7.5
      vertex -28.0043 23.4162 7.5
      vertex -27.6907 23.8018 7.5
    endloop
  endfacet
  facet normal 0 0 -1
    outer loop
      vertex -28.4104 -23.1296 7.5
      vertex -28.0043 23.4162 7.5
      vertex -28.0043 -23.4162 7.5
    endloop
  endfacet
  facet normal 0 0 -1
    outer loop
      vertex -28.4104 -23.1296 7.5
      vertex -28.4104 23.1296 7.5
      vertex -28.0043 23.4162 7.5
    endloop
  endfacet
  facet normal 0 0 -1
    outer loop
      vertex -28.8787 -22.9632 7.5
      vertex -28.4104 23.1296 7.5
      vertex -28.4104 -23.1296 7.5
    endloop
  endfacet
  facet normal 0 0 -1
    outer loop
      vertex -28.8787 -22.9632 7.5
      vertex -28.8787 22.9632 7.5
      vertex -28.4104 23.1296 7.5
    endloop
  endfacet
  facet normal 0 0 -1
    outer loop
      vertex -29.3745 -22.9293 7.5
      vertex -28.8787 22.9632 7.5
      vertex -28.8787 -22.9632 7.5
    endloop
  endfacet
  facet normal 0 0 -1
    outer loop
      vertex -29.3745 -22.9293 7.5
      vertex -29.3745 22.9293 7.5
      vertex -28.8787 22.9632 7.5
    endloop
  endfacet
  facet normal 0 0 -1
    outer loop
      vertex -29.8612 -23.0304 7.5
      vertex -29.3745 22.9293 7.5
      vertex -29.3745 -22.9293 7.5
    endloop
  endfacet
  facet normal 0 0 -1
    outer loop
      vertex -29.8612 -23.0304 7.5
      vertex -29.8612 23.0304 7.5
      vertex -29.3745 22.9293 7.5
    endloop
  endfacet
  facet normal 0 0 -1
    outer loop
      vertex -30.3024 -23.259 7.5
      vertex -29.8612 23.0304 7.5
      vertex -29.8612 -23.0304 7.5
    endloop
  endfacet
  facet normal 0 0 -1
    outer loop
      vertex -30.3024 -23.259 7.5
      vertex -30.3024 23.259 7.5
      vertex -29.8612 23.0304 7.5
    endloop
  endfacet
  facet normal 0 0 -1
    outer loop
      vertex -30.6657 -23.5983 7.5
      vertex -30.3024 23.259 7.5
      vertex -30.3024 -23.259 7.5
    endloop
  endfacet
  facet normal 0 0 -1
    outer loop
      vertex -30.6657 -23.5983 7.5
      vertex -30.6657 23.5983 7.5
      vertex -30.3024 23.259 7.5
    endloop
  endfacet
  facet normal 0 0 -1
    outer loop
      vertex -34 -26.5 7.5
      vertex -30.6657 -23.5983 7.5
      vertex -30.9239 -24.0229 7.5
    endloop
  endfacet
  facet normal -0 0 -1
    outer loop
      vertex -30.6657 -23.5983 7.5
      vertex -34 -26.5 7.5
      vertex -30.6657 23.5983 7.5
    endloop
  endfacet
  facet normal 0 0 -1
    outer loop
      vertex -34 -26.5 7.5
      vertex -30.9239 -24.0229 7.5
      vertex -31.058 -24.5015 7.5
    endloop
  endfacet
  facet normal 0 0 -1
    outer loop
      vertex -34 26.5 7.5
      vertex -30.6657 23.5983 7.5
      vertex -34 -26.5 7.5
    endloop
  endfacet
  facet normal 0 0 -1
    outer loop
      vertex 30.4957 -23.4162 7.5
      vertex 34 -26.5 7.5
      vertex 30.8093 -23.8018 7.5
    endloop
  endfacet
  facet normal 0 0 -1
    outer loop
      vertex 34 26.5 7.5
      vertex 31.0073 24.2576 7.5
      vertex 31.075 24.75 7.5
    endloop
  endfacet
  facet normal 0 0 -1
    outer loop
      vertex 34 -26.5 7.5
      vertex 30.4957 -23.4162 7.5
      vertex 34 26.5 7.5
    endloop
  endfacet
  facet normal 0 0 -1
    outer loop
      vertex 34 26.5 7.5
      vertex 30.8093 23.8018 7.5
      vertex 31.0073 24.2576 7.5
    endloop
  endfacet
  facet normal 0 0 -1
    outer loop
      vertex 30.4957 23.4162 7.5
      vertex 34 26.5 7.5
      vertex 30.4957 -23.4162 7.5
    endloop
  endfacet
  facet normal 0 0 -1
    outer loop
      vertex 34 26.5 7.5
      vertex 30.4957 23.4162 7.5
      vertex 30.8093 23.8018 7.5
    endloop
  endfacet
  facet normal 0 0 -1
    outer loop
      vertex 30.0896 -23.1296 7.5
      vertex 30.4957 23.4162 7.5
      vertex 30.4957 -23.4162 7.5
    endloop
  endfacet
  facet normal 0 0 -1
    outer loop
      vertex 30.0896 -23.1296 7.5
      vertex 30.0896 23.1296 7.5
      vertex 30.4957 23.4162 7.5
    endloop
  endfacet
  facet normal 0 0 -1
    outer loop
      vertex 29.6213 -22.9632 7.5
      vertex 30.0896 23.1296 7.5
      vertex 30.0896 -23.1296 7.5
    endloop
  endfacet
  facet normal 0 0 -1
    outer loop
      vertex 29.6213 -22.9632 7.5
      vertex 29.6213 22.9632 7.5
      vertex 30.0896 23.1296 7.5
    endloop
  endfacet
  facet normal 0 0 -1
    outer loop
      vertex 29.1255 -22.9293 7.5
      vertex 29.6213 22.9632 7.5
      vertex 29.6213 -22.9632 7.5
    endloop
  endfacet
  facet normal 0 0 -1
    outer loop
      vertex 29.1255 -22.9293 7.5
      vertex 29.1255 22.9293 7.5
      vertex 29.6213 22.9632 7.5
    endloop
  endfacet
  facet normal 0 0 -1
    outer loop
      vertex 28.6388 -23.0304 7.5
      vertex 29.1255 22.9293 7.5
      vertex 29.1255 -22.9293 7.5
    endloop
  endfacet
  facet normal 0 0 -1
    outer loop
      vertex 28.6388 -23.0304 7.5
      vertex 28.6388 23.0304 7.5
      vertex 29.1255 22.9293 7.5
    endloop
  endfacet
  facet normal 0 0 -1
    outer loop
      vertex 28.1976 -23.259 7.5
      vertex 28.6388 23.0304 7.5
      vertex 28.6388 -23.0304 7.5
    endloop
  endfacet
  facet normal 0 0 -1
    outer loop
      vertex 28.1976 -23.259 7.5
      vertex 28.1976 23.259 7.5
      vertex 28.6388 23.0304 7.5
    endloop
  endfacet
  facet normal 0 0 -1
    outer loop
      vertex 27.8343 -23.5983 7.5
      vertex 28.1976 23.259 7.5
      vertex 28.1976 -23.259 7.5
    endloop
  endfacet
  facet normal 0 0 -1
    outer loop
      vertex 27.8343 -23.5983 7.5
      vertex 27.8343 23.5983 7.5
      vertex 28.1976 23.259 7.5
    endloop
  endfacet
  facet normal 0 0 -1
    outer loop
      vertex 27.442 -24.5015 7.5
      vertex -27.4927 -24.2576 7.5
      vertex 27.5761 -24.0229 7.5
    endloop
  endfacet
  facet normal 0 0 -1
    outer loop
      vertex -27.6907 -23.8018 7.5
      vertex 27.5761 -24.0229 7.5
      vertex -27.4927 -24.2576 7.5
    endloop
  endfacet
  facet normal 0 0 -1
    outer loop
      vertex -27.4927 -24.2576 7.5
      vertex 27.442 -24.5015 7.5
      vertex -27.425 -24.75 7.5
    endloop
  endfacet
  facet normal 0 0 -1
    outer loop
      vertex 27.5761 -24.0229 7.5
      vertex -27.6907 -23.8018 7.5
      vertex 27.8343 -23.5983 7.5
    endloop
  endfacet
  facet normal 0 0 -1
    outer loop
      vertex 30.8093 -25.6982 7.5
      vertex 34 -26.5 7.5
      vertex 33.9591 -26.9938 7.5
    endloop
  endfacet
  facet normal 0 0 -1
    outer loop
      vertex 31.0073 -24.2576 7.5
      vertex 34 -26.5 7.5
      vertex 31.075 -24.75 7.5
    endloop
  endfacet
  facet normal 0 0 -1
    outer loop
      vertex 30.8093 -25.6982 7.5
      vertex 33.9591 -26.9938 7.5
      vertex 33.8375 -27.4741 7.5
    endloop
  endfacet
  facet normal 0 0 -1
    outer loop
      vertex 30.8093 -23.8018 7.5
      vertex 34 -26.5 7.5
      vertex 31.0073 -24.2576 7.5
    endloop
  endfacet
  facet normal 0 0 -1
    outer loop
      vertex 30.8093 -25.6982 7.5
      vertex 33.8375 -27.4741 7.5
      vertex 33.6384 -27.9278 7.5
    endloop
  endfacet
  facet normal 0 0 -1
    outer loop
      vertex 31.0073 25.2424 7.5
      vertex 34 26.5 7.5
      vertex 31.075 24.75 7.5
    endloop
  endfacet
  facet normal 0 0 -1
    outer loop
      vertex 30.4957 -26.0838 7.5
      vertex 33.6384 -27.9278 7.5
      vertex 33.3674 -28.3426 7.5
    endloop
  endfacet
  facet normal 0 0 -1
    outer loop
      vertex 30.8093 25.6982 7.5
      vertex 34 26.5 7.5
      vertex 31.0073 25.2424 7.5
    endloop
  endfacet
  facet normal 0 0 -1
    outer loop
      vertex 30.4957 -26.0838 7.5
      vertex 33.3674 -28.3426 7.5
      vertex 33.0318 -28.7072 7.5
    endloop
  endfacet
  facet normal -0 0 -1
    outer loop
      vertex 34 26.5 7.5
      vertex 30.8093 25.6982 7.5
      vertex 33.9591 26.9938 7.5
    endloop
  endfacet
  facet normal 0 0 -1
    outer loop
      vertex 30.4957 -26.0838 7.5
      vertex 33.0318 -28.7072 7.5
      vertex 32.6408 -29.0115 7.5
    endloop
  endfacet
  facet normal -0 0 -1
    outer loop
      vertex 33.9591 26.9938 7.5
      vertex 30.8093 25.6982 7.5
      vertex 33.8375 27.4741 7.5
    endloop
  endfacet
  facet normal 0 0 -1
    outer loop
      vertex 30.4957 -26.0838 7.5
      vertex 32.6408 -29.0115 7.5
      vertex 32.2051 -29.2473 7.5
    endloop
  endfacet
  facet normal -0 0 -1
    outer loop
      vertex 33.8375 27.4741 7.5
      vertex 30.8093 25.6982 7.5
      vertex 33.6384 27.9278 7.5
    endloop
  endfacet
  facet normal 0 0 -1
    outer loop
      vertex 30.4957 -26.0838 7.5
      vertex 32.2051 -29.2473 7.5
      vertex 31.7365 -29.4082 7.5
    endloop
  endfacet
  facet normal 0 0 -1
    outer loop
      vertex 30.4957 26.0838 7.5
      vertex 33.6384 27.9278 7.5
      vertex 30.8093 25.6982 7.5
    endloop
  endfacet
  facet normal 0 0 -1
    outer loop
      vertex 30.0896 -26.3704 7.5
      vertex 31.7365 -29.4082 7.5
      vertex 31.2477 -29.4898 7.5
    endloop
  endfacet
  facet normal -0 0 -1
    outer loop
      vertex 33.6384 27.9278 7.5
      vertex 30.4957 26.0838 7.5
      vertex 33.3674 28.3426 7.5
    endloop
  endfacet
  facet normal -0 0 -1
    outer loop
      vertex 33.3674 28.3426 7.5
      vertex 30.4957 26.0838 7.5
      vertex 33.0318 28.7072 7.5
    endloop
  endfacet
  facet normal 0 0 -1
    outer loop
      vertex 34 -26.5 7.5
      vertex 31.0073 -25.2424 7.5
      vertex 31.075 -24.75 7.5
    endloop
  endfacet
  facet normal 0 0 -1
    outer loop
      vertex 34 -26.5 7.5
      vertex 30.8093 -25.6982 7.5
      vertex 31.0073 -25.2424 7.5
    endloop
  endfacet
  facet normal 0 0 -1
    outer loop
      vertex 33.6384 -27.9278 7.5
      vertex 30.4957 -26.0838 7.5
      vertex 30.8093 -25.6982 7.5
    endloop
  endfacet
  facet normal 0 0 -1
    outer loop
      vertex 31.7365 -29.4082 7.5
      vertex 30.0896 -26.3704 7.5
      vertex 30.4957 -26.0838 7.5
    endloop
  endfacet
  facet normal 0 0 -1
    outer loop
      vertex 31.2477 -29.4898 7.5
      vertex 29.6213 -26.5368 7.5
      vertex 30.0896 -26.3704 7.5
    endloop
  endfacet
  facet normal 0 0 -1
    outer loop
      vertex 31.2477 -29.4898 7.5
      vertex 29.1255 -26.5707 7.5
      vertex 29.6213 -26.5368 7.5
    endloop
  endfacet
  facet normal 0 0 -1
    outer loop
      vertex 31.2477 -29.4898 7.5
      vertex 28.6388 -26.4696 7.5
      vertex 29.1255 -26.5707 7.5
    endloop
  endfacet
  facet normal 0 0 -1
    outer loop
      vertex 31.2477 -29.4898 7.5
      vertex 28.1976 -26.241 7.5
      vertex 28.6388 -26.4696 7.5
    endloop
  endfacet
  facet normal 0 0 -1
    outer loop
      vertex 31.2477 -29.4898 7.5
      vertex 27.8343 -25.9017 7.5
      vertex 28.1976 -26.241 7.5
    endloop
  endfacet
  facet normal 0 0 -1
    outer loop
      vertex -27.425 -24.75 7.5
      vertex 27.442 -24.5015 7.5
      vertex 27.442 -24.9985 7.5
    endloop
  endfacet
  facet normal 0 0 -1
    outer loop
      vertex 27.8343 23.5983 7.5
      vertex -27.425 24.75 7.5
      vertex 27.5761 24.0229 7.5
    endloop
  endfacet
  facet normal 0 0 -1
    outer loop
      vertex 27.5761 24.0229 7.5
      vertex -27.425 24.75 7.5
      vertex 27.442 24.5015 7.5
    endloop
  endfacet
  facet normal 0 0 -1
    outer loop
      vertex -27.4927 -25.2424 7.5
      vertex 27.442 -24.9985 7.5
      vertex 27.5761 -25.4771 7.5
    endloop
  endfacet
  facet normal 0 0 -1
    outer loop
      vertex -27.6907 -25.6982 7.5
      vertex 27.5761 -25.4771 7.5
      vertex 27.8343 -25.9017 7.5
    endloop
  endfacet
  facet normal 0 0 -1
    outer loop
      vertex -28.0043 -26.0838 7.5
      vertex 27.8343 -25.9017 7.5
      vertex 31.2477 -29.4898 7.5
    endloop
  endfacet
  facet normal -0 0 -1
    outer loop
      vertex 27.442 -24.9985 7.5
      vertex -27.4927 -25.2424 7.5
      vertex -27.425 -24.75 7.5
    endloop
  endfacet
  facet normal -0 0 -1
    outer loop
      vertex 27.5761 -25.4771 7.5
      vertex -27.6907 -25.6982 7.5
      vertex -27.4927 -25.2424 7.5
    endloop
  endfacet
  facet normal -0 0 -1
    outer loop
      vertex 27.8343 -25.9017 7.5
      vertex -28.0043 -26.0838 7.5
      vertex -27.6907 -25.6982 7.5
    endloop
  endfacet
  facet normal 0 0 -1
    outer loop
      vertex -31.2477 -29.4898 7.5
      vertex -28.0043 -26.0838 7.5
      vertex 31.2477 -29.4898 7.5
    endloop
  endfacet
  facet normal 0 0 -1
    outer loop
      vertex -28.0043 -26.0838 7.5
      vertex -31.2477 -29.4898 7.5
      vertex -28.4104 -26.3704 7.5
    endloop
  endfacet
  facet normal 0 0 -1
    outer loop
      vertex -28.4104 -26.3704 7.5
      vertex -31.2477 -29.4898 7.5
      vertex -28.8787 -26.5368 7.5
    endloop
  endfacet
  facet normal 0 0 -1
    outer loop
      vertex -34 -26.5 7.5
      vertex -31.058 -24.5015 7.5
      vertex -31.058 -24.9985 7.5
    endloop
  endfacet
  facet normal 0 0 -1
    outer loop
      vertex -30.6657 23.5983 7.5
      vertex -34 26.5 7.5
      vertex -30.9239 24.0229 7.5
    endloop
  endfacet
  facet normal 0 0 -1
    outer loop
      vertex -33.0318 -28.7072 7.5
      vertex -30.3024 -26.241 7.5
      vertex -32.6408 -29.0115 7.5
    endloop
  endfacet
  facet normal 0 0 -1
    outer loop
      vertex -32.6408 -29.0115 7.5
      vertex -30.3024 -26.241 7.5
      vertex -32.2051 -29.2473 7.5
    endloop
  endfacet
  facet normal 0 0 -1
    outer loop
      vertex -32.2051 -29.2473 7.5
      vertex -30.3024 -26.241 7.5
      vertex -31.7365 -29.4082 7.5
    endloop
  endfacet
  facet normal 0 0 -1
    outer loop
      vertex -31.7365 -29.4082 7.5
      vertex -30.3024 -26.241 7.5
      vertex -31.2477 -29.4898 7.5
    endloop
  endfacet
  facet normal -0 0 -1
    outer loop
      vertex -29.8612 -26.4696 7.5
      vertex -31.2477 -29.4898 7.5
      vertex -30.3024 -26.241 7.5
    endloop
  endfacet
  facet normal -0 0 -1
    outer loop
      vertex -29.3745 -26.5707 7.5
      vertex -31.2477 -29.4898 7.5
      vertex -29.8612 -26.4696 7.5
    endloop
  endfacet
  facet normal 0 0 -1
    outer loop
      vertex -28.8787 -26.5368 7.5
      vertex -31.2477 -29.4898 7.5
      vertex -29.3745 -26.5707 7.5
    endloop
  endfacet
  facet normal -0 0 -1
    outer loop
      vertex 33.0318 28.7072 7.5
      vertex 30.4957 26.0838 7.5
      vertex 32.6408 29.0115 7.5
    endloop
  endfacet
  facet normal -0 0 -1
    outer loop
      vertex 32.6408 29.0115 7.5
      vertex 30.4957 26.0838 7.5
      vertex 32.2051 29.2473 7.5
    endloop
  endfacet
  facet normal -0 0 -1
    outer loop
      vertex 32.2051 29.2473 7.5
      vertex 30.4957 26.0838 7.5
      vertex 31.7365 29.4082 7.5
    endloop
  endfacet
  facet normal 0 0 -1
    outer loop
      vertex 30.0896 26.3704 7.5
      vertex 31.7365 29.4082 7.5
      vertex 30.4957 26.0838 7.5
    endloop
  endfacet
  facet normal -0 0 -1
    outer loop
      vertex 31.7365 29.4082 7.5
      vertex 30.0896 26.3704 7.5
      vertex 31.2477 29.4898 7.5
    endloop
  endfacet
  facet normal 0 0 -1
    outer loop
      vertex 29.6213 26.5368 7.5
      vertex 31.2477 29.4898 7.5
      vertex 30.0896 26.3704 7.5
    endloop
  endfacet
  facet normal 0 0 -1
    outer loop
      vertex 29.1255 26.5707 7.5
      vertex 31.2477 29.4898 7.5
      vertex 29.6213 26.5368 7.5
    endloop
  endfacet
  facet normal 0 0 -1
    outer loop
      vertex 28.6388 26.4696 7.5
      vertex 31.2477 29.4898 7.5
      vertex 29.1255 26.5707 7.5
    endloop
  endfacet
  facet normal 0 0 -1
    outer loop
      vertex 28.1976 26.241 7.5
      vertex 31.2477 29.4898 7.5
      vertex 28.6388 26.4696 7.5
    endloop
  endfacet
  facet normal 0 0 -1
    outer loop
      vertex 27.8343 25.9017 7.5
      vertex 31.2477 29.4898 7.5
      vertex 28.1976 26.241 7.5
    endloop
  endfacet
  facet normal 0 0 -1
    outer loop
      vertex 27.442 24.5015 7.5
      vertex -27.425 24.75 7.5
      vertex 27.442 24.9985 7.5
    endloop
  endfacet
  facet normal 0 0 -1
    outer loop
      vertex -27.4927 25.2424 7.5
      vertex 27.442 24.9985 7.5
      vertex -27.425 24.75 7.5
    endloop
  endfacet
  facet normal 0 0 -1
    outer loop
      vertex 27.442 24.9985 7.5
      vertex -27.4927 25.2424 7.5
      vertex 27.5761 25.4771 7.5
    endloop
  endfacet
  facet normal 0 0 -1
    outer loop
      vertex -27.6907 25.6982 7.5
      vertex 27.5761 25.4771 7.5
      vertex -27.4927 25.2424 7.5
    endloop
  endfacet
  facet normal 0 0 -1
    outer loop
      vertex 27.5761 25.4771 7.5
      vertex -27.6907 25.6982 7.5
      vertex 27.8343 25.9017 7.5
    endloop
  endfacet
  facet normal 0 0 -1
    outer loop
      vertex -28.0043 26.0838 7.5
      vertex 27.8343 25.9017 7.5
      vertex -27.6907 25.6982 7.5
    endloop
  endfacet
  facet normal 0 0 -1
    outer loop
      vertex 27.8343 25.9017 7.5
      vertex -28.0043 26.0838 7.5
      vertex 31.2477 29.4898 7.5
    endloop
  endfacet
  facet normal 0 0 -1
    outer loop
      vertex -31.2477 29.4898 7.5
      vertex -28.0043 26.0838 7.5
      vertex -28.4104 26.3704 7.5
    endloop
  endfacet
  facet normal 0 0 -1
    outer loop
      vertex -31.2477 29.4898 7.5
      vertex -28.4104 26.3704 7.5
      vertex -28.8787 26.5368 7.5
    endloop
  endfacet
  facet normal 0 0 -1
    outer loop
      vertex -31.2477 29.4898 7.5
      vertex -28.8787 26.5368 7.5
      vertex -29.3745 26.5707 7.5
    endloop
  endfacet
  facet normal 0 0 -1
    outer loop
      vertex -28.0043 26.0838 7.5
      vertex -31.2477 29.4898 7.5
      vertex 31.2477 29.4898 7.5
    endloop
  endfacet
  facet normal 0 0 -1
    outer loop
      vertex -29.8612 26.4696 7.5
      vertex -31.2477 29.4898 7.5
      vertex -29.3745 26.5707 7.5
    endloop
  endfacet
  facet normal 0 0 -1
    outer loop
      vertex -30.3024 26.241 7.5
      vertex -31.2477 29.4898 7.5
      vertex -29.8612 26.4696 7.5
    endloop
  endfacet
  facet normal 0 0 -1
    outer loop
      vertex -33.0318 28.7072 7.5
      vertex -30.3024 26.241 7.5
      vertex -30.6657 25.9017 7.5
    endloop
  endfacet
  facet normal 0 0 -1
    outer loop
      vertex -34 26.5 7.5
      vertex -30.6657 25.9017 7.5
      vertex -30.9239 25.4771 7.5
    endloop
  endfacet
  facet normal 0 0 -1
    outer loop
      vertex -34 26.5 7.5
      vertex -30.9239 25.4771 7.5
      vertex -31.058 24.9985 7.5
    endloop
  endfacet
  facet normal 0 0 -1
    outer loop
      vertex -30.9239 24.0229 7.5
      vertex -34 26.5 7.5
      vertex -31.058 24.5015 7.5
    endloop
  endfacet
  facet normal -0 0 -1
    outer loop
      vertex -30.3024 -26.241 7.5
      vertex -33.0318 -28.7072 7.5
      vertex -30.6657 -25.9017 7.5
    endloop
  endfacet
  facet normal 0 0 -1
    outer loop
      vertex -31.058 24.5015 7.5
      vertex -34 26.5 7.5
      vertex -31.058 24.9985 7.5
    endloop
  endfacet
  facet normal 0 0 -1
    outer loop
      vertex -33.3674 -28.3426 7.5
      vertex -30.6657 -25.9017 7.5
      vertex -33.0318 -28.7072 7.5
    endloop
  endfacet
  facet normal 0 0 -1
    outer loop
      vertex -30.6657 25.9017 7.5
      vertex -34 26.5 7.5
      vertex -33.9591 26.9938 7.5
    endloop
  endfacet
  facet normal 0 0 -1
    outer loop
      vertex -33.6384 -27.9278 7.5
      vertex -30.6657 -25.9017 7.5
      vertex -33.3674 -28.3426 7.5
    endloop
  endfacet
  facet normal 0 0 -1
    outer loop
      vertex -30.3024 26.241 7.5
      vertex -31.7365 29.4082 7.5
      vertex -31.2477 29.4898 7.5
    endloop
  endfacet
  facet normal 0 0 -1
    outer loop
      vertex -33.8375 -27.4741 7.5
      vertex -30.6657 -25.9017 7.5
      vertex -33.6384 -27.9278 7.5
    endloop
  endfacet
  facet normal 0 0 -1
    outer loop
      vertex -30.3024 26.241 7.5
      vertex -32.2051 29.2473 7.5
      vertex -31.7365 29.4082 7.5
    endloop
  endfacet
  facet normal 0 0 -1
    outer loop
      vertex -33.9591 -26.9938 7.5
      vertex -30.6657 -25.9017 7.5
      vertex -33.8375 -27.4741 7.5
    endloop
  endfacet
  facet normal 0 0 -1
    outer loop
      vertex -30.3024 26.241 7.5
      vertex -32.6408 29.0115 7.5
      vertex -32.2051 29.2473 7.5
    endloop
  endfacet
  facet normal 0 0 -1
    outer loop
      vertex -34 -26.5 7.5
      vertex -30.6657 -25.9017 7.5
      vertex -33.9591 -26.9938 7.5
    endloop
  endfacet
  facet normal 0 0 -1
    outer loop
      vertex -30.3024 26.241 7.5
      vertex -33.0318 28.7072 7.5
      vertex -32.6408 29.0115 7.5
    endloop
  endfacet
  facet normal -0 0 -1
    outer loop
      vertex -30.6657 -25.9017 7.5
      vertex -34 -26.5 7.5
      vertex -30.9239 -25.4771 7.5
    endloop
  endfacet
  facet normal 0 0 -1
    outer loop
      vertex -30.6657 25.9017 7.5
      vertex -33.3674 28.3426 7.5
      vertex -33.0318 28.7072 7.5
    endloop
  endfacet
  facet normal -0 0 -1
    outer loop
      vertex -30.9239 -25.4771 7.5
      vertex -34 -26.5 7.5
      vertex -31.058 -24.9985 7.5
    endloop
  endfacet
  facet normal 0 0 -1
    outer loop
      vertex -30.6657 25.9017 7.5
      vertex -33.6384 27.9278 7.5
      vertex -33.3674 28.3426 7.5
    endloop
  endfacet
  facet normal 0 0 -1
    outer loop
      vertex -30.6657 25.9017 7.5
      vertex -33.8375 27.4741 7.5
      vertex -33.6384 27.9278 7.5
    endloop
  endfacet
  facet normal 0 0 -1
    outer loop
      vertex -30.6657 25.9017 7.5
      vertex -33.9591 26.9938 7.5
      vertex -33.8375 27.4741 7.5
    endloop
  endfacet
  facet normal -0.837167 0.546948 0
    outer loop
      vertex -33.6384 27.9278 7.5
      vertex -33.3674 28.3426 10.5
      vertex -33.3674 28.3426 7.5
    endloop
  endfacet
  facet normal -0.837167 0.546948 0
    outer loop
      vertex -33.3674 28.3426 10.5
      vertex -33.6384 27.9278 7.5
      vertex -33.6384 27.9278 10.5
    endloop
  endfacet
  facet normal 0.164598 0.986361 -0
    outer loop
      vertex 31.7365 29.4082 7.5
      vertex 31.2477 29.4898 10.5
      vertex 31.7365 29.4082 10.5
    endloop
  endfacet
  facet normal 0.164598 0.986361 0
    outer loop
      vertex 31.2477 29.4898 10.5
      vertex 31.7365 29.4082 7.5
      vertex 31.2477 29.4898 7.5
    endloop
  endfacet
  facet normal 1 -0 0
    outer loop
      vertex 34 -26.5 10.5
      vertex 34 26.5 7.5
      vertex 34 26.5 10.5
    endloop
  endfacet
  facet normal 1 0 0
    outer loop
      vertex 34 26.5 7.5
      vertex 34 -26.5 10.5
      vertex 34 -26.5 7.5
    endloop
  endfacet
  facet normal -0.164598 -0.986361 0
    outer loop
      vertex -31.7365 -29.4082 7.5
      vertex -31.2477 -29.4898 10.5
      vertex -31.7365 -29.4082 10.5
    endloop
  endfacet
  facet normal -0.164598 -0.986361 -0
    outer loop
      vertex -31.2477 -29.4898 10.5
      vertex -31.7365 -29.4082 7.5
      vertex -31.2477 -29.4898 7.5
    endloop
  endfacet
  facet normal -0.915772 -0.401698 0
    outer loop
      vertex -33.6384 -27.9278 7.5
      vertex -33.8375 -27.4741 10.5
      vertex -33.8375 -27.4741 7.5
    endloop
  endfacet
  facet normal -0.915772 -0.401698 0
    outer loop
      vertex -33.8375 -27.4741 10.5
      vertex -33.6384 -27.9278 7.5
      vertex -33.6384 -27.9278 10.5
    endloop
  endfacet
  facet normal -0.837167 -0.546948 0
    outer loop
      vertex -33.3674 -28.3426 7.5
      vertex -33.6384 -27.9278 10.5
      vertex -33.6384 -27.9278 7.5
    endloop
  endfacet
  facet normal -0.837167 -0.546948 0
    outer loop
      vertex -33.6384 -27.9278 10.5
      vertex -33.3674 -28.3426 7.5
      vertex -33.3674 -28.3426 10.5
    endloop
  endfacet
  facet normal -0.969401 0.245484 0
    outer loop
      vertex -33.9591 26.9938 7.5
      vertex -33.8375 27.4741 10.5
      vertex -33.8375 27.4741 7.5
    endloop
  endfacet
  facet normal -0.969401 0.245484 0
    outer loop
      vertex -33.8375 27.4741 10.5
      vertex -33.9591 26.9938 7.5
      vertex -33.9591 26.9938 10.5
    endloop
  endfacet
  facet normal -0.915772 0.401698 0
    outer loop
      vertex -33.8375 27.4741 7.5
      vertex -33.6384 27.9278 10.5
      vertex -33.6384 27.9278 7.5
    endloop
  endfacet
  facet normal -0.915772 0.401698 0
    outer loop
      vertex -33.6384 27.9278 10.5
      vertex -33.8375 27.4741 7.5
      vertex -33.8375 27.4741 10.5
    endloop
  endfacet
  facet normal -0.735726 0.677279 0
    outer loop
      vertex -33.3674 28.3426 7.5
      vertex -33.0318 28.7072 10.5
      vertex -33.0318 28.7072 7.5
    endloop
  endfacet
  facet normal -0.735726 0.677279 0
    outer loop
      vertex -33.0318 28.7072 10.5
      vertex -33.3674 28.3426 7.5
      vertex -33.3674 28.3426 10.5
    endloop
  endfacet
  facet normal -0.614213 0.78914 0
    outer loop
      vertex -32.6408 29.0115 7.5
      vertex -33.0318 28.7072 10.5
      vertex -32.6408 29.0115 10.5
    endloop
  endfacet
  facet normal -0.614213 0.78914 0
    outer loop
      vertex -33.0318 28.7072 10.5
      vertex -32.6408 29.0115 7.5
      vertex -33.0318 28.7072 7.5
    endloop
  endfacet
  facet normal -0.164598 0.986361 0
    outer loop
      vertex -31.2477 29.4898 7.5
      vertex -31.7365 29.4082 10.5
      vertex -31.2477 29.4898 10.5
    endloop
  endfacet
  facet normal -0.164598 0.986361 0
    outer loop
      vertex -31.7365 29.4082 10.5
      vertex -31.2477 29.4898 7.5
      vertex -31.7365 29.4082 7.5
    endloop
  endfacet
  facet normal 0.475943 0.879476 -0
    outer loop
      vertex 32.6408 29.0115 7.5
      vertex 32.2051 29.2473 10.5
      vertex 32.6408 29.0115 10.5
    endloop
  endfacet
  facet normal 0.475943 0.879476 0
    outer loop
      vertex 32.2051 29.2473 10.5
      vertex 32.6408 29.0115 7.5
      vertex 32.2051 29.2473 7.5
    endloop
  endfacet
  facet normal 0.3247 0.945817 -0
    outer loop
      vertex 32.2051 29.2473 7.5
      vertex 31.7365 29.4082 10.5
      vertex 32.2051 29.2473 10.5
    endloop
  endfacet
  facet normal 0.3247 0.945817 0
    outer loop
      vertex 31.7365 29.4082 10.5
      vertex 32.2051 29.2473 7.5
      vertex 31.7365 29.4082 7.5
    endloop
  endfacet
  facet normal 0.996584 -0.0825803 0
    outer loop
      vertex 33.9591 -26.9938 10.5
      vertex 34 -26.5 7.5
      vertex 34 -26.5 10.5
    endloop
  endfacet
  facet normal 0.996584 -0.0825803 0
    outer loop
      vertex 34 -26.5 7.5
      vertex 33.9591 -26.9938 10.5
      vertex 33.9591 -26.9938 7.5
    endloop
  endfacet
  facet normal -0.614213 -0.78914 0
    outer loop
      vertex -33.0318 -28.7072 7.5
      vertex -32.6408 -29.0115 10.5
      vertex -33.0318 -28.7072 10.5
    endloop
  endfacet
  facet normal -0.614213 -0.78914 -0
    outer loop
      vertex -32.6408 -29.0115 10.5
      vertex -33.0318 -28.7072 7.5
      vertex -32.6408 -29.0115 7.5
    endloop
  endfacet
  facet normal -0.969401 -0.245484 0
    outer loop
      vertex -33.8375 -27.4741 7.5
      vertex -33.9591 -26.9938 10.5
      vertex -33.9591 -26.9938 7.5
    endloop
  endfacet
  facet normal -0.969401 -0.245484 0
    outer loop
      vertex -33.9591 -26.9938 10.5
      vertex -33.8375 -27.4741 7.5
      vertex -33.8375 -27.4741 10.5
    endloop
  endfacet
  facet normal -0.996584 -0.0825803 0
    outer loop
      vertex -33.9591 -26.9938 7.5
      vertex -34 -26.5 10.5
      vertex -34 -26.5 7.5
    endloop
  endfacet
  facet normal -0.996584 -0.0825803 0
    outer loop
      vertex -34 -26.5 10.5
      vertex -33.9591 -26.9938 7.5
      vertex -33.9591 -26.9938 10.5
    endloop
  endfacet
  facet normal -0.3247 0.945817 0
    outer loop
      vertex -31.7365 29.4082 7.5
      vertex -32.2051 29.2473 10.5
      vertex -31.7365 29.4082 10.5
    endloop
  endfacet
  facet normal -0.3247 0.945817 0
    outer loop
      vertex -32.2051 29.2473 10.5
      vertex -31.7365 29.4082 7.5
      vertex -32.2051 29.2473 7.5
    endloop
  endfacet
  facet normal 0.735726 0.677279 0
    outer loop
      vertex 33.3674 28.3426 10.5
      vertex 33.0318 28.7072 7.5
      vertex 33.0318 28.7072 10.5
    endloop
  endfacet
  facet normal 0.735726 0.677279 0
    outer loop
      vertex 33.0318 28.7072 7.5
      vertex 33.3674 28.3426 10.5
      vertex 33.3674 28.3426 7.5
    endloop
  endfacet
  facet normal 0.969401 -0.245484 0
    outer loop
      vertex 33.8375 -27.4741 10.5
      vertex 33.9591 -26.9938 7.5
      vertex 33.9591 -26.9938 10.5
    endloop
  endfacet
  facet normal 0.969401 -0.245484 0
    outer loop
      vertex 33.9591 -26.9938 7.5
      vertex 33.8375 -27.4741 10.5
      vertex 33.8375 -27.4741 7.5
    endloop
  endfacet
  facet normal 0.735726 -0.677279 0
    outer loop
      vertex 33.0318 -28.7072 10.5
      vertex 33.3674 -28.3426 7.5
      vertex 33.3674 -28.3426 10.5
    endloop
  endfacet
  facet normal 0.735726 -0.677279 0
    outer loop
      vertex 33.3674 -28.3426 7.5
      vertex 33.0318 -28.7072 10.5
      vertex 33.0318 -28.7072 7.5
    endloop
  endfacet
  facet normal 0.614213 -0.78914 0
    outer loop
      vertex 32.6408 -29.0115 7.5
      vertex 33.0318 -28.7072 10.5
      vertex 32.6408 -29.0115 10.5
    endloop
  endfacet
  facet normal 0.614213 -0.78914 0
    outer loop
      vertex 33.0318 -28.7072 10.5
      vertex 32.6408 -29.0115 7.5
      vertex 33.0318 -28.7072 7.5
    endloop
  endfacet
  facet normal 0.3247 -0.945817 0
    outer loop
      vertex 31.7365 -29.4082 7.5
      vertex 32.2051 -29.2473 10.5
      vertex 31.7365 -29.4082 10.5
    endloop
  endfacet
  facet normal 0.3247 -0.945817 0
    outer loop
      vertex 32.2051 -29.2473 10.5
      vertex 31.7365 -29.4082 7.5
      vertex 32.2051 -29.2473 7.5
    endloop
  endfacet
  facet normal 0.164598 -0.986361 0
    outer loop
      vertex 31.2477 -29.4898 7.5
      vertex 31.7365 -29.4082 10.5
      vertex 31.2477 -29.4898 10.5
    endloop
  endfacet
  facet normal 0.164598 -0.986361 0
    outer loop
      vertex 31.7365 -29.4082 10.5
      vertex 31.2477 -29.4898 7.5
      vertex 31.7365 -29.4082 7.5
    endloop
  endfacet
  facet normal -0.3247 -0.945817 0
    outer loop
      vertex -32.2051 -29.2473 7.5
      vertex -31.7365 -29.4082 10.5
      vertex -32.2051 -29.2473 10.5
    endloop
  endfacet
  facet normal -0.3247 -0.945817 -0
    outer loop
      vertex -31.7365 -29.4082 10.5
      vertex -32.2051 -29.2473 7.5
      vertex -31.7365 -29.4082 7.5
    endloop
  endfacet
  facet normal -0.475943 -0.879476 0
    outer loop
      vertex -32.6408 -29.0115 7.5
      vertex -32.2051 -29.2473 10.5
      vertex -32.6408 -29.0115 10.5
    endloop
  endfacet
  facet normal -0.475943 -0.879476 -0
    outer loop
      vertex -32.2051 -29.2473 10.5
      vertex -32.6408 -29.0115 7.5
      vertex -32.2051 -29.2473 7.5
    endloop
  endfacet
  facet normal 0.915772 0.401698 0
    outer loop
      vertex 33.8375 27.4741 10.5
      vertex 33.6384 27.9278 7.5
      vertex 33.6384 27.9278 10.5
    endloop
  endfacet
  facet normal 0.915772 0.401698 0
    outer loop
      vertex 33.6384 27.9278 7.5
      vertex 33.8375 27.4741 10.5
      vertex 33.8375 27.4741 7.5
    endloop
  endfacet
  facet normal 0.996584 0.0825803 0
    outer loop
      vertex 34 26.5 10.5
      vertex 33.9591 26.9938 7.5
      vertex 33.9591 26.9938 10.5
    endloop
  endfacet
  facet normal 0.996584 0.0825803 0
    outer loop
      vertex 33.9591 26.9938 7.5
      vertex 34 26.5 10.5
      vertex 34 26.5 7.5
    endloop
  endfacet
  facet normal 0.837167 0.546948 0
    outer loop
      vertex 33.6384 27.9278 10.5
      vertex 33.3674 28.3426 7.5
      vertex 33.3674 28.3426 10.5
    endloop
  endfacet
  facet normal 0.837167 0.546948 0
    outer loop
      vertex 33.3674 28.3426 7.5
      vertex 33.6384 27.9278 10.5
      vertex 33.6384 27.9278 7.5
    endloop
  endfacet
  facet normal 0.915772 -0.401698 0
    outer loop
      vertex 33.6384 -27.9278 10.5
      vertex 33.8375 -27.4741 7.5
      vertex 33.8375 -27.4741 10.5
    endloop
  endfacet
  facet normal 0.915772 -0.401698 0
    outer loop
      vertex 33.8375 -27.4741 7.5
      vertex 33.6384 -27.9278 10.5
      vertex 33.6384 -27.9278 7.5
    endloop
  endfacet
  facet normal 0.837167 -0.546948 0
    outer loop
      vertex 33.3674 -28.3426 10.5
      vertex 33.6384 -27.9278 7.5
      vertex 33.6384 -27.9278 10.5
    endloop
  endfacet
  facet normal 0.837167 -0.546948 0
    outer loop
      vertex 33.6384 -27.9278 7.5
      vertex 33.3674 -28.3426 10.5
      vertex 33.3674 -28.3426 7.5
    endloop
  endfacet
  facet normal 0.475943 -0.879476 0
    outer loop
      vertex 32.2051 -29.2473 7.5
      vertex 32.6408 -29.0115 10.5
      vertex 32.2051 -29.2473 10.5
    endloop
  endfacet
  facet normal 0.475943 -0.879476 0
    outer loop
      vertex 32.6408 -29.0115 10.5
      vertex 32.2051 -29.2473 7.5
      vertex 32.6408 -29.0115 7.5
    endloop
  endfacet
  facet normal 0.969401 0.245484 0
    outer loop
      vertex 33.9591 26.9938 10.5
      vertex 33.8375 27.4741 7.5
      vertex 33.8375 27.4741 10.5
    endloop
  endfacet
  facet normal 0.969401 0.245484 0
    outer loop
      vertex 33.8375 27.4741 7.5
      vertex 33.9591 26.9938 10.5
      vertex 33.9591 26.9938 7.5
    endloop
  endfacet
endsolid OpenSCAD_Model
