solid OpenSCAD_Model
  facet normal -1 0 0
    outer loop
      vertex -17.85 0.998867 -24.7071
      vertex -17.85 18.5532 -16.3468
      vertex -17.85 1.49779 -24.6819
    endloop
  endfacet
  facet normal 0 0.0100987 -0.999949
    outer loop
      vertex -17.85 0 -24.7273
      vertex -15.75 0.499535 -24.7222
      vertex -15.75 0 -24.7273
    endloop
  endfacet
  facet normal 0 0.0100987 -0.999949
    outer loop
      vertex -15.75 0.499535 -24.7222
      vertex -17.85 0 -24.7273
      vertex -17.85 0.499535 -24.7222
    endloop
  endfacet
  facet normal -1 0 0
    outer loop
      vertex -17.85 -9.26043 -22.9278
      vertex -17.85 -18.5532 -16.3468
      vertex -17.85 -8.79535 -23.1102
    endloop
  endfacet
  facet normal 0 -0.756952 -0.653471
    outer loop
      vertex -17.85 -18.5532 -16.3468
      vertex -15.75 -18.8796 -15.9687
      vertex -17.85 -18.8796 -15.9687
    endloop
  endfacet
  facet normal 0 -0.756952 -0.653471
    outer loop
      vertex -15.75 -18.8796 -15.9687
      vertex -17.85 -18.5532 -16.3468
      vertex -15.75 -18.5532 -16.3468
    endloop
  endfacet
  facet normal 1 0 0
    outer loop
      vertex -15.75 -6.0242 -12
      vertex -15.75 -16.5212 -12
      vertex -15.75 -14.8956 -19.7372
    endloop
  endfacet
  facet normal 0 -0.170885 -0.985291
    outer loop
      vertex -17.85 -4.47139 -24.3196
      vertex -15.75 -3.97918 -24.405
      vertex -15.75 -4.47139 -24.3196
    endloop
  endfacet
  facet normal -0 -0.170885 -0.985291
    outer loop
      vertex -15.75 -3.97918 -24.405
      vertex -17.85 -4.47139 -24.3196
      vertex -17.85 -3.97918 -24.405
    endloop
  endfacet
  facet normal 0 0.715981 -0.69812
    outer loop
      vertex -15.75 17.5289 -17.4406
      vertex -17.85 17.8777 -17.0829
      vertex -15.75 17.8777 -17.0829
    endloop
  endfacet
  facet normal 0 0.715981 -0.69812
    outer loop
      vertex -17.85 17.8777 -17.0829
      vertex -15.75 17.5289 -17.4406
      vertex -17.85 17.5289 -17.4406
    endloop
  endfacet
  facet normal 1 0 0
    outer loop
      vertex -15.75 -16.5212 -12
      vertex -15.75 -19.5381 -12
      vertex -15.75 -14.8956 -19.7372
    endloop
  endfacet
  facet normal 0 0.308056 -0.951368
    outer loop
      vertex -17.85 7.37937 -23.6005
      vertex -15.75 7.85463 -23.4466
      vertex -15.75 7.37937 -23.6005
    endloop
  endfacet
  facet normal 0 0.308056 -0.951368
    outer loop
      vertex -15.75 7.85463 -23.4466
      vertex -17.85 7.37937 -23.6005
      vertex -17.85 7.85463 -23.4466
    endloop
  endfacet
  facet normal -1 0 0
    outer loop
      vertex -17.85 20.3937 -13.9834
      vertex -17.85 20.8419 -12
      vertex -17.85 20.981 -12
    endloop
  endfacet
  facet normal -1 0 0
    outer loop
      vertex -17.85 20.8419 -12
      vertex -17.85 20.3937 -13.9834
      vertex -17.85 20.1071 -14.3925
    endloop
  endfacet
  facet normal -1 0 0
    outer loop
      vertex -17.85 20.9419 -13.1481
      vertex -17.85 21.1193 -12
      vertex -17.85 21.2568 -12
    endloop
  endfacet
  facet normal -1 0 0
    outer loop
      vertex -17.85 21.1193 -12
      vertex -17.85 20.9419 -13.1481
      vertex -17.85 20.672 -13.5685
    endloop
  endfacet
  facet normal -1 0 0
    outer loop
      vertex -17.85 -17.173 -17.7912
      vertex -17.85 -18.5532 -16.3468
      vertex -17.85 -16.8101 -18.1345
    endloop
  endfacet
  facet normal 0 0.756952 -0.653471
    outer loop
      vertex -15.75 18.5532 -16.3468
      vertex -17.85 18.8796 -15.9687
      vertex -15.75 18.8796 -15.9687
    endloop
  endfacet
  facet normal 0 0.756952 -0.653471
    outer loop
      vertex -17.85 18.8796 -15.9687
      vertex -15.75 18.5532 -16.3468
      vertex -17.85 18.5532 -16.3468
    endloop
  endfacet
  facet normal 0 0.402426 -0.915453
    outer loop
      vertex -17.85 9.72172 -22.736
      vertex -15.75 10.179 -22.535
      vertex -15.75 9.72172 -22.736
    endloop
  endfacet
  facet normal 0 0.402426 -0.915453
    outer loop
      vertex -15.75 10.179 -22.535
      vertex -17.85 9.72172 -22.736
      vertex -17.85 10.179 -22.535
    endloop
  endfacet
  facet normal -1 0 0
    outer loop
      vertex -17.85 -13.6728 -20.6032
      vertex -17.85 -18.5532 -16.3468
      vertex -17.85 -13.2538 -20.8752
    endloop
  endfacet
  facet normal -1 0 0
    outer loop
      vertex -17.85 14.8956 -19.7372
      vertex -17.85 18.5532 -16.3468
      vertex -17.85 15.2913 -19.4323
    endloop
  endfacet
  facet normal -1 0 0
    outer loop
      vertex -17.85 19.8122 -14.7958
      vertex -17.85 20.561 -12
      vertex -17.85 20.7019 -12
    endloop
  endfacet
  facet normal -1 0 0
    outer loop
      vertex -17.85 20.561 -12
      vertex -17.85 19.8122 -14.7958
      vertex -17.85 19.5093 -15.193
    endloop
  endfacet
  facet normal 0 0.818992 -0.573804
    outer loop
      vertex -15.75 20.1071 -14.3925
      vertex -17.85 20.3937 -13.9834
      vertex -15.75 20.3937 -13.9834
    endloop
  endfacet
  facet normal 0 0.818992 -0.573804
    outer loop
      vertex -17.85 20.3937 -13.9834
      vertex -15.75 20.1071 -14.3925
      vertex -17.85 20.1071 -14.3925
    endloop
  endfacet
  facet normal -1 0 0
    outer loop
      vertex -17.85 -4.96178 -24.2243
      vertex -17.85 -18.5532 -16.3468
      vertex -17.85 -4.47139 -24.3196
    endloop
  endfacet
  facet normal 1 0 0
    outer loop
      vertex -15.75 -21.5518 -12
      vertex -15.75 -21.5608 -12
      vertex -15.75 -21.2033 -12.7224
    endloop
  endfacet
  facet normal -1 0 0
    outer loop
      vertex -17.85 0 -24.7273
      vertex -17.85 18.5532 -16.3468
      vertex -17.85 0.499535 -24.7222
    endloop
  endfacet
  facet normal 1 0 0
    outer loop
      vertex -15.75 14.8956 -19.7372
      vertex -15.75 17.8777 -17.0829
      vertex -15.75 18.2191 -16.7183
    endloop
  endfacet
  facet normal -1 0 0
    outer loop
      vertex -17.85 20.1071 -14.3925
      vertex -17.85 20.7019 -12
      vertex -17.85 20.8419 -12
    endloop
  endfacet
  facet normal -1 0 0
    outer loop
      vertex -17.85 20.7019 -12
      vertex -17.85 20.1071 -14.3925
      vertex -17.85 19.8122 -14.7958
    endloop
  endfacet
  facet normal 0 0.729934 -0.683518
    outer loop
      vertex -15.75 17.8777 -17.0829
      vertex -17.85 18.2191 -16.7183
      vertex -15.75 18.2191 -16.7183
    endloop
  endfacet
  facet normal 0 0.729934 -0.683518
    outer loop
      vertex -17.85 18.2191 -16.7183
      vertex -15.75 17.8777 -17.0829
      vertex -17.85 17.8777 -17.0829
    endloop
  endfacet
  facet normal -1 0 0
    outer loop
      vertex -17.85 14.0862 -20.3228
      vertex -17.85 18.5532 -16.3468
      vertex -17.85 14.4939 -20.0341
    endloop
  endfacet
  facet normal 1 0 0
    outer loop
      vertex -15.75 14.8956 -19.7372
      vertex -15.75 15.2913 -19.4323
      vertex -15.75 15.6808 -19.1194
    endloop
  endfacet
  facet normal 1 0 0
    outer loop
      vertex -15.75 14.8956 -19.7372
      vertex -15.75 16.0638 -18.7987
      vertex -15.75 16.4403 -18.4704
    endloop
  endfacet
  facet normal 1 0 0
    outer loop
      vertex -15.75 21.2033 -12.7224
      vertex -15.75 21.5428 -12
      vertex -15.75 21.534 -12
    endloop
  endfacet
  facet normal -1 0 0
    outer loop
      vertex -17.85 21.456 -12.2915
      vertex -17.85 21.3936 -12
      vertex -17.85 21.5296 -12
    endloop
  endfacet
  facet normal -1 0 -0
    outer loop
      vertex -17.85 21.3936 -12
      vertex -17.85 21.456 -12.2915
      vertex -17.85 21.2033 -12.7224
    endloop
  endfacet
  facet normal -1 0 0
    outer loop
      vertex -17.85 5.45014 -24.1192
      vertex -17.85 18.5532 -16.3468
      vertex -17.85 5.93628 -24.0041
    endloop
  endfacet
  facet normal -1 0 0
    outer loop
      vertex -17.85 9.26043 -22.9278
      vertex -17.85 18.5532 -16.3468
      vertex -17.85 9.72172 -22.736
    endloop
  endfacet
  facet normal 1 0 0
    outer loop
      vertex -15.75 14.8956 -19.7372
      vertex -15.75 17.5289 -17.4406
      vertex -15.75 17.8777 -17.0829
    endloop
  endfacet
  facet normal 0 0.701728 -0.712445
    outer loop
      vertex -17.85 17.173 -17.7912
      vertex -15.75 17.5289 -17.4406
      vertex -15.75 17.173 -17.7912
    endloop
  endfacet
  facet normal 0 0.701728 -0.712445
    outer loop
      vertex -15.75 17.5289 -17.4406
      vertex -17.85 17.173 -17.7912
      vertex -17.85 17.5289 -17.4406
    endloop
  endfacet
  facet normal 1 0 0
    outer loop
      vertex -15.75 -19.5381 -12
      vertex -15.75 -21.2033 -12.7224
      vertex -15.75 -14.8956 -19.7372
    endloop
  endfacet
  facet normal 1 0 -0
    outer loop
      vertex -15.75 -21.2033 -12.7224
      vertex -15.75 -19.5381 -12
      vertex -15.75 -21.4657 -12
    endloop
  endfacet
  facet normal -1 0 0
    outer loop
      vertex -17.85 -15.2913 -19.4323
      vertex -17.85 -18.5532 -16.3468
      vertex -17.85 -14.8956 -19.7372
    endloop
  endfacet
  facet normal -1 0 0
    outer loop
      vertex -17.85 -16.8101 -18.1345
      vertex -17.85 -18.5532 -16.3468
      vertex -17.85 -16.4403 -18.4704
    endloop
  endfacet
  facet normal 0 -0.130944 -0.99139
    outer loop
      vertex -17.85 -3.48534 -24.4804
      vertex -15.75 -2.99008 -24.5458
      vertex -15.75 -3.48534 -24.4804
    endloop
  endfacet
  facet normal -0 -0.130944 -0.99139
    outer loop
      vertex -15.75 -2.99008 -24.5458
      vertex -17.85 -3.48534 -24.4804
      vertex -17.85 -2.99008 -24.5458
    endloop
  endfacet
  facet normal -1 0 0
    outer loop
      vertex -17.85 0 -24.7273
      vertex -17.85 -18.5532 -16.3468
      vertex -17.85 18.5532 -16.3468
    endloop
  endfacet
  facet normal 0 -0.365119 -0.930961
    outer loop
      vertex -17.85 -9.26043 -22.9278
      vertex -15.75 -8.79535 -23.1102
      vertex -15.75 -9.26043 -22.9278
    endloop
  endfacet
  facet normal -0 -0.365119 -0.930961
    outer loop
      vertex -15.75 -8.79535 -23.1102
      vertex -17.85 -9.26043 -22.9278
      vertex -17.85 -8.79535 -23.1102
    endloop
  endfacet
  facet normal -1 0 0
    outer loop
      vertex -17.85 -7.37937 -23.6005
      vertex -17.85 -18.5532 -16.3468
      vertex -17.85 -6.90109 -23.7447
    endloop
  endfacet
  facet normal 1 0 0
    outer loop
      vertex -15.75 -21.4657 -12
      vertex -15.75 -21.474 -12
      vertex -15.75 -21.2033 -12.7224
    endloop
  endfacet
  facet normal -1 0 0
    outer loop
      vertex -17.85 17.8777 -17.0829
      vertex -17.85 18.5532 -16.3468
      vertex -17.85 18.2191 -16.7183
    endloop
  endfacet
  facet normal -1 0 0
    outer loop
      vertex -17.85 17.5289 -17.4406
      vertex -17.85 18.5532 -16.3468
      vertex -17.85 17.8777 -17.0829
    endloop
  endfacet
  facet normal -1 0 0
    outer loop
      vertex -17.85 2.99008 -24.5458
      vertex -17.85 18.5532 -16.3468
      vertex -17.85 3.48534 -24.4804
    endloop
  endfacet
  facet normal 0 0.110888 -0.993833
    outer loop
      vertex -17.85 2.4936 -24.6012
      vertex -15.75 2.99008 -24.5458
      vertex -15.75 2.4936 -24.6012
    endloop
  endfacet
  facet normal 0 0.110888 -0.993833
    outer loop
      vertex -15.75 2.99008 -24.5458
      vertex -17.85 2.4936 -24.6012
      vertex -17.85 2.99008 -24.5458
    endloop
  endfacet
  facet normal -1 0 0
    outer loop
      vertex -17.85 7.37937 -23.6005
      vertex -17.85 18.5532 -16.3468
      vertex -17.85 7.85463 -23.4466
    endloop
  endfacet
  facet normal 0 0.872681 -0.48829
    outer loop
      vertex -15.75 21.456 -12.2915
      vertex -17.85 21.619 -12
      vertex -15.75 21.619 -12
    endloop
  endfacet
  facet normal 0 0.872681 -0.48829
    outer loop
      vertex -17.85 21.619 -12
      vertex -15.75 21.456 -12.2915
      vertex -17.85 21.456 -12.2915
    endloop
  endfacet
  facet normal -1 0 0
    outer loop
      vertex -17.85 21.456 -12.2915
      vertex -17.85 21.5296 -12
      vertex -17.85 21.619 -12
    endloop
  endfacet
  facet normal -1 0 0
    outer loop
      vertex -17.85 11.965 -21.6397
      vertex -17.85 18.5532 -16.3468
      vertex -17.85 12.3997 -21.3936
    endloop
  endfacet
  facet normal 0 0.657285 -0.753642
    outer loop
      vertex -17.85 16.0638 -18.7987
      vertex -15.75 16.4403 -18.4704
      vertex -15.75 16.0638 -18.7987
    endloop
  endfacet
  facet normal 0 0.657285 -0.753642
    outer loop
      vertex -15.75 16.4403 -18.4704
      vertex -17.85 16.0638 -18.7987
      vertex -17.85 16.4403 -18.4704
    endloop
  endfacet
  facet normal 1 0 0
    outer loop
      vertex -15.75 14.8956 -19.7372
      vertex -15.75 16.8101 -18.1345
      vertex -15.75 17.173 -17.7912
    endloop
  endfacet
  facet normal 1 0 0
    outer loop
      vertex -15.75 14.8956 -19.7372
      vertex -15.75 18.5532 -16.3468
      vertex -15.75 18.8796 -15.9687
    endloop
  endfacet
  facet normal 1 0 0
    outer loop
      vertex -15.75 14.8956 -19.7372
      vertex -15.75 19.8122 -14.7958
      vertex -15.75 20.1071 -14.3925
    endloop
  endfacet
  facet normal -1 0 0
    outer loop
      vertex -17.85 16.0638 -18.7987
      vertex -17.85 18.5532 -16.3468
      vertex -17.85 16.4403 -18.4704
    endloop
  endfacet
  facet normal 0 0.641926 -0.766767
    outer loop
      vertex -17.85 15.6808 -19.1194
      vertex -15.75 16.0638 -18.7987
      vertex -15.75 15.6808 -19.1194
    endloop
  endfacet
  facet normal 0 0.641926 -0.766767
    outer loop
      vertex -15.75 16.0638 -18.7987
      vertex -17.85 15.6808 -19.1194
      vertex -17.85 16.0638 -18.7987
    endloop
  endfacet
  facet normal 1 0 0
    outer loop
      vertex -15.75 -14.8956 -19.7372
      vertex -15.75 -16.8101 -18.1345
      vertex -15.75 -16.4403 -18.4704
    endloop
  endfacet
  facet normal 1 0 0
    outer loop
      vertex -15.75 -14.8956 -19.7372
      vertex -15.75 -20.3937 -13.9834
      vertex -15.75 -20.1071 -14.3925
    endloop
  endfacet
  facet normal 0 -0.544499 -0.838761
    outer loop
      vertex -17.85 -13.6728 -20.6032
      vertex -15.75 -13.2538 -20.8752
      vertex -15.75 -13.6728 -20.6032
    endloop
  endfacet
  facet normal -0 -0.544499 -0.838761
    outer loop
      vertex -15.75 -13.2538 -20.8752
      vertex -17.85 -13.6728 -20.6032
      vertex -17.85 -13.2538 -20.8752
    endloop
  endfacet
  facet normal 1 0 0
    outer loop
      vertex -15.75 -14.8956 -19.7372
      vertex -15.75 -21.2033 -12.7224
      vertex -15.75 -20.9419 -13.1481
    endloop
  endfacet
  facet normal 0 -0.0303001 -0.999541
    outer loop
      vertex -17.85 -0.998867 -24.7071
      vertex -15.75 -0.499535 -24.7222
      vertex -15.75 -0.998867 -24.7071
    endloop
  endfacet
  facet normal -0 -0.0303001 -0.999541
    outer loop
      vertex -15.75 -0.499535 -24.7222
      vertex -17.85 -0.998867 -24.7071
      vertex -17.85 -0.499535 -24.7222
    endloop
  endfacet
  facet normal -1 0 0
    outer loop
      vertex -17.85 18.5532 -16.3468
      vertex -17.85 18.619 -12
      vertex -17.85 20.1325 -12
    endloop
  endfacet
  facet normal 0 -0.0504861 -0.998725
    outer loop
      vertex -17.85 -1.49779 -24.6819
      vertex -15.75 -0.998867 -24.7071
      vertex -15.75 -1.49779 -24.6819
    endloop
  endfacet
  facet normal -0 -0.0504861 -0.998725
    outer loop
      vertex -15.75 -0.998867 -24.7071
      vertex -17.85 -1.49779 -24.6819
      vertex -17.85 -0.998867 -24.7071
    endloop
  endfacet
  facet normal -1 0 0
    outer loop
      vertex -17.85 -0.998867 -24.7071
      vertex -17.85 -18.5532 -16.3468
      vertex -17.85 -0.499535 -24.7222
    endloop
  endfacet
  facet normal 0 -0.190754 -0.981638
    outer loop
      vertex -17.85 -4.96178 -24.2243
      vertex -15.75 -4.47139 -24.3196
      vertex -15.75 -4.96178 -24.2243
    endloop
  endfacet
  facet normal -0 -0.190754 -0.981638
    outer loop
      vertex -15.75 -4.47139 -24.3196
      vertex -17.85 -4.96178 -24.2243
      vertex -17.85 -4.47139 -24.3196
    endloop
  endfacet
  facet normal -1 0 0
    outer loop
      vertex -17.85 -2.4936 -24.6012
      vertex -17.85 -18.5532 -16.3468
      vertex -17.85 -1.9961 -24.6466
    endloop
  endfacet
  facet normal 0 -0.0907894 -0.99587
    outer loop
      vertex -17.85 -2.4936 -24.6012
      vertex -15.75 -1.9961 -24.6466
      vertex -15.75 -2.4936 -24.6012
    endloop
  endfacet
  facet normal -0 -0.0907894 -0.99587
    outer loop
      vertex -15.75 -1.9961 -24.6466
      vertex -17.85 -2.4936 -24.6012
      vertex -17.85 -1.9961 -24.6466
    endloop
  endfacet
  facet normal -1 0 0
    outer loop
      vertex -17.85 -11.5253 -21.877
      vertex -17.85 -18.5532 -16.3468
      vertex -17.85 -11.081 -22.1054
    endloop
  endfacet
  facet normal 0 -0.61043 -0.79207
    outer loop
      vertex -17.85 -15.2913 -19.4323
      vertex -15.75 -14.8956 -19.7372
      vertex -15.75 -15.2913 -19.4323
    endloop
  endfacet
  facet normal -0 -0.61043 -0.79207
    outer loop
      vertex -15.75 -14.8956 -19.7372
      vertex -17.85 -15.2913 -19.4323
      vertex -17.85 -14.8956 -19.7372
    endloop
  endfacet
  facet normal -1 0 0
    outer loop
      vertex -17.85 -15.6808 -19.1194
      vertex -17.85 -18.5532 -16.3468
      vertex -17.85 -15.2913 -19.4323
    endloop
  endfacet
  facet normal -1 0 0
    outer loop
      vertex -17.85 0.499535 -24.7222
      vertex -17.85 18.5532 -16.3468
      vertex -17.85 0.998867 -24.7071
    endloop
  endfacet
  facet normal -1 0 0
    outer loop
      vertex -17.85 -6.41999 -23.8793
      vertex -17.85 -18.5532 -16.3468
      vertex -17.85 -5.93628 -24.0041
    endloop
  endfacet
  facet normal 0 -0.249861 -0.968282
    outer loop
      vertex -17.85 -6.41999 -23.8793
      vertex -15.75 -5.93628 -24.0041
      vertex -15.75 -6.41999 -23.8793
    endloop
  endfacet
  facet normal -0 -0.249861 -0.968282
    outer loop
      vertex -15.75 -5.93628 -24.0041
      vertex -17.85 -6.41999 -23.8793
      vertex -17.85 -5.93628 -24.0041
    endloop
  endfacet
  facet normal 1 0 0
    outer loop
      vertex -15.75 -21.5165 -12
      vertex -15.75 -21.5252 -12
      vertex -15.75 -21.2033 -12.7224
    endloop
  endfacet
  facet normal 1 0 0
    outer loop
      vertex -15.75 -21.4908 -12
      vertex -15.75 -21.4993 -12
      vertex -15.75 -21.2033 -12.7224
    endloop
  endfacet
  facet normal -1 0 0
    outer loop
      vertex -17.85 13.4663 -12
      vertex -17.85 18.619 -12
      vertex -17.85 18.5532 -16.3468
    endloop
  endfacet
  facet normal 0 0.78273 -0.622362
    outer loop
      vertex -15.75 19.1983 -15.584
      vertex -17.85 19.5093 -15.193
      vertex -15.75 19.5093 -15.193
    endloop
  endfacet
  facet normal 0 0.78273 -0.622362
    outer loop
      vertex -17.85 19.5093 -15.193
      vertex -15.75 19.1983 -15.584
      vertex -17.85 19.1983 -15.584
    endloop
  endfacet
  facet normal 1 0 0
    outer loop
      vertex -15.75 14.8956 -19.7372
      vertex -15.75 17.173 -17.7912
      vertex -15.75 17.5289 -17.4406
    endloop
  endfacet
  facet normal -1 0 0
    outer loop
      vertex -17.85 12.3997 -21.3936
      vertex -17.85 18.5532 -16.3468
      vertex -17.85 12.8293 -21.1387
    endloop
  endfacet
  facet normal -1 0 0
    outer loop
      vertex -17.85 13.2538 -20.8752
      vertex -17.85 18.5532 -16.3468
      vertex -17.85 13.6728 -20.6032
    endloop
  endfacet
  facet normal -1 0 0
    outer loop
      vertex -17.85 6.41999 -23.8793
      vertex -17.85 18.5532 -16.3468
      vertex -17.85 6.90109 -23.7447
    endloop
  endfacet
  facet normal 1 0 0
    outer loop
      vertex -15.75 14.8956 -19.7372
      vertex -15.75 19.5381 -12
      vertex -15.75 16.5212 -12
    endloop
  endfacet
  facet normal 1 -0 0
    outer loop
      vertex -15.75 -6.0242 -12
      vertex -15.75 14.8956 -19.7372
      vertex -15.75 16.5212 -12
    endloop
  endfacet
  facet normal 1 0 0
    outer loop
      vertex -15.75 14.8956 -19.7372
      vertex -15.75 -6.0242 -12
      vertex -15.75 -14.8956 -19.7372
    endloop
  endfacet
  facet normal 0 0.420838 -0.907136
    outer loop
      vertex -17.85 10.179 -22.535
      vertex -15.75 10.6322 -22.3247
      vertex -15.75 10.179 -22.535
    endloop
  endfacet
  facet normal 0 0.420838 -0.907136
    outer loop
      vertex -15.75 10.6322 -22.3247
      vertex -17.85 10.179 -22.535
      vertex -17.85 10.6322 -22.3247
    endloop
  endfacet
  facet normal 1 0 0
    outer loop
      vertex -15.75 14.8956 -19.7372
      vertex -15.75 15.6808 -19.1194
      vertex -15.75 16.0638 -18.7987
    endloop
  endfacet
  facet normal 1 0 0
    outer loop
      vertex -15.75 14.8956 -19.7372
      vertex -15.75 16.4403 -18.4704
      vertex -15.75 16.8101 -18.1345
    endloop
  endfacet
  facet normal -1 0 0
    outer loop
      vertex -17.85 16.4403 -18.4704
      vertex -17.85 18.5532 -16.3468
      vertex -17.85 16.8101 -18.1345
    endloop
  endfacet
  facet normal 0 0.687194 -0.726474
    outer loop
      vertex -17.85 16.8101 -18.1345
      vertex -15.75 17.173 -17.7912
      vertex -15.75 16.8101 -18.1345
    endloop
  endfacet
  facet normal 0 0.687194 -0.726474
    outer loop
      vertex -15.75 17.173 -17.7912
      vertex -17.85 16.8101 -18.1345
      vertex -17.85 17.173 -17.7912
    endloop
  endfacet
  facet normal 0 0.626308 -0.779576
    outer loop
      vertex -17.85 15.2913 -19.4323
      vertex -15.75 15.6808 -19.1194
      vertex -15.75 15.2913 -19.4323
    endloop
  endfacet
  facet normal 0 0.626308 -0.779576
    outer loop
      vertex -15.75 15.6808 -19.1194
      vertex -17.85 15.2913 -19.4323
      vertex -17.85 15.6808 -19.1194
    endloop
  endfacet
  facet normal 1 -0 0
    outer loop
      vertex -15.75 19.5381 -12
      vertex -15.75 21.2033 -12.7224
      vertex -15.75 21.4657 -12
    endloop
  endfacet
  facet normal 1 0 0
    outer loop
      vertex -15.75 21.2033 -12.7224
      vertex -15.75 19.5381 -12
      vertex -15.75 14.8956 -19.7372
    endloop
  endfacet
  facet normal -1 0 0
    outer loop
      vertex -17.85 -20.3937 -13.9834
      vertex -17.85 -20.8419 -12
      vertex -17.85 -20.1071 -14.3925
    endloop
  endfacet
  facet normal -1 -0 -0
    outer loop
      vertex -17.85 -20.8419 -12
      vertex -17.85 -20.3937 -13.9834
      vertex -17.85 -20.981 -12
    endloop
  endfacet
  facet normal 1 0 0
    outer loop
      vertex -15.75 -14.8956 -19.7372
      vertex -15.75 -18.2191 -16.7183
      vertex -15.75 -17.8777 -17.0829
    endloop
  endfacet
  facet normal 1 0 0
    outer loop
      vertex -15.75 -21.5979 -12
      vertex -15.75 -21.6075 -12
      vertex -15.75 -21.2033 -12.7224
    endloop
  endfacet
  facet normal 0 -0.78273 -0.622362
    outer loop
      vertex -17.85 -19.1983 -15.584
      vertex -15.75 -19.5093 -15.193
      vertex -17.85 -19.5093 -15.193
    endloop
  endfacet
  facet normal 0 -0.78273 -0.622362
    outer loop
      vertex -15.75 -19.5093 -15.193
      vertex -17.85 -19.1983 -15.584
      vertex -15.75 -19.1983 -15.584
    endloop
  endfacet
  facet normal -1 0 0
    outer loop
      vertex -17.85 -0.499535 -24.7222
      vertex -17.85 -18.5532 -16.3468
      vertex -17.85 0 -24.7273
    endloop
  endfacet
  facet normal 0 -0.0100987 -0.999949
    outer loop
      vertex -17.85 -0.499535 -24.7222
      vertex -15.75 0 -24.7273
      vertex -15.75 -0.499535 -24.7222
    endloop
  endfacet
  facet normal -0 -0.0100987 -0.999949
    outer loop
      vertex -15.75 0 -24.7273
      vertex -17.85 -0.499535 -24.7222
      vertex -17.85 0 -24.7273
    endloop
  endfacet
  facet normal -1 0 0
    outer loop
      vertex -17.85 -1.9961 -24.6466
      vertex -17.85 -18.5532 -16.3468
      vertex -17.85 -1.49779 -24.6819
    endloop
  endfacet
  facet normal -1 0 0
    outer loop
      vertex -17.85 -1.49779 -24.6819
      vertex -17.85 -18.5532 -16.3468
      vertex -17.85 -0.998867 -24.7071
    endloop
  endfacet
  facet normal 0 -0.210547 -0.977584
    outer loop
      vertex -17.85 -5.45014 -24.1192
      vertex -15.75 -4.96178 -24.2243
      vertex -15.75 -5.45014 -24.1192
    endloop
  endfacet
  facet normal -0 -0.210547 -0.977584
    outer loop
      vertex -15.75 -4.96178 -24.2243
      vertex -17.85 -5.45014 -24.1192
      vertex -17.85 -4.96178 -24.2243
    endloop
  endfacet
  facet normal -1 0 0
    outer loop
      vertex -17.85 -4.47139 -24.3196
      vertex -17.85 -18.5532 -16.3468
      vertex -17.85 -3.97918 -24.405
    endloop
  endfacet
  facet normal -1 0 0
    outer loop
      vertex -17.85 -3.97918 -24.405
      vertex -17.85 -18.5532 -16.3468
      vertex -17.85 -3.48534 -24.4804
    endloop
  endfacet
  facet normal -1 0 0
    outer loop
      vertex -17.85 -2.99008 -24.5458
      vertex -17.85 -18.5532 -16.3468
      vertex -17.85 -2.4936 -24.6012
    endloop
  endfacet
  facet normal 0 -0.110888 -0.993833
    outer loop
      vertex -17.85 -2.99008 -24.5458
      vertex -15.75 -2.4936 -24.6012
      vertex -15.75 -2.99008 -24.5458
    endloop
  endfacet
  facet normal -0 -0.110888 -0.993833
    outer loop
      vertex -15.75 -2.4936 -24.6012
      vertex -17.85 -2.99008 -24.5458
      vertex -17.85 -2.4936 -24.6012
    endloop
  endfacet
  facet normal -1 0 0
    outer loop
      vertex -17.85 -10.179 -22.535
      vertex -17.85 -18.5532 -16.3468
      vertex -17.85 -9.72172 -22.736
    endloop
  endfacet
  facet normal 0 -0.402426 -0.915453
    outer loop
      vertex -17.85 -10.179 -22.535
      vertex -15.75 -9.72172 -22.736
      vertex -15.75 -10.179 -22.535
    endloop
  endfacet
  facet normal -0 -0.402426 -0.915453
    outer loop
      vertex -15.75 -9.72172 -22.736
      vertex -17.85 -10.179 -22.535
      vertex -17.85 -9.72172 -22.736
    endloop
  endfacet
  facet normal 0 -0.457139 -0.889395
    outer loop
      vertex -17.85 -11.5253 -21.877
      vertex -15.75 -11.081 -22.1054
      vertex -15.75 -11.5253 -21.877
    endloop
  endfacet
  facet normal -0 -0.457139 -0.889395
    outer loop
      vertex -15.75 -11.081 -22.1054
      vertex -17.85 -11.5253 -21.877
      vertex -17.85 -11.081 -22.1054
    endloop
  endfacet
  facet normal -1 0 0
    outer loop
      vertex -17.85 19.1983 -15.584
      vertex -17.85 20.2763 -12
      vertex -17.85 20.4192 -12
    endloop
  endfacet
  facet normal -1 0 0
    outer loop
      vertex -17.85 20.2763 -12
      vertex -17.85 19.1983 -15.584
      vertex -17.85 18.8796 -15.9687
    endloop
  endfacet
  facet normal 0 0.769998 -0.638046
    outer loop
      vertex -15.75 18.8796 -15.9687
      vertex -17.85 19.1983 -15.584
      vertex -15.75 19.1983 -15.584
    endloop
  endfacet
  facet normal 0 0.769998 -0.638046
    outer loop
      vertex -17.85 19.1983 -15.584
      vertex -15.75 18.8796 -15.9687
      vertex -17.85 18.8796 -15.9687
    endloop
  endfacet
  facet normal 0 0.365119 -0.930961
    outer loop
      vertex -17.85 8.79535 -23.1102
      vertex -15.75 9.26043 -22.9278
      vertex -15.75 8.79535 -23.1102
    endloop
  endfacet
  facet normal 0 0.365119 -0.930961
    outer loop
      vertex -15.75 9.26043 -22.9278
      vertex -17.85 8.79535 -23.1102
      vertex -17.85 9.26043 -22.9278
    endloop
  endfacet
  facet normal -1 0 0
    outer loop
      vertex -17.85 5.93628 -24.0041
      vertex -17.85 18.5532 -16.3468
      vertex -17.85 6.41999 -23.8793
    endloop
  endfacet
  facet normal -1 0 0
    outer loop
      vertex -17.85 3.97918 -24.405
      vertex -17.85 18.5532 -16.3468
      vertex -17.85 4.47139 -24.3196
    endloop
  endfacet
  facet normal 0 0.190754 -0.981638
    outer loop
      vertex -17.85 4.47139 -24.3196
      vertex -15.75 4.96178 -24.2243
      vertex -15.75 4.47139 -24.3196
    endloop
  endfacet
  facet normal 0 0.190754 -0.981638
    outer loop
      vertex -15.75 4.96178 -24.2243
      vertex -17.85 4.47139 -24.3196
      vertex -17.85 4.96178 -24.2243
    endloop
  endfacet
  facet normal -1 0 0
    outer loop
      vertex -17.85 -8.32669 -23.2831
      vertex -17.85 -18.5532 -16.3468
      vertex -17.85 -7.85463 -23.4466
    endloop
  endfacet
  facet normal 0 -0.327214 -0.94495
    outer loop
      vertex -17.85 -8.32669 -23.2831
      vertex -15.75 -7.85463 -23.4466
      vertex -15.75 -8.32669 -23.2831
    endloop
  endfacet
  facet normal -0 -0.327214 -0.94495
    outer loop
      vertex -15.75 -7.85463 -23.4466
      vertex -17.85 -8.32669 -23.2831
      vertex -17.85 -7.85463 -23.4466
    endloop
  endfacet
  facet normal -1 0 0
    outer loop
      vertex -17.85 -5.93628 -24.0041
      vertex -17.85 -18.5532 -16.3468
      vertex -17.85 -5.45014 -24.1192
    endloop
  endfacet
  facet normal 0 -0.230251 -0.973131
    outer loop
      vertex -17.85 -5.93628 -24.0041
      vertex -15.75 -5.45014 -24.1192
      vertex -15.75 -5.93628 -24.0041
    endloop
  endfacet
  facet normal -0 -0.230251 -0.973131
    outer loop
      vertex -15.75 -5.45014 -24.1192
      vertex -17.85 -5.93628 -24.0041
      vertex -17.85 -5.45014 -24.1192
    endloop
  endfacet
  facet normal 0 -0.269375 -0.963035
    outer loop
      vertex -17.85 -6.90109 -23.7447
      vertex -15.75 -6.41999 -23.8793
      vertex -15.75 -6.90109 -23.7447
    endloop
  endfacet
  facet normal -0 -0.269375 -0.963035
    outer loop
      vertex -15.75 -6.41999 -23.8793
      vertex -17.85 -6.90109 -23.7447
      vertex -17.85 -6.41999 -23.8793
    endloop
  endfacet
  facet normal -1 0 0
    outer loop
      vertex -17.85 -6.90109 -23.7447
      vertex -17.85 -18.5532 -16.3468
      vertex -17.85 -6.41999 -23.8793
    endloop
  endfacet
  facet normal 1 0 0
    outer loop
      vertex -15.75 -21.5428 -12
      vertex -15.75 -21.5518 -12
      vertex -15.75 -21.2033 -12.7224
    endloop
  endfacet
  facet normal -1 0 0
    outer loop
      vertex -17.85 -18.5532 -16.3468
      vertex -17.85 13.4663 -12
      vertex -17.85 18.5532 -16.3468
    endloop
  endfacet
  facet normal -1 -0 0
    outer loop
      vertex -17.85 13.4663 -12
      vertex -17.85 -18.5532 -16.3468
      vertex -17.85 -18.619 -12
    endloop
  endfacet
  facet normal 0 0.795144 -0.606421
    outer loop
      vertex -15.75 19.5093 -15.193
      vertex -17.85 19.8122 -14.7958
      vertex -15.75 19.8122 -14.7958
    endloop
  endfacet
  facet normal 0 0.795144 -0.606421
    outer loop
      vertex -17.85 19.8122 -14.7958
      vertex -15.75 19.5093 -15.193
      vertex -17.85 19.5093 -15.193
    endloop
  endfacet
  facet normal 1 0 0
    outer loop
      vertex -15.75 14.8956 -19.7372
      vertex -15.75 19.5093 -15.193
      vertex -15.75 19.8122 -14.7958
    endloop
  endfacet
  facet normal 0 0.743596 -0.668629
    outer loop
      vertex -15.75 18.2191 -16.7183
      vertex -17.85 18.5532 -16.3468
      vertex -15.75 18.5532 -16.3468
    endloop
  endfacet
  facet normal 0 0.743596 -0.668629
    outer loop
      vertex -17.85 18.5532 -16.3468
      vertex -15.75 18.2191 -16.7183
      vertex -17.85 18.2191 -16.7183
    endloop
  endfacet
  facet normal 0 0.852244 -0.523145
    outer loop
      vertex -15.75 20.9419 -13.1481
      vertex -17.85 21.2033 -12.7224
      vertex -15.75 21.2033 -12.7224
    endloop
  endfacet
  facet normal 0 0.852244 -0.523145
    outer loop
      vertex -17.85 21.2033 -12.7224
      vertex -15.75 20.9419 -13.1481
      vertex -17.85 20.9419 -13.1481
    endloop
  endfacet
  facet normal 0 0.841502 -0.540254
    outer loop
      vertex -15.75 20.672 -13.5685
      vertex -17.85 20.9419 -13.1481
      vertex -15.75 20.9419 -13.1481
    endloop
  endfacet
  facet normal 0 0.841502 -0.540254
    outer loop
      vertex -17.85 20.9419 -13.1481
      vertex -15.75 20.672 -13.5685
      vertex -17.85 20.672 -13.5685
    endloop
  endfacet
  facet normal 0 0.862639 -0.50582
    outer loop
      vertex -15.75 21.2033 -12.7224
      vertex -17.85 21.456 -12.2915
      vertex -15.75 21.456 -12.2915
    endloop
  endfacet
  facet normal 0 0.862639 -0.50582
    outer loop
      vertex -17.85 21.456 -12.2915
      vertex -15.75 21.2033 -12.7224
      vertex -17.85 21.2033 -12.7224
    endloop
  endfacet
  facet normal 0 0.544499 -0.838761
    outer loop
      vertex -17.85 13.2538 -20.8752
      vertex -15.75 13.6728 -20.6032
      vertex -15.75 13.2538 -20.8752
    endloop
  endfacet
  facet normal 0 0.544499 -0.838761
    outer loop
      vertex -15.75 13.6728 -20.6032
      vertex -17.85 13.2538 -20.8752
      vertex -17.85 13.6728 -20.6032
    endloop
  endfacet
  facet normal -1 0 0
    outer loop
      vertex -17.85 13.6728 -20.6032
      vertex -17.85 18.5532 -16.3468
      vertex -17.85 14.0862 -20.3228
    endloop
  endfacet
  facet normal 0 0.492692 -0.870204
    outer loop
      vertex -17.85 11.965 -21.6397
      vertex -15.75 12.3997 -21.3936
      vertex -15.75 11.965 -21.6397
    endloop
  endfacet
  facet normal 0 0.492692 -0.870204
    outer loop
      vertex -15.75 12.3997 -21.3936
      vertex -17.85 11.965 -21.6397
      vertex -17.85 12.3997 -21.3936
    endloop
  endfacet
  facet normal 0 0.170885 -0.985291
    outer loop
      vertex -17.85 3.97918 -24.405
      vertex -15.75 4.47139 -24.3196
      vertex -15.75 3.97918 -24.405
    endloop
  endfacet
  facet normal 0 0.170885 -0.985291
    outer loop
      vertex -15.75 4.47139 -24.3196
      vertex -17.85 3.97918 -24.405
      vertex -17.85 4.47139 -24.3196
    endloop
  endfacet
  facet normal 1 0 0
    outer loop
      vertex -15.75 21.2033 -12.7224
      vertex -15.75 21.4824 -12
      vertex -15.75 21.474 -12
    endloop
  endfacet
  facet normal 1 0 0
    outer loop
      vertex -15.75 21.2033 -12.7224
      vertex -15.75 21.6171 -12
      vertex -15.75 21.6075 -12
    endloop
  endfacet
  facet normal -1 0 0
    outer loop
      vertex -17.85 10.6322 -22.3247
      vertex -17.85 18.5532 -16.3468
      vertex -17.85 11.081 -22.1054
    endloop
  endfacet
  facet normal 0 0.439076 -0.89845
    outer loop
      vertex -17.85 10.6322 -22.3247
      vertex -15.75 11.081 -22.1054
      vertex -15.75 10.6322 -22.3247
    endloop
  endfacet
  facet normal 0 0.439076 -0.89845
    outer loop
      vertex -15.75 11.081 -22.1054
      vertex -17.85 10.6322 -22.3247
      vertex -17.85 11.081 -22.1054
    endloop
  endfacet
  facet normal 1 0 0
    outer loop
      vertex -15.75 14.8956 -19.7372
      vertex -15.75 14.0862 -20.3228
      vertex -15.75 14.4939 -20.0341
    endloop
  endfacet
  facet normal 1 0 0
    outer loop
      vertex -15.75 14.8956 -19.7372
      vertex -15.75 13.6728 -20.6032
      vertex -15.75 14.0862 -20.3228
    endloop
  endfacet
  facet normal 1 0 0
    outer loop
      vertex -15.75 14.8956 -19.7372
      vertex -15.75 13.2538 -20.8752
      vertex -15.75 13.6728 -20.6032
    endloop
  endfacet
  facet normal 1 0 0
    outer loop
      vertex -15.75 14.8956 -19.7372
      vertex -15.75 12.8293 -21.1387
      vertex -15.75 13.2538 -20.8752
    endloop
  endfacet
  facet normal 1 0 0
    outer loop
      vertex -15.75 14.8956 -19.7372
      vertex -15.75 12.3997 -21.3936
      vertex -15.75 12.8293 -21.1387
    endloop
  endfacet
  facet normal 1 0 0
    outer loop
      vertex -15.75 14.8956 -19.7372
      vertex -15.75 11.965 -21.6397
      vertex -15.75 12.3997 -21.3936
    endloop
  endfacet
  facet normal 1 0 0
    outer loop
      vertex -15.75 14.8956 -19.7372
      vertex -15.75 11.5253 -21.877
      vertex -15.75 11.965 -21.6397
    endloop
  endfacet
  facet normal 1 0 0
    outer loop
      vertex -15.75 14.8956 -19.7372
      vertex -15.75 11.081 -22.1054
      vertex -15.75 11.5253 -21.877
    endloop
  endfacet
  facet normal 1 0 0
    outer loop
      vertex -15.75 14.8956 -19.7372
      vertex -15.75 10.6322 -22.3247
      vertex -15.75 11.081 -22.1054
    endloop
  endfacet
  facet normal 1 0 0
    outer loop
      vertex -15.75 14.8956 -19.7372
      vertex -15.75 10.179 -22.535
      vertex -15.75 10.6322 -22.3247
    endloop
  endfacet
  facet normal 1 0 0
    outer loop
      vertex -15.75 14.8956 -19.7372
      vertex -15.75 9.72172 -22.736
      vertex -15.75 10.179 -22.535
    endloop
  endfacet
  facet normal 1 0 0
    outer loop
      vertex -15.75 14.8956 -19.7372
      vertex -15.75 9.26043 -22.9278
      vertex -15.75 9.72172 -22.736
    endloop
  endfacet
  facet normal 1 0 0
    outer loop
      vertex -15.75 14.8956 -19.7372
      vertex -15.75 8.79535 -23.1102
      vertex -15.75 9.26043 -22.9278
    endloop
  endfacet
  facet normal 1 0 0
    outer loop
      vertex -15.75 14.8956 -19.7372
      vertex -15.75 8.32669 -23.2831
      vertex -15.75 8.79535 -23.1102
    endloop
  endfacet
  facet normal 1 0 0
    outer loop
      vertex -15.75 14.8956 -19.7372
      vertex -15.75 7.85463 -23.4466
      vertex -15.75 8.32669 -23.2831
    endloop
  endfacet
  facet normal 1 0 0
    outer loop
      vertex -15.75 14.8956 -19.7372
      vertex -15.75 7.37937 -23.6005
      vertex -15.75 7.85463 -23.4466
    endloop
  endfacet
  facet normal 1 0 0
    outer loop
      vertex -15.75 14.8956 -19.7372
      vertex -15.75 6.90109 -23.7447
      vertex -15.75 7.37937 -23.6005
    endloop
  endfacet
  facet normal 1 0 0
    outer loop
      vertex -15.75 14.8956 -19.7372
      vertex -15.75 6.41999 -23.8793
      vertex -15.75 6.90109 -23.7447
    endloop
  endfacet
  facet normal 1 0 0
    outer loop
      vertex -15.75 14.8956 -19.7372
      vertex -15.75 5.93628 -24.0041
      vertex -15.75 6.41999 -23.8793
    endloop
  endfacet
  facet normal 1 0 0
    outer loop
      vertex -15.75 14.8956 -19.7372
      vertex -15.75 5.45014 -24.1192
      vertex -15.75 5.93628 -24.0041
    endloop
  endfacet
  facet normal 1 0 0
    outer loop
      vertex -15.75 14.8956 -19.7372
      vertex -15.75 4.96178 -24.2243
      vertex -15.75 5.45014 -24.1192
    endloop
  endfacet
  facet normal 1 0 0
    outer loop
      vertex -15.75 14.8956 -19.7372
      vertex -15.75 4.47139 -24.3196
      vertex -15.75 4.96178 -24.2243
    endloop
  endfacet
  facet normal 1 0 0
    outer loop
      vertex -15.75 14.8956 -19.7372
      vertex -15.75 3.97918 -24.405
      vertex -15.75 4.47139 -24.3196
    endloop
  endfacet
  facet normal 1 0 0
    outer loop
      vertex -15.75 14.8956 -19.7372
      vertex -15.75 3.48534 -24.4804
      vertex -15.75 3.97918 -24.405
    endloop
  endfacet
  facet normal 1 0 0
    outer loop
      vertex -15.75 14.8956 -19.7372
      vertex -15.75 2.99008 -24.5458
      vertex -15.75 3.48534 -24.4804
    endloop
  endfacet
  facet normal 1 0 0
    outer loop
      vertex -15.75 14.8956 -19.7372
      vertex -15.75 2.4936 -24.6012
      vertex -15.75 2.99008 -24.5458
    endloop
  endfacet
  facet normal 1 0 0
    outer loop
      vertex -15.75 14.8956 -19.7372
      vertex -15.75 1.9961 -24.6466
      vertex -15.75 2.4936 -24.6012
    endloop
  endfacet
  facet normal 1 0 0
    outer loop
      vertex -15.75 14.8956 -19.7372
      vertex -15.75 1.49779 -24.6819
      vertex -15.75 1.9961 -24.6466
    endloop
  endfacet
  facet normal 1 0 0
    outer loop
      vertex -15.75 14.8956 -19.7372
      vertex -15.75 0.998867 -24.7071
      vertex -15.75 1.49779 -24.6819
    endloop
  endfacet
  facet normal 1 0 0
    outer loop
      vertex -15.75 14.8956 -19.7372
      vertex -15.75 0.499535 -24.7222
      vertex -15.75 0.998867 -24.7071
    endloop
  endfacet
  facet normal 1 0 0
    outer loop
      vertex -15.75 14.8956 -19.7372
      vertex -15.75 0 -24.7273
      vertex -15.75 0.499535 -24.7222
    endloop
  endfacet
  facet normal 1 0 0
    outer loop
      vertex -15.75 14.8956 -19.7372
      vertex -15.75 -0.499535 -24.7222
      vertex -15.75 0 -24.7273
    endloop
  endfacet
  facet normal 1 0 0
    outer loop
      vertex -15.75 14.8956 -19.7372
      vertex -15.75 -0.998867 -24.7071
      vertex -15.75 -0.499535 -24.7222
    endloop
  endfacet
  facet normal 1 0 0
    outer loop
      vertex -15.75 14.8956 -19.7372
      vertex -15.75 -1.49779 -24.6819
      vertex -15.75 -0.998867 -24.7071
    endloop
  endfacet
  facet normal 1 0 0
    outer loop
      vertex -15.75 14.8956 -19.7372
      vertex -15.75 -1.9961 -24.6466
      vertex -15.75 -1.49779 -24.6819
    endloop
  endfacet
  facet normal 1 0 0
    outer loop
      vertex -15.75 14.8956 -19.7372
      vertex -15.75 -2.4936 -24.6012
      vertex -15.75 -1.9961 -24.6466
    endloop
  endfacet
  facet normal 1 0 0
    outer loop
      vertex -15.75 14.8956 -19.7372
      vertex -15.75 -2.99008 -24.5458
      vertex -15.75 -2.4936 -24.6012
    endloop
  endfacet
  facet normal 1 0 0
    outer loop
      vertex -15.75 14.8956 -19.7372
      vertex -15.75 -3.48534 -24.4804
      vertex -15.75 -2.99008 -24.5458
    endloop
  endfacet
  facet normal 1 0 0
    outer loop
      vertex -15.75 14.8956 -19.7372
      vertex -15.75 -3.97918 -24.405
      vertex -15.75 -3.48534 -24.4804
    endloop
  endfacet
  facet normal 1 0 0
    outer loop
      vertex -15.75 14.8956 -19.7372
      vertex -15.75 -4.47139 -24.3196
      vertex -15.75 -3.97918 -24.405
    endloop
  endfacet
  facet normal 1 0 0
    outer loop
      vertex -15.75 14.8956 -19.7372
      vertex -15.75 -4.96178 -24.2243
      vertex -15.75 -4.47139 -24.3196
    endloop
  endfacet
  facet normal 1 0 0
    outer loop
      vertex -15.75 14.8956 -19.7372
      vertex -15.75 -5.45014 -24.1192
      vertex -15.75 -4.96178 -24.2243
    endloop
  endfacet
  facet normal 1 0 0
    outer loop
      vertex -15.75 14.8956 -19.7372
      vertex -15.75 -5.93628 -24.0041
      vertex -15.75 -5.45014 -24.1192
    endloop
  endfacet
  facet normal 1 0 0
    outer loop
      vertex -15.75 14.8956 -19.7372
      vertex -15.75 -6.41999 -23.8793
      vertex -15.75 -5.93628 -24.0041
    endloop
  endfacet
  facet normal 1 0 0
    outer loop
      vertex -15.75 14.8956 -19.7372
      vertex -15.75 -6.90109 -23.7447
      vertex -15.75 -6.41999 -23.8793
    endloop
  endfacet
  facet normal 1 0 0
    outer loop
      vertex -15.75 14.8956 -19.7372
      vertex -15.75 -7.37937 -23.6005
      vertex -15.75 -6.90109 -23.7447
    endloop
  endfacet
  facet normal 1 0 0
    outer loop
      vertex -15.75 14.8956 -19.7372
      vertex -15.75 -7.85463 -23.4466
      vertex -15.75 -7.37937 -23.6005
    endloop
  endfacet
  facet normal 1 0 0
    outer loop
      vertex -15.75 14.8956 -19.7372
      vertex -15.75 -8.32669 -23.2831
      vertex -15.75 -7.85463 -23.4466
    endloop
  endfacet
  facet normal 1 0 0
    outer loop
      vertex -15.75 14.8956 -19.7372
      vertex -15.75 -8.79535 -23.1102
      vertex -15.75 -8.32669 -23.2831
    endloop
  endfacet
  facet normal 1 0 0
    outer loop
      vertex -15.75 14.8956 -19.7372
      vertex -15.75 -9.26043 -22.9278
      vertex -15.75 -8.79535 -23.1102
    endloop
  endfacet
  facet normal 1 0 0
    outer loop
      vertex -15.75 14.8956 -19.7372
      vertex -15.75 -9.72172 -22.736
      vertex -15.75 -9.26043 -22.9278
    endloop
  endfacet
  facet normal 1 0 0
    outer loop
      vertex -15.75 14.8956 -19.7372
      vertex -15.75 -10.179 -22.535
      vertex -15.75 -9.72172 -22.736
    endloop
  endfacet
  facet normal 1 0 0
    outer loop
      vertex -15.75 14.8956 -19.7372
      vertex -15.75 -10.6322 -22.3247
      vertex -15.75 -10.179 -22.535
    endloop
  endfacet
  facet normal 1 0 0
    outer loop
      vertex -15.75 14.8956 -19.7372
      vertex -15.75 -11.081 -22.1054
      vertex -15.75 -10.6322 -22.3247
    endloop
  endfacet
  facet normal 1 0 0
    outer loop
      vertex -15.75 14.8956 -19.7372
      vertex -15.75 -11.5253 -21.877
      vertex -15.75 -11.081 -22.1054
    endloop
  endfacet
  facet normal 1 0 0
    outer loop
      vertex -15.75 14.8956 -19.7372
      vertex -15.75 -11.965 -21.6397
      vertex -15.75 -11.5253 -21.877
    endloop
  endfacet
  facet normal 1 0 0
    outer loop
      vertex -15.75 14.8956 -19.7372
      vertex -15.75 -12.3997 -21.3936
      vertex -15.75 -11.965 -21.6397
    endloop
  endfacet
  facet normal 1 0 0
    outer loop
      vertex -15.75 14.8956 -19.7372
      vertex -15.75 -12.8293 -21.1387
      vertex -15.75 -12.3997 -21.3936
    endloop
  endfacet
  facet normal 1 0 0
    outer loop
      vertex -15.75 14.8956 -19.7372
      vertex -15.75 -13.2538 -20.8752
      vertex -15.75 -12.8293 -21.1387
    endloop
  endfacet
  facet normal 1 0 0
    outer loop
      vertex -15.75 14.8956 -19.7372
      vertex -15.75 -13.6728 -20.6032
      vertex -15.75 -13.2538 -20.8752
    endloop
  endfacet
  facet normal 1 0 0
    outer loop
      vertex -15.75 14.8956 -19.7372
      vertex -15.75 -14.0862 -20.3228
      vertex -15.75 -13.6728 -20.6032
    endloop
  endfacet
  facet normal 1 0 0
    outer loop
      vertex -15.75 14.8956 -19.7372
      vertex -15.75 -14.4939 -20.0341
      vertex -15.75 -14.0862 -20.3228
    endloop
  endfacet
  facet normal 1 0 -0
    outer loop
      vertex -15.75 -14.4939 -20.0341
      vertex -15.75 14.8956 -19.7372
      vertex -15.75 -14.8956 -19.7372
    endloop
  endfacet
  facet normal 0 0.61043 -0.79207
    outer loop
      vertex -17.85 14.8956 -19.7372
      vertex -15.75 15.2913 -19.4323
      vertex -15.75 14.8956 -19.7372
    endloop
  endfacet
  facet normal 0 0.61043 -0.79207
    outer loop
      vertex -15.75 15.2913 -19.4323
      vertex -17.85 14.8956 -19.7372
      vertex -17.85 15.2913 -19.4323
    endloop
  endfacet
  facet normal -1 0 0
    outer loop
      vertex -17.85 16.8101 -18.1345
      vertex -17.85 18.5532 -16.3468
      vertex -17.85 17.173 -17.7912
    endloop
  endfacet
  facet normal -1 0 0
    outer loop
      vertex -17.85 17.173 -17.7912
      vertex -17.85 18.5532 -16.3468
      vertex -17.85 17.5289 -17.4406
    endloop
  endfacet
  facet normal 0 0.672379 -0.740207
    outer loop
      vertex -17.85 16.4403 -18.4704
      vertex -15.75 16.8101 -18.1345
      vertex -15.75 16.4403 -18.4704
    endloop
  endfacet
  facet normal 0 0.672379 -0.740207
    outer loop
      vertex -15.75 16.8101 -18.1345
      vertex -17.85 16.4403 -18.4704
      vertex -17.85 16.8101 -18.1345
    endloop
  endfacet
  facet normal 0 0.577935 -0.816083
    outer loop
      vertex -17.85 14.0862 -20.3228
      vertex -15.75 14.4939 -20.0341
      vertex -15.75 14.0862 -20.3228
    endloop
  endfacet
  facet normal 0 0.577935 -0.816083
    outer loop
      vertex -15.75 14.4939 -20.0341
      vertex -17.85 14.0862 -20.3228
      vertex -17.85 14.4939 -20.0341
    endloop
  endfacet
  facet normal -1 0 0
    outer loop
      vertex -17.85 15.2913 -19.4323
      vertex -17.85 18.5532 -16.3468
      vertex -17.85 15.6808 -19.1194
    endloop
  endfacet
  facet normal -1 0 0
    outer loop
      vertex -17.85 15.6808 -19.1194
      vertex -17.85 18.5532 -16.3468
      vertex -17.85 16.0638 -18.7987
    endloop
  endfacet
  facet normal 0 -0.687194 -0.726474
    outer loop
      vertex -17.85 -17.173 -17.7912
      vertex -15.75 -16.8101 -18.1345
      vertex -15.75 -17.173 -17.7912
    endloop
  endfacet
  facet normal -0 -0.687194 -0.726474
    outer loop
      vertex -15.75 -16.8101 -18.1345
      vertex -17.85 -17.173 -17.7912
      vertex -17.85 -16.8101 -18.1345
    endloop
  endfacet
  facet normal 1 0 0
    outer loop
      vertex -15.75 -14.8956 -19.7372
      vertex -15.75 -17.173 -17.7912
      vertex -15.75 -16.8101 -18.1345
    endloop
  endfacet
  facet normal 1 0 0
    outer loop
      vertex -15.75 -14.8956 -19.7372
      vertex -15.75 -19.1983 -15.584
      vertex -15.75 -18.8796 -15.9687
    endloop
  endfacet
  facet normal 0 -0.769998 -0.638046
    outer loop
      vertex -17.85 -18.8796 -15.9687
      vertex -15.75 -19.1983 -15.584
      vertex -17.85 -19.1983 -15.584
    endloop
  endfacet
  facet normal 0 -0.769998 -0.638046
    outer loop
      vertex -15.75 -19.1983 -15.584
      vertex -17.85 -18.8796 -15.9687
      vertex -15.75 -18.8796 -15.9687
    endloop
  endfacet
  facet normal -1 0 0
    outer loop
      vertex -17.85 -18.2191 -16.7183
      vertex -17.85 -18.5532 -16.3468
      vertex -17.85 -17.8777 -17.0829
    endloop
  endfacet
  facet normal 0 -0.872681 -0.48829
    outer loop
      vertex -17.85 -21.456 -12.2915
      vertex -15.75 -21.619 -12
      vertex -17.85 -21.619 -12
    endloop
  endfacet
  facet normal 0 -0.872681 -0.48829
    outer loop
      vertex -15.75 -21.619 -12
      vertex -17.85 -21.456 -12.2915
      vertex -15.75 -21.456 -12.2915
    endloop
  endfacet
  facet normal 0 -0.830416 -0.557145
    outer loop
      vertex -17.85 -20.3937 -13.9834
      vertex -15.75 -20.672 -13.5685
      vertex -17.85 -20.672 -13.5685
    endloop
  endfacet
  facet normal 0 -0.830416 -0.557145
    outer loop
      vertex -15.75 -20.672 -13.5685
      vertex -17.85 -20.3937 -13.9834
      vertex -15.75 -20.3937 -13.9834
    endloop
  endfacet
  facet normal 1 0 0
    outer loop
      vertex -15.75 -14.8956 -19.7372
      vertex -15.75 -20.672 -13.5685
      vertex -15.75 -20.3937 -13.9834
    endloop
  endfacet
  facet normal 0 -0.070653 -0.997501
    outer loop
      vertex -17.85 -1.9961 -24.6466
      vertex -15.75 -1.49779 -24.6819
      vertex -15.75 -1.9961 -24.6466
    endloop
  endfacet
  facet normal -0 -0.070653 -0.997501
    outer loop
      vertex -15.75 -1.49779 -24.6819
      vertex -17.85 -1.9961 -24.6466
      vertex -17.85 -1.49779 -24.6819
    endloop
  endfacet
  facet normal 0 -0.150947 -0.988542
    outer loop
      vertex -17.85 -3.97918 -24.405
      vertex -15.75 -3.48534 -24.4804
      vertex -15.75 -3.97918 -24.405
    endloop
  endfacet
  facet normal -0 -0.150947 -0.988542
    outer loop
      vertex -15.75 -3.48534 -24.4804
      vertex -17.85 -3.97918 -24.405
      vertex -17.85 -3.48534 -24.4804
    endloop
  endfacet
  facet normal -1 0 0
    outer loop
      vertex -17.85 -9.72172 -22.736
      vertex -17.85 -18.5532 -16.3468
      vertex -17.85 -9.26043 -22.9278
    endloop
  endfacet
  facet normal -1 0 0
    outer loop
      vertex -17.85 -11.081 -22.1054
      vertex -17.85 -18.5532 -16.3468
      vertex -17.85 -10.6322 -22.3247
    endloop
  endfacet
  facet normal -1 0 0
    outer loop
      vertex -17.85 -12.8293 -21.1387
      vertex -17.85 -18.5532 -16.3468
      vertex -17.85 -12.3997 -21.3936
    endloop
  endfacet
  facet normal 0 -0.439076 -0.89845
    outer loop
      vertex -17.85 -11.081 -22.1054
      vertex -15.75 -10.6322 -22.3247
      vertex -15.75 -11.081 -22.1054
    endloop
  endfacet
  facet normal -0 -0.439076 -0.89845
    outer loop
      vertex -15.75 -10.6322 -22.3247
      vertex -17.85 -11.081 -22.1054
      vertex -17.85 -10.6322 -22.3247
    endloop
  endfacet
  facet normal 0 -0.672379 -0.740207
    outer loop
      vertex -17.85 -16.8101 -18.1345
      vertex -15.75 -16.4403 -18.4704
      vertex -15.75 -16.8101 -18.1345
    endloop
  endfacet
  facet normal -0 -0.672379 -0.740207
    outer loop
      vertex -15.75 -16.4403 -18.4704
      vertex -17.85 -16.8101 -18.1345
      vertex -17.85 -16.4403 -18.4704
    endloop
  endfacet
  facet normal -1 0 0
    outer loop
      vertex -17.85 -16.0638 -18.7987
      vertex -17.85 -18.5532 -16.3468
      vertex -17.85 -15.6808 -19.1194
    endloop
  endfacet
  facet normal 0 -0.641926 -0.766767
    outer loop
      vertex -17.85 -16.0638 -18.7987
      vertex -15.75 -15.6808 -19.1194
      vertex -15.75 -16.0638 -18.7987
    endloop
  endfacet
  facet normal -0 -0.641926 -0.766767
    outer loop
      vertex -15.75 -15.6808 -19.1194
      vertex -17.85 -16.0638 -18.7987
      vertex -17.85 -15.6808 -19.1194
    endloop
  endfacet
  facet normal -1 0 0
    outer loop
      vertex -17.85 -14.8956 -19.7372
      vertex -17.85 -18.5532 -16.3468
      vertex -17.85 -14.4939 -20.0341
    endloop
  endfacet
  facet normal 0 -0.594302 -0.804242
    outer loop
      vertex -17.85 -14.8956 -19.7372
      vertex -15.75 -14.4939 -20.0341
      vertex -15.75 -14.8956 -19.7372
    endloop
  endfacet
  facet normal -0 -0.594302 -0.804242
    outer loop
      vertex -15.75 -14.4939 -20.0341
      vertex -17.85 -14.8956 -19.7372
      vertex -17.85 -14.4939 -20.0341
    endloop
  endfacet
  facet normal -1 0 0
    outer loop
      vertex -17.85 -14.0862 -20.3228
      vertex -17.85 -18.5532 -16.3468
      vertex -17.85 -13.6728 -20.6032
    endloop
  endfacet
  facet normal 0 -0.56133 -0.827592
    outer loop
      vertex -17.85 -14.0862 -20.3228
      vertex -15.75 -13.6728 -20.6032
      vertex -15.75 -14.0862 -20.3228
    endloop
  endfacet
  facet normal -0 -0.56133 -0.827592
    outer loop
      vertex -15.75 -13.6728 -20.6032
      vertex -17.85 -14.0862 -20.3228
      vertex -17.85 -13.6728 -20.6032
    endloop
  endfacet
  facet normal 0 -0.577935 -0.816083
    outer loop
      vertex -17.85 -14.4939 -20.0341
      vertex -15.75 -14.0862 -20.3228
      vertex -15.75 -14.4939 -20.0341
    endloop
  endfacet
  facet normal -0 -0.577935 -0.816083
    outer loop
      vertex -15.75 -14.0862 -20.3228
      vertex -17.85 -14.4939 -20.0341
      vertex -17.85 -14.0862 -20.3228
    endloop
  endfacet
  facet normal -1 0 0
    outer loop
      vertex -17.85 19.5093 -15.193
      vertex -17.85 20.4192 -12
      vertex -17.85 20.561 -12
    endloop
  endfacet
  facet normal -1 0 0
    outer loop
      vertex -17.85 20.4192 -12
      vertex -17.85 19.5093 -15.193
      vertex -17.85 19.1983 -15.584
    endloop
  endfacet
  facet normal -1 0 0
    outer loop
      vertex -17.85 18.8796 -15.9687
      vertex -17.85 20.1325 -12
      vertex -17.85 20.2763 -12
    endloop
  endfacet
  facet normal -1 0 0
    outer loop
      vertex -17.85 20.1325 -12
      vertex -17.85 18.8796 -15.9687
      vertex -17.85 18.5532 -16.3468
    endloop
  endfacet
  facet normal -1 0 0
    outer loop
      vertex -17.85 7.85463 -23.4466
      vertex -17.85 18.5532 -16.3468
      vertex -17.85 8.32669 -23.2831
    endloop
  endfacet
  facet normal -1 0 0
    outer loop
      vertex -17.85 8.32669 -23.2831
      vertex -17.85 18.5532 -16.3468
      vertex -17.85 8.79535 -23.1102
    endloop
  endfacet
  facet normal 0 0.346233 -0.938149
    outer loop
      vertex -17.85 8.32669 -23.2831
      vertex -15.75 8.79535 -23.1102
      vertex -15.75 8.32669 -23.2831
    endloop
  endfacet
  facet normal 0 0.346233 -0.938149
    outer loop
      vertex -15.75 8.79535 -23.1102
      vertex -17.85 8.32669 -23.2831
      vertex -17.85 8.79535 -23.1102
    endloop
  endfacet
  facet normal 0 0.249861 -0.968282
    outer loop
      vertex -17.85 5.93628 -24.0041
      vertex -15.75 6.41999 -23.8793
      vertex -15.75 5.93628 -24.0041
    endloop
  endfacet
  facet normal 0 0.249861 -0.968282
    outer loop
      vertex -15.75 6.41999 -23.8793
      vertex -17.85 5.93628 -24.0041
      vertex -17.85 6.41999 -23.8793
    endloop
  endfacet
  facet normal -1 0 0
    outer loop
      vertex -17.85 6.90109 -23.7447
      vertex -17.85 18.5532 -16.3468
      vertex -17.85 7.37937 -23.6005
    endloop
  endfacet
  facet normal 0 0.288774 -0.957397
    outer loop
      vertex -17.85 6.90109 -23.7447
      vertex -15.75 7.37937 -23.6005
      vertex -15.75 6.90109 -23.7447
    endloop
  endfacet
  facet normal 0 0.288774 -0.957397
    outer loop
      vertex -15.75 7.37937 -23.6005
      vertex -17.85 6.90109 -23.7447
      vertex -17.85 7.37937 -23.6005
    endloop
  endfacet
  facet normal -1 0 0
    outer loop
      vertex -17.85 4.47139 -24.3196
      vertex -17.85 18.5532 -16.3468
      vertex -17.85 4.96178 -24.2243
    endloop
  endfacet
  facet normal -1 0 0
    outer loop
      vertex -17.85 4.96178 -24.2243
      vertex -17.85 18.5532 -16.3468
      vertex -17.85 5.45014 -24.1192
    endloop
  endfacet
  facet normal 0 0.150947 -0.988542
    outer loop
      vertex -17.85 3.48534 -24.4804
      vertex -15.75 3.97918 -24.405
      vertex -15.75 3.48534 -24.4804
    endloop
  endfacet
  facet normal 0 0.150947 -0.988542
    outer loop
      vertex -15.75 3.97918 -24.405
      vertex -17.85 3.48534 -24.4804
      vertex -17.85 3.97918 -24.405
    endloop
  endfacet
  facet normal -1 0 0
    outer loop
      vertex -17.85 1.49779 -24.6819
      vertex -17.85 18.5532 -16.3468
      vertex -17.85 1.9961 -24.6466
    endloop
  endfacet
  facet normal 0 0.0303001 -0.999541
    outer loop
      vertex -17.85 0.499535 -24.7222
      vertex -15.75 0.998867 -24.7071
      vertex -15.75 0.499535 -24.7222
    endloop
  endfacet
  facet normal 0 0.0303001 -0.999541
    outer loop
      vertex -15.75 0.998867 -24.7071
      vertex -17.85 0.499535 -24.7222
      vertex -17.85 0.998867 -24.7071
    endloop
  endfacet
  facet normal -1 0 0
    outer loop
      vertex -17.85 1.9961 -24.6466
      vertex -17.85 18.5532 -16.3468
      vertex -17.85 2.4936 -24.6012
    endloop
  endfacet
  facet normal -1 0 0
    outer loop
      vertex -17.85 2.4936 -24.6012
      vertex -17.85 18.5532 -16.3468
      vertex -17.85 2.99008 -24.5458
    endloop
  endfacet
  facet normal 0 -0.383849 -0.923396
    outer loop
      vertex -17.85 -9.72172 -22.736
      vertex -15.75 -9.26043 -22.9278
      vertex -15.75 -9.72172 -22.736
    endloop
  endfacet
  facet normal -0 -0.383849 -0.923396
    outer loop
      vertex -15.75 -9.26043 -22.9278
      vertex -17.85 -9.72172 -22.736
      vertex -17.85 -9.26043 -22.9278
    endloop
  endfacet
  facet normal 0 -0.346233 -0.938149
    outer loop
      vertex -17.85 -8.79535 -23.1102
      vertex -15.75 -8.32669 -23.2831
      vertex -15.75 -8.79535 -23.1102
    endloop
  endfacet
  facet normal -0 -0.346233 -0.938149
    outer loop
      vertex -15.75 -8.32669 -23.2831
      vertex -17.85 -8.79535 -23.1102
      vertex -17.85 -8.32669 -23.2831
    endloop
  endfacet
  facet normal 0 -0.308056 -0.951368
    outer loop
      vertex -17.85 -7.85463 -23.4466
      vertex -15.75 -7.37937 -23.6005
      vertex -15.75 -7.85463 -23.4466
    endloop
  endfacet
  facet normal -0 -0.308056 -0.951368
    outer loop
      vertex -15.75 -7.37937 -23.6005
      vertex -17.85 -7.85463 -23.4466
      vertex -17.85 -7.37937 -23.6005
    endloop
  endfacet
  facet normal -1 0 0
    outer loop
      vertex -17.85 -7.85463 -23.4466
      vertex -17.85 -18.5532 -16.3468
      vertex -17.85 -7.37937 -23.6005
    endloop
  endfacet
  facet normal 0 -0.288774 -0.957397
    outer loop
      vertex -17.85 -7.37937 -23.6005
      vertex -15.75 -6.90109 -23.7447
      vertex -15.75 -7.37937 -23.6005
    endloop
  endfacet
  facet normal -0 -0.288774 -0.957397
    outer loop
      vertex -15.75 -6.90109 -23.7447
      vertex -17.85 -7.37937 -23.6005
      vertex -17.85 -6.90109 -23.7447
    endloop
  endfacet
  facet normal -1 0 0
    outer loop
      vertex -17.85 -8.79535 -23.1102
      vertex -17.85 -18.5532 -16.3468
      vertex -17.85 -8.32669 -23.2831
    endloop
  endfacet
  facet normal -1 0 0
    outer loop
      vertex -17.85 -5.45014 -24.1192
      vertex -17.85 -18.5532 -16.3468
      vertex -17.85 -4.96178 -24.2243
    endloop
  endfacet
  facet normal 1 0 0
    outer loop
      vertex -15.75 -21.534 -12
      vertex -15.75 -21.5428 -12
      vertex -15.75 -21.2033 -12.7224
    endloop
  endfacet
  facet normal 1 0 0
    outer loop
      vertex -15.75 -21.4824 -12
      vertex -15.75 -21.4908 -12
      vertex -15.75 -21.2033 -12.7224
    endloop
  endfacet
  facet normal 1 0 0
    outer loop
      vertex -15.75 -21.4993 -12
      vertex -15.75 -21.5079 -12
      vertex -15.75 -21.2033 -12.7224
    endloop
  endfacet
  facet normal -1 0 0
    outer loop
      vertex -17.85 -20.1325 -12
      vertex -17.85 -18.619 -12
      vertex -17.85 -18.5532 -16.3468
    endloop
  endfacet
  facet normal 1 0 0
    outer loop
      vertex -15.75 14.8956 -19.7372
      vertex -15.75 18.2191 -16.7183
      vertex -15.75 18.5532 -16.3468
    endloop
  endfacet
  facet normal -1 0 0
    outer loop
      vertex -17.85 21.2033 -12.7224
      vertex -17.85 21.2568 -12
      vertex -17.85 21.3936 -12
    endloop
  endfacet
  facet normal -1 0 0
    outer loop
      vertex -17.85 21.2568 -12
      vertex -17.85 21.2033 -12.7224
      vertex -17.85 20.9419 -13.1481
    endloop
  endfacet
  facet normal 1 0 0
    outer loop
      vertex -15.75 21.2033 -12.7224
      vertex -15.75 21.534 -12
      vertex -15.75 21.5252 -12
    endloop
  endfacet
  facet normal 0 0.527441 -0.849591
    outer loop
      vertex -17.85 12.8293 -21.1387
      vertex -15.75 13.2538 -20.8752
      vertex -15.75 12.8293 -21.1387
    endloop
  endfacet
  facet normal 0 0.527441 -0.849591
    outer loop
      vertex -15.75 13.2538 -20.8752
      vertex -17.85 12.8293 -21.1387
      vertex -17.85 13.2538 -20.8752
    endloop
  endfacet
  facet normal 0 0.510172 -0.860072
    outer loop
      vertex -17.85 12.3997 -21.3936
      vertex -15.75 12.8293 -21.1387
      vertex -15.75 12.3997 -21.3936
    endloop
  endfacet
  facet normal 0 0.510172 -0.860072
    outer loop
      vertex -15.75 12.8293 -21.1387
      vertex -17.85 12.3997 -21.3936
      vertex -17.85 12.8293 -21.1387
    endloop
  endfacet
  facet normal 0 0.475012 -0.879979
    outer loop
      vertex -17.85 11.5253 -21.877
      vertex -15.75 11.965 -21.6397
      vertex -15.75 11.5253 -21.877
    endloop
  endfacet
  facet normal 0 0.475012 -0.879979
    outer loop
      vertex -15.75 11.965 -21.6397
      vertex -17.85 11.5253 -21.877
      vertex -17.85 11.965 -21.6397
    endloop
  endfacet
  facet normal -1 0 0
    outer loop
      vertex -17.85 20.672 -13.5685
      vertex -17.85 20.981 -12
      vertex -17.85 21.1193 -12
    endloop
  endfacet
  facet normal -1 0 0
    outer loop
      vertex -17.85 20.981 -12
      vertex -17.85 20.672 -13.5685
      vertex -17.85 20.3937 -13.9834
    endloop
  endfacet
  facet normal 1 0 0
    outer loop
      vertex -15.75 21.2033 -12.7224
      vertex -15.75 21.474 -12
      vertex -15.75 21.4657 -12
    endloop
  endfacet
  facet normal 1 0 0
    outer loop
      vertex -15.75 21.2033 -12.7224
      vertex -15.75 21.6075 -12
      vertex -15.75 21.5979 -12
    endloop
  endfacet
  facet normal 1 -0 0
    outer loop
      vertex -15.75 21.6171 -12
      vertex -15.75 21.456 -12.2915
      vertex -15.75 21.619 -12
    endloop
  endfacet
  facet normal 1 0 -0
    outer loop
      vertex -15.75 21.456 -12.2915
      vertex -15.75 21.6171 -12
      vertex -15.75 21.2033 -12.7224
    endloop
  endfacet
  facet normal 0 0.383849 -0.923396
    outer loop
      vertex -17.85 9.26043 -22.9278
      vertex -15.75 9.72172 -22.736
      vertex -15.75 9.26043 -22.9278
    endloop
  endfacet
  facet normal 0 0.383849 -0.923396
    outer loop
      vertex -15.75 9.72172 -22.736
      vertex -17.85 9.26043 -22.9278
      vertex -17.85 9.72172 -22.736
    endloop
  endfacet
  facet normal -1 0 0
    outer loop
      vertex -17.85 10.179 -22.535
      vertex -17.85 18.5532 -16.3468
      vertex -17.85 10.6322 -22.3247
    endloop
  endfacet
  facet normal 1 0 0
    outer loop
      vertex -15.75 14.8956 -19.7372
      vertex -15.75 19.1983 -15.584
      vertex -15.75 19.5093 -15.193
    endloop
  endfacet
  facet normal 1 0 0
    outer loop
      vertex -15.75 14.8956 -19.7372
      vertex -15.75 18.8796 -15.9687
      vertex -15.75 19.1983 -15.584
    endloop
  endfacet
  facet normal 0 0.807231 -0.590236
    outer loop
      vertex -15.75 19.8122 -14.7958
      vertex -17.85 20.1071 -14.3925
      vertex -15.75 20.1071 -14.3925
    endloop
  endfacet
  facet normal 0 0.807231 -0.590236
    outer loop
      vertex -17.85 20.1071 -14.3925
      vertex -15.75 19.8122 -14.7958
      vertex -17.85 19.8122 -14.7958
    endloop
  endfacet
  facet normal 0 0.830416 -0.557145
    outer loop
      vertex -15.75 20.3937 -13.9834
      vertex -17.85 20.672 -13.5685
      vertex -15.75 20.672 -13.5685
    endloop
  endfacet
  facet normal 0 0.830416 -0.557145
    outer loop
      vertex -17.85 20.672 -13.5685
      vertex -15.75 20.3937 -13.9834
      vertex -17.85 20.3937 -13.9834
    endloop
  endfacet
  facet normal 1 0 0
    outer loop
      vertex -15.75 14.8956 -19.7372
      vertex -15.75 20.3937 -13.9834
      vertex -15.75 20.672 -13.5685
    endloop
  endfacet
  facet normal -1 0 0
    outer loop
      vertex -17.85 14.4939 -20.0341
      vertex -17.85 18.5532 -16.3468
      vertex -17.85 14.8956 -19.7372
    endloop
  endfacet
  facet normal 0 0.594302 -0.804242
    outer loop
      vertex -17.85 14.4939 -20.0341
      vertex -15.75 14.8956 -19.7372
      vertex -15.75 14.4939 -20.0341
    endloop
  endfacet
  facet normal 0 0.594302 -0.804242
    outer loop
      vertex -15.75 14.8956 -19.7372
      vertex -17.85 14.4939 -20.0341
      vertex -17.85 14.8956 -19.7372
    endloop
  endfacet
  facet normal 1 0 0
    outer loop
      vertex -15.75 -14.8956 -19.7372
      vertex -15.75 -16.0638 -18.7987
      vertex -15.75 -15.6808 -19.1194
    endloop
  endfacet
  facet normal 0 -0.701728 -0.712445
    outer loop
      vertex -17.85 -17.5289 -17.4406
      vertex -15.75 -17.173 -17.7912
      vertex -15.75 -17.5289 -17.4406
    endloop
  endfacet
  facet normal -0 -0.701728 -0.712445
    outer loop
      vertex -15.75 -17.173 -17.7912
      vertex -17.85 -17.5289 -17.4406
      vertex -17.85 -17.173 -17.7912
    endloop
  endfacet
  facet normal 1 0 0
    outer loop
      vertex -15.75 -14.8956 -19.7372
      vertex -15.75 -19.8122 -14.7958
      vertex -15.75 -19.5093 -15.193
    endloop
  endfacet
  facet normal 0 -0.795144 -0.606421
    outer loop
      vertex -17.85 -19.5093 -15.193
      vertex -15.75 -19.8122 -14.7958
      vertex -17.85 -19.8122 -14.7958
    endloop
  endfacet
  facet normal 0 -0.795144 -0.606421
    outer loop
      vertex -15.75 -19.8122 -14.7958
      vertex -17.85 -19.5093 -15.193
      vertex -15.75 -19.5093 -15.193
    endloop
  endfacet
  facet normal 0 -0.743596 -0.668629
    outer loop
      vertex -17.85 -18.2191 -16.7183
      vertex -15.75 -18.5532 -16.3468
      vertex -17.85 -18.5532 -16.3468
    endloop
  endfacet
  facet normal 0 -0.743596 -0.668629
    outer loop
      vertex -15.75 -18.5532 -16.3468
      vertex -17.85 -18.2191 -16.7183
      vertex -15.75 -18.2191 -16.7183
    endloop
  endfacet
  facet normal 1 0 0
    outer loop
      vertex -15.75 -14.8956 -19.7372
      vertex -15.75 -18.5532 -16.3468
      vertex -15.75 -18.2191 -16.7183
    endloop
  endfacet
  facet normal 0 -0.729934 -0.683518
    outer loop
      vertex -17.85 -17.8777 -17.0829
      vertex -15.75 -18.2191 -16.7183
      vertex -17.85 -18.2191 -16.7183
    endloop
  endfacet
  facet normal 0 -0.729934 -0.683518
    outer loop
      vertex -15.75 -18.2191 -16.7183
      vertex -17.85 -17.8777 -17.0829
      vertex -15.75 -17.8777 -17.0829
    endloop
  endfacet
  facet normal 1 0 0
    outer loop
      vertex -15.75 -21.57 -12
      vertex -15.75 -21.5792 -12
      vertex -15.75 -21.2033 -12.7224
    endloop
  endfacet
  facet normal 1 0 0
    outer loop
      vertex -15.75 -21.5608 -12
      vertex -15.75 -21.57 -12
      vertex -15.75 -21.2033 -12.7224
    endloop
  endfacet
  facet normal 1 0 0
    outer loop
      vertex -15.75 -21.5792 -12
      vertex -15.75 -21.5885 -12
      vertex -15.75 -21.2033 -12.7224
    endloop
  endfacet
  facet normal -1 0 0
    outer loop
      vertex -17.85 -20.1071 -14.3925
      vertex -17.85 -20.7019 -12
      vertex -17.85 -19.8122 -14.7958
    endloop
  endfacet
  facet normal -1 -0 -0
    outer loop
      vertex -17.85 -20.7019 -12
      vertex -17.85 -20.1071 -14.3925
      vertex -17.85 -20.8419 -12
    endloop
  endfacet
  facet normal 0 -0.841502 -0.540254
    outer loop
      vertex -17.85 -20.672 -13.5685
      vertex -15.75 -20.9419 -13.1481
      vertex -17.85 -20.9419 -13.1481
    endloop
  endfacet
  facet normal 0 -0.841502 -0.540254
    outer loop
      vertex -15.75 -20.9419 -13.1481
      vertex -17.85 -20.672 -13.5685
      vertex -15.75 -20.672 -13.5685
    endloop
  endfacet
  facet normal 1 0 0
    outer loop
      vertex -15.75 -14.8956 -19.7372
      vertex -15.75 -20.9419 -13.1481
      vertex -15.75 -20.672 -13.5685
    endloop
  endfacet
  facet normal 1 0 0
    outer loop
      vertex -15.75 -21.6171 -12
      vertex -15.75 -21.456 -12.2915
      vertex -15.75 -21.2033 -12.7224
    endloop
  endfacet
  facet normal 1 0 0
    outer loop
      vertex -15.75 -21.456 -12.2915
      vertex -15.75 -21.6171 -12
      vertex -15.75 -21.619 -12
    endloop
  endfacet
  facet normal -1 0 0
    outer loop
      vertex -17.85 -3.48534 -24.4804
      vertex -17.85 -18.5532 -16.3468
      vertex -17.85 -2.99008 -24.5458
    endloop
  endfacet
  facet normal 0 -0.420838 -0.907136
    outer loop
      vertex -17.85 -10.6322 -22.3247
      vertex -15.75 -10.179 -22.535
      vertex -15.75 -10.6322 -22.3247
    endloop
  endfacet
  facet normal -0 -0.420838 -0.907136
    outer loop
      vertex -15.75 -10.179 -22.535
      vertex -17.85 -10.6322 -22.3247
      vertex -17.85 -10.179 -22.535
    endloop
  endfacet
  facet normal -1 0 0
    outer loop
      vertex -17.85 -10.6322 -22.3247
      vertex -17.85 -18.5532 -16.3468
      vertex -17.85 -10.179 -22.535
    endloop
  endfacet
  facet normal -1 0 0
    outer loop
      vertex -17.85 -11.965 -21.6397
      vertex -17.85 -18.5532 -16.3468
      vertex -17.85 -11.5253 -21.877
    endloop
  endfacet
  facet normal 0 -0.527441 -0.849591
    outer loop
      vertex -17.85 -13.2538 -20.8752
      vertex -15.75 -12.8293 -21.1387
      vertex -15.75 -13.2538 -20.8752
    endloop
  endfacet
  facet normal -0 -0.527441 -0.849591
    outer loop
      vertex -15.75 -12.8293 -21.1387
      vertex -17.85 -13.2538 -20.8752
      vertex -17.85 -12.8293 -21.1387
    endloop
  endfacet
  facet normal -1 0 0
    outer loop
      vertex -17.85 -13.2538 -20.8752
      vertex -17.85 -18.5532 -16.3468
      vertex -17.85 -12.8293 -21.1387
    endloop
  endfacet
  facet normal -1 0 0
    outer loop
      vertex -17.85 -14.4939 -20.0341
      vertex -17.85 -18.5532 -16.3468
      vertex -17.85 -14.0862 -20.3228
    endloop
  endfacet
  facet normal -1 0 0
    outer loop
      vertex -17.85 8.79535 -23.1102
      vertex -17.85 18.5532 -16.3468
      vertex -17.85 9.26043 -22.9278
    endloop
  endfacet
  facet normal 0 0.327214 -0.94495
    outer loop
      vertex -17.85 7.85463 -23.4466
      vertex -15.75 8.32669 -23.2831
      vertex -15.75 7.85463 -23.4466
    endloop
  endfacet
  facet normal 0 0.327214 -0.94495
    outer loop
      vertex -15.75 8.32669 -23.2831
      vertex -17.85 7.85463 -23.4466
      vertex -17.85 8.32669 -23.2831
    endloop
  endfacet
  facet normal 0 0.230251 -0.973131
    outer loop
      vertex -17.85 5.45014 -24.1192
      vertex -15.75 5.93628 -24.0041
      vertex -15.75 5.45014 -24.1192
    endloop
  endfacet
  facet normal 0 0.230251 -0.973131
    outer loop
      vertex -15.75 5.93628 -24.0041
      vertex -17.85 5.45014 -24.1192
      vertex -17.85 5.93628 -24.0041
    endloop
  endfacet
  facet normal -1 0 0
    outer loop
      vertex -17.85 3.48534 -24.4804
      vertex -17.85 18.5532 -16.3468
      vertex -17.85 3.97918 -24.405
    endloop
  endfacet
  facet normal 0 0.130944 -0.99139
    outer loop
      vertex -17.85 2.99008 -24.5458
      vertex -15.75 3.48534 -24.4804
      vertex -15.75 2.99008 -24.5458
    endloop
  endfacet
  facet normal 0 0.130944 -0.99139
    outer loop
      vertex -15.75 3.48534 -24.4804
      vertex -17.85 2.99008 -24.5458
      vertex -17.85 3.48534 -24.4804
    endloop
  endfacet
  facet normal 0 0.070653 -0.997501
    outer loop
      vertex -17.85 1.49779 -24.6819
      vertex -15.75 1.9961 -24.6466
      vertex -15.75 1.49779 -24.6819
    endloop
  endfacet
  facet normal 0 0.070653 -0.997501
    outer loop
      vertex -15.75 1.9961 -24.6466
      vertex -17.85 1.49779 -24.6819
      vertex -17.85 1.9961 -24.6466
    endloop
  endfacet
  facet normal 1 0 0
    outer loop
      vertex -15.75 -21.5252 -12
      vertex -15.75 -21.534 -12
      vertex -15.75 -21.2033 -12.7224
    endloop
  endfacet
  facet normal 1 0 0
    outer loop
      vertex -15.75 -21.474 -12
      vertex -15.75 -21.4824 -12
      vertex -15.75 -21.2033 -12.7224
    endloop
  endfacet
  facet normal -1 0 0
    outer loop
      vertex -17.85 -21.2033 -12.7224
      vertex -17.85 -21.2568 -12
      vertex -17.85 -20.9419 -13.1481
    endloop
  endfacet
  facet normal -1 -0 -0
    outer loop
      vertex -17.85 -21.2568 -12
      vertex -17.85 -21.2033 -12.7224
      vertex -17.85 -21.3936 -12
    endloop
  endfacet
  facet normal 0 -0.852244 -0.523145
    outer loop
      vertex -17.85 -20.9419 -13.1481
      vertex -15.75 -21.2033 -12.7224
      vertex -17.85 -21.2033 -12.7224
    endloop
  endfacet
  facet normal 0 -0.852244 -0.523145
    outer loop
      vertex -15.75 -21.2033 -12.7224
      vertex -17.85 -20.9419 -13.1481
      vertex -15.75 -20.9419 -13.1481
    endloop
  endfacet
  facet normal 1 0 0
    outer loop
      vertex -15.75 -21.5079 -12
      vertex -15.75 -21.5165 -12
      vertex -15.75 -21.2033 -12.7224
    endloop
  endfacet
  facet normal -1 0 0
    outer loop
      vertex -17.85 12.8293 -21.1387
      vertex -17.85 18.5532 -16.3468
      vertex -17.85 13.2538 -20.8752
    endloop
  endfacet
  facet normal 0 0.56133 -0.827592
    outer loop
      vertex -17.85 13.6728 -20.6032
      vertex -15.75 14.0862 -20.3228
      vertex -15.75 13.6728 -20.6032
    endloop
  endfacet
  facet normal 0 0.56133 -0.827592
    outer loop
      vertex -15.75 14.0862 -20.3228
      vertex -17.85 13.6728 -20.6032
      vertex -17.85 14.0862 -20.3228
    endloop
  endfacet
  facet normal 0 0.457139 -0.889395
    outer loop
      vertex -17.85 11.081 -22.1054
      vertex -15.75 11.5253 -21.877
      vertex -15.75 11.081 -22.1054
    endloop
  endfacet
  facet normal 0 0.457139 -0.889395
    outer loop
      vertex -15.75 11.5253 -21.877
      vertex -17.85 11.081 -22.1054
      vertex -17.85 11.5253 -21.877
    endloop
  endfacet
  facet normal -1 0 0
    outer loop
      vertex -17.85 11.081 -22.1054
      vertex -17.85 18.5532 -16.3468
      vertex -17.85 11.5253 -21.877
    endloop
  endfacet
  facet normal -1 0 0
    outer loop
      vertex -17.85 11.5253 -21.877
      vertex -17.85 18.5532 -16.3468
      vertex -17.85 11.965 -21.6397
    endloop
  endfacet
  facet normal 1 0 0
    outer loop
      vertex -15.75 21.2033 -12.7224
      vertex -15.75 21.5608 -12
      vertex -15.75 21.5518 -12
    endloop
  endfacet
  facet normal 1 0 0
    outer loop
      vertex -15.75 21.2033 -12.7224
      vertex -15.75 21.5792 -12
      vertex -15.75 21.57 -12
    endloop
  endfacet
  facet normal -1 0 0
    outer loop
      vertex -17.85 9.72172 -22.736
      vertex -17.85 18.5532 -16.3468
      vertex -17.85 10.179 -22.535
    endloop
  endfacet
  facet normal 1 0 0
    outer loop
      vertex -15.75 14.8956 -19.7372
      vertex -15.75 20.9419 -13.1481
      vertex -15.75 21.2033 -12.7224
    endloop
  endfacet
  facet normal 1 0 0
    outer loop
      vertex -15.75 14.8956 -19.7372
      vertex -15.75 20.672 -13.5685
      vertex -15.75 20.9419 -13.1481
    endloop
  endfacet
  facet normal 1 0 0
    outer loop
      vertex -15.75 14.8956 -19.7372
      vertex -15.75 20.1071 -14.3925
      vertex -15.75 20.3937 -13.9834
    endloop
  endfacet
  facet normal 0 -0.657285 -0.753642
    outer loop
      vertex -17.85 -16.4403 -18.4704
      vertex -15.75 -16.0638 -18.7987
      vertex -15.75 -16.4403 -18.4704
    endloop
  endfacet
  facet normal -0 -0.657285 -0.753642
    outer loop
      vertex -15.75 -16.0638 -18.7987
      vertex -17.85 -16.4403 -18.4704
      vertex -17.85 -16.0638 -18.7987
    endloop
  endfacet
  facet normal 1 0 0
    outer loop
      vertex -15.75 -14.8956 -19.7372
      vertex -15.75 -16.4403 -18.4704
      vertex -15.75 -16.0638 -18.7987
    endloop
  endfacet
  facet normal -1 0 0
    outer loop
      vertex -17.85 -16.4403 -18.4704
      vertex -17.85 -18.5532 -16.3468
      vertex -17.85 -16.0638 -18.7987
    endloop
  endfacet
  facet normal 0 -0.626308 -0.779576
    outer loop
      vertex -17.85 -15.6808 -19.1194
      vertex -15.75 -15.2913 -19.4323
      vertex -15.75 -15.6808 -19.1194
    endloop
  endfacet
  facet normal -0 -0.626308 -0.779576
    outer loop
      vertex -15.75 -15.2913 -19.4323
      vertex -17.85 -15.6808 -19.1194
      vertex -17.85 -15.2913 -19.4323
    endloop
  endfacet
  facet normal 1 0 0
    outer loop
      vertex -15.75 -14.8956 -19.7372
      vertex -15.75 -15.6808 -19.1194
      vertex -15.75 -15.2913 -19.4323
    endloop
  endfacet
  facet normal 1 0 0
    outer loop
      vertex -15.75 -14.8956 -19.7372
      vertex -15.75 -17.5289 -17.4406
      vertex -15.75 -17.173 -17.7912
    endloop
  endfacet
  facet normal 0 -0.715981 -0.69812
    outer loop
      vertex -17.85 -17.5289 -17.4406
      vertex -15.75 -17.8777 -17.0829
      vertex -17.85 -17.8777 -17.0829
    endloop
  endfacet
  facet normal 0 -0.715981 -0.69812
    outer loop
      vertex -15.75 -17.8777 -17.0829
      vertex -17.85 -17.5289 -17.4406
      vertex -15.75 -17.5289 -17.4406
    endloop
  endfacet
  facet normal 1 0 0
    outer loop
      vertex -15.75 -14.8956 -19.7372
      vertex -15.75 -17.8777 -17.0829
      vertex -15.75 -17.5289 -17.4406
    endloop
  endfacet
  facet normal -1 0 0
    outer loop
      vertex -17.85 -17.8777 -17.0829
      vertex -17.85 -18.5532 -16.3468
      vertex -17.85 -17.5289 -17.4406
    endloop
  endfacet
  facet normal -1 0 0
    outer loop
      vertex -17.85 -17.5289 -17.4406
      vertex -17.85 -18.5532 -16.3468
      vertex -17.85 -17.173 -17.7912
    endloop
  endfacet
  facet normal 1 0 0
    outer loop
      vertex -15.75 -14.8956 -19.7372
      vertex -15.75 -20.1071 -14.3925
      vertex -15.75 -19.8122 -14.7958
    endloop
  endfacet
  facet normal 1 0 0
    outer loop
      vertex -15.75 -14.8956 -19.7372
      vertex -15.75 -19.5093 -15.193
      vertex -15.75 -19.1983 -15.584
    endloop
  endfacet
  facet normal 1 0 0
    outer loop
      vertex -15.75 -14.8956 -19.7372
      vertex -15.75 -18.8796 -15.9687
      vertex -15.75 -18.5532 -16.3468
    endloop
  endfacet
  facet normal 1 0 0
    outer loop
      vertex -15.75 -21.5885 -12
      vertex -15.75 -21.5979 -12
      vertex -15.75 -21.2033 -12.7224
    endloop
  endfacet
  facet normal -1 0 0
    outer loop
      vertex -17.85 -20.9419 -13.1481
      vertex -17.85 -21.1193 -12
      vertex -17.85 -20.672 -13.5685
    endloop
  endfacet
  facet normal -1 -0 -0
    outer loop
      vertex -17.85 -21.1193 -12
      vertex -17.85 -20.9419 -13.1481
      vertex -17.85 -21.2568 -12
    endloop
  endfacet
  facet normal -1 0 0
    outer loop
      vertex -17.85 -20.672 -13.5685
      vertex -17.85 -20.981 -12
      vertex -17.85 -20.3937 -13.9834
    endloop
  endfacet
  facet normal -1 -0 -0
    outer loop
      vertex -17.85 -20.981 -12
      vertex -17.85 -20.672 -13.5685
      vertex -17.85 -21.1193 -12
    endloop
  endfacet
  facet normal 1 0 0
    outer loop
      vertex -15.75 -21.6075 -12
      vertex -15.75 -21.6171 -12
      vertex -15.75 -21.2033 -12.7224
    endloop
  endfacet
  facet normal 0 -0.862639 -0.50582
    outer loop
      vertex -17.85 -21.2033 -12.7224
      vertex -15.75 -21.456 -12.2915
      vertex -17.85 -21.456 -12.2915
    endloop
  endfacet
  facet normal 0 -0.862639 -0.50582
    outer loop
      vertex -15.75 -21.456 -12.2915
      vertex -17.85 -21.2033 -12.7224
      vertex -15.75 -21.2033 -12.7224
    endloop
  endfacet
  facet normal 0 -0.492692 -0.870204
    outer loop
      vertex -17.85 -12.3997 -21.3936
      vertex -15.75 -11.965 -21.6397
      vertex -15.75 -12.3997 -21.3936
    endloop
  endfacet
  facet normal -0 -0.492692 -0.870204
    outer loop
      vertex -15.75 -11.965 -21.6397
      vertex -17.85 -12.3997 -21.3936
      vertex -17.85 -11.965 -21.6397
    endloop
  endfacet
  facet normal -1 0 0
    outer loop
      vertex -17.85 -12.3997 -21.3936
      vertex -17.85 -18.5532 -16.3468
      vertex -17.85 -11.965 -21.6397
    endloop
  endfacet
  facet normal 0 -0.510172 -0.860072
    outer loop
      vertex -17.85 -12.8293 -21.1387
      vertex -15.75 -12.3997 -21.3936
      vertex -15.75 -12.8293 -21.1387
    endloop
  endfacet
  facet normal -0 -0.510172 -0.860072
    outer loop
      vertex -15.75 -12.3997 -21.3936
      vertex -17.85 -12.8293 -21.1387
      vertex -17.85 -12.3997 -21.3936
    endloop
  endfacet
  facet normal 0 0.269375 -0.963035
    outer loop
      vertex -17.85 6.41999 -23.8793
      vertex -15.75 6.90109 -23.7447
      vertex -15.75 6.41999 -23.8793
    endloop
  endfacet
  facet normal 0 0.269375 -0.963035
    outer loop
      vertex -15.75 6.90109 -23.7447
      vertex -17.85 6.41999 -23.8793
      vertex -17.85 6.90109 -23.7447
    endloop
  endfacet
  facet normal 0 0.210547 -0.977584
    outer loop
      vertex -17.85 4.96178 -24.2243
      vertex -15.75 5.45014 -24.1192
      vertex -15.75 4.96178 -24.2243
    endloop
  endfacet
  facet normal 0 0.210547 -0.977584
    outer loop
      vertex -15.75 5.45014 -24.1192
      vertex -17.85 4.96178 -24.2243
      vertex -17.85 5.45014 -24.1192
    endloop
  endfacet
  facet normal 0 0.0907894 -0.99587
    outer loop
      vertex -17.85 1.9961 -24.6466
      vertex -15.75 2.4936 -24.6012
      vertex -15.75 1.9961 -24.6466
    endloop
  endfacet
  facet normal 0 0.0907894 -0.99587
    outer loop
      vertex -15.75 2.4936 -24.6012
      vertex -17.85 1.9961 -24.6466
      vertex -17.85 2.4936 -24.6012
    endloop
  endfacet
  facet normal 1 0 0
    outer loop
      vertex -15.75 21.2033 -12.7224
      vertex -15.75 21.5885 -12
      vertex -15.75 21.5792 -12
    endloop
  endfacet
  facet normal 1 0 0
    outer loop
      vertex -15.75 21.2033 -12.7224
      vertex -15.75 21.5979 -12
      vertex -15.75 21.5885 -12
    endloop
  endfacet
  facet normal 1 0 0
    outer loop
      vertex -15.75 21.2033 -12.7224
      vertex -15.75 21.4908 -12
      vertex -15.75 21.4824 -12
    endloop
  endfacet
  facet normal 1 0 0
    outer loop
      vertex -15.75 21.2033 -12.7224
      vertex -15.75 21.4993 -12
      vertex -15.75 21.4908 -12
    endloop
  endfacet
  facet normal 1 0 0
    outer loop
      vertex -15.75 21.2033 -12.7224
      vertex -15.75 21.5518 -12
      vertex -15.75 21.5428 -12
    endloop
  endfacet
  facet normal 0 -0.807231 -0.590236
    outer loop
      vertex -17.85 -19.8122 -14.7958
      vertex -15.75 -20.1071 -14.3925
      vertex -17.85 -20.1071 -14.3925
    endloop
  endfacet
  facet normal 0 -0.807231 -0.590236
    outer loop
      vertex -15.75 -20.1071 -14.3925
      vertex -17.85 -19.8122 -14.7958
      vertex -15.75 -19.8122 -14.7958
    endloop
  endfacet
  facet normal 0 -0.818992 -0.573804
    outer loop
      vertex -17.85 -20.1071 -14.3925
      vertex -15.75 -20.3937 -13.9834
      vertex -17.85 -20.3937 -13.9834
    endloop
  endfacet
  facet normal 0 -0.818992 -0.573804
    outer loop
      vertex -15.75 -20.3937 -13.9834
      vertex -17.85 -20.1071 -14.3925
      vertex -15.75 -20.1071 -14.3925
    endloop
  endfacet
  facet normal -1 0 0
    outer loop
      vertex -17.85 -19.8122 -14.7958
      vertex -17.85 -20.561 -12
      vertex -17.85 -19.5093 -15.193
    endloop
  endfacet
  facet normal -1 -0 -0
    outer loop
      vertex -17.85 -20.561 -12
      vertex -17.85 -19.8122 -14.7958
      vertex -17.85 -20.7019 -12
    endloop
  endfacet
  facet normal -1 0 0
    outer loop
      vertex -17.85 -19.5093 -15.193
      vertex -17.85 -20.4192 -12
      vertex -17.85 -19.1983 -15.584
    endloop
  endfacet
  facet normal -1 -0 -0
    outer loop
      vertex -17.85 -20.4192 -12
      vertex -17.85 -19.5093 -15.193
      vertex -17.85 -20.561 -12
    endloop
  endfacet
  facet normal -1 0 0
    outer loop
      vertex -17.85 -19.1983 -15.584
      vertex -17.85 -20.2763 -12
      vertex -17.85 -18.8796 -15.9687
    endloop
  endfacet
  facet normal -1 -0 -0
    outer loop
      vertex -17.85 -20.2763 -12
      vertex -17.85 -19.1983 -15.584
      vertex -17.85 -20.4192 -12
    endloop
  endfacet
  facet normal -1 0 0
    outer loop
      vertex -17.85 -18.8796 -15.9687
      vertex -17.85 -20.1325 -12
      vertex -17.85 -18.5532 -16.3468
    endloop
  endfacet
  facet normal -1 -0 -0
    outer loop
      vertex -17.85 -20.1325 -12
      vertex -17.85 -18.8796 -15.9687
      vertex -17.85 -20.2763 -12
    endloop
  endfacet
  facet normal -1 0 0
    outer loop
      vertex -17.85 -21.619 -12
      vertex -17.85 -21.5296 -12
      vertex -17.85 -21.456 -12.2915
    endloop
  endfacet
  facet normal -1 0 0
    outer loop
      vertex -17.85 -21.456 -12.2915
      vertex -17.85 -21.3936 -12
      vertex -17.85 -21.2033 -12.7224
    endloop
  endfacet
  facet normal -1 -0 0
    outer loop
      vertex -17.85 -21.3936 -12
      vertex -17.85 -21.456 -12.2915
      vertex -17.85 -21.5296 -12
    endloop
  endfacet
  facet normal 0 -0.475012 -0.879979
    outer loop
      vertex -17.85 -11.965 -21.6397
      vertex -15.75 -11.5253 -21.877
      vertex -15.75 -11.965 -21.6397
    endloop
  endfacet
  facet normal -0 -0.475012 -0.879979
    outer loop
      vertex -15.75 -11.5253 -21.877
      vertex -17.85 -11.965 -21.6397
      vertex -17.85 -11.5253 -21.877
    endloop
  endfacet
  facet normal 0 0.0504861 -0.998725
    outer loop
      vertex -17.85 0.998867 -24.7071
      vertex -15.75 1.49779 -24.6819
      vertex -15.75 0.998867 -24.7071
    endloop
  endfacet
  facet normal 0 0.0504861 -0.998725
    outer loop
      vertex -15.75 1.49779 -24.6819
      vertex -17.85 0.998867 -24.7071
      vertex -17.85 1.49779 -24.6819
    endloop
  endfacet
  facet normal 1 0 0
    outer loop
      vertex -15.75 21.2033 -12.7224
      vertex -15.75 21.5165 -12
      vertex -15.75 21.5079 -12
    endloop
  endfacet
  facet normal 1 0 0
    outer loop
      vertex -15.75 21.2033 -12.7224
      vertex -15.75 21.5252 -12
      vertex -15.75 21.5165 -12
    endloop
  endfacet
  facet normal 1 0 0
    outer loop
      vertex -15.75 21.2033 -12.7224
      vertex -15.75 21.5079 -12
      vertex -15.75 21.4993 -12
    endloop
  endfacet
  facet normal 1 0 0
    outer loop
      vertex -15.75 21.2033 -12.7224
      vertex -15.75 21.57 -12
      vertex -15.75 21.5608 -12
    endloop
  endfacet
  facet normal nan nan nan
    outer loop
      vertex -15.75 21.619 -12
      vertex -15.75 21.6075 -12
      vertex -15.75 21.6171 -12
    endloop
  endfacet
  facet normal -0 0 1
    outer loop
      vertex -17.85 21.619 -12
      vertex -15.75 21.6075 -12
      vertex -15.75 21.619 -12
    endloop
  endfacet
  facet normal 0 0 1
    outer loop
      vertex -15.75 21.6075 -12
      vertex -17.85 21.619 -12
      vertex -15.75 21.5979 -12
    endloop
  endfacet
  facet normal 0 0 1
    outer loop
      vertex -15.75 21.5979 -12
      vertex -17.85 21.619 -12
      vertex -15.75 21.5885 -12
    endloop
  endfacet
  facet normal 0 0 1
    outer loop
      vertex -15.75 21.5885 -12
      vertex -17.85 21.619 -12
      vertex -15.75 21.5792 -12
    endloop
  endfacet
  facet normal 0 0 1
    outer loop
      vertex -15.75 21.5792 -12
      vertex -17.85 21.619 -12
      vertex -15.75 21.57 -12
    endloop
  endfacet
  facet normal 0 0 1
    outer loop
      vertex -15.75 21.57 -12
      vertex -17.85 21.619 -12
      vertex -15.75 21.5608 -12
    endloop
  endfacet
  facet normal 0 0 1
    outer loop
      vertex -17.85 21.5296 -12
      vertex -15.75 21.5608 -12
      vertex -17.85 21.619 -12
    endloop
  endfacet
  facet normal 0 0 1
    outer loop
      vertex -15.75 21.5518 -12
      vertex -17.85 21.5296 -12
      vertex -15.75 21.5428 -12
    endloop
  endfacet
  facet normal 0 0 1
    outer loop
      vertex -15.75 21.5428 -12
      vertex -17.85 21.5296 -12
      vertex -15.75 21.534 -12
    endloop
  endfacet
  facet normal 0 0 1
    outer loop
      vertex -15.75 21.534 -12
      vertex -17.85 21.5296 -12
      vertex -15.75 21.5252 -12
    endloop
  endfacet
  facet normal 0 0 1
    outer loop
      vertex -15.75 21.5252 -12
      vertex -17.85 21.5296 -12
      vertex -15.75 21.5165 -12
    endloop
  endfacet
  facet normal 0 0 1
    outer loop
      vertex -15.75 21.5165 -12
      vertex -17.85 21.5296 -12
      vertex -15.75 21.5079 -12
    endloop
  endfacet
  facet normal 0 0 1
    outer loop
      vertex -15.75 21.5079 -12
      vertex -17.85 21.5296 -12
      vertex -15.75 21.4993 -12
    endloop
  endfacet
  facet normal 0 0 1
    outer loop
      vertex -15.75 21.4993 -12
      vertex -17.85 21.5296 -12
      vertex -15.75 21.4908 -12
    endloop
  endfacet
  facet normal 0 0 1
    outer loop
      vertex -15.75 21.4908 -12
      vertex -17.85 21.5296 -12
      vertex -15.75 21.4824 -12
    endloop
  endfacet
  facet normal 0 0 1
    outer loop
      vertex -15.75 21.4824 -12
      vertex -17.85 21.5296 -12
      vertex -15.75 21.474 -12
    endloop
  endfacet
  facet normal 0 0 1
    outer loop
      vertex -15.75 21.474 -12
      vertex -17.85 21.5296 -12
      vertex -15.75 21.4657 -12
    endloop
  endfacet
  facet normal 0 0 1
    outer loop
      vertex -15.75 21.4657 -12
      vertex -17.85 20.561 -12
      vertex -15.75 19.5381 -12
    endloop
  endfacet
  facet normal 0 0 1
    outer loop
      vertex -15.75 19.5381 -12
      vertex -17.85 18.619 -12
      vertex -15.75 16.5212 -12
    endloop
  endfacet
  facet normal 0 0 1
    outer loop
      vertex -15.75 16.5212 -12
      vertex -17.85 13.4663 -12
      vertex -15.75 -6.0242 -12
    endloop
  endfacet
  facet normal 0 0 1
    outer loop
      vertex -17.85 -18.619 -12
      vertex -15.75 -6.0242 -12
      vertex -17.85 13.4663 -12
    endloop
  endfacet
  facet normal 0 0 1
    outer loop
      vertex -15.75 -6.0242 -12
      vertex -17.85 -18.619 -12
      vertex -15.75 -16.5212 -12
    endloop
  endfacet
  facet normal 0 0 1
    outer loop
      vertex -15.75 -16.5212 -12
      vertex -17.85 -18.619 -12
      vertex -15.75 -19.5381 -12
    endloop
  endfacet
  facet normal 0 0 1
    outer loop
      vertex -17.85 -20.1325 -12
      vertex -15.75 -19.5381 -12
      vertex -17.85 -18.619 -12
    endloop
  endfacet
  facet normal 0 0 1
    outer loop
      vertex -17.85 -20.2763 -12
      vertex -15.75 -19.5381 -12
      vertex -17.85 -20.1325 -12
    endloop
  endfacet
  facet normal 0 0 1
    outer loop
      vertex -17.85 -20.4192 -12
      vertex -15.75 -19.5381 -12
      vertex -17.85 -20.2763 -12
    endloop
  endfacet
  facet normal 0 0 1
    outer loop
      vertex -15.75 -19.5381 -12
      vertex -17.85 -20.4192 -12
      vertex -15.75 -21.4657 -12
    endloop
  endfacet
  facet normal -0 0 1
    outer loop
      vertex -17.85 -20.561 -12
      vertex -15.75 -21.4657 -12
      vertex -17.85 -20.4192 -12
    endloop
  endfacet
  facet normal -0 0 1
    outer loop
      vertex -17.85 -20.7019 -12
      vertex -15.75 -21.4657 -12
      vertex -17.85 -20.561 -12
    endloop
  endfacet
  facet normal -0 0 1
    outer loop
      vertex -17.85 -20.8419 -12
      vertex -15.75 -21.4657 -12
      vertex -17.85 -20.7019 -12
    endloop
  endfacet
  facet normal -0 0 1
    outer loop
      vertex -17.85 -20.981 -12
      vertex -15.75 -21.4657 -12
      vertex -17.85 -20.8419 -12
    endloop
  endfacet
  facet normal -0 0 1
    outer loop
      vertex -17.85 -21.1193 -12
      vertex -15.75 -21.4657 -12
      vertex -17.85 -20.981 -12
    endloop
  endfacet
  facet normal -0 0 1
    outer loop
      vertex -17.85 -21.2568 -12
      vertex -15.75 -21.4657 -12
      vertex -17.85 -21.1193 -12
    endloop
  endfacet
  facet normal -0 0 1
    outer loop
      vertex -17.85 -21.3936 -12
      vertex -15.75 -21.4657 -12
      vertex -17.85 -21.2568 -12
    endloop
  endfacet
  facet normal 0 0 1
    outer loop
      vertex -15.75 -21.4657 -12
      vertex -17.85 -21.3936 -12
      vertex -15.75 -21.474 -12
    endloop
  endfacet
  facet normal 0 0 1
    outer loop
      vertex -17.85 -21.5296 -12
      vertex -15.75 -21.474 -12
      vertex -17.85 -21.3936 -12
    endloop
  endfacet
  facet normal 0 0 1
    outer loop
      vertex -15.75 -21.474 -12
      vertex -17.85 -21.5296 -12
      vertex -15.75 -21.4824 -12
    endloop
  endfacet
  facet normal 0 0 1
    outer loop
      vertex -15.75 -21.4824 -12
      vertex -17.85 -21.5296 -12
      vertex -15.75 -21.4908 -12
    endloop
  endfacet
  facet normal 0 0 1
    outer loop
      vertex -15.75 -21.4908 -12
      vertex -17.85 -21.5296 -12
      vertex -15.75 -21.4993 -12
    endloop
  endfacet
  facet normal 0 0 1
    outer loop
      vertex -15.75 -21.4993 -12
      vertex -17.85 -21.5296 -12
      vertex -15.75 -21.5079 -12
    endloop
  endfacet
  facet normal 0 0 1
    outer loop
      vertex -15.75 21.5608 -12
      vertex -17.85 21.5296 -12
      vertex -15.75 21.5518 -12
    endloop
  endfacet
  facet normal 0 0 1
    outer loop
      vertex -15.75 21.4657 -12
      vertex -17.85 21.5296 -12
      vertex -17.85 21.3936 -12
    endloop
  endfacet
  facet normal 0 0 1
    outer loop
      vertex -15.75 21.4657 -12
      vertex -17.85 21.3936 -12
      vertex -17.85 21.2568 -12
    endloop
  endfacet
  facet normal 0 0 1
    outer loop
      vertex -15.75 21.4657 -12
      vertex -17.85 21.2568 -12
      vertex -17.85 21.1193 -12
    endloop
  endfacet
  facet normal 0 0 1
    outer loop
      vertex -15.75 21.4657 -12
      vertex -17.85 21.1193 -12
      vertex -17.85 20.981 -12
    endloop
  endfacet
  facet normal 0 0 1
    outer loop
      vertex -15.75 21.4657 -12
      vertex -17.85 20.981 -12
      vertex -17.85 20.8419 -12
    endloop
  endfacet
  facet normal 0 0 1
    outer loop
      vertex -15.75 21.4657 -12
      vertex -17.85 20.8419 -12
      vertex -17.85 20.7019 -12
    endloop
  endfacet
  facet normal 0 0 1
    outer loop
      vertex -15.75 21.4657 -12
      vertex -17.85 20.7019 -12
      vertex -17.85 20.561 -12
    endloop
  endfacet
  facet normal 0 0 1
    outer loop
      vertex -15.75 19.5381 -12
      vertex -17.85 20.561 -12
      vertex -17.85 20.4192 -12
    endloop
  endfacet
  facet normal 0 0 1
    outer loop
      vertex -15.75 19.5381 -12
      vertex -17.85 20.4192 -12
      vertex -17.85 20.2763 -12
    endloop
  endfacet
  facet normal 0 0 1
    outer loop
      vertex -15.75 19.5381 -12
      vertex -17.85 20.2763 -12
      vertex -17.85 20.1325 -12
    endloop
  endfacet
  facet normal 0 0 1
    outer loop
      vertex -15.75 19.5381 -12
      vertex -17.85 20.1325 -12
      vertex -17.85 18.619 -12
    endloop
  endfacet
  facet normal 0 0 1
    outer loop
      vertex -15.75 16.5212 -12
      vertex -17.85 18.619 -12
      vertex -17.85 13.4663 -12
    endloop
  endfacet
  facet normal 0 0 1
    outer loop
      vertex -15.75 -21.5079 -12
      vertex -17.85 -21.5296 -12
      vertex -15.75 -21.5165 -12
    endloop
  endfacet
  facet normal 0 0 1
    outer loop
      vertex -15.75 -21.5165 -12
      vertex -17.85 -21.5296 -12
      vertex -15.75 -21.5252 -12
    endloop
  endfacet
  facet normal 0 0 1
    outer loop
      vertex -15.75 -21.5252 -12
      vertex -17.85 -21.5296 -12
      vertex -15.75 -21.534 -12
    endloop
  endfacet
  facet normal 0 0 1
    outer loop
      vertex -15.75 -21.534 -12
      vertex -17.85 -21.5296 -12
      vertex -15.75 -21.5428 -12
    endloop
  endfacet
  facet normal 0 0 1
    outer loop
      vertex -15.75 -21.5428 -12
      vertex -17.85 -21.5296 -12
      vertex -15.75 -21.5518 -12
    endloop
  endfacet
  facet normal 0 0 1
    outer loop
      vertex -15.75 -21.5518 -12
      vertex -17.85 -21.5296 -12
      vertex -15.75 -21.5608 -12
    endloop
  endfacet
  facet normal 0 0 1
    outer loop
      vertex -15.75 -21.5608 -12
      vertex -17.85 -21.5296 -12
      vertex -15.75 -21.57 -12
    endloop
  endfacet
  facet normal 0 0 1
    outer loop
      vertex -15.75 -21.57 -12
      vertex -17.85 -21.5296 -12
      vertex -15.75 -21.5792 -12
    endloop
  endfacet
  facet normal 0 0 1
    outer loop
      vertex -15.75 -21.5792 -12
      vertex -17.85 -21.5296 -12
      vertex -15.75 -21.5885 -12
    endloop
  endfacet
  facet normal 0 0 1
    outer loop
      vertex -17.85 -21.619 -12
      vertex -15.75 -21.5885 -12
      vertex -17.85 -21.5296 -12
    endloop
  endfacet
  facet normal 0 0 1
    outer loop
      vertex -15.75 -21.5885 -12
      vertex -17.85 -21.619 -12
      vertex -15.75 -21.5979 -12
    endloop
  endfacet
  facet normal 0 0 1
    outer loop
      vertex -15.75 -21.5979 -12
      vertex -17.85 -21.619 -12
      vertex -15.75 -21.6075 -12
    endloop
  endfacet
  facet normal 0 0 1
    outer loop
      vertex -15.75 -21.6075 -12
      vertex -17.85 -21.619 -12
      vertex -15.75 -21.6171 -12
    endloop
  endfacet
  facet normal 0 0 1
    outer loop
      vertex -15.75 -21.6171 -12
      vertex -17.85 -21.619 -12
      vertex -15.75 -21.619 -12
    endloop
  endfacet
endsolid OpenSCAD_Model
